<svg version="1.0" xmlns="http://www.w3.org/2000/svg" width="640pt" height="1280pt" viewBox="0 0 640 1280"><g transform="translate(0.000000,1280.000000) scale(0.100000,-0.100000)" fill="#000" stroke="none"><path d="M3188 12788c-8-7-27-34-41-59-27-48-117-131-154-143-13-4-57-32-1e2-63-43-30-83-58-90-60-7-3-13-10-13-16 0-5-15-24-33-42-53-52-113-175-158-325-24-78-60-311-51-325 4-5 7-30 8-56 1-25 14-74 28-110 15-35 31-94 36-131 6-37 21-89 34-115 14-27 35-85 47-131 18-70 21-99 16-185-13-243-103-430-274-573-81-66-123-89-183-99-29-5-63-21-96-46-28-21-65-42-83-45-95-19-151-219-156-554-1-107-15-346-29-530-28-353-51-907-40-975 11-67 31-95 88-121 116-53 247-56 320-8 31 21 57 29 102 32 98 7 99 4 50-120-24-58-102-225-174-370-118-237-134-275-161-388-35-148-46-219-66-445-9-93-27-244-40-335-85-571-168-1247-195-1580-23-297-38-819-24-833 4-4 25 7 47 23 53 39 69 38 101-5 23-30 33-35 70-35 23 0 68 5 99 10 39 8 68 8 94 1 34-10 40-8 63 14 22 21 36 25 86 25 48 0 65-4 79-20 10-11 16-20 13-20-4 0 7-14 22-30 44-47 50-88 75-540 9-146 24-368 35-495 57-648 90-1107 90-1247 0-5-5-8-11-8-19 0-38 64-32 108 7 52-10 93-47 115-16 10-50 42-75 72-36 41-56 56-83 61-21 4-56 15-80 26-52 21-90 23-117 4-11-7-38-19-60-25-22-7-50-17-62-23-35-17-81-90-128-205-54-130-57-175-19-281 25-66 25-74 11-90-24-26-74-139-92-207-14-50-37-295-36-387 0-14 13-53 30-85 31-58 31-61 16-103-21-59-20-65 21-110l36-39-17-79c-8-43-15-115-14-161 2-92 12-73-118-213-35-36-63-72-63-78 0-13 295-11 1360 10 256 6 682 10 948 10 460 0 482 1 482 18 0 23-28 48-102 95-82 52-93 78-82 197 11 135 10 175-6 262-7 43-11 81-7 84 4 4 18-5 31-19 48-51 68-32 88 80 10 63 9 89-20 279-33 219-77 560-162 1259-99 815-205 1660-215 1717-6 37 9 41 150 48 110 5 120 7 123 25 7 45 11 47 41 26 16-12 43-21 60-21 28 0 31 3 31 33 0 47-27 268-56 462-15 94-30 211-34 260-5 50-16 133-24 185-9 52-41 295-71 540-31 245-69 535-85 645-16 110-45 324-65 475-19 151-43 314-52 362-11 58-13 94-7 108 9 19 14 17 119-45 61-35 117-65 125-65 19 0 135 195 188 315 50 113 109 295 161 495 74 285 91 435 93 830 1 285-14 663-33 833-13 114-12 113-121 67-39-17-88-33-108-36l-38-6 4 63c2 35 9 115 16 177 11 108 10 115-10 158-13 26-26 81-32 137-6 50-13 99-15 108-3 8-42 48-86 89-78 71-84 74-138 77-31 2-66 6-79 9-37 8-243 221-279 289-41 79-63 189-63 320 0 141 20 228 90 404 86 210 102 280 103 431 1 72-4 151-12 185-50 225-176 456-297 543-73 53-131 81-165 82-15 0-29 7-33 15-3 9-22 25-41 36-22 14-45 40-60 70-34 65-79 87-117 57zm67-47c3-11 17-36 31-56 31-47 25-56-10-15-31 37-46 32-46-16 0-23 8-43 24-59 23-23 23-24 5-41-10-9-19-23-19-31 0-21-16-15-34 12-9 14-22 25-29 25-9 0-12 10-9 31 4 26 6 29 14 15 28-50 40 32 12 85-8 17-14 32-12 33 24 18 54 36 60 36 3 0 9-9 13-19zm-125-136c17-20 2-36-27-29-19 5-21 10-12 25 12 23 22 24 39 4zm236-6c9-15-11-33-30-26-9 4-13 13-10 22 7 17 30 20 40 4zm49-194c35-73 45-110 65-232 14-84 30-96 30-22 0 80-28 181-76 275-48 95-51 104-29 104 27 0 83-60 145-155 77-120 92-154 99-235 8-85 26-79 25 8 0 83-32 157-128 297-35 52-62 95-60 95 3 0 22-9 42-19 88-45 204-176 267-301 59-116 82-233 52-258-17-14-112 10-181 46-28 14-71 27-96 28-25 2-56 4-70 6-18 2-25-2-28-17-7-36-22-41-22-6 0 30-2 32-32 29-25-2-33-9-39-32-10-36-24-46-66-46-33 0-36 4-45 65-2 14-11 20-28 20-21 0-26-6-34-42-8-40-11-43-42-43-32 0-34 2-34 33 0 73-45 78-70 7-19-54-45-64-55-21-3 16-12 34-18 39-17 13-135-2-174-21-18-10-49-17-69-17-25 0-51-9-76-26-59-41-70-30-51 53 43 190 142 351 270 441l32 23-43-70c-49-80-151-3e2-161-348-4-19-2-33 3-33 11 0 36 56 56 130 23 81 89 192 156 263l58 62-43-130c-24-71-48-154-53-183-8-46-7-53 7-50 11 2 18 19 23 60 15 124 152 387 185 355 2-3-10-58-28-124-33-120-44-260-24-293 13-21 23 19 24 102 1 88 17 158 52 237 24 54 31 62 44 51 23-19 28-71 18-187-5-59-7-133-3-163 5-49 7-53 17-34 8 14 14 80 16 173 3 149 4 153 30 179 19 18 30 23 37 16 17-17 48-182 56-295 5-74 9-97 17-84 14 26 9 202-8 263-40 139-45 158-44 167 0 22 73-75 104-140zm-540-446c0-22-5-35-15-37-12-2-15 6-12 38 5 50 27 49 27-1zm80-19c-3-5-15-10-26-10-10 0-19 5-19 10 0 6 12 10 26 10 14 0 23-4 19-10zm110 0c4-6-7-10-25-10h-31l16-29c25-49-1-45-28 4l-26 45h44c24 0 47-4 50-10zm85-30c10-7 11-10 2-10-22 0-26-30-6-45 18-14 18-14-3-15-37 0-73 18-73 38 0 37 45 55 80 32zm162-30c-2-19-6-37-7-39-2-2-24-6-50-8-50-6-58 5-22 30l22 16-25 21-25 20 55-2 55-3-3-35zm136 18c-2-17-14-27-41-36-47-15-57-10-57 29 0 28 1 29 51 29 47 0 50-2 47-22zm388 1c3-6 0-15-7-20-10-6-8-9 9-9 30 0 28-18-3-26-30-7-96 15-103 35-3 10 2 12 21 7 17-4 27-1 31 9 6 17 42 20 52 4zm-261-9c3-5 1-10-5-10-8 0-10-10-6-27 3-16 3-22 0-15-3 6-12 12-20 12-14 0-20 31-7 43 10 10 31 8 38-3zm-695-37c0-26-3-34-11-26-9 9-3 63 7 63 2 0 4-17 4-37zm48 0c-5-25-28-28-28-4 0 12 6 21 16 21 9 0 14-7 12-17zm592-13c11-7 2-10-33-10-30 0-46 4-42 10 8 13 55 13 75 0zm-540-9c0-5-13-14-29-21-16-6-37-20-47-31-23-25-38-24-22 1 7 11 31 29 53 40 46 23 45 23 45 11zm-379-68c-9-15-10-13-11 13 0 17 3 34 8 38 11 12 14-32 3-51zm434 27c18-12 47-20 73-20 30 0 47-6 59-20 26-30 141-25 129 6-6 16 2 18 136 35 108 14 115 11 146-45 12-22 16-55 16-116-1-112-38-248-109-406-28-61-37-73-63-79-22-4-32-14-37-33-10-40-32-71-68-92-31-19-31-19-64 1-42 26-87 22-91-8-3-22-4-22-40-7-36 15-82 51-82 65 0 12 130 22 144 10 9-7 22-7 44 1 23 9 40 9 68 0 21-6 40-9 42-7 8 7-19 35-34 35-7 0-21 11-30 25-23 35-74 33-144-5-74-40-94-40-86 1 6 29 5 30-26 27-32-3-33-2-75 97-23 55-47 125-53 155-6 30-17 80-24 110-16 67-6 165 21 212 21 36 76 78 102 78 9 0 30-9 46-20zm235-32c0-5-18-8-41-8-24 0-38 4-34 10 7 11 75 9 75-2zm-612-10c-6-18-28-21-28-4 0 9 7 16 16 16 9 0 14-5 12-12zm139-17c11 9 13-2 13-62 0-83-16-85-29-3-5 34-10 44-15 32-7-15-10-15-42 4-43 25-43 31 1 22 26-4 35-3 35 7 0 10 3 10 12 1 8-8 15-9 25-1zm872-38c-1-16-5-39-9-53-6-20-8-14-9 28-1 28 3 52 9 52 6 0 10-12 9-27zm-959-55c0-81 8-93 55-84 32 6 36 5 33-11-4-24-86-65-113-57-29 9-31 13-13 30 15 15 14 21-8 68-29 62-29 71-4 96 37 37 50 26 50-42zm1064 36c22-8 20-47-4-94-11-22-20-47-20-56 0-13-6-15-32-10-33 7-58 23-58 38 0 5 6 8 13 7 46-6 55 1 55 40 1 35 16 81 27 81 2 0 10-3 19-6zm-1004-38c0-8-7-16-15-20-10-4-15 1-15 14 0 11 7 20 15 20 8 0 15-6 15-14zm901-126c18-15 20-19 8-20-9 0-24 9-34 20-23 26-4 26 26 0zm-847-46c12-31 7-56-10-50-12 5-15 2-10-10 3-8 6-19 6-24 0-5 9-12 20-15 30-10 24-32-10-37-16-3-30-2-30 1-1 3-5 26-9 50-10 49 3 101 24 101 7 0 16-7 19-16zm922-26c-3-13-6-30-6-37 0-11-3-12-11-4-12 12-2 63 13 63 6 0 8-10 4-22zm-878-149c2-20-2-28-20-34-21-7-21-8 10-12 35-5 45-23 11-23-11 0-17-4-14-10 4-6 15-8 25-5 15 5 23-4 39-41 23-51 26-68 12-59-5 3-12 1-16-5-12-19-21-10-58 59-37 69-46 105-27 116 18 11 10 26-10 20-22-7-28 10-7 19 28 12 52 1 55-25zm-117-46c12-21 24-44 25-51 1-8 9-21 17-30 8-10 13-22 10-28-2-6 3-17 12-24 8-7 15-16 15-21 0-14 49-82 70-96 11-8 20-23 20-33 0-13 12-25 36-35 31-13 36-19 32-40-3-14-1-25 4-25 5 0 12-10 17-22l8-22 12 22c16 30 35 28 27-3-7-27 8-34 21-11 6 11 25 13 88 8 74-7 80-9 83-31 2-13-2-28-8-35-9-8-11-6-8 11 4 29-15 31-22 2-3-12-12-25-19-27-11-4-13 3-8 27 7 34-8 43-18 11-3-11-10-20-15-20-4 0-6 9-3 20 7 26-5 25-35-2l-24-23 6 23c7 20 5 21-19 12-46-18-131 36-110 70 4 6-1 13-9 16-9 3-16 12-16 20 0 8-6 11-15 8-15-6-54 31-55 52 0 6-9 19-21 30-26 23-53 75-70 134-7 25-21 57-30 71-18 26-35 79-26 79 3 0 15-17 28-37zm932-2c-3-10 0-22 6-25 19-12 12-26-14-26-14 0-25 6-25 13 0 28 13 57 25 57 8 0 11-8 8-19zm-95-14c2-11-3-17-15-17-15 0-16-2-3-10 12-8 12-10-3-16-25-9-30-1-22 36 7 34 37 39 43 7zm73-138c-7-23-18-39-27-39-11 0-13 6-9 20 7 22-5 26-23 8-15-15-15-6 0 27 8 19 16 24 31 19 16-5 18-3 12 17-7 22-7 22 10 5 15-15 16-22 6-57zm-131 43c0-5-9-17-21-28-13-12-19-27-16-42 4-19 1-23-14-19-11 3-19 1-19-4 0-5-9-9-20-9-18 0-16 7 21 55 37 49 69 71 69 47zm-564-56c3-8 1-24-6-35-6-12-7-21-3-21 13 1 39 24 46 40 3 8 5-5 5-30 0-25-2-39-5-32-7 18-23 15-23-5-1-14-8-10-31 16l-31 33 23 16c21 15 22 16 3 23-17 7-17 8-1 8 10 1 20-5 23-13zm634-36c0-12-28-25-36-17-9 9 6 27 22 27 8 0 14-5 14-10zm-740-146c41-53 94-110 117-127 23-16 40-34 37-38-3-5-2-14 2-21 5-7 11-5 21 7 12 18 13 18 13-3 0-24 44-52 58-37 4 4 1 10-5 12-20 7-15 20 8 26 31 8 46-1 58-34 10-29 10-29-30-29-46 0-149 32-199 63-50 31-115 92-156 148-34 46-34 49-22 88 7 23 15 41 18 41 3 0 39-44 80-96zm187 66c-7-33 8-41 18-10 9 28 28 13 21-16-8-30 7-31 27-1l16 22v-27c1-25 21-42 21-18 0 6 5 10 10 10 6 0 10-11 10-25 0-32-23-33-91-4-47 20-49 23-49 60 0 22 5 39 11 39 7 0 9-11 6-30zm399-87c15-20 18-53 6-53-5 0-14 10-20 23-11 22-11 22-11-4-1-36-13-44-27-17l-13 23-9-25-9-24-12 21c-16 32-14 38 22 56 42 21 57 21 73 0zm154-24c13-24 8-34-15-26-16 7-21 47-5 47 5 0 14-9 20-21zm-270-44c0-20-6-35-15-39-18-6-45 2-45 15 0 5 7 9 15 9 9 0 15 9 15 23 0 13 3 27 6 30 13 13 24-5 24-38zm360-39c0-16-3-17-12-8-19 19-31 14-26-12 4-18-2-30-23-45-36-27-42-26-33 2 7 22 6 22-15 3-11-11-21-27-21-36 0-9-9-25-21-36-20-18-22-18-34-1-17 24-25 21-25-8 0-14-4-25-10-25-5 0-10 7-10 15 0 8-4 15-10 15-5 0-10-11-10-25 0-16-6-25-16-25-10 0-14 6-10 15 3 9 0 15-9 15-8 0-15-9-15-20 0-17-7-20-39-20-22 0-44-6-51-15-8-10-31-15-65-15-50 0-53 1-48 23 4 20 3 21-10 5-17-22-28-23-21-4 3 8 1 17-5 21-6 3-11 1-11-4 0-6-4-11-10-11-5 0-10 9-10 20 0 18 7 20 77 20 93 0 230 27 258 50 37 31 45 32 66 8l20-23-5 30c-4 27 2 36 62 87 60 52 68 56 80 41 6-9 12-26 12-37zm-919 16c-17-31-13-36 14-18 19 13 25 13 25 3 0-7-5-18-12-25-17-17-2-27 17-12 14 12 15 10 10-13-6-23-4-27 16-27 17 0 20-3 12-11-21-21-92 35-114 91-4 9 2 19 15 26 27 14 30 11 17-14zm511-44c-7-7-12-8-12-2 0 14 12 26 19 19 2-3-1-11-7-17zm17-32c9-11 7-15-9-19-15-4-20 0-20 14 0 22 13 25 29 5zm-79-36c5 0 10 9 10 20 0 11 5 20 10 20 6 0 10-6 10-14 0-8 3-21 6-30 5-12-1-16-24-16-30 0-43 15-41 48 0 12 3 10 9-5 5-13 14-23 20-23zm493 8c-4-7-6-21-5-30 2-10-3-18-10-18-9 0-13 10-12 28 3 34 1 32 20 32 10 0 12-4 7-12zm-913-47c7-15 6-23-6-35-20-20-21-20-52 5l-27 21 33-7c32-7 33-6 23 14-10 17-9 21 3 21 9 0 20-9 26-19zm870 12c-1-23-29-42-58-40-18 1-32 3-32 5 0 1 15 11 33 22 33 20 57 26 57 13zm-995-83c10 16 33 12 56-11 16-16 20-29 15-53l-6-31 20 23 19 23 47-35c26-20 51-36 56-36 5 0 7-4 3-10-3-5-12-7-20-4-8 4-18-1-21-10-9-24-35-19-82 15-28 21-48 28-62 24-26-8-48 4-29 16 11 7 4 18-29 48-48 44-49 70-2 46 18-9 31-11 35-5zm1029-16c9-8 16-22 16-29 0-24-18-27-30-5-14 26-30 17-23-13 4-22 4-22-17 3l-22 24 21 10c12 5 21 13 21 18 0 13 17 9 34-8zm-794-21v-28l20 25c18 23 20 24 20 5 0-11-7-30-15-41-8-12-11-24-8-28 14-13-14-5-33 10-16 13-16 15-1 10 21-7 23 10 2 18-15 5-21 37-8 49 14 14 23 6 23-20zm560 8c0-5 3-16 6-25 4-12 0-16-15-16-26 0-27-8-3-26 15-12 15-13 0-14-9 0-18 6-21 13-3 9-9 9-26-1-28-17-41-8-41 29 0 34 14 38 25 7 7-21 8-20 12 10 4 28 8 32 34 32 16 0 29-4 29-9zm-480-42c0-17-4-28-10-24-5 3-10 17-10 31 0 13 5 24 10 24 6 0 10-14 10-31zm857 16c5-16-14-38-26-31-18 12-13 48 6 44 9-2 18-7 20-13zm-497-31c0-13-4-24-10-24-5 0-10 14-10 31 0 17 4 28 10 24 6-3 10-17 10-31zm450 1c19-22-23-63-133-131-86-54-89-55-114-39-20 13-27 14-39 4-13-10-17-10-25 2-6 10-3 19 12 32 28 22 45 22 52-3 9-34 29-24 22 10-7 34 10 42 20 10 10-32 27-24 20 9-8 37 9 48 23 16 16-36 35-32 27 5-7 34 1 38 22 13 13-17 14-16 10 5-5 19-2 22 15 16 15-4 19-2 18 13-4 33 0 36 20 18 20-18 20-17 20 8 0 30 11 34 30 12zm-1159-48c-12-12-41 8-41 29 0 12 5 11 26-2 17-11 22-20 15-27zm875 8c7-18-14-47-27-39-5 3-9 16-9 30 0 27 27 34 36 9zm-1e3-5c11 0 13-6 9-21-6-18-4-20 14-14 26 8 27-6 2-29-17-16-20-15-45 18-29 39-34 61-10 52 9-3 22-6 30-6zm179-14c12-8 16-19 12-31-6-15-3-16 19-11 22 6 25 4 20-10-4-10-1-21 6-26 9-5 6-8-9-8-26 0-58 31-72 71-11 32-4 36 24 15zm1225-19c12-4 12-6-4-12-11-5-21-3-26 5-15 24-45 7-48-28-2-20-8-32-15-29-15 5-22 57-7 57 6 0 20 9 32 20 18 17 24 18 37 6 9-7 23-16 31-19zm-538-12c3-16 1-25-7-25-15 0-28 28-19 41 10 16 22 9 26-16zm-427-5c-5-14-2-20 9-20 9 0 16 7 16 15 0 8 5 15 11 15 6 0 8-9 4-20-4-12-2-20 5-20 7 0 14 9 17 20 7 26 23 26 23 1 0-28 20-37 27-12 4 14 13 21 30 21 29 0 27-23-3-28-10-2-25-11-31-19-11-14-19-14-51-5-48 15-75 15-67 2 3-5 19-10 35-10 16 0 32-5 35-11 11-17 1-19-33-10-18 5-32 6-32 1 0-11 26-20 57-20 18 0 28-8 36-30 12-32 27-40 27-15 0 8 5 15 10 15 6 0 10-9 10-21 0-17-5-20-32-17-24 2-32 7-30 20 3 22-16 34-24 14-9-23-24-20-24 4 0 21-15 27-25 10-4-6-11-7-17-4-6 4-14 0-19-7-7-11-10-9-15 8-5 18-11 22-29 17-28-7-99 22-90 36 5 8 11 8 20 0 10-9 16-6 25 10 8 14 15 18 23 12 34-26 47-22 68 23 21 45 46 63 34 25zm375-15c0-36-13-47-24-19-11 28-6 54 9 54 10 0 15-11 15-35zm-54 10c4-8 3-22 0-32-6-15-8-14-20 2-12 17-13 17-19-4-4-16-13-21-39-21-31 1-32 2-14 15 17 13 17 15 3 21-23 8-22 27 1 20 9-3 24-1 32 4 22 14 50 12 56-5zm474-15c-14-10-27-16-30-13-6 6 30 33 44 33 6 0 0-9-14-20zm-1360-5c-10-12-10-15 3-15 9 0 21 8 26 18 9 15 14 13 48-20 29-29 37-45 37-73 0-40 6-44 25-14 10 17 15 19 21 9 5-8 4-22-1-31-5-10-9-22-9-28 0-19 18-12 25 9 12 39 65 11 65-36 0-28 8-30 27-6 13 15 14 15 8-10-5-27 7-38 20-18 11 18 26 10 25-12-3-36-1-48 10-48 6 0 10 9 10 20 0 11 5 20 10 20 6 0 10-11 10-25 0-15 6-25 14-25 9 0 12 7 9 21-4 16-2 20 8 17 8-3 13-15 11-26-4-25 13-30 25-8 7 11 17 12 56 3 40-10 47-15 48-37v-25l12 25 11 25 4-28c4-33 24-31 33 4 7 24 7 24 8-3 1-32 31-40 31-8 0 18 7 20 84 20 83 0 84 0 94-27l10-28 11 28c15 37 31 34 31-7 0-30-3-34-32-39-40-6-48-2-48 23 0 13-5 17-20 13-12-3-20 0-20 6 0 20-54 8-65-15-10-20-13-20-1e2-7-111 16-115 17-115 43 0 11-4 20-10 20-5 0-10-7-10-16 0-22-46-13-116 21-48 24-222 147-236 168-3 6-2 21 3 34 14 37 10 40-12 14l-20-24-26 19c-58 44-78 94-36 94 13 0 13-3 3-15zm1620 0c15-18-1-20-18-3-9 9-12 9-12 1 0-7 5-15 10-18 15-9 12-45-4-45-8 0-18 5-21 10-3 6-11 10-17 10-6 0-4-8 5-18 10-10 17-22 17-25 0-13-23-7-42 10-20 18-39 10-20-9 16-16 15-28-3-28-18 0-40 39-28 50 27 27 1e2 80 109 80 6 0 17-7 24-15zm-1399-38c-17-17-24-1-9 22 11 18 14 19 16 5 2-9-1-21-7-27zm850 1 23-31-27 7c-28 7-35-2-16-21 20-20 1-31-63-38-35-3-75-8-90-11-33-7-35 5-8 37 16 20 21 22 29 9 8-12 11-12 17 4 7 17 8 17 26-5l20-24-5 22c-6 29 9 40 18 13 10-31 22-24 30 17 12 63 15 65 46 21zm342 2c3-11 2-20-3-20-8 0-20 24-20 41 0 17 17 1 23-21zm-1143-10c0-10-9-24-20-30-24-13-27 0-8 30 16 25 28 26 28 0zm11e2-12c-1-31-1-32-15-14-19 25-19 46 0 46 10 0 15-10 15-32zm-1460-4c0-10 6-14 15-10 9 3 15 0 15-10 0-8 6-17 14-20 8-3 12-12 9-20-4-12 0-14 21-8l26 6-17-30-18-31-26 25c-34 33-64 28-64-9 1-15-3-27-7-27-4 0-8 9-8 20 0 10-7 23-16 28-13 7-13 13-3 38 24 54 59 83 59 48zm390-8c0-15-18-31-26-23-7 7 7 37 17 37 5 0 9-6 9-14zm1020 5c0-5-9-11-21-14-17-5-19-9-10-25 10-19 6-32-11-32-4 0-8 7-8 15 0 8-4 15-10 15-5 0-10-7-10-15 0-8-7-15-15-15-7 0-19-8-24-17-10-17-10-17-11 1 0 12-5 16-16 12-10-4-14-1-12 6 3 7 33 27 69 45 70 35 79 37 79 24zm423-46c-3-21-1-41 7-50 21-25 32-17 28 20-2 19 0 35 4 35 4 0 8-4 8-9 0-4 9-20 21-35 25-32 47-24 25 10-23 34-20 52 4 26 12-12 30-22 41-22 18 0 20-4 14-30-6-30 7-42 21-19 4 7 9 8 17 0 7-7 5-18-7-35-9-14-16-35-16-47 0-18-2-20-16-8-14 11-15 10-12-11 2-14 18-34 38-48 34-22 58-57 48-67-3-3-16-2-29 3-13 5-29 7-36 5-18-6-4-33 18-33 23 0 25-23 3-41-12-10-24-10-59-1-72 19-70 19-67-10 4-33-17-38-25-7-6 20-7 20-18 6-10-15-14-13-34 13-19 26-25 29-43 19-16-9-24-8-37 6-15 15-14 16 12 10 23-6 27-4 27 13 0 20-39 72-54 72-3 0-6-7-6-15 0-22-17-18-23 4-6 23 10 41 35 41 24 0 23 17-2 32-25 16-26 31-1 23 18-5 18-4-1 35-25 51-17 62 20 27 30-28 61-36 63-14 1 6 1 31-1 55-1 30 4 49 16 63 23 25 24 25 17-16zm-958 15c5-8 11-8 20 0 10 9 16 6 25-10 14-27 15-26-38-33-36-4-42-3-38 10 3 8 6 21 6 29 0 16 16 19 25 4zm695-26c0-18-14-18-30 1-16 19-3 40 16 24 8-6 14-18 14-25zm-1120 7c0-26-15-34-40-21-25 13-26 27-2 33 34 9 42 7 42-12zm-330-52c0-15 5-19 18-15 9 3 26-1 36-9 17-13 18-18 7-41l-12-27-22 20c-12 11-32 26-43 34-17 11-19 19-13 37 10 28 29 29 29 1zm-262-10c16-13 37-19 57-17 29 3 30 2 30-39 1-52 8-59 40-45 30 14 35-3 8-24-16-12-15-13 10-14 15 0 27-4 27-10 0-5-12-10-26-10-16 0-24-5-21-12 2-7 14-12 25-10 12 2 22-2 22-7 0-6-9-11-21-11-16 0-19-4-14-19 4-14 0-21-15-26-14-5-20-14-18-28 4-30 26-32 39-3 13 27 39 36 39 13 0-12-64-87-75-87-3 0-5 7-5 15 0 20-1 20-60-20-63-43-85-45-76-10 8 33-3 32-30-2l-22-27 2 39 1 40h-40c-29 0-40 4-40 15 0 8-8 21-17 28-25 18-22 39 11 81 55 70 63 103 35 146-21 32-9 48 31 42 21-3 40 0 52 8 23 18 20 19 51-6zm247-66c16-12 27-24 24-27-6-6-109 68-121 88-18 28-5 26 30-5 20-19 50-44 67-56zm1555 60c-5-16-10-35-13-43-3-10-7-5-12 13-5 17-3 33 5 42 20 24 30 17 20-12zm-1014 7c19 0 18-35-3-51-13-11-17-11-20-1-3 6-16 12-29 12-13 0-24 2-24 5 0 13 37 43 48 39 8-2 20-4 28-4zm48-44c-4-17-10-24-16-18-5 5-6 21-2 36 4 17 10 24 16 18 5-5 6-21 2-36zm641 25c-3-6-18-11-33-10l-27 1 30 13c32 14 41 13 30-4zm-285-11c0-13 5-17 15-14 8 4 15 2 15-4 0-10-50-27-60-20-3 2-5 8-5 15 0 6-4 15-8 19-4 4-7-2-7-14 0-23-14-29-25-12-14 23 5 45 40 47 28 1 35-2 35-17zm-290 0c7 12 10 11 16-3 11-31-2-46-33-38-15 4-27 10-25 14 1 4 2 14 2 23 0 14 3 14 16 3 13-10 17-10 24 1zm68-17c-4-39-28-42-28-4 0 21 5 31 16 31 11 0 14-8 12-27zm92-4c0-24-4-26-32-25-27 1-34 6-36 27-3 23 0 25 33 25 31 0 35-3 35-27zm456 4c18-24 17-31-6-38-11-4-41-22-66-41-25-20-47-34-48-32-44 60-45 70-5 85 25 10 31 9 36-3 9-24 31-16 26 10-4 19 0 25 18 29 13 2 26 5 28 6 2 0 10-7 17-16zm177-58c-34-30-59-32-66-5-6 25 9 36 28 20 12-10 15-9 15 4 0 9 8 16 20 16 11 0 21 6 21 13 1 6 3 4 6-5 3-11-7-28-24-43zm-1488 17c6-13 16-20 24-17 7 3 24-6 36-19 19-21 21-28 11-42-12-15-13-15-19-1-4 10-13 14-22 11-8-3-15-1-15 5 0 6-7 11-15 11-8 0-15 9-15 21 0 11-5 30-11 41-9 16-8 19 3 16 7-2 17-14 23-26zm158 8c-3-11-1-20 5-20 6 0 13 8 15 18 4 13 5 11 6-6 1-19 5-21 26-16 20 5 24 3 19-10-9-22-43-30-70-15-38 20-44 69-9 69 8 0 11-7 8-20zm991-33c8-12 8-22 0-34-17-27-43-27-71-1l-25 23 7-27c7-27 6-28-36-28-24 0-60-3-80-6-32-5-38-3-44 16-8 24 14 56 22 33 7-19 23-16 23 4 0 15 1 15 18 0 16-14 20-15 33-2 8 8 33 18 56 23 37 9 42 8 49-12 6-19 7-19 11 7 5 30 20 32 37 4zm260-13c7-19 9-17-23-34-28-14-47 0-36 27 5 12 9 14 12 6 3-7 12-13 20-13 9 0 13 6 9 15-3 8-1 15 3 15 5 0 12-7 15-16zm-1127-10c4-11-1-22-13-31-12-8-20-10-22-3-2 5-11 10-20 10-14 1-12 5 7 20 28 24 40 25 48 4zm-652-14c0-7-6-15-12-17-8-3-13 4-13 17 0 13 5 20 13 18 6-3 12-11 12-18zm1705-21c0-10-4-19-9-19-12 0-23 29-15 41 8 14 24 0 24-22zm-1190-13c7-9 19-16 26-16 8 0 14-9 14-20 0-28-25-25-49 6-11 14-25 23-31 19-6-4-10 4-10 20 0 22 3 24 18 16 10-5 24-17 32-25zm201 14c6 0 7-9 4-20-8-25 10-27 24-2 9 16 12 16 38 1 19-10 27-22 26-37-3-28 13-29 22-2 5 15 13 19 31 15 13-3 35-7 49-10 29-6 34-36 8-56-15-13-16-12-11 9 7 25-4 29-22 7-17-21-30-19-30 5 0 17-3 19-19 10-11-5-29-10-41-10-19 0-21 4-15 30 5 25 4 29-9 24-9-3-16-13-16-21 0-19-47-12-85 13-24 16-25 18-8 36 9 10 23 16 31 13 7-3 18-5 23-5zm949-17c-1-23-9-32-48-50-26-12-64-24-84-27-30-4-38-1-43 15-4 10-3 23 0 29 8 13 42 13 50 0 12-20 25-9 19 15-6 25 10 36 19 13 4-10 7-10 15 0 5 7 16 10 25 6 12-4 17-1 17 10 0 9 7 16 15 16 10 0 15-10 15-27zm140 0c24-21 26-33 5-33-8 0-15 5-15 10 0 6-12 10-26 10-25 0-26-2-21-36 5-30 4-34-8-24-21 18-18 38 10 65 29 30 29 30 55 8zm-657-21c23-21 22-52-2-52-11 0-23-4-26-10-3-5-11-67-17-137-10-128-26-204-27-135-2 82 22 278 35 293 18 20 18 33-1 25-10-3-15 1-15 13 0 34 15 35 53 3zm207-6c0-32-20-66-39-66-11 0-23 5-26 10-11 18 6 50 26 50 10 0 19 5 19 10 0 6 5 10 10 10 6 0 10-6 10-14zm-940-33c22-21 42-50 46-65l6-27-48 17c-42 16-48 22-60 62-8 25-14 46-14 48 0 1 7 2 15 2 9 0 33-17 55-37zm1464 15c-3-13-22-54-41-93-52-103-64-143-64-212 0-69 17-110 75-187 20-25 36-50 36-56 0-17-64-58-115-73-67-21-236-59-239-55-15 17-76 171-76 190 0 28 22 61 142 210 88 110 265 298 280 298 5 0 6-10 2-22zm-1232-20c23-13 49-31 60-40 21-21 39-23 56-6 17 17 16-12-2-35-10-13-19-15-37-9-13 5-30 7-36 5-8-3-13 4-13 18 0 28-30 52-48 37-9-8-16-6-27 8-17 23-19 44-4 44 5 0 28-10 51-22zm786-24c-4-37-25-42-40-9-11 24-10 29 7 41 24 18 38 5 33-32zm569 27c10-15 8-22-10-39-27-24-87-55-94-48-11 10 8 58 32 82 29 29 56 31 72 5zm-1017 1c0-5-7-17-15-28-14-19-14-19-15 2 0 11 3 24 7 27 9 10 23 9 23-1zm-440-24c11-12 20-25 20-29 0-3 3-22 6-40l6-34-36 49c-36 49-45 76-26 76 5 0 18-10 30-22zm490 1c0 6 7 11 16 11 10 0 14-7 12-22-2-18-9-23-32-21-35 3-40 7-32 29 5 13 9 14 21 4 10-9 15-9 15-1zm230-21c0-48-11-108-20-108-4 0-15 17-23 38-11 26-16 31-16 16-1-12-11-25-25-32-21-9-23-18-30-119-15-249-18-358-11-350 5 4 12 76 16 160 6 121 12 161 28 197 25 55 26 67 4 73-17 4-17 5-1 6 10 0 22-7 27-16 5-11 6-124 3-282l-7-264-38-13c-20-7-64-16-97-20-58-6-60-6-60 17-1 46 44 288 52 283 4-3 8-17 8-31 0-64 10-4 25 147 14 141 21 173 46 228 26 55 32 62 46 50 14-11 15-9 9 20-7 31-7 32 28 32 34 0 36-2 36-32zm389-14c7-6-11-24-24-24-8 0-31-11-51-25-45-30-108-35-102-7 2 9 10 16 16 14 7-1 15 5 18 13 4 10 14 13 30 9 18-5 24-2 24 11 0 12 5 15 20 10 12-4 20-2 20 5 0 10 36 6 49-6zm745-17c15-24-3-35-20-13-8 11-14 24-14 29 0 13 22 3 34-16zm-1545 7c21-5 31-12 31-25 0-24 9-24 26-1 12 16 13 15 14-7 0-19 3-21 14-12 11 9 15 7 20-11 6-22 7-22 20-5 8 10 27 19 42 20 25 2 29-1 26-23-1-13-10-35-18-48-14-21-17-22-32-9-9 8-41 22-70 32-40 13-53 22-58 41-7 26-24 33-24 9 0-26-19-17-27 13l-7 27-6-25c-8-28 5-50 28-50 8 0 13-2 10-5-3-4-17-3-32 1-21 5-26 12-26 38 0 48 8 52 69 40zm1413-28c-3-25-1-26 50-26 49 0 51-1 36-17-21-21-74-19-99 3-28 25-24 81 5 71 6-2 10-16 8-31zm-933-44c18-34 10-34-27-1-24 22-31 35-27 50 6 19 7 19 24-3 10-13 24-34 30-46zm-619-86c18-50 59-149 92-221 96-206 128-285 128-312 0-26 0-26-21-7-29 27-62 86-99 177-17 43-55 132-84 197-53 114-106 264-106 297 0 13 7 10 29-11 19-18 40-60 61-120zm-360 99c19-14 47-25 64-25 31 0 76-33 76-57 0-25-55-14-85 17-32 33-45 38-45 15 0-24-26-17-38 10-11 24-16 65-9 65 2 0 18-11 37-25zm158-35c12-18 22-37 22-43 0-16-40 25-57 57-21 40 5 30 35-14zm1572 20c0-5-9-14-20-20-15-8-20-8-20 3 0 8 3 17 7 20 10 10 33 8 33-3zm-1829-17c1-10 1-21 1-24-17-140-55-612-59-745l-6-182-79-37c-75-36-118-75-118-107 0-25-12-28-41-11-47 28-53 57-45 236 9 229 50 797 62 853 4 21 5 21 46 7 48-17 128-12 181 11 44 19 57 19 58-1zm1683-14c-12-25-18-29-25-18-17 28-10 49 16 49 25 0 25 0 9-31zm296 1c65-27 74-28 93-15 12 8 29 15 39 15 21 0 22-15 12-158l-7-91-60-21c-77-25-97-26-97-1 0 26-15 34-40 21-20-11-20-8-20 135 0 80 2 145 4 145 2 0 36-13 76-30zm-620 5c0-8-9-15-19-15-14 0-21-8-23-27l-4-28-11 25-11 25-7-28c-7-26-8-26-21-10-13 17-13 17-14-4 0-30-17-38-25-12-6 17-12 20-37 15-61-12-21 16 62 44 99 34 110 35 110 15zm-712-114c29-25 68-63 87-86l34-42-19-148c-10-81-21-149-24-152-11-12-240 511-232 532 6 17 29 1 154-104zm36 91c-1-7-2-21-2-32-3-35-21-21-19 15 1 19 7 33 12 32 6-2 10-9 9-15zm375-183c1-105 7-202 12-216 16-43 23-16 10 39-16 67-11 282 6 299 16 16 29 4 15-13-6-8-7-26-3-48 8-35 16-29 23 15 2 11 27-69 57-178 29-109 51-2e2 48-203-2-3-53-15-112-27-105-21-107-21-121-2-21 28-19 184 1 199 14 10 14 16 0 55-19 56-19 88 1 99 13 7 14 15 4 51-18 67 2 119 46 121 7 0 11-63 13-191zm-547-224c39-93 72-175 75-182 3-7-9-14-31-18-42-8-42-4 10-194 19-69 33-125 31-127-11-10-160-46-211-51-94-8-95-7-82 71 7 43 17 70 30 79 10 7 16 22 14 33-3 15-12 19-41 18-47-2-47 8 1 99 34 66 37 79 37 152 0 63-5 89-22 122l-22 41 24 16c27 18 24 46-5 46-30 0-31 14-2 56 25 37 27 45 25 139l-2 1e2 50-115c28-63 83-191 121-285zm-347 371c31-8 44-15 35-19-8-4-42 2-75 12-67 21-38 26 40 7zm1610-6c0-8-15-18-32-22-18-5-33-12-33-16 0-4-8-8-17-9-10 0-33-4-50-8-27-6-33-4-33 9 0 9-5 16-11 16-5 0-8 4-4 9 3 6 27 13 53 17 26 3 54 10 62 14 21 12 65 5 65-10zm-1642-21c27-7 37-15 33-25-3-8 1-14 10-14 8 0 12 5 9 10-4 6 10 10 34 10 22 0 43-4 46-10 3-5-1-10-9-10-9 0-16-7-16-15 0-16-19-19-69-9-22 5-30 11-27 20 3 8 1 14-5 14-5 0-12-6-15-14-4-11-13-12-37-5-39 11-51 23-44 43 7 19 37 20 90 5zm1436-104c1-16-1-17-9-5-5 8-9 29-9 45 1 29 1 29 9 5 4-14 8-34 9-45zm167 36c-9-10-14-25-10-35 3-9 1-16-4-16-6 0-14 9-17 20-7 22-25 27-25 8 0-7-11-14-25-14-18-2-25 3-25 17 0 14 7 19 28 20 15 0 36 4 47 9 37 16 50 12 31-9zm-1602-39c63-17 68-20 49-31-29-15-43-14-43 4 0 8-4 15-10 15-5 0-10-11-10-25 0-28-24-33-78-14-27 9-30 15-29 45 2 40-5 40 121 6zm2236-4c0-2 7-79 15-173 8-93 18-251 21-350 6-170 6-181-13-197-19-17-152-48-355-83-51-9-124-25-163-37-38-11-1e2-24-137-29-37-5-130-26-207-49-154-44-202-55-471-106-102-19-207-41-234-49-69-21-74-20-91 22-51 121-180 562-168 573 12 11 272 50 332 50 29 0 64 6 79 14 15 8 72 21 127 29 55 8 128 26 162 41 34 14 74 26 89 26 29 0 599 168 759 224 55 19 129 48 165 65 57 26 90 36 90 29zm-685-118c18 0 20-21 3-38-16-16-28-15-28 2 0 7-18 32-40 55-55 56-51 73 5 22 24-22 51-41 60-41zm-1642 10c8 0 8-3 0-11-13-13-43-5-43 12 0 6 7 8 16 5 9-3 21-6 27-6zm1792 1c-12-12-65-25-65-17 0 8 39 24 60 25 9 1 10-2 5-8zm-1735-54c0-13-7-32-15-43-17-22-20-12-5 17 9 17 7 19-18 19-16 0-35 7-42 15-11 13-6 15 34 15 41 0 46-2 46-23zm180 8c0-8-9-15-20-15-11 0-20 7-20 15 0 8 9 15 20 15 11 0 20-7 20-15zm1-126c4-24 8-55 9-68 0-20-2-22-16-10-27 22-44 67-44 116v47l21-21c12-11 25-40 30-64zm-152 25c8-7-4-12-34-14-52-4-71 0-91 16-17 14-13 15 51 9 39-4 72-9 74-11zm1-48c0-8-4-18-10-21-6-3-7 1-4 9 3 9 1 16-5 16-6 0-11-9-11-20 0-21-15-27-25-10-9 15 14 40 36 40 11 0 19-6 19-14zm194-69c-4-29-11-59-16-67-7-11-8-8-4 10 3 14 6 47 6 73 0 30 4 46 10 42 7-4 8-27 4-58zm-145 3c-9-5-28-6-45 0-27 8-26 8 16 9 32 0 40-2 29-9zm91-29c-1-13-3-13-15 3-19 26-19 42 0 26 8-7 15-20 15-29zm-73-7c10-25-10-48-53-61l-39-11 35-2c32-1 33-2 13-12-16-8-44-8-95-1-58 8-68 12-49 18l25 8-25 10c-24 9-24 9-3 17 12 5 24 15 27 24 9 24 30 20 22-4-8-25 3-26 21-2 13 16 13 16 14-1 0-11 5-17 13-14 6 2 11 14 10 26-2 18 2 21 37 21 28 0 43-5 47-16zm51-6c19-19 14-73-8-93-18-16-20-16-26-1-8 20 4 106 15 106 4 0 12-5 19-12zm-212-98c27 0 34-4 34-20 0-26 20-26 27 1 5 17 12 20 47 17 38-3 41-5 44-34 3-31 2-32-46-39-48-6-159 8-173 23-4 4-5 20-2 35 4 19 10 26 20 23 8-3 30-6 49-6zm154-116c0-28-15-25-23 6-3 13 0 20 9 20 8 0 14-10 14-26zm-159-5c26-13 15-29-21-29-30 0-45 13-35 30 8 13 31 13 56-1zm72-14c-4-15-36-12-41 3-3 9 3 13 19 10 13-1 23-7 22-13zm52-35c-28-12-153-12-160 0-4 6 27 10 87 9 61 0 86-3 73-9zm120-106c-28-43-34-25-12 36 22 61 22 61 25 25 2-21-3-47-13-61zm-255 53c0-26-9-39-20-32-10 6 0 55 11 55 5 0 9-10 9-23zm150-3c0-28-15-25-23 6-3 13 0 20 9 20 8 0 14-10 14-26zm50-55c0-20-4-29-12-26-7 2-13 9-12 15 1 7 2 21 3 33 2 31 21 12 21-22zm-160-4c5-14 14-25 19-25 6 0 8-6 5-14-4-9 12-23 45-42l51-27v-60c0-33 5-75 11-92 11-28 8-36-32-97-24-37-48-67-52-68-5 0-28-13-52-30-24-16-54-30-66-30-21 0-21 1-5 18 9 11 34 24 55 31 49 14 65 33 57 67-7 25-9 26-56 20-43-6-50-4-50 11 0 15-2 15-15-3-14-19-15-19-33 4-18 24-35 21-25-4 7-20-2-18-53 12l-44 26v-30c0-24 12-41 57-81 49-44 54-51 33-51-34 0-97 71-111 125-8 33-16 45-30 45-39 0-29 38 14 53 5 1 7 16 2 35-8 40-25 37-40-7-9-29-13-31-24-18-7 9-11 31-9 49 3 28 7 33 33 36 32 4 56 28 48 49-7 19 5 63 18 63 6 0 13-9 16-21 6-20 6-20 30 3l24 23 19-25c16-21 20-22 36-10 9 8 23 30 31 48 13 31 36 42 48 22 10-16 25-12 19 5-4 8-1 15 5 15 6 0 16-11 21-25zm-110-8c0-8-9-22-20-32-22-20-27-6-8 25 15 23 28 26 28 7zm674-29c31-87 31-88-3-101-22-8-31-18-31-34 0-25-19-30-37-12-9 9-23 9-55 1-24-6-46-8-50-4-5 5-11 35-14 69-6 57-5 62 17 74 20 11 130 46 151 48 3 1 13-18 22-41zm-314-25c0 10 3 17 7 17 14 0 43-34 43-52 0-13-7-18-29-18-17 0-33-5-37-11-4-8 3-9 26-4 21 5 30 4 26-3-3-5-22-13-41-16-19-4-35-12-35-18 0-6 10-8 26-4 15 4 32 2 40-5 11-9 14-8 14 5 0 9 7 16 15 16 10 0 15-10 15-29 0-28-2-29-56-33-65-4-77 6-64 51 9 31 7 33-26 47-31 13-53 38-43 49 2 2 16 6 31 10 21 5 27 3 33-14 10-31 26-25 19 7-7 27-7 27 15 8 18-17 21-17 21-3zm109-111c1-55 6-102 13-115 12-20 13-19 18 23 5 43 7 46 43 54 35 9 41 8 56-13 15-20 20-21 44-10 20 9 27 20 27 39 0 15 6 33 13 39 19 15 41-12 55-69 14-55 13-55-127-118-88-39-97-41-108-25-11 14-13 6-13-51 0-56 3-67 15-62 18 6 18 5 1-58-7-27-16-45-19-39-4 6-11 78-17 159-6 82-15 174-20 205-12 64-12 114-3 148 6 23 7 23 14 5 4-10 8-61 8-112zm1761 83c0-49-1-50-31-35-22 12-23 19-9 54 16 44 40 33 40-19zm71-14c28-22 25-28-16-33-26-3-30 0-33 25-4 33 15 36 49 8zm-121-26c14-17 15-17-24-33-36-16-43-9-26 23 15 29 32 32 50 10zm-2456-21c9-8 16-28 16-44 0-39 15-74 49-118 16-20 39-58 51-83 21-47 28-52 111-87 46-19 47-21 50-68 2-27 2-71-1-99l-5-50-92 1c-76 0-99 5-139 25-68 35-88 78-89 194 0 124 16 345 26 345 4 0 15-7 23-16zm2630-36c-4-24-9-45-11-47-8-10-33 26-39 57-6 31-5 32 25 32 31 0 31 0 25-42zm62-4c17-40 9-54-28-54-15 0-18 9-18 45 0 57 24 61 46 9zm-738 14c13-13 16-50 6-61-15-14-34 8-34 39 0 36 8 42 28 22zm532-38c0-28-4-40-14-40-25 0-37 64-13 73 24 10 27 7 27-33zm84-4c21-42 15-53-29-58-26-3-30 1-33 23-4 34 15 82 31 77 6-2 20-21 31-42zm-539-7c0-8-10-15-22-17-19-3-23 1-23 22 0 22 3 24 23 17 12-5 22-15 22-22zm-121-1c9-34 8-35-24-48-41-17-47-8-20 34 25 42 35 45 44 14zm515 9c18-23 26-77 10-77-10 0-10-3-1-12 14-14 16-78 3-78-6 0-23 11-38 25-27 24-28 25-9 40 18 14 19 15 2 15-12 0-16 5-12 16 3 9 6 31 6 50 0 36 18 46 39 21zm-59-47c0-20-7-33-21-41-30-15-45 2-28 32 24 47 49 51 49 9zm-1667-40c-4-4-34-10-65-14-48-5-58-4-58 9 0 10 10 15 28 16 15 0 43 6 62 13 30 11 36 11 38-2 2-8 0-18-5-22zm1363 6c12-65-16-75-45-17-22 42-19 51 15 51 18 0 24-7 30-34zm69-6c10-22 16-42 13-45-2-3-19-8-36-11l-32-6v51c0 43 3 51 18 51 12 0 25-14 37-40zm543 8c-4-41-21-46-35-9-8 22-8 31 1 35 29 12 37 5 34-26zm-685-6c9-10 20-32 23-49 5-27 3-31-19-35-23-4-27 0-37 38-17 60 0 83 33 46zm581-13c9-47 7-79-4-79-6 0-13 8-16 18-3 9-12 30-20 46-12 24-12 31-2 37 24 16 35 9 42-22zm-1154 2c6-11 17-17 27-15 10 3 27-2 38-10 17-14 18-17 5-26-20-13-50-13-50 1 0 6-9 8-21 4-24-8-59 19-59 47 0 25 46 24 60-1zm512-6c0-14 1-30 2-37 2-26-21-16-32 15-16 44-15 47 8 47 14 0 20-7 22-25zm-844-93c23-54 65-138 93-187l51-88-17-55c-33-104-1-228 70-275l35-22v-109-109l-66 6c-36 2-70 9-74 13-5 5 4 36 20 69 32 66 51 143 31 131-6-4-11-16-11-27 0-12-5-19-12-16-9 3-12 21-10 55 6 89-15 66-23-26-9-107-28-160-62-168-36-9-39 1-9 36 14 17 26 39 26 48 0 13-5 11-23-10-12-14-32-31-44-37-31-16-107-14-149 4l-35 14 20 22c11 12 30 52 42 88 35 107 43 107 49 4 6-99 19-129 51-112 28 14 25 49-3 46-21-2-23 2-26 63-4 80 12 165 44 237 21 48 21 54 7 51-10-2-24-22-33-45-25-67-33-63-26 12 14 153 18 244 12 262-13 33-23-5-24-90-1-104-53-391-81-445-19-38-38-59-45-51-2 2 3 47 10 99 19 135 29 380 17 380-6 0-13-48-17-112-4-62-14-173-22-246-8-74-14-136-14-138 0-13-51 0-102 28l-60 32 6 51c3 27 9 127 12 221l7 170 36 13c20 7 62 20 94 29l57 17v101 101l59 26c32 14 62 30 65 36 14 22 33-3 74-97zm1547 57c0-32-4-44-15-44-16 0-26 54-16 82 12 30 31 6 31-38zm-740-26c5-24 3-33-7-33-7 0-23-3-36-7-23-6-23-5-17 43 4 27 10 53 12 58 9 14 41-27 48-61zm636 6c12-31 13-46 6-51-12-7-48 8-59 26-19 28 1 81 27 73 5-2 17-24 26-48zm-706 22c9-29-12-71-35-71-25 0-27 30-4 65 19 30 31 32 39 6zm-1102-42c-5-3-52-9-105-13-77-5-98-4-98 7 0 15 84 37 102 26 7-4 17-4 23 1 19 15 60 16 73 1 6-8 9-18 5-22zm651 26c3-8 3-22 0-30-4-8-1-15 5-15 7 0 11-20 11-49 0-36-4-51-16-55-9-4-18-5-19-4-12 14-45 106-45 124 0 36 52 60 64 29zm786-11c0-3-9-17-19-30l-19-25-16 23c-15 21-15 23 1 30 23 8 53 10 53 2zm-635-56c0-29-4-55-10-57-5-3-25 17-42 45-36 53-32 62 27 63 24 1 26-2 25-51zm65 22c25-25 30-130 6-130-21 0-31 21-15 31 11 6 8 9-8 9-21 0-25 6-37 63-11 49 17 64 54 27zm434-12c14-55-1-126-22-103-5 6-16 31-25 57-15 44-14 48 1 58 27 15 39 12 46-12zm67-51c-10-47-37-47-46 0-5 30-3 40 12 50 25 19 43-6 34-50zm-1396 44c-6-10-49-17-155-25-43-3-59-1-48 5 13 7 57 14 196 28 7 0 11-3 7-8zm766-28c16-42 11-62-16-69-14-4-28-4-31-1-9 8-17 76-11 91 9 22 47 8 58-21zm439-8c0-40-13-44-59-17-50 28-39 50 27 51 30 1 32-1 32-34zm59-7c15-42 21-88 11-88-23 0-50 41-50 75 0 41 25 49 39 13zm-651 3c15-9 34-81 22-81-5 0-15-3-23-6-10-3-18 2-22 16-6 20-8 20-24 6-22-20-41-20-41 0 0 26 19 54 34 48 7-3 16 2 19 10 7 18 16 20 35 7zm-676-41c5 0 6 9 3 20-7 23 13 28 21 5 8-19 24-20 24-1 0 9 10 13 25 12 21-1 25-5 23-26-3-23-8-25-78-32-41-4-92-12-114-18-26-8-42-8-49-1-6 6-17 7-26 2-9-5-42-11-73-14l-58-6v35c0 40 14 43 47 12l23-21v21c0 25 18 30 26 7 9-22 23-18 17 5-6 23 15 28 23 5 9-22 21-18 27 7 6 21 7 21 25 5 19-17 20-17 26 0 7 17 8 17 20 1 18-24 26-23 27 5v22l16-22c8-13 20-23 25-23zm2092-27c-23-261-75-482-174-728-36-92-171-358-2e2-395l-19-25-88 43c-213 106-4e2 236-540 379-107 108-341 397-350 432-7 28 6 38 62 46 22 4 105 24 185 45 80 21 233 57 340 79 183 39 584 134 695 165 92 26 94 25 89-41zm-1216-55c-2-37-8-63-15-65-9-3-63 86-63 104 0 6 44 22 63 22 16 1 18-7 15-61zm66 44c6-10-21-72-32-72-14 0-22 27-15 48 10 27 36 41 47 24zm-1029-32c-16-4-43-8-60-8-29 0-29 0-5 8 14 4 41 8 60 8h35l-30-8zm815-2c0-29-17-41-39-29-24 13-27 27-8 34 23 10 47 7 47-5zm93-52c22-31 37-59 34-62-9-9-72 23-96 50-21 22-23 29-13 52 7 14 18 24 24 22 7-3 30-30 51-62zm-775-5c11-7 12-29 3-117-5-60-13-153-17-206-3-54-10-98-15-98-5 0-15 13-24 30-22 43-18 166 11 325 5 28 4 29-11 11-8-11-15-36-15-55 0-63-17-67-23-5-3 31-11 62-16 67-6 6-11 16-11 22 0 26 88 46 118 26zm-108-155c0-97-11-146-31-146-11 0-19-5-19-11 0-8-5-8-15 1-25 20-18 88 15 158 16 35 34 61 40 57 5-3 10-30 10-59zm685-6c-20-56-1-123 44-164 27-24 26-22-4 38-25 50-33 120-15 131 6 4 10-6 10-22 1-37 31-103 60-128 22-19 21-17-4 22-14 24-26 48-26 55 1 20 58-51 86-104l24-48h-36c-80 0-145 63-159 155-8 47 12 136 25 115 4-7 2-29-5-50zm-655-176c0-42-1-45-22-39-47 14-52 30-21 62 15 16 31 27 36 25 4-2 7-23 7-48zm837-67c7 0 10-4 7-9-10-17-94-4-94 14 0 6 14 7 38 3 20-4 42-8 49-8zm-910-69 105-73-7-120c-17-320-31-455-46-455-23 0-22 54 7 479 4 66 3 82-8 79-10-4-15-50-20-183-5-98-11-212-15-252l-8-75-28 22c-78 62-225 342-211 405 16 71 74 178 74 135 0-23 17-7 27 24 7 23 7 38 0 45-12 12-2 41 13 41 6 0 59-33 117-72zm929 17c-11-8-32-15-46-15-14 0-35 7-46 15-17 13-13 14 46 14 59 0 63-1 46-14zm-31-35c-3-5-19-10-35-10-16 0-32 5-35 10-4 6 10 10 35 10 25 0 39-4 35-10zm20-41c-8-12-85-12-85 0 0 6 17 11 38 13 43 4 55 0 47-13zm165-55c0-11-8-14-27-12-25 3-28 7-31 48l-2 45 30-33c16-18 30-39 30-48zm-776 31c4-10-1-15-14-15-11 0-20 7-20 15 0 8 6 15 14 15 8 0 16-7 20-15zm676 6c0-10-25-21-48-21-12 1-10 5 8 15 29 17 40 18 40 6zm-760-42c96-41 266-83 427-105 71-10 131-20 135-23 4-3 12-74 18-156 5-83 16-184 24-225 28-149 28-140 1-140-31 0-32 5-45 194-6 87-16 168-21 180-6 13-7-20-2-94 4-63 8-155 8-205v-89l-38-9c-21-5-41-6-45-2-4 3-8 85-10 181-3 137-7 172-17 164-16-14-25-2-25 34-1 28-2 29-12 12-7-13-9-74-6-190 7-230 8-228-52-249-26-9-53-17-59-17-8 0-9 54-5 193 6 219 8 230 30 199 8-12 21-19 30-15 13 5 13 8-1 29-14 21-13 29 16 106 27 73 28 80 9 63-11-10-30-46-43-79l-22-61-3 88c-4 130-22 97-22-41 0-64-7-189-15-277-8-88-15-186-15-217 0-49-3-58-17-58-44 1-47 10-40 162 4 78 12 215 18 304 7 89 9 173 4 190-8 28-9 27-16-21-7-41-28-465-29-567 0-20-5-28-17-28-19 0-80 39-87 55-4 12 11 301 19 362 4 28 10 40 19 37 9-3 11 5 8 30-3 27 5 53 33 107 20 39 34 74 30 77-9 9-33-23-57-75-10-24-23-43-27-43-12 0-21 38-21 95 0 74-16 44-34-66-15-86-55-405-56-436 0-25-37-12-74 26l-38 39 11 88c5 49 13 136 16 194 9 150 13 173 36 167 16-4 18-1 13 19-4 15 0 34 10 49 18 27 7 35-14 10-17-21-27-19-35 6-9 28 3 72 18 66 7-3 46-20 87-38zm762-1c-12-12-102-29-102-18 0 7 64 27 95 29 14 1 16-2 7-11zm4-37c-6-10-48-27-90-36-15-3-26-9-23-12 3-3 29 0 56 7 28 6 56 10 63 8 24-8-48-36-110-44l-61-7 2 32c2 35 7 37 1e2 51 28 4 56 8 60 9 5 0 6-3 3-8zm233-79c6-11 35-38 66-61l55-42v-169-169l-33-6c-17-4-54-5-81-3-46 3-50 5-61 37-6 20-14 30-18 24-4-6-3-23 3-38 15-39 13-45-15-45-21 0-24 3-17 18 13 25 25 372 13 372-5 0-13-12-19-27-8-26-9-25-17 22-7 46-8 48-17 25-5-14-7-43-4-65 4-28 3-35-4-24-5 9-11 47-12 84-3 66-2 69 22 76 14 4 48 7 77 8 41 1 54-3 62-17zm-221-4c-8-24-86-41-131-30l-42 10 40 2c22 1 56 8 75 15 45 17 63 18 58 3zm-82-67c-18-7-66-3-66 5 0 2 19 4 43 3 30 0 36-3 23-8zm84-21c-27-17-119-32-136-22-15 8 17 18 121 35 26 4 33-2 15-13zm30-29c0-10-25-21-48-21-15 1-14 3 2 15 22 17 46 20 46 6zm-128-33c-3-21 23-23 81-7 48 13 58 5 29-24-19-18-34-22-87-22-71 0-106 18-64 33l24 9-23 7c-33 11-26 28 11 24 24-2 31-7 29-20zm-1164-11c2-12-3-17-17-17-23 0-24 1-15 25 8 19 28 15 32-8zm527-206c-7-188-9-201-27-201-10 0-21 7-25 16-5 15 32 350 43 383 13 39 15-16 9-198zm-479 143c-1-44-1-44-38-44-20 0-43-3-52-6-11-4-16 0-16 14 0 27 17 37 36 21 19-16 30-4 14 16-7 9-9 19-5 23 4 4 10 1 12-5 8-22 23-14 23 12 0 16 4 23 14 19 9-3 13-20 12-50zm1692 29c38-33 51-88 76-330 9-83 20-162 25-176 5-14 7-27 5-30-3-3 3-61 12-131 14-103 15-130 5-153-11-23-14-25-22-11-12 22-39 151-44 217-3 31-12 76-21 101-12 34-15 66-11 133 7 112 0 157-24 157-13 0-20 10-23 33-3 17-12 71-21 118-8 47-15 89-15 92 0 15 28 5 58-20zm-455-32c-26-22-101-35-144-26-49 11-28 29 34 30 31 1 60 4 63 8 4 4 21 7 38 7l31-1-22-18zm82-199c-11-11-15 7-21 102-6 79-4 1e2 7 107 12 7 14-10 17-98 1-58 0-108-3-111zm-84 148c-18-16-38-20-93-20-51 0-69 3-66 13 3 7 32 14 74 18 121 10 112 11 85-11zm409-81c0-44-4-58-16-63-23-9-24-6-14 39 5 22 10 56 10 75 0 26 3 31 10 20 5-8 10-40 10-71zm-1730 6c-1-5-12 3-25 18-14 15-25 33-25 40 1 7 12-1 25-18 14-16 25-34 25-40zm947-57c-2-24-4-7-4 37 0 44 2 63 4 43 2-21 2-57 0-80zm4e2 58 3-53-47-7c-64-9-85-8-78 4 3 6 17 10 31 10 14 0 22 4 19 10-3 6-21 10-38 10-53 0-76 10-74 31 1 22 12 26 112 38 39 5 70 9 70 10 0 0 1-23 2-53zm-1350-49 36-49-18-36c-10-20-26-95-37-167-10-71-46-269-78-440-94-494-109-579-135-779-26-2e2-32-292-10-166 7 41 19 90 25 108 7 18 9 40 6 48-4 9-2 22 3 28 5 6 12 32 14 56 2 25 2-2 0-60-5-116-13-191-72-651-24-186-47-328-56-345-15-28-15-27-15 42 0 39 7 91 16 115 10 31 13 61 9 99-4 38 0 81 13 140 20 85 48 327 40 336-3 2-10-40-16-93-17-141-53-323-63-323-11 0-11 16 1 98 5 37 21 173 35 302 14 129 57 469 95 755 95 718 109 825 116 940 7 129 9 133 35 109 11-10 37-40 56-67zm203 43c0-13-7-20-20-20-13 0-20 7-20 20 0 13 7 20 20 20 13 0 20-7 20-20zm-60-45c16-20 1-38-23-29-17 6-22 25-10 37 10 11 19 8 33-8zm1644-80c4-20 4-40 1-45-3-6-52-10-108-10-135 0-209-13-286-51-54-27-70-30-110-25-58 8-171-7-306-40-55-13-108-24-117-24-24 0-23 23 1 44 41 38 461 129 801 175 116 15 117 15 124-24zm-1470-36c9-21 21-39 27-39 7 0 8 7 4 18-15 36-17 52-6 52 13 0 37-37 45-71 5-25 2-28-46-44-41-13-53-14-59-3-5 7-2 19 7 29 19 21 18 35-7 58-13 11-19 26-16 35 10 25 34 8 51-35zm-74-150c11-25 10-47-3-127-14-85-33-402-22-362 3 8 14 105 25 215 11 110 23 208 26 218 7 23 27 22 49-3 17-19 17-30-24-342-28-208-49-332-58-347-15-24-16-24-30-5-11 14-13 35-8 86 5 52 3 72-10 91-8 13-19 51-24 83-5 32-9 49-10 37-2-47-16-28-19 25-2 44 0 53 9 42 17-24 3 218-21 338-11 56-20 123-20 148v46l64-56c35-31 69-70 76-87zm33 121c4-16 0-20-19-20-26 0-30 10-12 28 17 17 25 15 31-8zm-185-72c16-92 26-208 18-208-4 0-11 10-16 23-7 15-8-17-4-98 5-107-6-265-22-319-4-12-2-16 5-12 5 4 13 22 17 41 7 39 19 45 29 14 8-24 24-232 19-238-2-2-35 8-73 24-44 17-78 25-94 21-21-5-24-3-21 17 2 12 15 110 29 217 34 264 66 453 76 443 5-5 13-26 18-48l10-40-4 50c-2 28-7 78-11 113-4 39-2 62 4 62 5 0 15-28 20-62zm1548 28c3-13 3-57 0-98-7-94-7-64 3-363 6-212 5-264-6-282-19-31-16-43 9-43 20 0 20-1 4-19-13-14-16-28-11-55 7-37-9-53-19-18-14 49-37 207-56 377-11 105-28 259-37 344-16 149-16 154 2 167 10 8 38 14 62 14 37 0 43-3 49-24zm103-23c5-27 13-67 16-90l7-43h-35-34l-7 70c-7 72 3 110 28 110 8 0 18-19 25-47zm-275 0c7-16 16-56 18-91l4-63-50-14c-69-20-152-35-192-35-31 0-33 2-43 53-6 28-12 66-13 82l-3 30h55c30 0 65-4 76-8 17-6 32 2 70 33 27 22 52 40 56 40 4 0 14-12 22-27zm-944-24c0-14-5-19-17-17-26 5-29 38-4 38 15 0 21-6 21-21zm3e2-49c15-35 7-49-18-34-19 12-27 38-18 60 8 20 21 11 36-26zm254 8c3-13 8-63 11-111l6-88-48 3c-47 3-48 3-51 40-2 20-9 41-17 48-9 7-11 24-8 53 7 51 3 46 50 62 51 19 52 18 57-7zm74 2c10-17 25-95 35-184 2-19-48-64-59-53-18 18-30 187-18 235 8 27 25 28 42 2zm-690-43c2-12-3-17-17-17-12 0-21 6-21 13 0 31 32 34 38 4zm453-15c7-19 5-22-21-22-36 0-48 17-24 35 24 18 35 15 45-13zm-256-8c0-12-8-20-22-22-26-4-28 1-12 29 13 24 34 20 34-7zm72-41c13-54 10-63-18-63-10 0-28-6-39-12-28-17-39 1-30 50 4 27 10 36 22 34 9-1 22 7 28 18 17 31 26 24 37-27zm-317-19c47-43 48-51 25-264-17-160-18-177-6-164 5 5 16 81 25 169 21 205 25 217 56 180 16-20 15-69-5-160-18-85-20-194-4-178 6 6 15 62 21 125 14 164 18 198 26 198 4 0 31-14 61-31l54-31-7-97c-4-53-9-150-13-215l-6-119-181 7c-99 4-182 9-184 11-5 4 63 482 79 554 6 28 13 51 15 51 2 0 22-16 44-36zm210 1c0-16-6-25-15-25-15 0-21 31-8 43 13 14 23 6 23-18zm1149-11c6-15 15-47 18-72 5-40 4-45-11-39-10 4-34 7-55 7h-37l2 63c2 34 3 63 4 65 0 1 15 2 33 2 27 0 36-6 46-26zm61-85c21-90 26-179 10-179-5 0-10 12-10 28 0 15-7 54-14 87-8 33-17 87-21 120-8 81 8 53 35-56zm-868 40c-2-20 3-38 11-44 7-5 22-22 31-37l18-28h-41c-30 0-44-5-53-20-15-23-65-27-93-7-23 17-9 28 55 42 55 12 62 33 26 76-43 51-34 86 18 65 27-11 31-17 28-47zm518 56c0-2-19-14-42-26-40-20-188-41-188-26 0 3 32 11 72 17 40 7 88 18 108 26 39 14 50 16 50 9zm6-43c30-20 46-108 26-140-8-12-152-42-204-42-23 0-28 4-28 26 0 23-3 25-25 20-38-10-32 33 7 47 11 4 15 13 11 26-4 16 2 22 34 30 21 5 63 16 93 25 66 17 72 18 86 8zm-1540-198c-9-71-27-167-41-213-14-48-25-109-25-141 0-57-15-120-29-120-10 0 10 147 44 331 31 168 56 281 62 276 2-3-3-62-11-133zm904 110c0-7-62-35-67-31-2 3 1 14 8 24 8 13 19 18 35 15 13-2 24-6 24-8zm354-10c14-37 7-44-43-44-83 0-93 10-36 36 61 28 71 29 79 8zm-482-45c17-9 19-17 14-52-3-23-11-96-16-162-6-66-15-144-21-173-8-41-8-57 2-68 11-14 9-15-17-12-38 4-40 27-20 205 9 75 16 167 16 204 0 71 5 78 42 58zm324-40 51-24-5-165c-2-91-7-167-9-170-10-11-289-4-323 8l-36 12 8 88c9 112 29 272 35 272 2 0 33-14 70-30l66-30-7-73c-14-147-17-233-7-212 5 11 10 36 10 56 1 54 12 99 24 99 6 0 8-21 4-56-4-43-3-54 6-45 7 7 12 53 14 119 2 86 0 99-7 63-5-24-7-48-4-52 3-5 1-9-4-9-6 0-12 6-15 13-7 19 4 117 14 117 5 0 9-5 9-11 0-5 5-7 10-4 6 3 10 22 10 40 0 38-6 39 86-6zm126 10c31-17 55-83 77-214 33-196 37-253 17-261-22-9-35 4-16 16 10 7-11 10-64 10h-78l5 208c6 255 9 268 59 241zm324-8c-8-12-83-28-166-37-51-5-62-3-53 6 6 7 51 16 99 22 49 5 91 11 93 14 8 8 32 4 27-5zm311-23c26-33 23-62-10-93-92-86-107-85-107 10 0 73 0 75 28 81 15 3 32 7 37 9 22 7 43 4 52-7zm-290-6c12-7 52-277 43-286-7-6-253-46-258-41-6 6-41 217-42 252 0 35-6 32 130 54 41 6 82 15 90 20 19 10 22 11 37 1zm393-7c0-9-18-35-40-59-33-36-40-49-34-70 7-28-10-37-20-10-12 30-6 44 42 98 54 62 52 61 52 41zm-120-156c0-7-9-27-21-46-20-31-20-35-5-58 18-28 45-31 95-14 38 13 47 8 32-20-17-31-64-51-119-51-36 0-54-5-67-20-10-11-25-20-33-20-12 0-12 4 2 26 10 14 16 33 14 42-2 9 7 26 19 38 18 18 21 29 16 58-5 29-1 39 18 56 27 22 49 26 49 9zm175-119c4-6 22-124 41-263 19-138 47-331 63-427 20-120 25-177 18-182-15-9-44 8-51 29-10 32-55 286-61 348-3 33-9 74-12 90-4 23-2 27 6 19 7-6 19-58 27-115 14-106 23-144 30-137 5 6-30 238-67 445-17 95-29 179-25 188 6 17 22 20 31 5zm-405-40c0-11-50-25-140-39-81-13-86-13-74-1 10 10 157 46 197 49 9 0 17-3 17-9zm-1576-65c22 3 45 10 51 15 8 7 30 0 66-18 61-30 68-50 49-121-10-39-12-40-43-34-29 5-197 66-216 78-8 5 5 111 16 128 4 6 13-4 22-22 15-31 18-32 55-26zm1936 23c0-18 9-73 20-122 22-98 24-119 10-96-8 15-34 137-44 213-2 20-1 37 5 37 5 0 9-15 9-32zm-1404-3c-4-13-89-10-113 4-14 9-3 11 49 9 40-2 66-7 64-13zm110-32c-4-4-14 1-22 11-22 31-17 43 8 19 12-13 18-26 14-30zm292 27c26 0 41-4 37-10-3-5-35-10-69-10-47 0-67 4-77 17-13 15-11 16 26 10 22-4 59-7 83-7zm152-5c15-18 7-29-27-40-24-7-33 9-10 19 8 3 6 9-7 20-19 16-19 16 6 16 14 0 31-7 38-15zm445-7c13-30 38-29 45 2 8 34 18 14 25-51 6-52 5-53-11-31-9 12-23 22-31 22-7 0-27 14-44 31-24 25-28 34-17 40 19 13 22 11 33-13zm363-5c10-23 42-191 42-215 0-28-209-123-228-104-9 10-15 122-8 161 6 29 10 34 20 26 8-7 16-25 20-42l6-31 61 4c69 5 79 14 79 76 0 35-6 49-29 73-36 36-60 37-91 4-26-28-60-33-60-9 0 8 13 29 29 45 26 26 34 28 74 23 28-4 47-2 51 5 12 18 23 13 34-16zm-443 8c3-5-6-18-20-29-33-26-32-33 11-60l36-24 22 21c29 27 36 26 36-4 0-29-4-31-78-40-49-5-54-4-59 15-4 13-16 23-34 27-32 6-39 23-10 23 19 0 35 25 26 40-6 10 33 40 52 40 6 0 14-4 18-9zm-858-55 22-34-24-6c-45-12-59-86-16-86 22 0 45-25 36-40-10-16-43-12-48 8-3 12-5 11-6-6-1-17 8-27 34-38 56-23 80-18 114 25 37 47 39 70 7 1e2-13 13-26 31-29 42-5 17 1 19 60 19h66l-6-112c-3-62-10-125-15-139l-10-26-124 25c-67 13-127 27-132 32-9 9 7 251 18 269 10 16 29 4 53-33zm-121 8c7-26 0-132-12-193-8-38-9-38-162 7l-93 27 3 44c4 56 21 63 34 14 7-30 15-39 39-44 17-4 37-9 45-13 21-8 78 28 92 59 10 22 9 29-10 48l-22 21 27 28c33 35 51 35 59 2zm523-3c6-10 33-28 61-40l50-22v-98c0-116-7-158-27-165-8-4-67-1-130 6l-116 12 9 110c4 61 8 130 8 154 1 52 14 62 83 62 41 0 54-4 62-19zm145-13c-3-4-20-8-39-8-19 0-36 4-39 8-3 5 15 9 39 9 24 0 42-4 39-9zm710-28c17 0 33-26 23-36-3-3-22 0-41 7-31 11-36 17-36 44l1 30 18-22c11-13 27-23 35-23zm-1561 6c7-18-1-26-25-26-18 0-25 20-11 33 11 12 31 8 36-7zm1017-11c0-18-31-35-63-35-20 0-26-9-40-53-24-75-22-81 26-122 37-32 47-36 80-31 34 6 37 5 37-19v-25h-106-106l7 138c4 75 10 140 14 144 6 6 52 13 119 16 22 1 32-2 32-13zm-632-24c-4-20-48-28-48-9 0 20 20 37 37 31 8-3 13-13 11-22zm1096-12c-3-5-12-9-20-9-14 0-20 31-7 44 9 9 34-24 27-35zm-1176-1c18-18 15-28-8-28-13 0-20 7-20 20 0 23 10 26 28 8zm722-29c0-38-24-35-28 4-2 19 1 27 12 27 11 0 16-10 16-31zm266 16c-11-8-34-15-52-15-18 0-41-3-51-7-10-3-15-2-10 3 10 10 82 32 112 33 20 0 20 0 1-14zm-1676-14c0-11-4-23-10-26-6-4-10 5-10 19 0 14 5 26 10 26 6 0 10-9 10-19zm818-13c3-14-3-18-27-18-29 0-41 17-24 34 13 13 48 1 51-16zm536 16c25-10 19-34-9-34-24 0-34 18-18 33 8 8 8 8 27 1zm531-15c0-7-8-15-17-17-18-3-25 18-11 32 10 10 28 1 28-15zm-1821-11c12-20-8-48-35-48-16 0-18 5-13 28 12 48 26 54 48 20zm1646 3c0-5 12-87 26-183 14-95 29-211 33-258 4-47 22-204 39-350 18-146 41-341 52-435 11-93 33-274 50-4e2 16-127 41-343 55-480 14-138 36-329 50-425 13-96 54-420 90-720 36-3e2 82-664 101-810 20-146 46-348 59-450 23-173 33-418 19-433-10-9-42 11-59 36-9 14-46 221-94 538-77 493-140 890-326 2044-213 1325-329 2078-341 2210-4 44-8 82-8 85-1 4 189 35 237 39 9 0 17-3 17-8zm-1566-27c9-3 16-13 16-21 0-9-6-13-14-10-7 3-23-1-35-9-20-14-21-14-21 15 0 32 17 39 54 25zm1250-10c10-26 7-34-14-34-13 0-20 7-20 18 0 33 23 44 34 16zm-635-8c9-10 9-16 1-21-17-11-40 3-34 20 8 19 18 19 33 1zm-529-16c35-18 35-18 10-24-61-12-81-13-75-2 3 6 8 19 11 29 8 21 10 21 54-3zm1110-5c0-18-5-25-19-25-26 0-36 17-21 35 19 23 40 18 40-10zm-1358-35c-2-16-9-30-14-30-6 0-7 7-4 16 3 9 6 22 6 30 0 8 4 14 8 14 5 0 7-13 4-30zm133-20c44-18 84-36 89-40 13-12-31-96-66-125-48-41-108-33-134 18-30 56-15 198 19 184 7-3 48-19 92-37zm1305 27c0-19-21-37-42-37-26 0-22 29 5 40 31 12 37 12 37-3zm-1022-23c7-2 79-19 160-38 287-68 511-97 742-98h148l6-30c9-46 5-67-5-30-11 38-29 43-29 7 0-14-4-25-10-25-5 0-10 11-10 25 0 40-36 27-41-15-5-35-49-42-49-8 0 13-5 30-11 38-8 12-9 8-7-14 2-17-2-31-9-33-8-3-13 4-13 17 0 19-2 20-15 10-12-10-16-9-21 4-9 22-24 20-24-4 0-11-5-20-11-20-6 0-8 8-5 18 3 9-3 5-15-10-27-36-49-36-49-1 0 26-1 26-15 7-14-19-14-19-15 1 0 19-1 19-18-3-18-24-32-21-32 8 0 21-41 21-57 1-10-14-13-12-22 11-15 39-29 42-36 8-7-32-38-43-34-12 3 38 0 41-31 29-16-6-30-15-30-19 0-21-19-4-25 22-8 35-15 37-40 10-24-26-33-25-41 5-7 30-30 33-39 5-9-28-37-26-33 3 2 18-1 21-22 18-14-1-28-8-31-13-10-16-39-1-39 19 0 13-3 14-12 5-18-18-31-15-24 5 6 16 6 16-12 0-25-23-32-21-32 6 0 31-9 38-31 26-13-7-19-6-19 2 0 7-14 10-40 7-28-2-40 0-40 10 0 7-7 24-17 38-16 25-16 25 13 19 16-4 35-8 42-11zm1578-19c-34-26-205-80-183-59 8 8 179 73 192 73 6 0 1-6-9-14zm72-22c-2-19-8-27-18-24-38 9-45 6-43-21 2-32-3-34-28-12-23 20-42 9-36-22 5-26-11-32-31-12-9 9-12 9-12-1 0-7-5-9-12-5-6 4-17-1-25-11-13-18-13-18-13 1-1 18-1 18-14 2-12-16-14-16-25 8-15 34-10 40 47 48 26 3 79 21 117 40 87 43 97 44 93 9zm-1773-111c-4-26-10-41-12-34-3 7-2 34 2 60 4 26 10 41 12 34 3-7 2-34-2-60zm155 36c36-11 69-24 74-29 17-16-12-59-44-65-23-5-30-12-30-30 0-13-10-32-22-44-31-29-72-26-98 8-19 23-21 37-18 93 6 104 11 106 138 67zm-224-32c-29-39-70-70-110-86-40-15-31-30 16-26 31 3 48 11 64 31 12 15 28 25 35 22 9-3 7-6-6-7-20-1-20-1-1-15 16-12 18-18 8-40-10-21-16-24-39-19-25 6-26 5-13-8 8-8 40-25 70-37 65-27 92-48 35-28-143 52-196 79-244 125-28 26-51 53-51 59 0 6 13-2 29-18 16-16 40-29 53-29 40 1 104 36 139 78 41 49 53 47 15-2zm1854-46c0-89-14-132-53-169l-26-24-37 28c-39 30-77 102-72 137 2 16 26 34 83 65 44 23 86 43 93 43 8 0 12-23 12-80zm-1545-36c-15-25-25-54-22-63 3-14-1-17-19-13-13 2-31-1-39-8-10-8-15-9-15-2 0 6 13 18 29 28 15 9 41 41 57 70 16 30 31 49 32 44 2-6-8-31-23-56zm67 41c-2-14-6-25-8-25-2 0-4 11-4 25 0 14 4 25 9 25 4 0 6-11 3-25zm108 5c143-31 148-36 111-108-28-55-55-74-110-80-44-4-51-2-66 21-22 34-32 141-15 162 14 17 20 18 80 5zm1125-39c3-6 2-28-1-51-8-50-24-35-24 23 0 35 12 48 25 28zm-707-32c16-6 22-15 19-27-39-143-71-186-131-180-25 2-35 11-53 48-23 44-29 110-17 158 7 23 9 23 83 16 42-3 86-11 99-15zm-503-98c21-41 10-40-15 2-12 19-19 48-19 72l1 40 8-42c5-23 16-55 25-72zm-274 27c12-10 16-18 9-18-17 0-80 65-80 82 1 7 12 0 25-17 13-16 34-38 46-47zm497 0c-13-23-35-50-49-61-30-22-108-34-133-20-11 6 1 9 38 9 68 0 115 33 142 99 11 25 20 38 22 30 2-8-7-34-20-57zm620 15c6-111-59-188-139-164-29 9-42 20-57 54-22 46-38 128-29 152 5 12 26 14 114 12l108-2 3-52zm437-17c11-17 37-40 57-51 32-17 42-18 68-8 27 10 30 10 20-3-25-29-102-11-142 33-10 10-24 37-33 58-15 39-12 37 30-29zm-983-17-10-54-1 65c-1 46 2 61 10 53 8-8 8-27 1-64zm-920 39c-5-22-4-22 15-5 27 24 36 21 29-8-8-31 6-32 28-2l17 22-5-22c-5-27 1-29 26-6 19 17 19 16 13-10-5-17-3-27 4-27 6 0 11 5 11 10 0 6 5 10 10 10 6 0 10-10 10-22 0-20 1-20 18-5 24 22 31 21 25-3-6-21 6-27 23-10 7 7 20 7 41 0 24-9 30-16 26-33-4-21-4-22 11-3 9 11 19 17 22 14 9-9-6-48-17-48-6 0-61 20-122 44-62 24-138 49-170 56-58 13-72 31-45 58 20 20 37 14 30-10zm1173-30c-14-86-93-178-152-178-28 0-89 56-98 90-5 20-2 18 15-10 29-45 37-50 89-50 37 0 49 5 75 33 18 20 40 60 51 95 11 34 22 62 23 62 2 0 1-19-3-42zm62-34c9-30 31-71 48-91 25-29 38-36 72-37 48-1 86 17 104 50 7 13 15 22 17 19 9-8-42-74-66-84-65-30-142 4-179 79-20 38-32 120-19 120 3 0 13-25 23-56zm-715 36c7 0 8-14 5-35-5-32-4-35 18-35 13 0 26 6 28 13 3 6 6-4 6-22 1-27 4-32 13-23 18 18 28 15 28-8 0-23 18-27 26-5 10 25 26 5 19-23-5-22-4-24 9-13 9 8 16 20 16 27 0 8 5 14 10 14 17 0 22-27 10-49-9-18-8-21 9-21 11 0 22 9 26 20 8 26 14 25 63-11 44-32 53-58 27-79-8-7-12-16-9-21 8-13 44 9 44 26 0 23 24 18 50-10 20-21 22-28 12-50-15-33-15-35 1-35 7 0 17 12 23 27l9 27 103-99 103-99 28 17c16 9 31 14 35 10 12-12 6-31-13-36-11-3-22-17-26-36-3-17-11-33-15-36-14-9-61 19-98 58-33 34-34 35-17 61 19 29 1 39-19 11-10-13-23-7-91 46-120 93-334 232-447 289-94 49-115 70-73 78 10 3 15 0 11-7-4-6-2-11 4-11 6 0 16 11 22 25 7 16 17 24 26 20 7-3 18-5 24-5zm-441-89c111-41 116-44 111-68-3-18-1-24 7-19 6 4 11 14 11 22 0 17 2 17 35 2 14-6 25-20 25-30 0-12 4-16 12-12 6 4 17-1 24-11 11-15 14-16 19-3 5 12 12 13 41 4 19-6 37-19 40-29 4-12 12-16 25-12 11 4 19 2 19-4 0-6 9-11 19-11 25 0 37-18 22-33-15-15-14-27 3-27 8 0 16 7 20 15 7 19 26 20 26 1 0-29-25-37-64-21-31 13-36 18-26 30 15 18-1 20-17 4-9-9-21-8-47 5-20 9-36 21-36 27 0 6-5 7-11 4-6-4-19 2-30 14-11 12-30 21-43 21-13 0-76 18-139 41-99 35-114 43-110 60 6 23-12 26-21 3-9-24-49-13-60 17-11 31-1 63 17 57 6-3 64-24 128-47zm2045 15c-5-27-3-37 11-45 16-9 16-12 3-21-8-5-27-10-42-10-14 0-34-3-43-6-10-4-15-2-13 7 3 15-10 15-69 3-29-5-33-4-33 15 0 15 6 21 23 20 12-1 37 2 54 6 26 6 34 4 39-9 3-9 16-16 28-16 19 0 21 5 18 45-3 37-1 45 13 45 14 0 16-6 11-34zm-1679-17c49-31 40-32-23-4-31 14-58 25-60 25-2 0-4 4-4 10 0 12 42-3 87-31zm451-28c23-27 42-52 42-55 0-3-12-6-27-6-14 0-23 3-20 6 3 4 1 16-5 28-7 11-11 24-10 29 3 11-26 9-30-3-1-5-13-7-25-4-25 7-31 39-10 47 29 12 46 4 85-42zm-658 4c16-9 19-14 9-15-8 0-24 7-35 15-24 18-7 19 26 0zm157 4c12-12 6-49-8-49-5 0-9 5-9 10 0 6-9 10-20 10-23 0-26 10-8 28 15 15 31 15 45 1zm45-52c-5-22-5-22 16-3 22 19 22 19 22-2 0-24 15-30 24-9 3 8 8 7 16-5 6-10 18-18 25-18 8 0 15-7 15-15 0-13 4-14 20-5 17 9 20 8 20-8 0-10-3-21-6-25-3-3-44 13-90 36-77 39-98 60-78 80 13 12 22-3 16-26zm1443-8c5-14 2-25-6-30-28-18-33-11-23 29 8 28 21 28 29 1zm-1935-24c9-11 11-37 6-96-7-75-6-82 13-96 12-8 21-23 21-34 0-21-10-25-26-9-10 10-52-341-60-505-6-115 13-52 26 90 6 61 13 127 17 149 6 37 7 38 41 32 19-3 39-9 43-13 4-4 1-84-6-178-7-93-16-221-20-282-6-99-9-113-25-113-10 0-23 7-30 15-18 22-68 18-128-10-61-28-69-22-57 43 3 20 6 55 6 77 0 22 11 92 24 155 12 63 35 196 49 295 79 539 75 518 106 480zm160 0c44-23 36-27-12-8-52 20-57 23-34 23 9 0 30-7 46-15zm1097 0c3-9 3-18 1-21-9-9-38 8-38 22 0 19 29 18 37-1zm763 5c0-10-38-32-84-50-19-7-24-6-20 3 5 15 40 37 74 48 14 4 26 8 28 8 1 1 2-3 2-9zm259-52c37-216 64-451 50-442-14 8-39 112-59 244-11 72-25 154-31 181-12 55-7 79 15 79 9 0 17-20 25-62zm-2147 20c14-11 17-43 20-211l3-199-40 7c-22 4-55 9-73 12-22 3-32 10-30 20 2 8 7 13 13 13 19-3 24 38 24 203l1 167h33c18 0 40-6 49-12zm2078 2c0-13-48-35-57-27-8 8 26 36 45 37 6 0 12-5 12-10zm-1140-26c0-8-4-14-9-14-12 0-32 26-25 33 10 9 34-4 34-19zm208-37c2-35 0-47-11-47-17 0-53-38-44-47 4-4 13 2 21 12 20 28 31-1 11-31-13-20-19-23-31-13-8 6-14 20-14 30 0 21-22 38-28 21-7-21-22-13-22 12 0 25 25 43 35 26 12-20 27-9 22 16-3 17 0 28 10 31 13 5 12 8-3 16-17 10-17 11 1 18 39 15 50 6 53-44zm-992 9 59-24 6-179c3-98 5-179 3-181-1-2-21 6-43 18-23 11-57 21-76 22l-35 1v184c0 146 3 183 13 183 8 0 40-11 73-24zm1229 15c3-5 19-12 35-16 36-8 38-16 8-34-16-10-23-10-26-2-2 6-10 11-17 11-12 0-25 21-25 41 0 12 17 12 25 0zm-690-27c17-14 21-21 10-15-30 14-61 40-50 41 6 0 24-12 40-26zm1319-16c5-29 25-331 22-334-1-1-24-4-52-7l-52-6-10 112c-23 239-23 237-4 237 9 1 28 7 42 15 38 22 49 18 54-17zm106-138c11-63 31-217 45-341 14-125 27-242 30-260 5-28 4-30-4-12-32 73-88 446-104 703-7 101 8 61 33-90zm-1396 95c12-10 16-20 11-32-5-12-9-14-12-5-3 6-11 12-19 12-8 0-17 7-21 16-3 8-12 13-19 10-10-4-14 3-14 20 0 25 0 25 28 9 15-9 35-23 46-30zm-184-22c0-9 8-11 24-7 21 5 23 3 18-23-5-27-4-28 15-10 21 19 33 14 33-15 0-10-7-18-16-18-26 0-154 81-147 94 20 35 26 37 50 15 12-13 23-29 23-36zm-195 9c83-41 80-35 77-181-4-148-5-150-82-111-22 11-46 20-55 20-13 0-15 22-15 151v150l23-7c12-3 36-13 52-22zm1532-118c17-213 17-214-11-214-44 0-52 20-65 161-7 74-15 141-17 150-4 15 51 50 71 45 6-1 15-65 22-142zm-425 124c8-24-4-54-25-63-11-6-23-16-25-23-3-11 0-12 17-3 31 17 26-4-6-25-15-9-50-42-77-71-32-36-54-52-64-48-9 3-29-7-49-27-33-31-35-32-48-15-11 15-17 16-34 7-23-12-25-18-11-40 8-13 10-12 10 3 0 21 19 19 33-4 7-11 1-24-22-48l-32-34-29 28c-35 33-41 82-12 91 53 17 65 25 54 36-17 17-15 31 4 24 9-4 23-1 31 5 17 15 29 4 15-14-7-8-9-17-5-20 11-11 33 14 33 38 0 18 4 22 20 18 22-6 26 7 8 25-6 6-8 15-3 19 4 5 10 2 12-4 7-20 23-15 23 7 0 24 13 26 31 4 11-14 11-21-3-45-24-42-5-36 41 13 44 45 46 59 6 38-14-7-28-10-32-6-11 11-14 46-3 46 6 0 10-4 10-10 0-5 7-10 15-10 13 0 14 4 5 20-12 22-1 27 18 8 17-17 27-2 12 17-15 19-5 34 12 17 20-20 40-15 28 7-14 26-13 38 2 23 18-18 30-14 23 8-3 11-2 20 3 20 6 0 12-5 14-12zm608-61c0-16-4-26-10-22-5 3-10 23-10 43 0 28 3 33 10 22 5-8 10-28 10-43zm-1212-27c48-34 54-55 17-55-14 0-25 6-25 12 0 7-12 20-27 30-16 9-30 18-32 19-5 4 10 24 18 24 4 0 27-14 49-30zm-173-3c4-16 13-23 28-23 15 1 23-6 25-21 5-34-33-30-70 7-25 25-28 33-18 45 18 21 29 19 35-8zm523-1c3-12-1-17-10-14-7 3-15 13-16 22-3 12 1 17 10 14 7-3 15-13 16-22zm68 5c-4-5-21-20-39-32l-32-22 34 36c31 33 52 44 37 18zm-698-44 62-41v-88c0-54-4-88-10-88-6 0-28 9-50 20-22 11-53 20-70 20h-30v115c0 132-5 129 98 62zm1507-97c5-37 4-52-3-45-6 6-13 37-17 70-8 76 10 54 20-25zm-1135 63c0-5-4-14-9-22-11-17-32-5-24 14 5 15 33 21 33 8zm550-18c-7-19-6-25 4-25 18 0 23-15 32-90 8-70 1-80-55-80h-33l4 74 3 74-51-47c-53-47-61-61-26-42 16 8 21 7 26-5 7-19 8-79 1-86-9-9-85 15-85 27 0 6 5 16 12 23 6 6 10 14 7 16-2 2-35-31-73-75-39-43-72-77-74-74-2 2 5 16 17 31 16 20 18 30 10 40-9 11-6 14 14 14 18 0 31 10 47 35 22 35 207 215 222 215 4 0 3-11-2-25zm-650-57c0-17 4-19 25-14 20 5 25 3 25-14 0-32-30-24-77 22-34 33-40 45-32 59 8 17 11 16 34-7 14-14 25-34 25-46zm-58-49c25-24 38-45 38-62 0-31-11-33-85-14-46 12-50 16-55 48-3 19-3 49-1 66l3 33 31-18c17-9 48-33 69-53zm218 52c0-11-4-23-10-26-6-4-10 5-10 19 0 14 5 26 10 26 6 0 10-9 10-19zm330-18c0-42-15-60-34-44-22 18-20 31 3 31 14 0 18 5 14 20-3 11 0 20 6 20 6 0 11-12 11-27zm-298-28c-12-22-27-2-18 22 5 12 10 13 17 6 7-7 8-17 1-28zm-865-16c24-9 26-12 11-20-9-5-37-6-63-2-43 5-46 7-30 20 23 16 44 17 82 2zm763-5c0-9 9-18 20-21 11-3 20-12 20-20 0-8 8-13 18-11 12 2 18-5 20-25 3-24 6-26 18-16 24 19 50-11 35-40-15-27-27-21-110 57-44 41-62 65-58 76 8 21 37 21 37 0zm340-19c0-28-15-34-24-9-10 25-7 34 9 34 9 0 15-9 15-25zm-930 1c35-11 41-16 27-21-17-7-106 0-115 9-8 9 9 26 26 26 9 0 37-7 62-14zm1769-123c27-168 54-279 83-338 12-25 19-47 16-50-3-3-28 3-56 14-29 11-58 18-65 15-17-6-20 12-42 221-8 83-18 165-21 182-5 28-3 34 20 44 14 7 26 20 26 31 0 10 4 18 8 18 5 0 19-62 31-137zm-2103-33c-4-74-11-195-17-268-10-123-10-134 7-153 23-26 13-33-70-49-57-11-61-11-78 10-25 31-11 46 17 20l23-22 21 21c31 31 38 78 52 348 12 244 13 251 32 240 18-11 19-20 13-147zm2017 145c-2-11-82-30-90-21-3 3 0 13 7 21 15 18 86 17 83 0zm-1894-12 24-6-6-172c-6-168-6-173 14-178 11-3 22 0 24 6 2 7 6 81 8 165 5 157 12 187 42 162 10-8 15-30 15-68 0-30 16-122 35-204 38-158 38-196-1-239-21-23-75-25-134-4-23 8-67 15-97 15-54 0-55 0-49 28 3 15 10 128 16 252 7 124 13 231 16 238 4 13 53 16 93 5zm431-3c8-5 12-12 8-15-9-10-99 6-92 16 7 12 65 11 84-1zm-182-56c2-22-5-40-23-63l-27-31 26-31c26-31 33-72 16-99-6-10-3-24 11-46 33-54 20-88-24-59-33 21-45 51-62 158-9 51-19 109-24 130-16 65-6 78 53 75 49-3 51-4 54-34zm1620-5c1-19 9-88 18-154 10-78 13-150 9-210-3-49-2-96 3-103 4-7 28-19 53-27l44-15-49 5c-27 3-65 1-85-4-86-22-93-22-89-9 3 7 18 15 34 18 26 5 30 11 42 65 13 59 11 2e2-4 394-6 70-5 83 7 79 8-2 15-20 17-39zm-1464 25c20-8 21-53 1-118-35-115-27-242 24-376 11-30 18-56 15-59-16-16-90 117-115 204-18 66-19 301-1 333 13 22 44 28 76 16zm-104-27c0-37-22-137-30-137-4 0-13 13-20 30-11 26-9 34 9 65 11 20 21 43 21 51 0 8 5 14 10 14 6 0 10-10 10-23zm513-28 49-51-6-59c-16-138-56-203-120-197-27 3-33-2-45-30-15-34-45-48-81-39-15 4-25-4-42-31-35-58-47-63-78-32-24 24-27 86-5 116 13 20 12 23-23 45-55 35-53 75 5 108 16 8 16 12-1 48-24 54-18 101 16 126 37 27 116 33 177 13 65-21 71-20 71 9 0 40 28 31 83-26zm1001-1c11-85 20-363 12-391-6-25-7-25-38-13-37 16-46 34-47 97-1 25-7 92-15 150-13 90-20 177-17 202 1 4 23 7 50 7h48l7-52zm259-5c42-192 56-279 56-338l-1-70-14 50c-18 63-51 251-57 328-6 58 6 79 16 30zm-1061-1c4-4 4-21 0-37-6-21-16-31-31-33-22-4-23-3-7 19 9 13 16 29 16 36 0 21-21 15-27-7-3-11-12-20-19-20-17 0-18 14-1 41 9 15 18 18 37 14 14-4 28-10 32-13zm237-7c16-8 31-22 35-31 6-15 8-15 26 1 27 24 36 13 23-30-11-34-10-36 28-66 42-33 48-57 24-99-19-33-19-64 0-80 22-18 18-60-6-86-19-20-20-27-10-55 15-45 14-69-5-69-23 0-74 55-74 81 0 18-3 20-12 11-38-38-128 8-128 65 0 21-3 24-12 15-38-38-108 23-127 111-7 31-17 55-22 52-13-9-11-33 11-120 11-43 20-1e2 20-126v-47l-71-7c-80-8-87-5-1e2 51-18 80-1 243 35 329l13 30 12-26c10-20 10-59 2-169-6-79-8-146-6-149 14-14 20 24 23 155 4 145 10 162 40 132 17-17 73 14 96 52 41 71 65 90 112 90 25 0 58-7 73-15zm126 9c8-4 22-18 29-33 18-34 31-121 19-121-26 0-73 87-73 135 0 27 1 28 25 19zm-933-119c8-19 8-28-2-40-21-25-30-17-30 25 0 45 15 52 32 15zm-148-102c5-39 38-130 83-232 4-9-3-8-28 4-37 20-129 96-129 108 0 4 16 7 35 7 41 0 44 12 20 80-19 53-19 80-1 80 8 0 16-17 20-47zm1161-121c0-139-22-232-55-232-46 0-186 72-175 90 11 18 41 10 66-16 36-38 71-54 93-42 15 8 17 18 11 54-4 31-1 52 11 76 14 28 15 40 5 96-10 56-10 67 4 89 29 44 40 13 40-115zm-1006 54c8-10 9-28 3-63l-9-48-17 37c-29 66-13 117 23 74zm339-45c-7-20-159-138-222-173l-67-37-21 44c-25 50-18 70 11 34 16-20 22-22 44-12 14 7 33 25 43 42 15 25 25 31 52 31 26 0 42 8 66 33 18 19 38 37 46 40 24 9 52 8 48-2zm-399-171c36-27 59-50 51-50-7 0-20 7-29 15-16 16-93 71-146 105-41 26-55 39-55 51 0 11 74-39 179-121zm391 105c-8-9-27-23-43-31-41-22-32 3 13 34 36 24 51 22 30-3zm368-13c14-18 16-42 3-42-7 0-76 51-91 67-3 3 13 3 35-1 22-4 46-15 53-24zm876-14c5-9 7-20 4-23-8-9-68 23-68 36 0 16 52 6 64-13zm106 2c0-5-5-10-11-10-5 0-7 5-4 10 3 6 8 10 11 10 2 0 4-4 4-10zm-1832-54c39-30 84-61 99-70 15-8 39-26 52-40 41-43 74-33 199 63 137 104 159 113 148 59-4-22-22-47-53-75-38-34-43-43-27-43 11 0 25 5 32 12 7 7 12 8 12 2 0-5-9-15-20-22-11-7-20-17-20-24 0-6 7-4 18 5 16 14 42 23 42 15 0-2-9-111-20-243-11-132-20-251-20-263 0-22-3-23-39-17-31 5-40 3-45-11-10-27 11-45 40-33 14 5 28 9 31 9 7 0-5-315-23-6e2-9-129-19-336-23-460-6-170-11-232-23-255-13-27-13-46-1-175 24-251 3-386-71-465-39-41-67-44-94-11-12 16-31 26-53 28-32 3-34 5-33 38 1 19 7 53 13 75 13 50 14 149 1 307-5 68-14 236-20 373-6 148-31 451-60 740-47 466-79 919-66 932 6 7 45-17 98-61 32-27 37-35 32-62-5-25 1-38 32-75 44-53 60-87 72-159 8-48 10-50 11-18 2 52 15 82 59 130 60 66 66 81 40 113l-22 28 49 42c45 39 47 44 33 59-23 23-30 21-85-22-26-21-53-41-60-45-18-11-57 8-146 75-47 35-106 77-133 93-50 31-76 67-67 91 10 26 41 14 111-40zm-308 19c20-25 7-26-35-5l-39 20h31c17 0 36-7 43-15zm1160-60c115-70 160-93 229-117l56-19 34 37c30 31 35 34 43 19 13-23 4-53-32-102l-31-42-72 31c-214 90-319 148-335 184-11 23-5 64 9 64 4 0 49-25 99-55zm-130-64c21-46 22-53 10-113-6-34-14-169-17-298-5-247-6-239 52-6e2 8-52 20-176 25-275 6-99 17-222 26-272 13-76 15-141 11-355-5-268-18-388-42-388-8 0-33 26-57 57-29 38-56 62-81 72-35 13-40 12-88-13-29-15-54-25-56-22-2 2-9 66-15 142-16 217-5 473 31 734 43 303 70 564 78 745 5 135-11 564-23 607-4 14 4 18 48 21 29 2 58 4 64 5 6 1 21-20 34-47zm-680-27c34-25 59-48 56-51-7-7-97 50-121 77-31 34 0 22 65-26zm520 0c0-14-4-22-10-19-5 3-10 17-10 31 0 14 4 22 10 19 6-3 10-17 10-31zm599 12c-23-22-54-27-74-13-16 13-16 14 11 10 16-2 38 2 49 11 24 17 35 11 14-8zm-253-61c10-8 14-15 7-15-19 0-43 11-43 21 0 13 14 11 36-6zm-650-92-26-38v32c0 22 7 37 22 48 32 22 34 2 4-42zm954 31c-6-14-10-32-10-40 0-20 20-17 20 4 1 15 2 15 15-2 8-11 15-40 15-64 0-44 0-44-31-38-26 5-29 4-20-8 9-11 8-18-4-30-22-21-41-20-65 4-26 26-26 60-1 60 20 0 37-32 26-50-3-5-1-10 4-10 6 0 11 16 11 35 0 24 5 35 15 35 19 0 19 5-2 36-15 23-15 28 0 60 20 40 42 48 27 8zm-653-18c-6-17-38-20-48-4-5 8-2 15 9 19 22 8 44 0 39-15zm437 9c39-17 41-21 26-60-9-25-5-32 61-101l72-74-7-272c-3-150-13-421-21-603-30-687-31-1115-3-1087 6 6 11 160 14 383 2 206 11 583 19 839 8 255 15 528 15 605v141l35 38c37 41 55 40 55-2 0-15 12-85 25-157 44-230 48-282 31-403-56-385-116-1050-121-1352l-4-235-56-47c-32-28-69-50-90-54-79-15-90 13-76 206 11 149 31 614 31 727 0 60 1 63 24 63 16 0 27 7 31 21 8 24-1 35-30 41-19 3-20 16-32 353-6 193-16 415-23 495-10 137-45 463-55 523-4 23-1 27 19 27 13 0 40-7 60-15zm-834-22c0-5 3-19 7-31 5-21 3-23-18-20-33 4-42 58-10 58 12 0 21-3 21-7zm151-19c14-18 2-47-22-52-10-2-14 8-14 33 0 37 14 45 36 19zm526-14c3 0 12 8 20 18 13 15 14 14 8-11-5-25-3-28 15-22 16 5 19 3 13-10-7-20-52-14-90 10-25 17-32 38-9 29 8-3 18 1 22 8 7 10 9 9 12-4 2-10 6-18 9-18zm245-12c3-20 4-21 20-5 35 35 38 15 4-27-20-24-26-27-45-17-20 11-29 50-14 64 13 14 32 6 35-15zm-859-22c10-8 17-26 17-45 0-24-4-31-20-31-13 0-24 10-30 26-22 56-6 80 33 50zm329-12c14-31 0-44-47-44l-30 1 23 18c12 11 22 26 22 35 0 25 19 19 32-10zm290-5c44-23 62-45 27-34-42 13-88 36-101 52-11 14-10 15 12 8 14-4 42-16 62-26zm-59-14c20-8 39-24 42-36 5-15 10-18 18-10 18 18 27 13 27-14 0-14 8-29 20-35 11-6 20-15 20-20 0-17-29-11-50 10-12 12-25 18-29 15-5-2-23 0-40 6-22 8-31 17-31 34 0 12-7 28-15 35-8 7-12 16-9 21 7 11 5 12 47-6zm52-121c11-8 14-14 7-14-16 0-72 28-72 36 0 8 42-7 65-22zm-55-51c0-31 2-34 16-22 8 7 13 21 11 31-6 21-8 21 32 7 29-10 32-15 29-40-6-36 9-38 22-4 12 33 24 32 16-1-6-21-3-27 14-31 11-3 19-11 17-17-6-17-80-10-137 15-43 19-51 25-46 43 3 12 6 31 6 44 0 13 4 20 10 17 6-3 10-22 10-42zm-2e2-18c0-8-9-19-20-25-11-6-20-17-20-25 0-8-7-15-16-15-8 0-13 4-10 9 3 5-1 14-10 22-13 11-10 15 23 30 47 22 53 23 53 4zm-10-89c0-20-16-29-67-36-44-7-58 6-30 28 28 23 97 28 97 8zm210-23c13-27 14-27 18-5 4 25 22 31 22 7 0-8 5-15 10-15 6 0 10 5 10 10 0 20 21 9 30-15 11-30 30-33 30-5 0 21 8 24 34 14 21-8 20-41-1-47-10-3-45-4-77-3-50 3-63 7-83 30-23 27-31 56-15 56 5 0 15-12 22-27zm-252-99c-2-11-13-20-26-22-17-3-22 2-22 19 0 18 2 19 15 9 13-10 15-9 15 11 0 17 3 20 11 12 6-6 9-19 7-29zm334-5c109-26 113-44 10-44-56 0-76 4-98 21-34 25-42 44-19 44 10 0 58-9 107-21zm-314-109c15 0 15-17 1-26-7-4-20 4-30 17-24 31-24 47-1 26 10-10 24-17 30-17zm294-34c5-8 17-7 39 1 29 11 35 10 56-11 20-20 21-25 9-35-11-9-19-9-35 1-16 10-27 10-54 0-46-17-48-16-41 15 6 22 4 25-10 20-11-5-16-1-16 12 0 15 5 18 23 13 12-3 25-10 29-16zm-313-63c10-17 10-17 11 2 0 15 3 16 12 7 20-20-22-53-73-58-39-5-42-4-26 9 9 8 17 21 17 29 0 32 42 40 59 11zm836-86c21-130 110-723 135-907 28-205 69-477 150-995 17-104 30-194 30-199 0-18-32 20-55 64-13 25-49 68-79 94-31 26-68 69-82 94-15 26-78 124-141 218l-114 170 25 355c35 483 90 1102 102 1137 6 21 23 4 29-31zm-827-38c-4-30-48-41-48-12 0 11-5 24-12 31-9 9-9 12 0 12 7 0 15-7 18-15 9-22 24-18 24 7 0 16 3 19 11 11 6-6 9-21 7-34zm414-16c-1-4 6-16 15-25 14-16 14-18 0-24-24-9-112 19-112 36 0 20 43 21 54 2 10-18 31-8 31 15 0 9 3 14 6 11 3-4 6-10 6-15zm-443-69c-11-14-11-18 4-29 17-12 16-14-9-34-33-26-59-24-59 4 0 13 8 21 23 23 18 3 23 8 19 23-3 11 1 23 11 28 23 13 28 5 11-15zm411 6c21-7 19-8-17-9-23-1-45 4-48 9-7 12 29 12 65 0zm-80-25c7-8 20-14 29-13 10 2 17-5 19-19 3-17-2-23-17-23-20 0-81 45-81 61 0 15 36 10 50-6zm117-35c1-14 0-18-3-7-6 18-24 24-24 7 0-5-4-10-10-10-5 0-10 9-10 21 0 32 44 22 47-11zm-497-89c0-16 7-34 15-41 19-16 10-30-21-30-25 0-32 14-14 25 6 4 8 21 4 41-4 22-2 34 5 34 6 0 11-13 11-29zm4e2 9c0-24 15-26 24-3 5 12 9 14 18 5 15-15-6-39-37-44-16-2-21 3-23 30-2 18 1 32 7 32 6 0 11-9 11-20zm120-91c0-12-47-12-54 0-3 4-3 10 0 13 7 8 54-3 54-13zm-5e2-25c0-14-4-23-10-19-5 3-10 15-10 26 0 10 5 19 10 19 6 0 10-12 10-26zm498-160c-19-19-48-12-48 12 0 13 3 14 15 4 12-10 16-9 21 5 5 12 10 13 17 6 8-8 6-16-5-27zm-510-6c-3-26-32-35-53-18-21 18-6 40 27 40 25 0 29-4 26-22zm492-53c30-37-50-50-88-15-12 12-22 23-22 25 0 13 99 4 110-10zm-5e2-84c0-6-5-13-10-16-15-9-43 3-35 15 8 13 45 13 45 1zm-11-97c7 5 11-2 11-18 0-19-5-26-20-26-16 0-20 7-20 33 0 22 3 28 9 18 5-7 14-10 20-7zm-719-178c0-18-7-25-30-30-34-6-46-27-34-53 6-15 8-13 12 10 5 38 28 29 24-9l-4-29 35 40c40 45 51 44 37-5-5-18-7-37-4-41 11-19 36-8 47 21 8 20 20 31 40 36 16 3 30 4 33 1 2-2 5-26 6-53 2-70 16-83 42-42l21 33 3-72c3-67 12-88 27-63 11 17 35 11 35-9 0-11-4-22-9-25-4-3-12-47-16-97-8-112-29-183-58-204-30-21-35-19-29 10 4 25-13 36-20 13-7-19-38-1-38 22 0 12-4 18-10 15-5-3-10-21-10-40 0-53-9-65-45-65-19 0-37 5-41 11-9 16 37 50 52 38 14-12 24-1 24 28 0 29-23 30-67 3-30-18-35-18-74-5-36 13-46 13-70 1-27-13-30-13-43 6-16 22-36 17-36-9 0-9 10-27 22-40 12-13 19-26 15-29-3-3-28 16-56 44-35 35-53 46-60 39-18-18-25 2-8 21 23 25 21 42-3 42-28 0-25 11 10 45 35 33 38 58 10 82-11 10-20 25-20 35 0 10-4 18-9 18-15 0-21-30-15-70 7-43-9-61-27-29-8 16-8 28 0 46 6 13 11 33 11 43 0 13 12 25 35 34 37 16 45 30 20 40-27 10-15 26 20 26 42 0 49 26 10 36-14 3-25 13-25 21 0 11 6 14 23 9 83-24 108-16 71 25-10 12-14 25-9 36 7 17 8 17 14-1 10-26 23-4 19 31-2 15 3 28 10 31 9 3 11-6 7-35-3-21-1-45 4-53 12-18 11-19 42 55 16 38 34 64 49 72 35 18 40 16 40-11zm716-64c-11-10-14 3-8 33l7 30 3-28c2-16 1-31-2-35zm39-192c14-43-38-90-77-69-14 8-18 14-10 17 6 2 12 17 12 33 0 37 13 37 27 2l11-28 1 33c1 36 26 45 36 12zm125-49c0-14-28-33-40-26-20 12-10 35 15 35 14 0 25-4 25-9zm55-5c25-18 28-114 5-126-8-4-25-12-38-19-27-14-62-6-62 14 0 13 8 17 62 29 40 9 46 42 14 75-35 36-20 56 19 27zm-605-35c19-37 7-101-20-101-3 0-5 27-5 60 0 62 7 74 25 41zm818-14c3-21 0-26-12-21-19 7-22 58-3 52 6-3 13-17 15-31zm-329-16c21-14-4-49-49-67-49-20-77-63-106-164-25-87-59-120-125-120-27 0-46 7-61 23l-23 22 43 6c27 3 52 15 71 33 30 29 30 28 91 158 28 61 49 92 68 102 30 17 70 20 91 7zm272-61c49-32 81-81 99-150 26-105 53-129 120-110 55 16 80 13 80-10 0-50-119-77-178-40-36 22-62 72-62 118 0 40-72 148-115 173-35 21-41 30-28 42 13 14 41 6 84-23zm-721-20c0-32-31-1e2-46-1e2-7 0-20 13-29 29-14 29-14 30 20 50 19 11 35 25 35 31 0 5 5 10 10 10 6 0 10-9 10-20zm640-15c10-12 9-16-4-21-9-3-16-11-16-18 0-20-49-36-76-24-13 6-24 14-24 17 0 6 90 59 101 60 4 1 12-6 19-14zm-157-74c11-8 28-11 47-7 17 3 30 1 30-4 0-17 43-11 78 10l32 20v-28c-1-46-26-127-40-124-52 12-1e2 13-1e2 3 0-6-4-11-10-11-5 0-10 7-10 15 0 8-14 18-32 23-31 8-34 12-45 73-7 35-9 72-6 83 4 16 7 14 22-10 10-16 25-35 34-43zm-1052-103c63-51 107-68 178-68 71 0 142 22 190 58l34 25 18-24c33-43 16-88-20-55-10 9-23 16-29 16-18 0-14-48 4-58 12-7 13-11 5-17-7-4-23 3-37 16-32 30-44 16-14-16 29-31 9-34-35-5-16 11-43 20-60 20-29-1-29-1-11-15 11-8 27-15 37-15 9 0 22-7 29-15 10-12 10-15 0-15-8 0-10-8-6-24 3-14 3-32 0-41-6-14-10-13-34 10-16 15-33 23-42 20-12-5-20 3-29 29-13 37-29 48-29 21 0-18-12-19-29-2-8 7-6-3 5-28 28-65 24-95-15-122-19-13-38-23-42-23-17 0-9 17 14 28 16 8 18 11 5 11-35 2-48-27-48-104 0-85-15-107-23-35-3 27-13 63-22 81-22 42-13 68 35 101 48 33 52 62 13 108-21 26-24 33-12 41 20 13-6 29-50 29-28 0-32 3-26 18 4 9 10 28 13 41 6 31-14 25-42-13-17-23-21-42-21-113l-1-85-38-19c-21-10-44-23-52-30-9-7-14-8-14-1 0 6 19 26 41 45 41 33 42 35 35 81-4 26-16 56-27 67-27 27-17 54 31 84 21 13 41 29 45 35 8 13 16 8 76-42zm469-5c0-7-4-13-8-13-15 0-32 24-32 44 0 18 1 19 20 1 11-10 20-24 20-32zm850 33c0-23-13-25-32-4-17 17-17 18 7 18 15 0 25-6 25-14zm-757-86c-1-19 5-63 13-98 21-92 19-102-14-102-38 0-54 14-92 87l-34 61 29 39c37 49 45 54 75 51 22-3 25-7 23-38zm1213-13c18-23 46-68 64-99 29-54 30-58 13-65-10-3-35-21-56-40-43-39-75-42-104-10-45 49-53 88-31 159 11 39 57 98 75 98 4 0 22-20 39-43zm-580 2c19-22 19-22-9-15-27 6-27 6 16-48 25-29 46-58 48-63 2-5 30-26 62-46 31-20 57-41 57-47 0-13-7-13-68 1-45 11-54 10-95-10-34-17-51-33-66-65-27-55-28-148-2-217 18-46 18-51 3-45-80 26-91 32-97 53-3 13-13 23-21 23-14 0-14-3-4-15 19-22 12-24-54-14-95 15-80-5 23-32 27-6 57-24 75-43 41-42 110-157 107-177-1-9 14-28 34-44l36-27-113-55c-62-29-121-64-130-76l-18-22v22c0 25 20 47 61 68 28 15 39 35 19 35-5 0-10 7-10 15 0 10 10 15 33 15l32 1-38 13c-21 8-56 26-77 41-63 43-70 34-70-95 0-115-11-162-45-190-15-12-14-7 6 30 30 58 30 144 0 218-28 70-27 113 3 141 28 26 42 22 113-36 73-60 89-11 21 63l-43 46-59-5c-71-6-106-30-124-82-10-32-10-47 4-99 28-99 29-146 4-198l-21-45-69-6c-79-7-128-28-134-60-3-12-7-31-9-42-3-16-7-13-20 17-21 47-21 77-1 106 17 25 39 30 30 7-8-21 8-19 29 5 10 11 31 20 47 20 98 0 160 118 112 212-31 60-19 114 39 175 17 18 27 36 23 40-4 4-27-13-51-38-58-61-64-97-35-198 20-69 22-83 10-111-12-29-54-60-81-60-6 0 7 20 30 45 46 50 47 55 26 115-22 63-19 138 8 190 24 49 76 90 113 90 25 0 32 14 14 25-18 11 0 25 33 25 53 0 63 13 33 45-14 15-26 33-26 40 0 13-38 50-60 58-12 4-12 6 2 6 10 1 35-6 57-15 48-19 85-15 89 9 2 12-3 17-18 17-11 0-38 9-60 20-47 24-70 25-70 5 0-20-16-19-70 6l-45 21 46 41c71 64 148 106 184 1e2 26-4 34-12 50-56 11-29 21-55 23-59 2-5-3-8-11-8-9 0-30 18-47 40-32 41-65 51-87 29-8-8 0-22 33-50 56-49 109-54 124-14 5 14 15 25 22 25 8 1 6 6-5 14-16 13-16 14 5 20 22 6 21 7-12 23l-35 17 44 5 45 6-37 13c-23 8-43 25-52 43-18 34-6 38 33 11 62-43 92-30 52 21-25 31-25 44-2 50 40 11 70 6 88-14zm-1246-50c0-28-4-48-9-45-12 8-25 82-16 96 13 21 25-3 25-51zm1670-19c-16-39-24-31-16 16 5 26 10 34 18 26 8-8 7-20-2-42zm-1585-10c17-32 19-50 7-50-7 0-42 63-42 75 0 16 22 0 35-25zm830 16c40-17 46-36 11-36-24 0-56 23-56 41 0 12 5 12 45-5zm-861-42c7-19-10-54-28-54-7 0-26-19-42-42-23-36-28-52-26-96 3-44-1-58-22-83-14-17-29-42-32-55-14-54 17-134 51-134 17 0 24-33 12-56-5-10-22-32-37-49-16-16-30-38-32-47-2-14-7-11-21 13-17 31-17 31 13 57 37 32 44 88 10 79-17-4-26 5-50 46-35 61-38 95-9 131 12 15 18 33 15 44-9 26 28 59 48 43 20-16 30 3 16 29-6 11-8 30-4 42 5 17 3 20-11 15-40-16-5 17 50 46 48 26 61 37 63 60 4 29 26 37 36 11zm808-30c-4-23-6-24-28-9-13 8-31 15-40 15-12 0-14 3-6 13 7 8 25 11 45 9 30-3 33-7 29-28zm-384 14c16 0 28-11 42-39 24-46 25-59 5-59-8 0-15-9-15-20 0-25 35-27 49-3 5 10 13 15 16 11 11-11-66-138-97-161-41-30-68-13-106 66-17 36-41 71-52 77-21 11-20 14 37 75 44 48 63 62 78 58 11-3 30-5 43-5zm1022-13c0-19-36-39-45-25-8 13 13 40 31 40 8 0 14-7 14-15zm-1260-49c0-12-5-28-10-36-7-11-10-6-10 22 0 20-3 45-6 55-5 16-4 16 10-1 9-11 16-29 16-40zm494-43c11-35-11-27-23 8-16 45-14 70 3 39 7-14 17-35 20-47zm1186 6c0-21 20-25 37-8 7 7 29-9 74-56 35-37 65-70 67-74 1-5-11-11-27-14-21-5-42-22-71-61-48-65-70-80-94-63-9 7-36 60-60 120l-44 107 26 14c15 8 38 26 51 40 26 28 41 26 41-5zm-220-15c0-17-5-24-19-24-11 0-23 5-26 10-3 6 1 10 9 10 9 0 16 9 16 21 0 11 5 17 10 14 6-3 10-17 10-31zm-144-77c139-141 220-286 270-485 13-53 23-97 21-99-8-7-146 41-217 77-42 21-113 65-158 99-45 33-82 56-82 51 0-25 86-1e2 166-145 87-49 98-68 27-44-70 22-128 57-204 122-70 60-81 75-130 174-44 91-52 117-52 164 0 111 64 167 178 154 41-4 65-3 70 4 13 21 31 10 111-72zm-1296 42c-13-8-12-11 4-24 21-16 36-11 36 11 0 26 21 4 41-44 19-43 19-47 3-59-27-20-10-47 26-39 35 6 37-1 14-47-27-53-64-97-82-97-9 0-42 21-72 46-30 25-65 50-77 54-28 12-29 40-4 95 18 40 109 131 120 120 3-4-1-10-9-16zm588-40c31-28 18-41-37-37-57 4-63-18-12-44 25-13 39-14 56-6 26 12 55 5 55-12 0-8-11-9-30-5-23 5-30 3-30-9 0-9-13-18-37-22-33-6-39-4-63 26-25 31-29 32-43 18-15-14-14-17 4-34 12-11 27-31 35-46 15-30 41-36 76-17 32 17 46-5 15-26-20-13-30-14-46-6-26 14-63 15-41 1 8-5 11-12 6-17-4-4-29 15-56 44-40 41-52 48-61 37-15-18-2-72 21-84 10-6 34-10 53-10 40 0 70-26 46-40-15-10-57-3-77 13-15 12-30 1-16-12 5-5 24-13 42-18l33-8 3-80c1-44 6-89 10-1e2 8-20 7-20-8-1-9 11-16 35-16 54 0 50-27 87-107 148-40 30-73 57-73 61 0 14 64 121 103 172 23 30 55 60 72 67 46 20 98 17 123-7zm1253-98c-31-23-19-45 20-37 25 5 30 1 49-39 11-24 23-59 27-78 5-30 1-36-28-55-19-12-47-31-64-42-16-11-45-20-62-20-36 0-50 19-73 97-12 41-12 43 24 92 44 59 91 101 114 101 13 0 12-4-7-19zm-2070-41c12-27 25-47 30-44 5 3 18 22 29 42 23 44 27 18 5-35-8-19-15-61-15-92 0-81-10-131-26-131-8 0-14 8-14 18-1 34-17-10-25-66-9-67-44-112-87-112-23 0-29 4-26 18 2 11 13 17 32 17 42 0 55 27 32 66l-18 31 29 36c67 83 79 147 43 215-18 33-27 87-15 87 2 0 14-22 26-50zm-94-29c-1-21-5-37-9-34-11 6-10 73 1 73 5 0 8-18 8-39zm913 9c-8-5-26-10-40-10-20 0-22 2-10 10 8 5 26 10 40 10 20 0 22-2 10-10zm1510-25c0-8-8-19-17-24-17-10-17-12 0-25 20-15 21-27 6-80l-11-40-36 38c-32 34-34 40-22 59 11 18 10 23-9 38-23 19-28 39-9 39 6 0 20-7 30-16 14-14 20-14 33-4 8 7 15 19 15 27 0 8 5 11 10 8 6-3 10-12 10-20zm-2217-37c-6-31-6-31 30-25 29 5 45 0 76-20l39-25-15-61c-25-110-61-133-127-82-18 14-37 25-42 25-5 0-7 39-4 89 5 68 10 95 24 110 25 28 27 27 19-11zm1786-74c-10-12-14-12-20-2-13 20-11 28 6 22 11-4 15 1 16 17l2 24 4-23c3-13-1-30-8-38zm-1481-12c11 2 16 11 14 26-3 23 4 27 26 13 10-6 11-13 1-34-10-21-19-27-44-27-18 0-43 9-56 20l-24 19 23 1c12 0 26 8 30 18 5 13 8 11 10-11 3-20 8-27 20-25zm220-48c12-14 22-32 22-41 0-13-7-10-29 11-26 25-35 28-71 22-31-5-42-3-46 9-3 8-10 13-15 10-4-3-6-12-2-20 3-10 20-15 54-15 27 0 49-4 49-9 0-12-84-25-105-17-19 7-19-8 0-24 11-9 22-9 50 0 54 18 60 11 61-61 0-35 4-73 8-85 6-15-4-35-39-82-26-34-53-62-60-62-8 0-20-9-28-20-12-18-16-19-27-5-9 11-9 22-2 45 14 37 0 39-28 3-21-27-22-27-35-9-8 10-16 24-18 30-5 13-117-103-117-122 0-26 23-102 30-102 5 0 11 14 15 30 8 35 25 31 25-6 0-13 4-24 8-24 17 0 32 25 32 53 0 24 24 79 48 107 9 12 32-37 38-82 4-26 13-56 21-65 12-16 13-13 11 30-4 67 4 63 40-23l11-25 7 23c8 28 24 29 24 0 0-21 1-21 28 7 15 17 52 43 84 60 50 26 59 28 83 17 27-12 27-15 21-67-4-35-2-55 4-55 5 0 10 7 10 15 0 18 17 20 22 3 6-18 37-2 48 24 5 13 9 17 9 11 1-7 7-13 14-13 17 0 37 41 38 78 1 22 3 19 15-17 17-54 40-81 69-81 14 0 26-9 33-25 15-34 35-32 49 5 6 16 18 30 26 30 14 0 37-47 37-75 0-14-438-29-870-30-146-1-308-5-361-9-111-10-209-1-209 18 0 7 9 21 21 32 16 14 22 15 28 5 6-9 18-11 40-6 24 5 31 12 31 30 0 12-7 28-15 35-19 16-20 40-1 40 7 0 19-7 26-15 22-26 40-18 40 19 0 56 17 51 50-14 17-33 35-60 40-60 6 0 10-11 10-25 0-20 5-25 25-25 32 0 69 54 54 81-5 10-9 30-9 44 0 14-5 35-11 46-8 16-13 18-25 8-25-20-26-4-6 63 20 62 20 62 31 35 6-16 11-39 11-53 0-33 26-94 41-94 7 0 10-13 7-35-4-38-2-41 25-21 11 9 17 27 17 54 0 50 14 61 36 27 12-18 15-38 12-69-5-41-4-43 23-43 25 0 29 4 29 27 0 14-11 41-25 60-32 43-31 54 4 79 19 14 30 32 34 57 4 21 27 65 56 105 28 37 57 81 65 97 14 28 17 29 58 21 24-4 54-8 67-9 43 0 4 29-42 32-38 3-42 5-39 28 1 14 18 57 37 97l34 72 58-34c32-19 68-47 81-61zm547 60c9-4 31-30 49-59 33-51 92-105 153-140 37-22 34-35-8-35-41 0-68 16-63 37 3 13-5 23-28 33-21 10-50 40-80 85-57 85-59 92-23 79zm995-45c0-11-4-18-9-15-5 3-20-3-32-13-22-18-22-20-6-26 9-4 23-5 31-2 12 5 15-10 18-74 3-84-4-95-37-59-10 11-23 20-28 20-6 0-3-8 6-18 10-10 17-21 17-24 0-10-59-30-69-23-20 11-40 61-47 112-6 48-5 51 17 58 13 4 46 25 73 46 55 44 66 47 66 18zm-1310-46c-18-55-34-67-27-20 6 37 25 72 34 63 3-3 0-22-7-43zm1130-49c15-39 13-47-12-39-13 4-31 7-40 8-19 1-26 17-8 17 6 0 10 5 10 11 0 6-10 8-22 5-15-4-12-1 7 9 43 20 54 18 65-11zm-2110-39c0-5-5-3-10 5-5 8-10 20-10 25 0 6 5 3 10-5 5-8 10-19 10-25zm226-16c6-36 9-40 30-35 23 6 24 5 24-57 0-73-19-154-45-194l-19-28-17 70c-11 42-18 113-18 178-1 1e2.0 107 19 107 15 0 21-9 26-41zm224 11c13-8 12-10-3-10-11 0-21-9-24-20-6-21-18-26-27-12-3 5-2 18 1 30 6 23 28 28 53 12zm337-12c40-38 24-136-21-127-17 4-16 6 4 31 21 28 20 48-3 48-26 0-38 17-31 43 8 33 20 34 51 5zm329-3c6-15-12-45-27-45-11 0-22 38-14 50 9 15 35 12 41-5zm-120-30c32-78 4-212-51-237-41-18-41-1 0 39l38 37-6 98c-3 54-4 98-1 98 3 0 12-16 20-35zm-856 4c0-6-29-43-65-81-59-64-65-74-65-114 0-32-5-46-19-53-22-12-31 2-31 50 0 51 25 93 90 152 61 55 90 70 90 46zm1980-33c0-26-94-121-110-111-14 9-12 25 3 25 7 0 19 9 27 20 8 11 22 20 32 20 13 0 18 8 18 28 0 16 3 32 7 35 13 14 23 6 23-17zm-979-16c-21-18-41-26-41-16 0 21 16 36 39 36l26-1-24-19zm454 4c59-5 89-13 117-30 54-34 68-32 48 7-8 15-7 19 3 19 28 0 42-29 30-60-13-34-7-43 19-29 15 8 18 17 13 41-7 28-5 30 16 25 13-3 41-9 61-12 30-6 42-15 62-49 14-22 51-70 84-106 32-36 64-75 71-88l12-22-40 16c-39 16-40 15-76-13-62-49-60-92 3-57 25 14 45 18 62 14 14-4 48-5 76-2 57 5 94-9 94-37 0-14-10-20-46-25-67-9-397-7-412 2-9 6-5 14 14 31 24 21 27 21 43 7 38-34 71-13 1e2 62 12 28 17 52 12 52-5 0-42-22-82-49-40-28-76-48-80-45-15 9 2 31 37 47 38 18 53 42 36 59-7 7-15 2-27-16-19-28-39-33-52-13-6 10-20 5-60-23-50-35-51-38-37-58 9-13 26-22 42-22 24 0 25-1 10-16-16-16-125-20-350-15-41 1-52 18-16 23 13 2 24 11 26 22 3 14 0 17-12 13-13-5-16 1-16 27 0 48 8 65 42 82 50 26 67-2 47-76-4-15 13-17 66-8 14 2 21-3 23-20 4-26 19-28 43-6 16 14 18 14 29-5 14-27 30-27 30-1 0 12 6 33 14 48 7 15 17 37 20 50 7 19 4 22-24 22-40 0-95-23-108-46-8-15-14-10-36 33-14 29-30 54-35 58-6 3-36-7-68-24-53-26-59-33-71-75-12-47-35-64-32-23 3 36 1 38-25 21-31-20-39-14-31 23 16 72 81 133 142 133 17 0 37 7 44 15 11 13 7 15-22 15-87 0-154-50-184-136-10-30-21-54-25-54-4 0-12 13-19 30-7 16-19 30-26 30-8 0-14 4-14 9 0 16 70 93 117 130 40 31 54 36 114 39 75 5 96 22 26 22-99 0-2e2-55-253-137-22-36-29-41-45-32-49 26-6 85 1e2 138 42 21 87 48 101 60 27 23 33 23 275 5zm-1435-19c0-8-11-27-25-43-14-17-25-43-26-58-1-40-23-99-37-98-7 1-19 2-27 3-28 2-19 73 15 117 17 21 40 53 51 71 20 31 49 36 49 8zm208-39c4-20-17-21-43-2-12 8-16 19-12 31 7 16 9 16 30 2 12-8 23-22 25-31zm1906 38c19-7 20-59 6-168-11-87-24-102-46-51-15 36-47 185-41 191 3 3 61 34 64 34 1 0 8-3 17-6zm-134-94c12-12 18-25 15-30-4-6 1-10 9-10 9 0 16-4 16-9 0-17-20-23-35-11-12 10-18 10-30 0-9-7-19-10-23-6-4 4 1 14 12 21 13 10 17 21 12 39-8 31-2 32 24 6zm-1660-69c0-12-11-23-27-29-16-5-36-13-46-17-13-6-16-3-11 9 3 9 12 16 19 16 7 0 23 9 36 20 30 24 29 24 29 1zm168-42c-3-33-3-34-16-11-7 12-10 32-7 43 10 32 27 8 23-32zm1710-62c10-18 40-46 67-64 27-18 53-40 58-49 9-15 4-16-54-10-34 4-68 13-73 21-13 16-56 30-56 18 0-5 5-14 12-21 9-9 9-12 0-12-6 0-19 14-28 31-15 29-14 34 4 78 11 25 23 64 27 86l8 40 8-43c5-24 17-58 27-75zm-1538 94c0-9-60-34-67-27-2 2-1 11 3 20 6 17 64 23 64 7zm287-88c-4-17-4-17-12 0-4 9-4 25 0 35 8 16 8 16 12 0 3-10 3-26 0-35zm-977-15c26-43 25-48-5-48-28 0-52 37-42 64 10 25 25 19 47-16zm2080 12c0-11-4-20-9-20-14 0-23 18-16 30 10 17 25 11 25-10z"/><path d="M3327 11738c-44-16-84-126-94-258-5-72-3-83 8-72 9 8 13 32 12 65 0 28 3 60 9 70 9 17 11 17 44-8 33-26 65-30 65-10 0 6-10 13-23 16-20 6-21 7-5 14 10 4 61 2 113-5 53-6 98-9 101-6 13 12-17 56-37 56-31 0-60 18-60 37 0 13 5 12 25-7 14-13 28-20 32-16 5 4-4 18-19 31-21 18-45 25-99 31-64 6-69 8-55 22 18 18 64 20 149 8 66-10 75 2 22 27-40 19-143 22-188 5z"/><path d="M2942 11728c-20-20-13-30 16-23 39 8 111-9 135-34 20-19 20-19-21-14-58 8-110-4-138-32-33-34-31-49 6-41 26 5 30 3 28-12-3-15 5-17 67-15l70 3-23-19c-29-25-10-39 23-17 13 9 26 16 27 16 9 0-3-215-12-218-6-2-10 0-9 5 5 27-1 35-16 23-30-25-17-63 38-107 55-47 85-53 110-25 27 30 22 47-8 28-28-18-44-20-65-6-13 8-14 34-12 162 2 83 8 163 13 176 13 33-45 144-81 153-42 12-135 10-148-3z"/><path d="M3284 11315c1-30 4-55 7-55 13 0 39 38 39 57 0 17-28 53-42 53-2 0-4-25-4-55z"/><path d="M2830 10851c13-25 33-28 28-4-2 10-11 19-21 21-16 3-17 1-7-17z"/><path d="M4114 10075c5-20 3-25-14-25-38 0-20-21 46-52 54-25 69-29 89-20 22 10 23 14 13 42-11 33-49 55-79 47-11-3-19 2-22 14-3 11-13 19-22 19-13 0-16-6-11-25z"/><path d="M2123 10029c-18-5-38-19-44-30-9-18-8-20 8-15 13 4 26-1 38-14 23-26 45-26 45 0 0 26 16 26 31-2 10-19 12-20 21-4 10 18-13 66-31 66-5 0-15 2-23 4-7 2-28 0-45-5z"/><path d="M2144 9516c-11-29 0-51 26-51 21 0 25 5 25 30 0 24-5 31-23 33-13 2-24-3-28-12z"/><path d="M2111 8962c-13-25-3-62 18-62 33 0 53 24 46 53-8 32-49 38-64 9z"/><path d="M3365 9508c6-76 24-138 24-83 0 17-7 57-15 90l-14 60 5-67z"/><path d="M2245 8741c-8-14 3-51 16-51 5 0 6 12 3 28-8 34-10 36-19 23z"/><path d="M2122 8623c-20-4-22-9-17-36 9-39 32-67 57-67 10 0 18 7 18 18 0 27-20 92-28 91-4-1-17-4-30-6z"/><path d="M2270 8606c0-5-7-17-16-27-11-12-14-27-9-49l7-31 33 30c19 16 43 32 54 36 12 3 21 10 21 15 0 5 2 14 5 22 4 10-7 13-45 13-27 0-50-4-50-9z"/><path d="M3172 7639c-11-42-7-69 9-69 5 0 9 25 9 55 0 30-2 55-4 55-2 0-8-19-14-41z"/><path d="M3403 7083c-24-5-32-23-10-23 26 0 57 13 51 21-3 5-8 8-12 8-4-1-17-4-29-6z"/><path d="M2352 6210c0-14 2-19 5-12 2 6 2 18 0 25-3 6-5 1-5-13z"/><path d="M3590 6531c0-15 6-21 21-21 14 0 19 5 17 17-5 26-38 29-38 4z"/><path d="M3505 6513c-24-6-65-42-65-58 0-6 21-19 48-28l47-18 28 31c35 39 34 56-4 69-18 6-32 10-33 10-1-1-10-3-21-6z"/><path d="M3610 6455c0-20 4-26 18-23 9 2 17 12 17 23 0 11-8 21-17 23-14 3-18-3-18-23z"/><path d="M4183 5346c3-32 11-64 17-70 8-8 9 6 4 49-4 33-11 65-17 70-6 7-8-10-4-49z"/><path d="M3050 5844c-56-39-61-51-43-90 13-26 19-31 30-23 9 9 17 8 28-1 19-16 9-33-16-25-14 5-17 3-13-9 5-12 20-16 59-16h54l20 56 21 56-42 39c-24 21-47 38-53 38-5 0-26-11-45-25zm60-18c0-8-4-17-8-20-13-8-35 11-28 23 10 16 36 14 36-3zm-60-31c16-20 1-38-23-29-17 6-22 25-10 37 10 11 19 8 33-8zm115-5c4-6 1-17-5-26-14-16-40-2-40 22 0 16 36 19 45 4z"/><path d="M2770 5169c-7-11-9-24-5-27 7-7 35 25 35 40 0 16-19 8-30-13z"/><path d="M2986 4994c-9-23-8-24 14-24 13 0 20 7 20 20 0 24-25 27-34 4z"/><path d="M3035 4969c-4-11-4-23-2-26 9-8 27 7 27 22 0 23-18 27-25 4z"/><path d="M2727 3235c-4-132-3-438 3-680 5-242 10-537 11-655 1-168 3-205 11-170 7 29 7 263 1 685-5 352-7 710-6 795 2 85 0 180-5 210-6 43-10 3-15-185z"/><path d="M2844 2474c-10-38 11-53 38-27 24 25 18 53-11 53-14 0-23-9-27-26z"/><path d="M3527 3323c-12-12-7-41 8-47 17-6 45 2 45 14 0 32-34 53-53 33z"/><path d="M2090 1828c0-15 33-38 54-38 23 0 46 17 46 35 0 5-22 10-50 10-28 0-50-3-50-7z"/><path d="M2287 1813c3-10 13-26 21-35 9-11 12-27 8-43-4-14-4-48 0-75l6-49 57 31c55 31 102 90 81 103-5 3-13 20-18 37l-8 30-31-26c-29-24-63-35-63-19 0 4 10 17 22 30 26 28 17 41-17 25-15-7-27-8-30-2-11 18-35 11-28-7z"/><path d="M2074 1785c3-8 9-22 12-30 4-10-3-18-21-25l-28-11 20-22c11-12 26-32 32-45 10-19 19-23 54-20l42 3 3 58c3 48 0 58-15 63-10 3-35 14-55 24-44 24-52 25-44 5z"/><path d="M2244 1730c20-1e2 20-99 26-40 4 35 3 58-4 62-21 15-28 8-22-22z"/><path d="M3241 1195c13-13 33-25 44-25 18 1 17 3-8 25-39 34-68 34-36 0z"/><path d="M3162 1088c-14-14-16-35-3-42 4-3 13 6 19 19 12 27 2 41-16 23z"/><path d="M3097 938c-23-24-15-33 29-33 38 0 43 13 16 38-22 20-22 20-45-5z"/><path d="M3846 1061c-10-16 5-41 25-41 14 0 19 7 19 25 0 18-5 25-19 25-11 0-22-4-25-9z"/><path d="M3350 1041c0-12 29-41 41-41 12 0 11 7-1 31-11 19-40 27-40 10z"/><path d="M3310 1021c0-20 30-51 49-51 8 0 7 8-3 29-19 35-46 48-46 22z"/><path d="M3250 979c-9-16-8-25 6-40 20-22 34-24 57-6 16 11 14 15-18 40-34 27-34 27-45 6z"/><path d="M3530 942c0-15 24-32 45-32 19 1 19 1-4 20-24 21-41 26-41 12z"/><path d="M3477 882c-9-10-17-23-17-28 0-16 65-54 91-53 22 0 23 1 5 12-10 7-28 20-40 30-18 16-18 18-3 13 75-24 92-13 30 19-21 11-41 21-44 22-3 2-13-5-22-15z"/><path d="M3435 801c-3-6-6-26-7-46-1-40 21-64 61-65 22 0 22 1-9 23-19 12-35 28-38 35-5 15 22 16 48 0 29-18 36-1 9 22-37 32-57 41-64 31z"/><path d="M3685 758c10-33 34-68 46-68 6 0 8 9 3 23-10 31-34 67-46 67-5 0-6-10-3-22z"/><path d="M3660 690c0-40 50-1e2 84-1e2 18 0 17 3-11 28-17 16-34 38-37 49-7 21-36 40-36 23z"/><path d="M4010 820c0-15 5-20 18-18 9 2 17 10 17 18 0 8-8 16-17 18-13 2-18-3-18-18z"/><path d="M2247 734c-14-14-7-35 11-32 9 2 17 10 17 17 0 16-18 25-28 15z"/><path d="M2680 99c0-29 2-30 37-27 61 5 46 58-16 58-17 0-21-6-21-31z"/><path d="M2410 82c0-8 43-32 55-32 3 0 5 9 5 20 0 16-7 20-30 20-16 0-30-4-30-8z"/><path d="M4080 580c0-22 20-26 38-8 19 19 14 28-13 28-18 0-25-5-25-20z"/><path d="M3870 316c0-8 8-22 18-32 16-17 17-17 20 0 4 18-14 46-29 46-5 0-9-6-9-14z"/><path d="M4144 406c-8-21 3-36 27-36 15 0 20 6 17 22-4 27-35 37-44 14z"/></g></svg>