<?xml version="1.0" standalone="no"?>
<!DOCTYPE svg PUBLIC "-//W3C//DTD SVG 20010904//EN"
 "http://www.w3.org/TR/2001/REC-SVG-20010904/DTD/svg10.dtd">
<svg version="1.0" xmlns="http://www.w3.org/2000/svg"
 width="907.000000pt" height="1280.000000pt" viewBox="0 0 907.000000 1280.000000"
 preserveAspectRatio="xMidYMid meet">
<metadata>
Created by potrace 1.15, written by Peter Selinger 2001-2017
</metadata>
<g transform="translate(0.000000,1280.000000) scale(0.100000,-0.100000)"
fill="#000000" stroke="none">
<path d="M3720 12794 c-81 -10 -245 -46 -294 -64 -120 -45 -204 -125 -266
-255 -52 -108 -85 -244 -110 -460 -31 -276 -59 -355 -143 -412 -105 -71 -248
-106 -425 -104 -145 1 -200 -14 -305 -85 -88 -60 -301 -271 -356 -353 -86
-127 -97 -187 -111 -633 -11 -323 -15 -386 -44 -703 -9 -93 -20 -314 -25 -490
-8 -267 -13 -332 -29 -390 -11 -38 -32 -123 -47 -189 -32 -138 -66 -210 -154
-320 -106 -134 -115 -157 -211 -561 -17 -71 -42 -175 -55 -230 -26 -108 -59
-252 -81 -355 -28 -130 -26 -135 80 -223 96 -80 111 -162 62 -342 -36 -129
-70 -215 -118 -293 -82 -134 -158 -338 -158 -424 0 -20 -12 -92 -26 -160 -60
-289 -96 -556 -124 -918 -6 -80 -15 -185 -20 -235 l-8 -90 53 -57 c61 -66 85
-125 85 -212 0 -98 -13 -127 -100 -221 -44 -47 -83 -100 -88 -118 -6 -17 -26
-70 -46 -116 -44 -101 -69 -196 -96 -354 -26 -157 -46 -235 -88 -337 -19 -47
-42 -114 -52 -150 -10 -36 -38 -113 -64 -172 -25 -59 -46 -111 -46 -116 0 -5
-25 -49 -56 -98 -78 -122 -131 -231 -144 -291 -14 -66 -4 -89 92 -215 112
-147 122 -172 115 -277 -8 -107 -48 -271 -87 -360 -32 -75 -45 -126 -61 -239
-18 -130 -40 -226 -60 -258 -11 -19 -24 -66 -30 -115 -10 -86 -25 -165 -60
-321 -25 -115 -24 -144 7 -206 49 -99 181 -187 364 -244 64 -20 96 -23 220
-23 232 1 261 23 296 226 12 68 15 133 12 234 -4 128 -7 145 -32 200 -63 135
-68 160 -74 334 -8 286 32 613 85 700 34 54 97 104 205 162 43 23 89 57 103
75 45 59 143 268 150 320 11 80 24 124 66 216 37 83 54 142 94 318 24 104 65
187 120 239 29 28 61 75 86 125 22 44 55 98 73 121 82 101 174 258 207 351 11
32 50 151 86 264 35 113 78 237 93 275 16 39 41 113 56 165 29 103 89 261 131
343 14 29 59 101 100 162 77 113 115 181 139 247 32 91 143 218 191 218 27 0
88 -52 109 -91 7 -15 19 -50 24 -77 6 -27 36 -93 66 -148 74 -133 192 -399
269 -608 35 -94 79 -208 98 -253 20 -45 40 -106 46 -135 12 -68 55 -192 119
-344 65 -156 75 -191 112 -372 16 -83 52 -218 79 -300 39 -114 58 -195 85
-362 44 -267 63 -342 122 -482 51 -119 80 -160 159 -218 59 -44 88 -96 110
-199 29 -140 17 -309 -41 -578 -41 -191 -27 -324 38 -367 12 -8 60 -31 106
-51 74 -32 100 -38 232 -51 217 -20 351 -67 484 -168 72 -54 176 -90 302 -106
141 -18 241 4 419 91 204 99 279 194 230 288 -33 65 -179 160 -335 219 -165
61 -202 78 -275 127 -100 67 -318 264 -380 344 -57 74 -77 120 -111 247 -31
113 -37 260 -16 332 9 28 34 65 76 110 l64 67 -9 510 c-11 631 -22 781 -66
869 -8 15 -41 56 -73 91 -32 34 -64 73 -71 86 -11 18 -15 94 -19 309 l-5 285
-31 50 c-88 145 -178 446 -194 651 -6 77 -15 128 -30 163 -24 55 -25 48 26
170 37 90 30 133 -45 314 -34 80 -61 150 -61 155 0 6 16 31 35 56 19 26 35 55
35 65 0 11 -90 132 -199 270 l-199 250 -6 83 c-3 46 -10 173 -16 283 -12 227
-28 329 -60 400 l-23 50 33 125 c18 69 43 181 55 250 13 69 37 183 54 255 46
185 50 206 75 350 28 154 46 205 75 205 15 0 28 -15 47 -52 18 -37 69 -96 163
-189 112 -111 149 -142 205 -169 38 -18 88 -49 110 -69 62 -57 95 -76 171
-104 39 -14 125 -50 192 -81 236 -108 357 -138 558 -139 136 -1 243 11 335 38
77 22 210 94 261 142 49 45 365 441 451 563 63 90 84 135 104 221 9 41 31 126
50 189 40 140 57 216 78 340 30 179 37 245 46 455 13 300 33 362 146 446 32
24 62 55 70 74 16 39 38 147 54 265 13 98 8 117 -45 187 -42 54 -42 65 -11
133 32 69 24 85 -71 151 -88 60 -107 86 -94 121 13 35 28 39 181 48 141 9 181
18 216 51 46 43 250 45 1367 13 l217 -6 0 88 0 87 -262 -6 c-924 -23 -1298
-19 -1528 18 -122 19 -136 28 -175 106 -30 59 -39 68 -85 88 -56 24 -119 29
-245 16 -74 -7 -85 -5 -138 19 -125 55 -166 111 -188 254 -7 45 -15 85 -18 90
-4 6 -300 6 -756 1 -412 -4 -778 -8 -812 -8 l-63 -1 0 -98 0 -99 238 -7 c321
-9 467 -22 512 -44 68 -36 195 -221 169 -247 -24 -24 -756 -13 -998 15 -125
14 -132 30 -55 118 24 27 44 53 44 57 0 3 -21 32 -46 63 -69 84 -73 98 -71
262 1 150 -8 206 -54 350 -48 149 -131 308 -198 383 -75 83 -275 148 -471 152
-63 2 -131 1 -150 -1z m2605 -1134 c17 -6 44 -24 60 -40 17 -15 56 -44 87 -64
67 -42 88 -69 88 -111 0 -40 -31 -69 -90 -86 -66 -19 -474 -19 -518 0 -57 24
-202 222 -202 277 0 17 30 26 115 35 98 11 424 3 460 -11z m468 -718 c28 -29
16 -66 -55 -175 -34 -50 -71 -115 -84 -143 -27 -62 -94 -136 -233 -258 -213
-187 -399 -297 -507 -300 -81 -2 -86 11 -32 91 154 232 508 631 647 731 111
80 216 101 264 54z m-567 -28 c70 -19 99 -43 91 -76 -21 -82 -496 -632 -582
-672 -42 -20 -99 -21 -115 -1 -32 38 29 180 105 243 8 7 15 24 15 38 0 32 12
55 50 92 28 28 30 36 30 101 0 83 3 86 112 96 84 8 93 18 84 93 -10 90 17 113
119 104 22 -2 63 -10 91 -18z m-1115 -14 c29 -16 23 -45 -18 -91 -92 -102
-305 -205 -348 -169 -50 42 31 166 125 190 25 6 65 24 90 40 25 15 52 30 60
33 25 9 70 8 91 -3z m1724 -1253 c67 -67 71 -219 13 -502 -65 -320 -195 -641
-333 -829 -36 -48 -65 -94 -65 -101 0 -7 -28 -44 -63 -82 -74 -81 -107 -126
-107 -146 0 -24 -79 -98 -128 -119 -71 -32 -202 -35 -330 -9 -161 34 -296 84
-578 214 -78 36 -179 79 -225 95 -77 27 -114 36 -299 74 -36 7 -101 31 -145
53 -74 37 -85 47 -148 130 -37 50 -91 116 -119 149 -50 56 -51 60 -39 90 62
158 91 283 110 477 12 120 28 177 57 196 20 13 26 12 54 -2 17 -9 55 -38 85
-65 69 -62 116 -86 207 -105 40 -9 109 -33 153 -55 77 -38 86 -40 225 -50 186
-13 522 -12 580 1 25 5 62 24 83 40 56 45 116 69 174 69 204 1 475 137 545
274 47 91 140 199 193 222 46 20 64 17 100 -19z"/>
</g>
</svg>
