<?xml version="1.0" standalone="no"?>
<!DOCTYPE svg PUBLIC "-//W3C//DTD SVG 20010904//EN"
 "http://www.w3.org/TR/2001/REC-SVG-20010904/DTD/svg10.dtd">
<svg version="1.0" xmlns="http://www.w3.org/2000/svg"
 width="677.000000pt" height="1280.000000pt" viewBox="0 0 677.000000 1280.000000"
 preserveAspectRatio="xMidYMid meet">
<metadata>
Created by potrace 1.15, written by Peter Selinger 2001-2017
</metadata>
<g transform="translate(0.000000,1280.000000) scale(0.100000,-0.100000)"
fill="#000000" stroke="none">
<path d="M2163 12766 c-98 -41 -241 -121 -321 -181 -139 -104 -203 -265 -287
-719 -13 -70 -34 -157 -45 -192 -30 -88 -25 -113 27 -142 24 -13 70 -26 105
-30 l63 -7 40 -80 c33 -66 45 -81 66 -83 23 -3 28 -10 38 -55 6 -29 32 -92 56
-142 40 -81 45 -97 45 -160 0 -125 -5 -139 -69 -183 -31 -22 -78 -51 -106 -65
-27 -14 -68 -37 -89 -52 -36 -24 -49 -27 -155 -31 -64 -2 -137 -4 -162 -4 -36
0 -54 -6 -77 -25 -18 -15 -76 -39 -142 -59 -98 -30 -160 -63 -160 -86 0 -4 20
-21 45 -39 25 -18 45 -35 45 -39 0 -4 -29 -23 -63 -42 -40 -22 -106 -78 -183
-155 -107 -107 -158 -163 -352 -388 -30 -34 -74 -96 -98 -137 -53 -89 -154
-342 -184 -460 -50 -195 -110 -467 -110 -497 0 -25 -8 -38 -34 -58 -19 -14
-39 -40 -45 -57 -13 -36 -13 -187 -2 -380 7 -113 13 -145 34 -192 53 -115 117
-188 200 -228 73 -36 137 -42 227 -23 41 9 87 18 101 21 25 6 28 2 49 -62 32
-97 61 -151 157 -297 69 -105 88 -127 103 -122 16 5 25 -5 49 -53 16 -32 42
-73 56 -91 23 -27 33 -31 75 -31 l48 0 14 -57 14 -58 117 -3 c85 -2 117 -6
117 -15 0 -7 -45 -54 -99 -105 -55 -51 -120 -123 -145 -161 l-46 -69 0 -213
c0 -302 -18 -599 -46 -749 -39 -212 -49 -327 -36 -428 11 -95 23 -126 76 -209
33 -52 80 -213 136 -467 35 -156 20 -302 -55 -533 -29 -88 -35 -122 -35 -194
0 -58 -10 -135 -31 -235 -40 -192 -44 -272 -24 -409 10 -65 17 -186 18 -295 2
-166 5 -191 25 -240 16 -40 22 -75 22 -131 0 -41 9 -138 19 -215 23 -167 38
-324 50 -541 11 -182 22 -215 78 -235 17 -6 34 -21 37 -32 12 -45 18 -353 8
-424 -12 -83 -61 -195 -120 -276 -20 -28 -82 -106 -137 -174 -131 -163 -138
-175 -140 -238 -1 -29 -7 -59 -13 -67 -21 -25 -42 -86 -42 -119 1 -46 31 -109
69 -141 49 -41 101 -51 261 -50 204 0 293 23 387 100 60 48 97 114 94 169 l-1
44 42 0 c75 0 290 140 305 198 14 54 8 166 -12 217 -18 46 -20 74 -18 340 1
179 6 326 15 385 l13 94 112 36 c61 19 114 38 117 41 3 3 -8 59 -26 125 -62
238 -106 400 -122 454 -10 33 -19 109 -22 190 -6 128 -4 140 22 225 15 50 29
113 32 142 5 63 -35 230 -84 354 -49 126 -47 158 20 269 88 145 99 186 102
383 3 143 6 173 24 206 12 25 25 85 35 168 9 70 20 141 25 157 6 16 10 39 10
51 0 12 14 34 31 51 87 83 125 234 139 562 6 118 13 218 16 223 3 5 22 16 42
25 20 8 47 24 58 35 21 20 24 20 58 4 46 -22 50 -28 70 -110 10 -38 35 -107
56 -153 55 -116 146 -465 163 -619 12 -113 11 -122 -6 -145 -18 -25 -18 -27
30 -208 l48 -184 32 -8 c27 -7 33 -14 38 -46 13 -88 39 -192 66 -261 38 -101
33 -130 -58 -321 -73 -152 -74 -157 -79 -250 -3 -52 0 -167 6 -255 6 -88 15
-241 19 -340 9 -186 11 -207 38 -337 15 -76 15 -79 -7 -140 -12 -35 -36 -87
-51 -117 -33 -61 -35 -86 -15 -136 17 -41 90 -122 117 -130 19 -6 20 -14 14
-253 -4 -136 -2 -355 3 -488 12 -310 19 -327 149 -393 24 -12 63 -24 88 -28
l45 -6 -6 -106 c-5 -91 -3 -111 13 -141 65 -125 512 -174 730 -80 83 35 87 43
63 133 -10 42 -24 85 -30 96 -5 11 -10 55 -10 98 -1 43 -7 94 -14 113 -18 51
-76 136 -192 281 -56 70 -114 153 -130 185 l-29 59 3 275 c3 245 5 276 20 287
41 30 42 32 42 153 0 103 6 147 49 352 54 258 82 371 107 438 41 111 35 359
-13 516 -25 84 -26 100 -25 270 1 108 8 215 17 265 25 142 13 555 -18 602 -16
24 -32 158 -43 348 l-7 117 37 17 c20 10 42 27 49 39 15 26 14 417 -2 651 -27
381 -24 930 6 1248 7 80 -31 160 -126 260 -39 41 -71 83 -71 93 0 11 -7 31
-14 47 -13 23 -13 35 -1 80 25 97 51 152 72 151 29 0 177 -92 238 -147 80 -71
105 -75 188 -32 105 55 194 111 292 186 156 118 157 118 163 177 2 29 6 52 9
52 2 0 158 -121 347 -270 l343 -269 56 3 c31 1 63 8 71 15 12 10 26 4 80 -40
36 -29 66 -55 66 -59 0 -3 -11 -21 -25 -40 -14 -19 -25 -39 -25 -46 0 -15 48
-47 60 -39 5 3 18 0 30 -7 27 -17 55 1 55 35 -1 31 -38 58 327 -236 203 -163
298 -245 300 -260 2 -12 9 -21 16 -19 6 1 12 -4 12 -12 0 -16 27 -29 41 -20 5
3 9 -4 9 -15 0 -13 7 -21 18 -21 9 0 48 -25 86 -56 37 -31 72 -52 76 -47 28
29 80 96 80 103 0 4 -31 31 -69 60 -38 29 -72 61 -74 71 -3 13 -11 17 -21 13
-11 -4 -16 -1 -16 10 0 9 -8 20 -17 23 -10 4 -23 13 -29 22 -6 8 -18 12 -26 9
-10 -4 -88 53 -219 158 -112 91 -254 204 -316 252 -78 60 -112 93 -113 108 0
11 48 80 109 156 59 75 111 144 115 154 9 22 -17 50 -54 58 -34 6 -317 -49
-337 -66 -10 -8 -13 -6 -13 9 0 27 -71 94 -388 368 -208 180 -261 231 -257
246 3 10 6 42 5 71 -1 29 -1 83 0 121 3 115 -35 211 -139 354 -27 37 -72 110
-99 160 l-50 93 41 23 42 23 -2 93 c-2 93 -2 94 -67 227 -78 162 -100 194
-208 309 -47 50 -83 96 -80 103 6 20 -143 274 -225 382 -39 52 -99 127 -134
165 -108 122 -346 285 -471 323 -80 24 -88 41 -88 186 l0 116 -37 19 c-69 35
-140 49 -300 62 -157 12 -158 12 -193 44 -89 81 -173 146 -185 141 -7 -2 -16
5 -19 17 -13 49 -5 106 23 168 34 76 101 280 101 309 0 11 5 20 10 20 6 0 10
-5 10 -10 0 -6 11 -15 24 -21 51 -24 76 15 91 141 8 78 11 80 73 68 39 -8 64
-8 94 1 l41 13 -7 51 c-4 29 -11 93 -16 142 -11 116 -103 429 -172 585 -69
158 -141 281 -188 324 -77 69 -148 95 -315 116 -49 6 -132 20 -184 30 -129 27
-162 25 -258 -14z m2047 -4881 c92 -71 101 -80 75 -71 -46 17 -114 24 -148 16
-37 -8 -37 -8 -37 24 0 59 12 107 24 98 6 -5 45 -35 86 -67z m280 -226 c0 -4
-6 -9 -14 -12 -9 -4 -29 15 -55 50 l-42 55 56 -44 c30 -23 55 -46 55 -49z
m1459 -483 c9 -11 6 -20 -14 -44 -22 -26 -23 -31 -10 -42 8 -7 15 -15 15 -19
0 -9 -60 -71 -69 -71 -12 0 -142 111 -148 127 -8 22 20 36 97 49 92 16 116 16
129 0z m-197 -168 c28 -23 46 -44 40 -46 -12 -4 -112 68 -112 80 0 18 25 6 72
-34z"/>
</g>
</svg>
