<svg version="1.0" xmlns="http://www.w3.org/2000/svg" width="1280pt" height="1280pt" viewBox="0 0 1280 1280"><g transform="translate(0.000000,1280.000000) scale(0.100000,-0.100000)" fill="#000" stroke="none"><path d="M780 12023c0-10 90-82 134-107 129-72 167-87 198-81 26 6 30 4 25-8-8-22 55-60 102-62 24 0 37-6 39-17 2-8 30-26 63-39 58-23 135-76 125-86-2-3-28 10-58 29-96 60-215 101-358 123-25 4-88 17-140 30-89 22-151 34-210 41-14 2-42-2-63-8l-37-11 32-19c18-11 38-25 43-32 12-14 159-87 235-116 30-11 71-29 90-39 19-10 53-24 75-31 22-7 45-16 50-20 6-3 39-17 75-30 36-12 76-30 90-40 76-53 141-79 227-90 48-7 97-13 107-14 11-2 38 1 60 5 23 4 48 3 56-1 31-18-41-32-130-26l-85 5 80-34c44-19 77-34 72-35-4 0-89 17-190 39-218 46-221 47-367 66-63 8-160 21-215 29-82 11-113 12-165 2-59-12-63-14-40-23 14-6 38-23 53-39 23-22 38-28 68-28 27 1 39-3 39-12 0-20 81-52 370-145 69-22 134-45 144-51 63-34 160-80 210-98 31-12 56-23 54-25-2-1-52 3-113 10-202 24-553 36-618 22l-58-12 50-37c47-35 205-96 291-113 19-4 53-12 75-20 22-7 82-23 133-35 74-18 1e2-21 127-13 39 12 53 6 27-13-15-11-10-16 43-39 33-14 69-30 80-35 14-6-17-9-95-11-63-1-122-3-130-4-8-1-21-3-29-4-8 0-5-8 10-20 13-11 21-22 17-26-7-7-98 18-130 36-30 15-91 10-161-14-71-25-91-37-63-37 9 0 41-18 70-40 29-22 58-40 65-40 7 0 31-9 54-20 28-14 51-18 74-14 29 5 33 3 33-14 0-16 15-26 68-46 137-53 292-82 477-91 131-7 183-18 138-31-13-3-20-10-17-15 3-5-7-9-23-9-15 0-66-9-113-19-361-78-382-85-424-132-29-32-31-39-14-39 6 0 25-10 42-23 17-12 42-27 56-34 78-34 114-47 131-46 11 1 19-5 19-13 0-8 3-13 8-11 4 3 40-6 81-19 40-13 81-24 89-24 9 0 38 21 64 47 32 32 51 44 58 37 7-7-1-23-25-51l-35-41 33-5c17-2 79-3 137-2l104 2 46 51c26 29 50 52 55 52 8 0 2-40-10-72-5-14 0-17 32-20l38-3-60-18c-69-22-209-75-275-105-25-11-79-35-121-52-53-21-88-43-114-71-20-22-35-41-34-43 2-1 20-13 39-27 40-29 62-39 105-46 17-3 37-9 46-13 11-6 23 0 43 21 41 44 63 37 30-9-9-13-14-25-12-27 2-2 39-11 83-20 1e2-21 245-13 351 20 41 13 74 20 74 16 0-10-52-35-185-91-98-42-110-49-107-69 3-18 0-22-15-17-27 9-46-26-33-60 9-24 8-26-10-21-25 6-40-24-40-80 0-20-7-45-17-55-15-17-15-18 5-18 12 0 34-16 53-39 17-22 43-44 58-50 48-19 154-31 186-21 16 5 50 12 75 15 56 7 66 15 120 95 24 35 45 59 47 53 3-9-18-63-45-118-3-5 5-1 17 10 22 19 151 58 151 46 0-3-60-57-134-119-117-1e2-136-120-156-168-17-42-21-68-18-110 3-30 1-57-4-60-15-9-8-26 8-20 10 4 27-7 48-29 19-19 38-35 44-35 6 0 20 16 32 35 12 19 23 35 25 35 1 0 1-14-1-31l-4-32 54 6c30 3 66 13 80 22 32 21 34 10 11-55-8-23-15-60-15-81 0-21-4-41-10-44-16-10-12-25 8-25 9 0 23-9 30-20 17-28 112-80 145-80 31 0 119 57 159 104 14 17 29 29 32 26 3-3-21-38-53-77-49-60-61-84-76-143-13-52-15-86-10-123 4-29 8-65 8-80 0-20 4-26 14-23 7 3 16-1 20-10 3-8 22-24 43-34 59-30 133-18 185 29 84 77 85 77 32-29-42-84-50-110-50-153 2-99 6-128 20-123 7 3 15 1 18-5 4-5 28-20 55-34l48-24 27 21 28 21-13-22c-10-20-10-22 7-17 16 5 18-1 19-57 1-93 9-132 26-129 8 1 25-9 38-23 30-32 59-32 106 0 20 14 38 24 40 22 2-1-4-32-12-67-12-51-12-74-4-110 7-25 13-56 15-70 1-14 8-24 14-22 7 1 27-9 45-23 40-31 57-31 82-4 10 12 29 25 41 30 12 4 36 27 53 50 35 49 36 45 10-41-31-103-35-169-14-231 10-30 19-58 19-64 1-5 7-9 14-7 8 2 21-3 30-11 9-8 30-19 47-26 26-10 33-20 40-54 4-23 8-50 9-59 0-10 5-18 10-19 6-1 29-14 52-30 23-16 46-29 52-29 6 0 33 21 61 47 54 50 1e2 130 1e2 174 0 15 4 30 9 33 9 6 8 1-14-123-23-126-20-184 13-252 15-32 32-57 37-55 6 1 27-8 47-21 21-12 40-23 43-23 20 0 105 66 114 88 7 20 8 9 4-45-4-51-2-77 7-88 7-8 9-15 4-15-5 0 7-10 26-23l35-22-37-3c-21-2-38-7-38-11 0-13 32-74 52-1e2 10-13 15-27 13-31-3-5-1-11 5-15 5-3 10-1 10 4 0 19 17 12 23-8 3-12 20-24 46-32l41-12v-72c0-39-3-154-7-255l-6-183-77 84c-70 75-79 82-94 70-27-22-47-68-48-109-2-50 77-216 147-307 46-61 54-78 60-130 4-33 16-120 26-194 11-74 16-149 13-168-5-29-3-35 14-39 11-3 25-17 31-30 14-31 83-63 137-64h42l15-62c8-35 18-88 22-118 9-72 20-90 52-90 25 0 26-1 20-59-6-69 20-141 50-141 22 0 132 26 138 32 3 3-6 36-19 75-15 45-21 74-15 80 6 6 6 27-1 56-5 25-7 53-4 62 6 14 8 14 24 0 9-8 20-12 23-9 4 4 11-5 16-20 11-27 31-36 31-12 0 7-20 72-45 144-25 72-45 140-45 152 0 31 18 60 38 60 26 0 42 20 42 50 0 27-40 92-73 119-23 19-62 97-80 162-20 73-28 136-32 254-3 77-7 102-20 111-11 9-14 20-9 40 10 45 29 55 69 38 43-17 60-11 76 29 7 18 18 39 25 47 20 24 44 140 38 184-2 22 2 60 10 85 30 92 58 239 65 347 6 91 11 116 30 142 20 28 21 33 6 38-14 6-15 21-10 123 8 122 30 201 58 201 15 0 26-51 30-132 0-21 6-38 12-38 6 0 22-11 34-24l23-24-31-7c-35-7-37-13-17-40 8-11 12-24 10-30-7-17 22-77 53-110 25-26 29-39 34-120 3-51 1-1e2-4-112-7-16-6-27 3-38 13-16 6-80-12-102-6-7-7-27-3-45 15-72 25-382 14-431-8-36-8-52 0-60 17-17 14-49-24-272-50-294-63-419-76-780-10-282-10-338 5-471 20-188 32-230 181-629 63-169 86-255 92-353 5-83 3-99-20-160-52-139-64-631-16-729 24-49 62-83 93-83 17 0 25-10 38-48 9-26 32-92 52-147 31-82 36-109 32-150-4-39-1-60 15-89 18-34 20-54 18-199-1-89-2-218-3-286l-1-124-50-41c-27-23-90-80-140-127-49-47-1e2-92-112-1e2-12-8-53-40-92-72l-70-58-78 10c-43 6-116 13-163 17-47 3-96 8-110 11-14 2-92 6-173 8-81 3-152 7-157 10-6 3-10 2-10-4 0-6-7-7-17-4-12 5-14 3-8-8 6-11 5-12-6-1-15 14-33 17-25 4 3-5-8-8-25-7-23 1-31-3-35-22-4-12-10-23-16-23-5 0-6-4-3-10 3-5 11-10 16-10 6 0 8 4 5 9-4 5 3 7 14 4 17-4 18-8 8-20-9-11-9-17 3-25 12-8 12-9-1-5-8 2-14 12-13 22 1 12-2 14-10 6-16-16 9-39 52-47 47-9 73-22 65-35-3-6-12-3-20 8-7 10-14 13-14 7 0-21 25-35 39-21 9 9 17 5 37-18 14-17 23-24 19-17-4 7 0 12 10 12 8 0 18-6 21-14 3-9 12-12 21-9 10 4 14 2 10-4-4-6 0-14 9-17 8-3 13-10 10-15-8-12 16-29 36-26 23 4 34-13 14-21-9-3-16-11-16-16 0-6 7-7 15-4 10 3 18-1 22-12 4-9 15-24 25-34 12-10 15-19 8-23-5-3-10-13-10-21 0-9 5-12 12-8 7 5 9 2 5-9-14-36 62-54 258-61 99-3 159-10 205-24 97-30 151-33 240-16 101 19 199 63 259 115 62 56 96 69 209 78 129 12 277 47 308 74 20 19 26 36 35 111 6 50 9 105 6 123-5 28-3 31 11 23 28-15 170-48 297-69 315-53 414-65 547-65l136-1 59 40c101 69 156 177 135 265-22 96-31 120-97 260-63 133-136 322-171 445-11 40-12 74-4 175 5 69 9 188 9 265-1 84 3 151 10 168 6 16 11 48 11 73 0 31 4 44 14 44 26 0 70 46 120 125 71 112 79 140 77 280-1 185-16 267-64 355-22 41-49 85-60 97-16 18-18 30-13 70 14 1e2 40 233 73 373 51 215 65 485 37 676l-6 42 63-16c46-11 111-16 229-16 151 0 173 3 255 28 189 58 348 163 574 381l138 134 32 153c51 245 64 355 58 508-6 162-31 266-92 395-91 190-231 349-406 461-80 52-89 61-85 84 3 14 15 77 26 140 12 63 23 122 26 131 3 9 29 27 58 40 50 22 55 28 72 79 24 70 22 139-9 258-14 50-23 92-22 92 2 0 14-19 28-42 29-49 107-118 134-118 10 0 31 11 47 25 16 13 32 22 36 20 19-12 33 166 18 233-9 39 1 40 40 7 38-32 62-32 92 0 13 14 30 24 38 23 17-3 25 36 26 134 1 42 4 64 10 58 17-17 24-11 19 13-4 21-4 21 11 3 18-22 47-17 1e2 19 21 14 41 23 46 20 4-3 8 5 8 18-1 12 3 43 7 69 6 38 3 62-15 115-12 38-26 73-30 78-4 6-17 33-29 60l-21 50 58-61c54-56 63-61 112-67 55-7 79 1 117 35 12 11 26 18 31 14 5-3 9 7 9 22 1 15 4 52 8 82 11 83-17 199-62 252-33 39-68 98-59 98 2 0 31-27 65-60 73-71 110-85 162-59 19 10 51 32 70 50 19 18 37 34 42 35 4 1 10 2 13 3 4 0 1 7-5 15-6 7-10 32-9 54 1 23-6 66-15 94-9 29-19 64-22 78-2 14-29 52-60 85-30 33-55 63-55 68 0 11 58-21 101-54 44-35 54-36 38-6l-12 22 24-21c37-32 93-54 139-54 42 0 42 0 38 32-5 30-4 31 8 13 43-65 54-67 89-15 11 17 28 30 38 30 9 0 17 5 17 10 0 6-4 10-8 10-5 0-6 26-4 58 6 81-29 151-106 214-94 77-194 168-183 168 37 0 120-26 139-43 22-21 22-18-7 46-17 37-26 67-21 67 5 0 25-27 45-60 42-70 55-78 139-92 78-13 97-13 169 3 53 11 63 17 96 60 25 33 41 46 54 43 21-7 23 14 1 23-11 4-14 13-9 30 3 13 0 42-6 64-10 31-16 38-31 34-15-5-17-2-12 24 7 35-11 65-33 57-10-4-13 1-11 15 3 19-11 27-97 63-110 45-189 85-183 92 3 2 31-5 64-17 81-28 254-33 344-10 68 17 69 19 54 71-7 24-6 24 28-8 32-30 37-32 69-21 49 16 79 30 119 58 19 14 37 26 39 28 13 9-91 92-134 108-27 10-93 36-145 58-52 22-140 55-195 72-71 24-91 33-69 34 41 1 44 6 31 47-16 53 0 53 47-2 40-46 48-50 92-53 26-1 50-3 53-3 3-1 41 2 83 6l78 8-35 41c-52 61-28 72 29 13 25-25 49-46 54-46 5 0 40 12 78 26 38 14 75 26 82 27 6 0 12 7 12 14 0 8 5 11 10 8 16-10 161 58 187 88 9 9 22 17 30 17 22 0 15 16-23 50-43 38-62 45-146 59-34 6-99 20-143 31-44 11-113 24-152 31-40 6-73 15-73 20 0 5-8 9-17 9-12 0-14 3-6 11 5 5 70 15 144 21 151 11 312 48 432 98 56 23 77 36 75 49-2 12 4 15 29 13 19-1 46 6 65 18 18 11 39 20 47 20 8 0 36 18 62 40 26 22 55 40 63 40 9 0 16 5 16 10 0 6-8 10-18 10-10 0-22 3-26 7-12 13-81 33-112 33-16 0-59-11-94-25-35-14-73-25-84-25-21 1-21 1 2 19 12 11 22 22 22 25 0 3-55 7-122 8l-123 3 70 34c39 18 64 35 58 38-7 3-13 11-13 18 0 10 7 11 34 3 35-11 56-6 226 48 25 8 70 21 1e2 29 30 8 75 24 1e2 34 25 11 60 25 79 32 19 7 53 29 77 50l43 37-64 12c-47 9-90 9-167 1-56-5-146-13-198-17-52-3-140-12-194-20-54-8-101-13-103-11-2 3 11 10 29 17 47 18 169 80 198 1e2 14 10 48 25 75 33 28 9 86 30 130 47 44 18 109 43 145 56 86 32 130 55 141 75 5 11 17 15 33 12 17-4 34 5 62 29 22 19 48 40 59 45 32 18-87 28-175 15-215-31-389-66-587-116-73-18-133-32-133-29 0 2 28 17 63 33l62 30-76-6c-82-7-129-1-129 17 0 8 16 9 49 5 63-8 223 19 276 47 22 12 61 37 87 55 26 17 49 32 53 32 6 0 312 138 365 164 83 41 149 81 175 105 17 16 39 32 50 36 19 7 19 8-5 15-46 14-97 10-196-16-55-14-166-42-249-63-151-38-225-68-302-124-24-17-45-28-48-25-9 9 61 57 121 85 32 15 59 34 61 44 4 13 12 17 27 14 30-7 102 36 98 59-3 16 1 18 26 13 32-7 51 2 179 80 54 33 133 103 133 118 0 2-27 2-59 0-34-2-116-21-188-43-70-23-171-54-223-70-324-102-725-293-1025-491-95-62-113-71-131-64-9 3-30-11-56-38-30-31-40-38-36-23 5 20 3 21-28 14-61-14-219-109-349-211-33-25-73-53-90-62-36-19-335-314-385-379-27-36-43-48-72-53-95-17-229-1e2-433-270-187-155-316-286-464-470-193-241-203-254-456-620-245-354-316-450-389-532-44-48-49-51-89-49-24 2-53 9-66 15-13 7-32 10-43 8-32-9-206 62-242 98-22 22-23 147-1 169 8 8 15 23 15 33 0 10 15 37 33 60 53 66 91 159 89 218-1 28-3 131-5 230-1 112-7 188-14 2e2-6 11-15 29-19 40-6 19-8 28-12 66-1 8-52 67-114 129l-111 114-56 2c-54 2-69 5-118 25-16 6-23 5-23-3 0-9-3-9-12 0-14 14-32 16-24 4 3-5-8-7-23-4-16 2-34-2-42-11-8-8-32-20-54-27-22-7-53-26-70-41-16-16-36-29-42-29-7 0-22-20-34-44-11-25-27-50-35-57-8-6-14-15-14-20 0-5-11-26-23-47-16-25-31-78-46-162-12-69-25-138-28-155-3-16-11-33-18-37-34-20-23-248 15-3e2 17-23 21-51 26-187l7-159-29-29c-47-46-294-195-315-190-11 3-28-4-41-19-13-13-28-24-35-24-6 0-104 91-216 203-194 191-211 211-318 372-129 194-390 571-458 660-93 123-297 362-365 429-133 129-439 364-591 453-71 42-177 83-215 83-23 0-56 26-41 32 11 4 2 58-9 58-4 0-5-12-2-27 4-26-1-23-54 30-144 141-337 307-383 331-18 10-54 33-80 51-138 99-327 204-375 209-12 1-27 5-33 9-7 5-9-1-6-15 4-19-1-17-32 15-26 27-44 37-57 34-17-5-89 27-123 53-5 5-86 49-180 1e2-371 198-651 309-1054 417-75 20-167 44-206 55-59 15-185 23-185 11zm2450-3497c0-3-4-8-10-11-5-3-10-1-10 4 0 6 5 11 10 11 6 0 10-2 10-4zm4893-2249c14-40 13-45-4-68-10-13-19-18-19-11 0 7-14 12-37 12h-36l36 35c21 20 37 45 37 55 0 31 7 24 23-23zm-201-267c17-4 10-14-48-62-37-32-69-56-70-55-6 6 18 154 28 174 11 22 11 22 40-15 16-20 39-39 50-42zm-262-228c0-4-9-13-20-20-24-15-26-9-4 12 17 18 24 20 24 8zm-975-982c8-16 15-53 15-82 0-114 28-297 85-568 14-63 38-194 54-290 17-96 46-227 66-290 35-109 44-154 64-295 5-33 20-85 34-116l25-56-38-77c-42-86-65-167-75-267-10-93 11-157 75-236 29-36 50-72 50-86 0-14 7-44 16-68 22-62 37-177 38-294 1-55 4-105 8-111 12-19-28-142-88-270-21-44-24-66-24-155 0-88 3-109 21-139 39-63 103-133 135-146 40-17 44-37 44-213 0-76 6-160 13-191l13-55-175 32c-97 18-225 38-285 45-125 14-120 10-131 129-4 41-14 112-22 158-24 137-15 629 16 866 25 185 29 198 72 234 22 19 45 45 50 59 25 66-103 475-156 495-8 4-15 14-15 24 0 10-12 53-27 96l-27 78 18 104c11 64 19 172 21 287 2 138 9 220 28 333 58 342 92 652 83 760-3 33-11 115-17 183-6 67-9 129-5 137 9 23 24 18 41-15zm-1531-241c-8-14-24-10-24 6 0 9 6 12 15 9 8-4 12-10 9-15zM4850 596c0-3-4-8-10-11-5-3-10-1-10 4 0 6 5 11 10 11 6 0 10-2 10-4z"/><path d="M9167 10617c-4-10-7-26-7-35 1-15 2-15 11 1 6 10 9 25 7 35-3 16-4 15-11-1z"/><path d="M5005 460c-4-6 3-10 14-10 25 0 27 6 6 13-8 4-17 2-20-3z"/></g></svg>