<?xml version="1.0" standalone="no"?>
<!DOCTYPE svg PUBLIC "-//W3C//DTD SVG 20010904//EN"
 "http://www.w3.org/TR/2001/REC-SVG-20010904/DTD/svg10.dtd">
<svg version="1.0" xmlns="http://www.w3.org/2000/svg"
 width="640.000000pt" height="1280.000000pt" viewBox="0 0 640.000000 1280.000000"
 preserveAspectRatio="xMidYMid meet">
<metadata>
Created by potrace 1.15, written by Peter Selinger 2001-2017
</metadata>
<g transform="translate(0.000000,1280.000000) scale(0.100000,-0.100000)"
fill="#000000" stroke="none">
<path d="M187 12775 c-48 -19 -63 -22 -88 -13 -26 9 -34 7 -55 -13 -31 -29
-30 -52 3 -96 24 -31 26 -38 15 -66 -11 -28 -9 -34 11 -57 13 -14 34 -41 47
-60 62 -93 124 -160 147 -160 29 0 73 42 73 70 0 23 28 27 36 5 4 -10 -10 -31
-40 -58 -50 -47 -55 -63 -29 -82 17 -13 17 -14 0 -32 -16 -19 -16 -21 5 -50
53 -72 123 -163 178 -233 80 -101 186 -247 209 -290 10 -19 33 -45 51 -58 17
-13 63 -67 103 -120 39 -53 98 -132 132 -174 241 -308 360 -527 610 -1123 37
-88 85 -202 107 -254 22 -52 48 -118 59 -145 20 -52 30 -61 182 -171 61 -43
187 -165 187 -181 0 -7 13 -22 30 -34 20 -14 31 -33 36 -58 4 -20 20 -63 36
-95 42 -83 78 -207 82 -279 2 -35 10 -81 18 -103 12 -37 16 -40 51 -41 20 0
41 -5 46 -10 4 -5 20 -58 35 -118 15 -60 33 -121 41 -136 8 -15 19 -56 24 -91
6 -38 40 -133 80 -229 116 -276 107 -260 141 -266 16 -4 30 -12 30 -19 0 -19
-130 -35 -283 -35 -100 -1 -137 -4 -151 -15 -13 -10 -44 -15 -89 -15 -66 0
-71 1 -101 35 -18 19 -39 35 -48 35 -34 0 -29 38 12 86 39 46 46 47 84 13 71
-62 96 -4 38 89 -45 71 -66 135 -59 183 3 22 8 43 12 47 10 10 38 -12 55 -44
17 -30 41 -38 151 -50 40 -5 49 -2 78 25 42 40 40 72 -8 87 -22 7 -46 28 -68
58 -19 26 -42 49 -51 52 -9 3 -31 12 -49 21 l-32 16 1 104 c0 86 -2 107 -17
123 -10 11 -26 20 -36 20 -24 0 -24 -1 -54 135 -36 160 -76 279 -136 403 -53
110 -120 192 -157 192 -31 0 -27 -16 7 -28 84 -29 190 -257 256 -552 37 -160
42 -246 17 -290 -90 -163 -90 -162 -81 -194 13 -45 11 -89 -6 -140 -8 -24 -21
-80 -29 -124 -18 -102 -84 -262 -108 -262 -9 0 -28 14 -41 32 l-25 32 -79 -12
c-43 -6 -125 -14 -183 -18 -122 -8 -150 -16 -150 -43 0 -11 -18 -41 -41 -67
-23 -27 -38 -53 -35 -61 3 -8 6 -17 6 -19 0 -2 7 -4 15 -4 8 0 15 4 15 10 0
18 73 91 118 117 41 24 54 26 141 25 131 -2 190 -18 216 -59 24 -38 41 -41 72
-11 19 18 33 21 85 19 36 -1 82 -11 107 -22 33 -15 56 -17 97 -13 68 8 86 -4
73 -49 -12 -43 -12 -144 1 -152 12 -7 14 0 28 87 13 83 39 139 73 155 17 8 95
13 230 15 183 2 206 4 219 20 8 10 38 27 65 37 39 15 56 29 77 62 44 70 78
142 78 167 0 12 6 24 13 26 67 18 246 56 262 56 26 -1 53 -17 100 -59 33 -29
36 -35 21 -43 -30 -17 -6 -28 64 -28 60 0 71 -3 81 -21 14 -27 7 -33 -64 -53
-45 -13 -62 -24 -77 -49 -38 -62 -29 -73 90 -103 73 -18 90 -28 90 -54 0 -21
-19 -30 -64 -30 -42 0 -74 -24 -78 -58 -3 -23 -8 -28 -43 -32 -37 -5 -41 -8
-53 -46 -13 -40 -15 -42 -85 -62 -40 -12 -102 -28 -138 -36 -64 -15 -67 -14
-130 11 -59 24 -117 30 -184 21 -18 -3 -21 6 -31 90 -13 104 -18 122 -35 122
-9 0 -10 -42 -7 -160 5 -164 2 -176 -33 -144 -16 14 -27 15 -91 4 -91 -14
-160 -35 -219 -67 -39 -21 -50 -23 -69 -13 -35 19 -49 -4 -21 -34 23 -25 21
-46 -4 -46 -8 0 -19 9 -25 21 -9 16 -17 19 -42 14 -22 -5 -35 -2 -51 13 l-22
21 -185 -30 c-279 -44 -270 -43 -270 -30 0 6 -7 11 -15 11 -8 0 -15 7 -15 16
0 23 -46 14 -214 -40 l-135 -43 -41 62 c-53 81 -106 190 -122 249 -11 43 -10
53 10 109 13 34 32 89 43 122 16 49 25 63 49 72 15 6 35 24 43 40 9 16 34 116
56 223 38 187 60 362 80 645 5 72 21 204 36 294 20 118 24 166 16 174 -18 18
-12 45 14 64 42 31 265 250 265 261 0 41 -62 11 -147 -71 -35 -33 -73 -65 -85
-71 -74 -37 -148 -294 -188 -653 -36 -322 -39 -347 -55 -403 -8 -30 -15 -68
-15 -85 0 -51 -105 -425 -141 -505 -59 -130 -42 -228 77 -431 20 -33 38 -76
41 -95 7 -42 42 -64 102 -64 31 0 41 -4 46 -21 6 -18 12 -20 38 -14 55 13 579
17 590 6 8 -8 5 -11 -11 -11 -12 0 -26 -9 -32 -20 -6 -12 -18 -118 -25 -237
-8 -119 -17 -218 -20 -221 -2 -2 0 -13 6 -24 8 -15 -3 -46 -57 -156 -38 -75
-77 -147 -88 -160 -14 -16 -22 -44 -27 -96 -4 -40 -15 -88 -24 -107 -26 -48
-73 -229 -90 -340 -8 -53 -22 -115 -31 -138 -16 -42 -16 -83 2 -183 6 -34 4
-38 -34 -62 -22 -14 -43 -34 -47 -45 -3 -11 4 -53 17 -93 33 -108 29 -157 -31
-366 -29 -100 -63 -233 -76 -295 -13 -61 -30 -130 -38 -152 -8 -22 -18 -74
-21 -115 -3 -41 -28 -163 -55 -270 -26 -107 -54 -229 -61 -270 -30 -192 -75
-357 -112 -418 -20 -32 -21 -64 -3 -119 5 -17 -2 -31 -33 -63 -21 -23 -79
-111 -128 -197 -49 -85 -101 -170 -116 -188 -28 -32 -28 -34 -28 -173 0 -131
-2 -144 -25 -188 -14 -26 -44 -70 -68 -98 -24 -28 -67 -83 -95 -122 -44 -61
-52 -78 -52 -117 0 -25 -9 -70 -21 -100 l-21 -54 27 -69 c14 -38 33 -86 42
-106 16 -37 15 -40 -32 -170 -26 -73 -55 -146 -65 -163 -10 -16 -24 -50 -30
-75 -17 -63 -54 -132 -86 -161 -64 -57 -136 -135 -148 -158 -7 -14 -16 -43
-20 -65 -5 -26 -22 -53 -52 -84 -24 -26 -44 -51 -44 -56 0 -5 36 -63 80 -128
44 -65 80 -127 80 -138 0 -21 7 -23 52 -20 45 3 83 -44 138 -172 27 -64 50
-125 50 -135 0 -10 13 -30 30 -45 20 -17 30 -36 30 -54 0 -58 65 -122 168
-164 90 -37 273 -57 358 -40 120 24 229 52 242 62 19 16 15 43 -20 147 -33 98
-66 143 -156 211 -29 21 -37 38 -57 115 -13 50 -30 106 -38 125 -45 104 -91
362 -78 437 21 123 75 340 113 453 22 69 42 131 44 138 2 8 26 12 71 12 85 1
144 14 160 36 7 10 22 43 33 73 11 31 28 76 37 100 9 24 30 60 47 80 18 20 53
65 78 101 25 36 57 76 71 89 29 26 32 39 72 291 25 159 60 275 102 340 9 14
59 108 111 210 154 302 251 480 308 567 30 45 116 207 192 360 76 153 154 307
174 343 20 36 73 143 118 239 72 157 136 261 160 261 5 0 12 -9 15 -21 4 -11
17 -25 29 -30 23 -11 98 -115 114 -159 11 -28 153 -257 246 -395 33 -49 75
-119 94 -155 121 -231 165 -306 232 -395 42 -55 82 -116 90 -135 7 -19 31 -56
52 -82 21 -25 51 -77 67 -115 16 -37 47 -106 69 -153 25 -52 58 -152 86 -260
45 -177 78 -286 136 -460 18 -52 36 -120 40 -150 5 -30 18 -81 30 -114 23 -63
31 -176 17 -238 -9 -35 -7 -38 65 -115 40 -43 87 -96 102 -118 54 -75 98 -115
128 -115 31 0 50 -30 93 -144 13 -34 39 -93 58 -132 20 -38 38 -88 42 -110 4
-21 28 -95 55 -164 50 -129 73 -222 64 -258 -9 -33 13 -184 36 -244 11 -31 34
-76 50 -100 16 -23 30 -53 30 -64 0 -40 61 -116 105 -131 79 -28 156 -2 345
112 58 36 115 65 125 65 39 0 47 14 39 68 l-6 51 68 34 c106 53 222 97 257 97
23 0 54 15 104 51 72 52 72 52 142 193 82 167 127 292 117 330 -13 51 -56 20
-56 -41 0 -71 -76 -254 -150 -363 -55 -80 -75 -95 -177 -134 -50 -19 -143 -61
-206 -92 l-115 -57 -72 17 c-39 10 -88 25 -108 33 -34 14 -35 17 -18 27 174
105 263 186 295 270 42 109 88 176 122 176 10 0 30 11 46 24 15 13 55 40 88
61 33 21 84 60 113 87 70 63 98 69 190 42 16 -5 22 -2 22 10 0 20 -46 43 -101
52 -24 4 -55 15 -68 25 -35 28 -88 35 -110 15 -10 -9 -21 -16 -25 -16 -4 0
-21 -9 -37 -21 -16 -11 -70 -40 -119 -65 -88 -43 -94 -44 -185 -44 l-94 0 -48
41 c-26 23 -60 58 -76 78 -36 45 -122 197 -183 323 l-46 97 17 53 c9 29 32 90
51 135 l35 81 -37 134 c-42 151 -43 155 -85 333 -21 87 -33 162 -35 228 -3 84
-7 104 -31 148 -15 28 -37 55 -50 60 -34 13 -105 145 -151 281 -22 68 -64 209
-92 313 -28 105 -67 237 -85 295 -19 58 -48 168 -65 244 -17 77 -42 160 -55
185 -30 60 -127 290 -175 416 -21 55 -60 150 -88 210 -55 123 -92 232 -92 276
0 17 -20 83 -44 149 -25 65 -52 154 -61 197 -9 43 -29 127 -46 186 -34 125
-36 115 40 294 35 83 54 145 61 195 11 84 -5 656 -21 758 -5 36 -14 98 -19
137 -5 40 -16 88 -24 105 -8 18 -33 139 -55 268 -46 267 -53 295 -79 324 -11
12 -55 90 -98 174 -67 130 -77 155 -66 170 28 39 41 83 51 180 6 56 17 148 24
205 18 148 15 307 -7 398 -15 64 -16 82 -6 113 13 41 -3 149 -43 294 -18 66
-24 75 -56 92 -68 34 -243 204 -363 351 -33 40 -38 53 -38 97 0 47 -3 54 -40
88 -54 50 -133 167 -128 190 5 27 54 29 126 5 80 -27 108 -26 149 5 49 37 63
72 63 156 1 67 21 182 35 196 3 3 24 8 48 11 39 6 42 8 45 39 3 34 -27 141
-59 204 l-19 37 30 21 c24 17 30 29 30 56 0 33 3 37 57 60 98 44 183 118 183
161 0 5 -46 50 -102 99 -70 61 -115 111 -146 159 -143 224 -200 293 -308 371
-95 68 -134 82 -260 90 -255 16 -407 -35 -573 -191 -118 -112 -183 -246 -202
-417 -5 -51 -12 -110 -15 -130 -4 -23 4 -79 20 -150 55 -236 98 -338 142 -338
13 0 42 -11 64 -25 33 -21 40 -31 45 -70 13 -85 -13 -123 -64 -92 -15 9 -32
12 -39 8 -6 -4 -25 -38 -41 -76 -54 -130 -103 -225 -116 -225 -7 0 -36 26 -64
59 -41 47 -51 66 -51 95 0 31 -4 38 -33 50 -36 14 -141 126 -169 179 -9 18
-20 50 -24 72 -6 36 -36 70 -278 315 -325 329 -459 475 -619 675 -226 281
-395 482 -496 590 -31 33 -83 95 -116 137 -33 42 -70 82 -82 90 -26 16 -213
238 -213 253 0 6 13 26 30 45 35 42 36 53 9 96 -24 40 -26 40 -102 9z m56 -52
c-2 -10 -11 -27 -18 -37 -14 -19 -15 -19 -35 -1 -35 32 -23 51 37 54 15 1 20
-4 16 -16z m-113 -32 c6 -16 22 -39 36 -52 27 -25 30 -41 11 -58 -10 -8 -20
-4 -39 17 -43 47 -70 92 -64 107 9 26 43 17 56 -14z m147 -189 c18 -26 40 -57
49 -69 16 -22 16 -23 -12 -23 -24 0 -38 11 -73 55 -24 32 -40 62 -37 70 10 28
41 15 73 -33z m232 -251 c91 -91 104 -118 72 -140 -12 -8 -36 -34 -53 -59 -30
-44 -30 -44 -50 -24 -16 15 -18 24 -10 39 9 15 3 33 -28 89 -21 38 -48 80 -61
93 l-23 24 32 28 c18 16 35 29 37 29 3 0 41 -36 84 -79z m161 -184 c0 -7 -16
-21 -36 -32 -20 -11 -48 -37 -62 -57 -23 -35 -42 -42 -42 -16 0 19 51 79 84
99 36 22 56 24 56 6z m84 -93 c17 -20 56 -64 87 -97 30 -34 138 -165 240 -292
175 -217 355 -420 427 -480 61 -51 72 -105 21 -105 -9 0 -34 -16 -55 -35 -21
-19 -41 -35 -45 -35 -10 0 -78 81 -250 294 -79 99 -179 216 -222 260 -44 44
-93 101 -110 126 -17 25 -51 70 -77 100 -25 30 -62 77 -80 103 -21 29 -44 50
-59 53 -45 10 -51 13 -51 28 0 34 92 114 134 116 5 0 23 -16 40 -36z m2491
-209 c177 -46 276 -127 417 -343 39 -61 46 -78 36 -87 -7 -7 -80 -47 -161 -88
-81 -42 -167 -92 -190 -111 -23 -19 -70 -49 -104 -68 -34 -18 -106 -61 -160
-94 -54 -34 -109 -67 -123 -74 -14 -7 -45 -31 -70 -53 -42 -37 -267 -157 -294
-157 -17 0 -50 75 -81 180 -23 78 -30 150 -14 150 9 0 49 -113 49 -139 0 -12
11 -33 25 -46 34 -35 93 -34 159 4 28 15 76 39 106 52 114 48 161 97 130 134
-17 20 -43 19 -91 -5 -22 -12 -44 -18 -49 -15 -6 3 -10 25 -10 48 0 59 -19 90
-58 98 -40 8 -59 31 -67 84 -4 22 -11 56 -17 76 -9 33 -8 41 19 80 17 24 35
60 42 80 6 20 23 51 36 69 48 65 19 111 -46 73 -41 -24 -125 -128 -145 -180
-19 -48 -44 -65 -44 -30 0 13 15 48 33 78 51 83 55 92 61 119 9 39 107 100
226 139 162 53 259 59 385 26z m-742 -585 c-5 -92 -9 -117 -15 -99 -18 45 -1
245 18 226 2 -2 1 -59 -3 -127z m1217 110 c0 -6 -17 -18 -37 -27 -21 -10 -45
-23 -53 -29 -38 -30 -269 -148 -277 -141 -12 12 200 144 292 182 68 28 75 29
75 15z m127 -97 l68 -58 -175 -6 c-96 -4 -190 -10 -209 -14 -63 -14 -29 15 89
76 63 32 125 59 137 59 12 0 52 -25 90 -57z m-2647 -50 c0 -7 -2 -13 -5 -13
-6 0 -65 87 -65 97 1 13 70 -69 70 -84z m2443 -80 c19 -38 51 -142 45 -148 -9
-10 -54 -8 -109 4 -46 10 -64 9 -100 -3 -24 -7 -56 -17 -71 -20 -26 -6 -56
-42 -45 -53 3 -2 35 5 71 17 57 20 70 21 96 10 37 -15 38 -27 3 -35 -16 -3
-36 -12 -45 -19 -32 -24 -25 -38 27 -52 70 -18 76 -18 70 9 -6 25 20 61 53 71
12 4 30 18 41 32 23 29 31 30 31 6 0 -10 -12 -29 -26 -41 -30 -26 -29 -34 23
-164 19 -48 33 -94 30 -102 -4 -9 -24 -15 -58 -17 -34 -2 -55 -8 -60 -18 -4
-8 -11 -81 -16 -162 -7 -128 -11 -151 -29 -168 l-20 -20 -79 66 c-89 73 -242
236 -283 302 -15 24 -44 65 -64 92 -77 101 -94 140 -59 140 16 0 63 20 91 38
2 2 7 37 11 79 9 112 20 118 269 158 191 30 187 30 203 -2z m105 20 c-10 -2
-28 -2 -40 0 -13 2 -5 4 17 4 22 1 32 -1 23 -4z m-2338 -186 c0 -5 -6 -7 -12
-5 -15 5 -88 98 -88 112 0 12 99 -95 100 -107z m520 -239 c0 -5 -8 -8 -17 -8
-10 0 -33 -9 -50 -20 l-33 -19 -17 25 c-38 54 -109 142 -160 198 -30 32 -61
69 -70 82 -14 23 -14 25 8 43 l24 20 158 -157 c86 -86 157 -160 157 -164z
m1156 238 c13 -54 -8 -75 -62 -62 -32 9 -30 29 7 60 38 32 47 32 55 2z m-1458
-147 c63 -74 123 -145 134 -157 15 -18 25 -22 41 -17 32 11 144 18 173 11 13
-4 24 -13 24 -21 0 -11 -12 -15 -46 -15 -59 0 -54 -20 9 -38 34 -9 51 -21 61
-40 8 -15 26 -34 40 -42 27 -14 116 -115 116 -131 0 -29 -61 23 -163 138 -25
29 -57 36 -57 13 0 -5 36 -49 80 -99 82 -92 88 -106 69 -143 -11 -21 -14 -19
-63 36 -29 32 -62 59 -76 61 -14 3 -33 16 -43 29 -40 55 -54 69 -60 59 -4 -6
41 -74 98 -153 58 -78 130 -185 161 -237 57 -94 57 -95 90 -88 43 8 88 -19 80
-48 -2 -11 2 -37 11 -58 15 -38 17 -39 64 -39 40 0 51 -4 66 -26 10 -14 26
-35 36 -46 10 -10 26 -51 37 -91 10 -40 48 -162 83 -272 36 -110 70 -218 76
-240 15 -59 101 -140 171 -162 63 -21 83 -45 130 -161 45 -113 129 -275 173
-333 21 -28 47 -78 57 -111 l18 -60 -34 -14 c-19 -8 -47 -17 -62 -20 -42 -9
-70 -37 -92 -96 -11 -30 -31 -65 -44 -77 l-24 -22 -16 43 c-9 24 -39 117 -66
207 -27 90 -53 168 -58 173 -6 6 -18 5 -31 -4 -29 -18 -33 -10 -60 115 -26
118 -43 151 -73 144 -16 -5 -24 4 -43 48 -13 29 -29 56 -35 60 -17 11 -56 95
-80 174 -30 102 -79 222 -99 246 -10 11 -27 38 -38 60 -49 98 -213 359 -269
429 -23 29 -71 101 -107 161 -36 61 -86 138 -111 171 -45 60 -106 176 -106
202 0 24 -30 72 -45 72 -22 0 -53 38 -93 115 -32 60 -37 66 -40 44 -3 -28 46
-166 115 -323 89 -203 154 -370 160 -412 11 -85 -37 -40 -97 91 -56 121 -181
404 -215 485 -15 36 -63 141 -107 233 -44 93 -78 170 -76 172 7 8 111 -131
129 -173 20 -47 39 -48 39 -3 0 25 3 28 25 23 14 -2 25 0 25 5 0 12 -72 124
-111 174 -16 20 -29 42 -29 49 0 20 41 71 54 67 6 -2 62 -64 124 -138z m1386
24 c76 -127 107 -174 185 -277 80 -106 121 -149 219 -229 34 -28 62 -54 62
-59 0 -4 -11 -8 -25 -8 -40 0 -192 144 -312 296 -141 177 -223 292 -223 314 0
13 15 26 47 39 1 1 22 -34 47 -76z m-97 -10 c8 -21 28 -56 44 -80 33 -48 35
-58 13 -67 -30 -12 -53 4 -87 62 -45 74 -47 84 -29 105 23 27 42 20 59 -20z
m-82 -84 c30 -58 80 -109 107 -109 12 0 30 8 40 17 26 23 42 12 103 -73 28
-38 97 -117 154 -176 83 -85 100 -108 83 -108 -29 0 -48 -40 -61 -130 -6 -41
-24 -108 -41 -149 -31 -75 -37 -111 -20 -111 5 0 30 10 55 22 33 16 55 37 76
71 l30 49 26 -23 c44 -42 44 -50 2 -114 -22 -33 -58 -104 -82 -157 -23 -54
-45 -98 -49 -98 -10 0 -65 100 -98 181 -18 43 -29 87 -28 108 1 19 -2 36 -8
38 -35 12 -311 257 -320 285 -3 9 -27 36 -55 59 -68 57 -73 68 -54 131 21 73
19 112 -12 202 -18 51 -24 81 -17 83 6 2 35 18 65 37 62 38 69 35 104 -35z
m-194 -50 c15 -29 -1 -45 -30 -30 -21 12 -27 31 -14 44 13 13 32 7 44 -14z m1
-336 c71 -58 193 -169 202 -183 16 -25 125 -123 180 -161 44 -30 54 -44 73
-98 13 -34 48 -115 79 -179 33 -69 55 -129 54 -147 -5 -120 3 -217 28 -344 16
-80 34 -147 40 -149 18 -6 15 46 -9 145 -36 147 -30 343 11 343 10 0 24 -67
44 -215 9 -60 24 -153 35 -205 10 -52 22 -119 26 -147 4 -29 11 -55 16 -59 16
-10 10 71 -16 192 -13 66 -34 182 -45 259 -11 77 -26 163 -32 192 -10 44 -9
55 6 77 16 25 18 25 45 12 15 -8 46 -30 69 -48 108 -86 132 -100 132 -78 0 7
-10 26 -22 42 -45 64 -86 199 -60 198 14 -1 62 -74 62 -96 0 -25 51 -73 178
-167 76 -57 83 -65 80 -93 -1 -17 5 -42 14 -56 23 -36 32 -76 20 -91 -7 -8 -5
-31 5 -72 13 -48 14 -72 5 -123 -9 -55 -8 -69 8 -105 33 -75 43 -169 31 -302
-7 -66 -15 -180 -19 -253 -9 -148 -20 -174 -54 -132 -11 14 -31 45 -43 71 -13
25 -40 67 -59 92 -19 25 -77 106 -127 179 -168 242 -235 324 -375 458 -26 25
-65 69 -87 99 -55 74 -438 459 -443 445 -3 -6 33 -51 79 -100 46 -49 108 -118
138 -153 30 -35 87 -96 128 -135 84 -80 249 -274 310 -364 22 -33 55 -68 74
-79 37 -23 178 -213 208 -281 23 -53 70 -122 123 -183 23 -25 58 -80 79 -122
65 -132 47 -118 -66 50 -47 71 -116 159 -154 198 -37 38 -84 91 -103 117 -76
104 -224 294 -239 308 -9 8 -45 49 -80 90 -75 88 -357 395 -483 525 -58 60
-90 101 -94 121 -5 28 -2 33 31 53 29 17 35 25 30 42 -6 19 -114 183 -182 276
-56 78 -59 94 -23 147 38 56 94 162 102 194 8 29 29 28 70 -5z m-392 -98 c25
-13 111 -129 148 -201 6 -11 29 -39 51 -61 27 -26 41 -50 41 -66 0 -24 -2 -25
-37 -20 -21 4 -46 15 -57 25 -11 10 -23 18 -27 18 -9 0 -158 183 -195 240 -21
32 -24 42 -14 59 13 25 49 27 90 6z m-399 -165 c27 -41 54 -80 59 -87 28 -34
70 -109 75 -135 5 -23 2 -35 -16 -54 -12 -13 -27 -24 -33 -24 -6 0 -50 98 -98
218 -92 229 -91 238 13 82z m686 -238 c8 -5 6 -14 -8 -32 -19 -24 -20 -25 -34
-6 -8 11 -15 26 -15 33 0 14 37 17 57 5z m908 -54 c3 -24 9 -58 12 -75 4 -28
2 -33 -15 -33 -22 0 -72 36 -72 52 0 17 50 98 60 98 4 0 11 -19 15 -42z m-835
-43 c0 -10 -10 -15 -26 -15 -22 0 -25 2 -14 15 7 8 19 15 26 15 8 0 14 -7 14
-15z m-610 -46 c12 -23 19 -44 15 -47 -3 -3 -22 11 -43 31 -31 31 -34 39 -22
47 24 15 28 12 50 -31z m583 -76 c8 -27 22 -81 32 -120 9 -40 33 -115 54 -165
44 -108 55 -148 42 -148 -5 0 -23 33 -39 73 -29 71 -132 381 -132 398 0 5 6 9
14 9 8 0 21 -20 29 -47z m-425 -1 c9 -21 50 -86 90 -144 71 -105 92 -149 53
-114 -26 23 -191 270 -191 285 0 26 32 8 48 -27z m-68 -32 c0 -15 -5 -12 -26
11 -19 22 -19 22 4 10 12 -6 22 -16 22 -21z m647 -137 c43 -47 150 -162 238
-255 88 -93 185 -205 217 -249 31 -43 79 -105 107 -136 68 -76 88 -121 101
-228 6 -49 18 -132 26 -184 8 -51 13 -96 10 -99 -3 -3 -23 3 -45 12 -21 10
-53 21 -70 25 -28 5 -35 14 -65 86 -68 163 -108 252 -155 345 -26 52 -61 125
-76 161 -32 78 -72 126 -112 134 -94 19 -107 27 -140 95 -31 62 -115 294 -129
353 -4 16 -2 27 4 27 6 0 46 -39 89 -87z m-188 -695 c46 -142 109 -370 111
-401 1 -20 -23 10 -50 64 -19 36 -42 113 -61 201 -17 79 -35 161 -39 183 -10
44 -12 75 -6 75 2 0 22 -55 45 -122z m922 -163 c25 -35 30 -54 38 -143 10
-111 21 -146 21 -69 0 33 4 47 14 47 28 0 163 -190 216 -305 18 -39 49 -104
70 -145 l38 -75 6 -216 6 -215 -41 -62 c-78 -116 -85 -120 -191 -106 l-46 6
16 28 c15 26 15 40 0 177 -10 82 -20 157 -24 166 -13 34 -21 15 -13 -32 4 -27
11 -96 15 -154 l7 -104 -49 -56 c-27 -30 -52 -56 -55 -56 -3 -1 -7 79 -8 177
-1 97 -3 190 -4 206 -2 26 2 31 29 36 44 10 53 17 70 61 14 33 22 39 52 44 62
10 67 16 67 80 l0 58 -83 20 c-105 24 -122 54 -42 73 107 25 103 23 97 58 -3
18 -12 49 -21 69 l-15 38 -51 -7 c-46 -6 -52 -5 -57 14 -3 12 -16 28 -29 37
-15 9 -29 34 -38 68 -14 47 -46 265 -46 310 0 27 19 17 51 -28z m479 -856 c11
-20 25 -39 33 -42 11 -4 13 -18 9 -56 -8 -84 28 -62 43 26 7 47 27 71 42 51
12 -17 79 -366 71 -374 -4 -3 -30 12 -60 34 -29 22 -76 51 -104 65 -47 24 -53
31 -64 74 -7 26 -15 102 -18 168 -5 113 -4 119 12 106 10 -8 26 -31 36 -52z
m-868 -161 l68 -32 77 18 c43 9 111 27 151 38 63 18 75 19 83 7 15 -24 11
-262 -5 -285 -16 -21 -24 -21 -624 -41 -213 -7 -235 -10 -248 -27 -11 -15 -16
-17 -28 -7 -8 7 -46 15 -85 18 -39 3 -71 9 -71 14 0 4 21 11 48 14 90 12 103
17 148 56 25 21 49 39 55 39 5 0 17 17 26 37 15 31 25 39 68 50 28 7 62 13 77
13 34 0 58 24 58 59 0 33 12 46 60 59 43 12 58 9 142 -30z m901 -169 c23 -12
72 -46 110 -76 l67 -54 0 -96 c0 -110 5 -108 -93 -41 -34 24 -98 61 -142 83
-99 50 -104 65 -44 148 22 31 45 57 50 57 5 0 29 -10 52 -21z m-1703 -79 c0
-28 -21 -34 -78 -23 l-47 10 35 16 c51 24 90 22 90 -3z m-50 -91 c13 -15 21
-17 55 -9 48 11 185 13 202 2 16 -10 -129 -266 -164 -289 -22 -15 -28 -15 -51
-2 -14 8 -27 20 -30 28 -3 10 4 12 36 6 33 -5 42 -3 50 12 13 25 0 56 -32 72
-23 13 -28 12 -45 -3 -19 -17 -20 -17 -30 3 -11 19 -71 197 -71 208 0 12 67
-11 80 -28z m1538 20 c35 -12 55 -51 50 -100 -3 -30 -7 -35 -38 -39 -29 -4
-36 -9 -38 -33 -3 -23 2 -30 28 -41 25 -10 28 -15 17 -24 -10 -9 -24 0 -64 41
-54 56 -143 178 -143 196 0 14 146 15 188 0z m-316 -24 c-6 -31 -126 -278
-146 -297 -25 -26 -61 -22 -85 8 -26 33 -106 277 -98 299 6 13 28 15 169 13
157 -3 163 -4 160 -23z m-468 9 c23 -9 20 -27 -15 -97 -61 -120 -111 -198
-135 -209 -21 -10 -28 -8 -50 13 -27 25 -134 227 -134 253 0 26 22 31 150 37
69 3 135 6 147 7 12 1 28 -1 37 -4z m571 -31 c-20 -47 -16 -63 31 -138 62 -97
65 -100 103 -80 31 15 31 15 41 -10 8 -20 16 -25 44 -25 19 0 42 -7 50 -16 35
-34 32 -105 -5 -124 -26 -15 -273 -44 -295 -36 -15 6 -16 25 -11 189 5 178 17
257 39 257 6 0 7 -7 3 -17z m378 -24 c48 -25 159 -98 168 -111 3 -5 11 -143
18 -306 12 -289 12 -299 -8 -357 -11 -33 -23 -90 -27 -127 -3 -38 -10 -68 -14
-68 -22 0 -127 305 -160 465 -7 33 -17 68 -22 78 -5 11 -11 83 -12 160 -1 80
-8 167 -16 199 -11 47 -12 59 -1 72 17 21 24 20 74 -5z m-463 -349 c-14 -52
-39 -67 -141 -86 -113 -22 -200 -16 -234 16 -24 22 -26 30 -23 95 l3 70 51 2
c45 2 52 0 62 -22 13 -28 41 -38 103 -33 l44 3 50 100 c28 55 60 120 70 145
l20 45 3 -148 c1 -83 -2 -165 -8 -187z m-955 123 c-9 -80 -19 -151 -21 -158
-9 -21 -74 -45 -125 -45 -51 0 -224 17 -268 26 l-23 5 7 147 c4 81 10 151 14
155 9 9 22 -21 51 -120 11 -40 25 -75 30 -78 5 -3 45 -7 89 -8 75 -2 81 0 109
26 16 15 48 62 72 105 69 124 74 130 78 109 2 -10 -4 -83 -13 -164z m523 -15
c2 -154 0 -177 -14 -189 -11 -9 -49 -15 -106 -18 -80 -3 -92 -1 -112 18 -22
21 -26 21 -125 10 l-103 -12 -26 26 -26 26 13 113 c7 62 15 123 18 136 12 50
49 13 88 -88 21 -53 22 -55 61 -56 21 0 53 -8 69 -17 64 -36 110 -12 158 80
62 121 82 153 92 150 6 -2 11 -73 13 -179z m1132 73 c7 -89 6 -392 0 -396 -11
-7 -18 46 -29 227 -10 159 -7 190 15 181 8 -3 14 -8 14 -12z m-1865 0 c7 -12
-12 -24 -25 -16 -11 7 -4 25 10 25 5 0 11 -4 15 -9z m1455 -288 c0 -16 11 -51
24 -78 12 -28 29 -68 36 -90 7 -22 21 -52 32 -67 11 -16 17 -36 14 -46 -3 -10
3 -43 14 -75 11 -31 20 -62 20 -69 0 -7 -48 -42 -105 -78 -58 -35 -116 -76
-129 -90 -40 -42 -127 -193 -124 -215 5 -31 33 -29 70 4 24 21 38 27 49 20 26
-16 38 -9 78 45 40 54 163 155 168 139 2 -6 -9 -39 -25 -74 -30 -67 -101 -173
-229 -340 -69 -91 -84 -119 -64 -119 15 0 123 128 211 250 129 178 144 191
134 116 l-6 -44 48 -14 c46 -12 51 -17 78 -72 21 -44 30 -82 36 -145 5 -63 17
-111 45 -181 20 -52 39 -117 41 -144 2 -27 11 -72 20 -100 32 -97 166 -404
204 -467 113 -187 280 -565 280 -636 0 -7 33 -129 74 -271 41 -142 81 -292 90
-333 8 -41 28 -112 45 -159 46 -129 64 -198 70 -275 6 -69 7 -70 46 -92 67
-37 53 -48 -60 -47 -79 1 -117 7 -180 28 -44 15 -100 29 -125 33 -41 5 -44 4
-30 -11 22 -22 276 -113 341 -121 39 -5 68 -2 102 10 75 25 82 13 112 -187 8
-59 20 -118 25 -130 5 -13 21 -72 34 -133 14 -60 36 -159 50 -220 l25 -109
-31 -83 c-17 -46 -35 -83 -40 -83 -4 0 -8 4 -8 9 0 18 -60 29 -221 42 -188 14
-230 9 -271 -32 -34 -33 -30 -49 13 -49 16 0 29 -4 29 -9 0 -18 -109 -157
-134 -171 -14 -7 -27 -11 -29 -9 -1 2 -42 45 -90 95 l-87 91 -4 84 c-2 46 -16
129 -30 184 l-27 100 21 14 c28 19 26 59 -11 193 -20 73 -29 125 -25 148 4 27
-5 59 -39 140 -48 113 -53 141 -30 160 8 7 15 19 15 26 0 18 -65 147 -128 256
-27 46 -65 113 -85 149 -20 36 -44 72 -52 79 -9 8 -49 68 -88 134 -39 67 -83
140 -99 163 -15 23 -28 44 -28 47 0 22 37 -8 121 -96 90 -95 99 -102 118 -90
19 11 24 8 54 -35 17 -26 46 -61 64 -78 17 -16 45 -58 62 -92 25 -51 36 -63
55 -63 28 0 56 24 56 47 0 9 -26 62 -59 117 -32 56 -73 130 -91 164 -20 39
-43 67 -57 73 -13 5 -38 32 -57 61 -23 37 -43 56 -66 63 -26 8 -36 20 -55 68
-24 60 -47 92 -77 108 -14 8 -24 4 -44 -16 l-26 -27 29 -31 c34 -36 48 -67 31
-67 -6 0 -27 17 -48 38 -27 29 -36 47 -36 73 0 47 -98 207 -196 319 -43 49
-78 93 -78 97 0 5 14 19 30 31 53 39 44 54 -136 232 -165 165 -165 165 -144
182 12 10 28 18 35 18 7 0 22 11 32 25 l18 25 81 -78 c44 -42 92 -93 105 -112
18 -24 34 -35 55 -36 16 -1 32 -2 35 -3 3 0 16 -23 28 -51 22 -50 62 -90 87
-90 21 0 17 48 -11 131 -32 94 -67 147 -103 155 -34 8 -57 28 -94 82 -17 25
-37 42 -49 42 -29 0 -139 117 -177 188 l-33 62 36 61 c60 103 109 228 99 254
-7 17 -30 26 -49 19 -27 -11 -117 -156 -156 -252 -20 -51 -44 -101 -52 -110
-9 -9 -32 -55 -52 -102 -20 -46 -45 -98 -55 -115 -25 -40 -180 -352 -180 -362
0 -4 -15 -27 -34 -51 -19 -23 -77 -131 -130 -240 -134 -274 -182 -366 -198
-373 -7 -4 -26 -13 -41 -20 -33 -15 -74 -79 -142 -220 -27 -57 -84 -171 -126
-254 -70 -139 -79 -152 -117 -170 -52 -25 -56 -31 -130 -193 -73 -159 -91
-185 -140 -209 -32 -16 -44 -33 -97 -140 -33 -67 -70 -133 -82 -146 -43 -44
-24 -77 44 -77 39 0 45 3 68 40 14 22 29 40 34 40 14 0 22 -190 11 -250 -10
-55 -69 -157 -97 -167 -8 -3 -25 -26 -40 -52 -14 -25 -36 -57 -48 -71 -13 -15
-25 -43 -28 -70 -5 -48 -39 -145 -60 -173 -8 -11 -45 -22 -117 -33 -170 -27
-192 -24 -408 55 -94 35 -106 37 -99 17 4 -10 -3 -17 -23 -21 -37 -8 -41 -13
-88 -125 -48 -116 -78 -210 -87 -272 -3 -26 -15 -57 -25 -70 l-19 -23 -1 27
c0 15 16 71 36 125 19 54 55 156 80 227 25 70 51 141 59 157 19 36 19 99 0
169 -32 120 -15 175 94 295 39 44 79 98 90 120 53 112 60 130 51 139 -7 7 -14
6 -22 -2 -24 -24 -28 -10 -28 88 l0 100 79 143 c101 184 137 245 200 342 28
44 58 96 67 115 72 155 117 241 144 275 29 36 110 194 110 214 0 5 15 21 33
35 58 46 65 56 103 144 24 57 51 99 75 122 29 27 46 58 74 138 29 78 44 107
66 123 16 11 41 43 54 70 28 54 168 418 179 462 11 48 -34 78 -64 42 -7 -8
-36 -79 -64 -157 -49 -136 -52 -142 -86 -153 -43 -14 -63 -46 -96 -153 -22
-67 -31 -83 -50 -88 -40 -10 -124 -173 -124 -242 0 -35 -23 -68 -61 -87 -34
-18 -58 -62 -101 -183 -31 -89 -76 -187 -83 -180 -2 2 11 82 30 178 18 96 48
254 65 350 17 96 46 247 65 335 25 117 33 174 29 210 -5 41 2 77 37 195 43
150 52 224 35 308 -6 29 -5 42 3 42 6 0 11 -8 11 -18 0 -37 197 -142 268 -142
48 0 92 33 92 70 0 29 -23 34 -61 15 -43 -23 -87 -16 -183 29 -70 32 -78 38
-72 58 3 13 6 44 6 69 0 40 3 47 28 59 15 7 55 12 90 11 80 -3 171 16 179 36
12 31 -13 34 -95 14 -109 -28 -119 -28 -127 10 -18 82 48 473 117 687 48 151
51 165 39 198 -11 32 -10 39 13 78 39 67 81 76 216 50 21 -5 34 1 58 26 28 28
37 31 70 26 24 -4 58 1 97 13 l60 19 28 -24 c38 -32 62 -37 149 -29 166 14
308 16 308 5 0 -22 83 -50 151 -50 52 0 72 4 93 21 14 11 26 26 26 34 0 8 22
15 67 20 37 4 78 11 92 16 14 6 74 12 134 14 60 2 112 6 115 9 3 4 18 6 34 6
24 0 28 -4 28 -27z m420 -406 c0 -63 -6 -123 -16 -157 -15 -51 -33 -120 -51
-195 -13 -53 -15 52 -4 214 7 117 14 156 33 197 13 29 26 50 31 47 4 -2 7 -50
7 -106z m-100 -165 c0 -65 -22 -198 -35 -211 -12 -12 -19 -12 -41 -2 l-27 12
21 22 c15 17 21 39 24 94 3 52 9 77 22 92 26 28 36 26 36 -7z m-248 -2229 c78
-76 111 -118 106 -134 -2 -7 -25 7 -50 29 -26 22 -62 45 -80 51 -31 10 -88 81
-88 110 0 30 47 6 112 -56z m-2382 -243 c-15 -28 -24 -19 -16 16 5 19 10 24
17 17 8 -8 7 -18 -1 -33z m3709 -1739 c23 -6 50 -55 38 -68 -3 -3 -27 0 -53 5
-63 14 -78 7 -70 -31 8 -39 23 -57 50 -57 12 0 31 -6 42 -14 18 -14 18 -15 -7
-24 -62 -24 -37 -92 33 -92 13 0 41 -11 63 -25 l40 -24 -54 -1 -53 0 6 -32 c9
-43 16 -49 70 -55 54 -6 64 -17 42 -42 -34 -37 -7 -79 64 -100 35 -10 39 -15
34 -35 -4 -18 2 -29 27 -49 19 -14 31 -28 29 -30 -3 -2 -31 -7 -62 -11 l-58
-6 6 27 c4 23 -3 37 -39 78 -47 52 -104 87 -173 104 -22 6 -48 19 -56 28 -24
28 -151 342 -144 358 3 8 12 15 20 15 22 0 49 45 41 70 -6 19 -3 20 67 19 40
-1 84 -4 97 -8z m-4069 -131 c52 -21 113 -44 135 -52 27 -11 41 -23 43 -37 4
-28 -4 -27 -79 9 -34 16 -66 27 -71 24 -13 -8 -9 -62 6 -76 8 -7 33 -24 55
-37 22 -14 39 -26 37 -29 -2 -2 -25 4 -50 12 -51 17 -72 13 -82 -16 -7 -22 17
-54 47 -63 29 -9 12 -25 -25 -25 -19 0 -39 -7 -46 -15 -19 -23 16 -67 63 -80
44 -12 47 -31 4 -27 -92 10 -92 10 -95 -31 -2 -26 1 -39 12 -43 22 -8 20 -21
-4 -27 -11 -3 -23 -13 -27 -24 -4 -10 -15 -30 -26 -45 -12 -17 -16 -31 -11
-40 5 -7 9 -36 10 -65 0 -28 6 -59 13 -67 11 -13 10 -19 -10 -36 -31 -25 -32
-25 -77 4 -20 13 -52 27 -70 31 -61 13 -84 -37 -35 -73 l28 -20 -28 -13 c-61
-28 -20 -65 85 -76 43 -4 68 -13 94 -34 19 -15 40 -30 47 -32 8 -3 7 -10 -5
-24 -14 -15 -17 -35 -16 -82 l2 -63 87 4 c51 2 92 -1 97 -7 11 -12 36 -104 30
-110 -2 -2 -23 5 -47 17 -49 24 -133 28 -171 8 -14 -7 -48 -33 -76 -57 -28
-23 -54 -43 -58 -43 -3 0 -6 36 -6 79 0 77 -1 80 -30 101 -16 12 -30 28 -30
36 0 8 -11 20 -25 26 -22 10 -25 18 -25 60 0 57 8 59 72 19 51 -33 82 -71 96
-121 8 -29 11 -32 17 -16 18 42 -60 153 -135 191 -61 31 -114 39 -185 30 -58
-7 -60 -9 -80 -70 -5 -15 -13 -5 -40 50 -19 39 -52 90 -74 113 -47 50 -52 85
-23 143 25 49 95 131 160 186 l54 46 25 -25 c32 -33 23 -48 -28 -48 -64 0
-116 -43 -164 -133 -45 -86 -43 -105 13 -119 36 -10 36 -11 21 -39 -8 -16 -7
-26 6 -45 23 -35 57 -31 104 14 23 21 52 44 66 50 20 9 25 19 25 49 0 21 -4
53 -9 70 -5 18 -6 35 -2 37 3 3 39 -5 78 -17 59 -17 74 -18 87 -8 26 22 18 47
-24 81 l-40 32 35 39 c19 22 35 47 35 56 0 9 12 36 26 61 21 35 25 52 20 82
-5 30 0 48 19 82 28 49 32 80 10 98 -8 7 -15 18 -15 25 0 22 48 65 73 65 30 0
51 23 43 48 -4 10 -24 29 -46 41 -22 12 -40 27 -40 32 0 13 39 2 150 -41z
m4070 20 c13 -8 13 -10 -2 -10 -9 0 -20 5 -23 10 -8 13 5 13 25 0z m-430 -113
c0 -57 19 -101 59 -137 29 -26 47 -57 74 -125 19 -49 38 -100 42 -113 4 -13
23 -58 42 -100 67 -146 122 -322 122 -387 0 -17 -10 -43 -23 -58 l-23 -29 -6
71 c-3 41 -17 95 -32 133 -15 35 -43 106 -62 158 -67 183 -114 296 -182 440
l-69 145 21 22 c25 28 37 21 37 -20z m543 -29 c33 -17 7 -28 -30 -13 -19 8
-37 15 -39 15 -2 0 -4 5 -4 10 0 11 42 4 73 -12z m-4026 -24 c-3 -3 -12 -4
-19 -1 -8 3 -5 6 6 6 11 1 17 -2 13 -5z m-81 -79 c10 -8 14 -15 7 -15 -19 0
-43 11 -43 21 0 13 14 11 36 -6z m-8 -112 c-10 -2 -28 -2 -40 0 -13 2 -5 4 17
4 22 1 32 -1 23 -4z m4240 -29 c31 -9 28 -34 -4 -34 -29 0 -64 16 -64 30 0 11
33 13 68 4z m-4272 -100 c18 -15 18 -15 -11 -9 -37 8 -57 25 -29 25 11 0 29
-7 40 -16z m4140 -89 c10 -8 30 -15 44 -15 24 -1 23 -2 -15 -35 -22 -19 -46
-35 -53 -35 -17 0 -46 64 -39 84 8 20 37 21 63 1z m594 -10 c7 -8 23 -15 36
-15 31 0 31 -17 -1 -32 -16 -7 -25 -19 -25 -34 0 -23 -44 -63 -57 -51 -3 4 0
20 7 36 15 37 7 51 -28 51 -35 0 -89 -33 -128 -77 l-31 -36 -37 28 -37 28 37
19 c21 10 48 18 61 18 37 0 63 18 63 44 0 33 7 36 70 36 39 0 62 -5 70 -15z
m-4764 -55 c20 -8 24 -14 16 -22 -14 -14 -73 1 -80 20 -5 15 27 16 64 2z
m4684 -106 c0 -13 -21 -44 -30 -44 -14 0 -12 24 2 38 13 13 28 16 28 6z m-177
-50 c3 -4 -7 -33 -23 -65 -17 -32 -30 -69 -30 -81 0 -37 -26 -66 -104 -115
-39 -25 -74 -51 -78 -57 -12 -18 -9 -48 7 -66 8 -9 16 -38 17 -65 3 -47 2 -49
-40 -79 -36 -26 -45 -28 -52 -16 -19 29 -11 68 18 89 35 26 17 27 -39 1 -48
-21 -89 -26 -89 -10 0 6 8 23 18 37 9 15 28 61 42 102 23 70 27 76 60 84 68
18 92 30 102 56 8 23 6 29 -22 52 l-31 26 23 36 c27 42 37 44 97 17 49 -23 61
-18 87 32 14 28 25 34 37 22z m-433 -49 c0 -9 16 -32 35 -52 35 -36 35 -37 16
-56 -31 -31 -39 -20 -67 96 -4 17 -2 27 5 27 6 0 11 -7 11 -15z m-4815 -65 c3
-11 19 -29 36 -40 18 -13 29 -30 29 -44 0 -13 9 -35 20 -49 21 -27 26 -47 11
-47 -21 0 -135 166 -127 186 8 20 24 17 31 -6z m765 10 c0 -6 -6 -12 -12 -14
-7 -2 -32 -9 -56 -16 -50 -16 -66 -6 -33 21 25 20 101 27 101 9z m13 -64 c8
-19 -1 -26 -35 -26 -34 0 -36 13 -5 28 30 14 34 14 40 -2z m-479 -67 c-3 -5
-10 -7 -15 -3 -5 3 -7 10 -3 15 3 5 10 7 15 3 5 -3 7 -10 3 -15z m508 -51 c-6
-6 -18 -8 -26 -5 -15 6 -14 9 1 27 15 18 18 18 26 4 6 -10 5 -20 -1 -26z
m-527 -89 c15 -38 31 -69 36 -69 5 0 18 -20 29 -45 21 -48 84 -138 119 -169
11 -11 21 -26 21 -34 0 -8 16 -32 35 -53 41 -46 48 -84 13 -73 -35 10 -42 15
-92 72 -25 29 -59 82 -76 118 -16 36 -42 84 -57 107 -16 23 -49 84 -73 135
-36 77 -41 95 -30 102 23 14 46 -15 75 -91z m540 42 c7 -12 -12 -24 -25 -16
-11 7 -4 25 10 25 5 0 11 -4 15 -9z m3891 -61 c15 -27 44 -61 66 -76 36 -25
37 -29 24 -48 -25 -38 -48 -26 -83 44 -31 62 -52 130 -40 130 3 0 18 -22 33
-50z m465 -136 c30 -9 58 -18 62 -21 14 -8 -16 -35 -63 -57 -25 -12 -63 -34
-85 -48 -41 -28 -103 -54 -163 -68 -44 -11 -102 5 -102 29 0 22 36 55 76 69
17 5 66 33 109 61 43 28 86 51 95 51 9 0 41 -7 71 -16z m-4271 -39 c0 -7 15
-24 33 -36 17 -13 52 -39 77 -60 45 -36 46 -39 47 -99 2 -60 2 -62 -30 -75
-18 -7 -76 -25 -129 -41 l-98 -28 -57 20 -58 19 76 5 c87 6 127 26 135 70 5
24 12 29 52 37 25 4 47 13 49 20 8 22 -43 25 -119 8 l-74 -16 -122 62 c-101
51 -125 59 -137 49 -9 -7 -19 -10 -23 -6 -15 16 52 56 93 56 22 0 57 5 78 11
26 7 54 7 94 -1 52 -9 59 -8 77 9 20 21 36 19 36 -4z m3950 -45 c0 -10 -46
-40 -60 -40 -14 0 -13 43 1 57 12 12 59 -2 59 -17z m-4396 -194 c30 -39 164
-101 197 -91 11 4 48 -3 82 -16 l62 -22 145 36 c99 25 147 34 155 26 14 -14
-5 -25 -85 -49 -148 -44 -154 -45 -294 -17 -168 33 -306 100 -306 148 0 28 14
23 44 -15z"/>
<path d="M3125 11698 c-45 -16 -56 -28 -53 -57 3 -25 6 -26 83 -31 87 -5 85
-5 165 -66 30 -23 76 -51 102 -62 46 -20 48 -20 69 -3 27 22 22 50 -20 108
-36 50 -88 91 -138 109 -45 16 -165 17 -208 2z"/>
<path d="M3186 10723 c-19 -20 -2 -55 48 -98 42 -35 59 -59 71 -96 9 -27 20
-47 25 -44 12 8 4 123 -11 141 -23 28 -126 103 -133 97z"/>
<path d="M3457 10444 c-4 -4 -7 -16 -7 -27 0 -16 4 -18 28 -12 15 4 42 11 61
14 19 3 33 11 33 16 -2 12 -104 19 -115 9z"/>
<path d="M2980 10522 c0 -5 9 -35 20 -68 12 -32 18 -70 15 -82 -10 -40 4 -59
70 -101 73 -46 94 -50 121 -20 25 27 14 42 -71 93 -38 24 -72 49 -77 57 -4 8
-19 40 -33 72 -23 50 -45 74 -45 49z"/>
<path d="M2895 9862 c-108 -37 -193 -109 -178 -149 5 -12 9 -11 29 2 21 14 26
14 47 0 21 -13 27 -13 63 5 21 11 68 30 104 42 92 32 121 66 84 102 -20 21
-86 20 -149 -2z"/>
<path d="M3216 7015 c-14 -36 34 -89 64 -70 14 9 13 58 -2 73 -17 17 -55 15
-62 -3z"/>
<path d="M2770 7015 c-18 -22 -4 -64 25 -71 61 -15 61 44 -1 79 -7 4 -17 0
-24 -8z m35 -35 c3 -5 1 -10 -4 -10 -6 0 -11 5 -11 10 0 6 2 10 4 10 3 0 8 -4
11 -10z"/>
<path d="M3516 6623 c-31 -186 -69 -480 -80 -624 -10 -121 -19 -186 -30 -208
-16 -30 -15 -51 3 -51 4 0 17 17 28 38 17 31 21 62 26 182 6 145 23 295 52
464 22 127 30 236 18 236 -6 0 -13 -17 -17 -37z"/>
<path d="M2372 6530 c-18 -11 -44 -20 -57 -20 -16 0 -42 -15 -68 -39 -44 -41
-121 -164 -137 -219 -12 -44 6 -51 28 -12 57 104 82 129 132 135 8 1 33 8 55
14 35 11 46 10 92 -8 86 -34 103 -12 80 99 l-14 65 -39 3 c-26 2 -50 -4 -72
-18z"/>
<path d="M3052 5898 c-20 -20 -14 -42 33 -139 25 -51 45 -105 45 -119 0 -29
27 -60 53 -60 27 0 48 42 41 81 -10 53 -71 174 -108 213 -36 39 -46 42 -64 24z"/>
<path d="M3930 5841 c0 -15 -147 -168 -238 -247 -46 -41 -119 -94 -163 -120
-50 -30 -79 -53 -79 -64 0 -10 -7 -23 -15 -30 -9 -7 -15 -23 -13 -34 3 -24 18
-25 130 -8 76 11 120 35 172 92 36 40 49 91 26 105 -21 13 -7 38 64 109 41 41
88 93 105 117 30 41 41 89 21 89 -5 0 -10 -4 -10 -9z"/>
<path d="M2758 5643 c-52 -3 -68 -7 -68 -19 0 -19 9 -22 111 -33 116 -13 163
-33 200 -87 34 -50 57 -65 87 -58 17 5 24 -2 42 -45 23 -52 45 -61 34 -13 -20
82 -93 195 -144 222 -21 11 -160 41 -180 38 -8 -1 -45 -3 -82 -5z"/>
<path d="M2969 5414 c-21 -26 -85 -54 -140 -62 -62 -8 -68 -23 -16 -36 72 -18
221 53 204 97 -8 21 -31 22 -48 1z"/>
<path d="M5017 2814 c-76 -23 -123 -79 -201 -235 -50 -101 -68 -149 -73 -192
-4 -38 -2 -57 5 -57 6 0 14 5 17 10 3 6 17 10 30 10 42 0 55 11 85 70 24 47
35 60 60 65 17 4 38 17 46 31 14 20 21 23 59 17 54 -7 67 12 59 83 -3 27 -1
78 4 114 15 101 2 113 -91 84z"/>
<path d="M1575 2326 c-46 -20 -145 -85 -192 -126 -63 -55 -223 -239 -223 -256
0 -11 6 -13 20 -9 12 4 27 1 35 -5 27 -23 59 -6 111 60 33 41 67 71 91 81 75
32 78 32 90 -1 23 -60 56 -38 138 90 26 41 58 87 71 103 13 15 21 34 18 41
-13 34 -103 47 -159 22z"/>
<path d="M1777 9463 c-13 -12 -7 -21 18 -27 46 -12 149 -180 250 -409 51 -115
70 -138 34 -41 -65 175 -208 431 -262 469 -24 17 -31 18 -40 8z"/>
<path d="M1633 9208 c-13 -22 -16 -244 -4 -362 7 -61 25 -176 41 -256 21 -103
28 -159 24 -192 -6 -42 -2 -58 33 -130 23 -46 44 -98 48 -116 7 -32 58 -102
75 -102 4 0 11 24 14 53 9 67 -7 111 -84 242 -56 96 -60 106 -89 256 -17 85
-36 199 -42 252 -11 97 -8 302 6 345 8 24 -8 31 -22 10z"/>
<path d="M3238 8163 c-39 -6 -54 -28 -40 -58 13 -28 25 -30 105 -14 65 13 88
32 66 54 -16 16 -87 26 -131 18z"/>
<path d="M1680 7811 c-118 -17 -182 -42 -231 -91 -53 -53 -78 -112 -59 -135
19 -23 36 -18 49 14 12 27 91 113 91 98 0 -4 -13 -31 -29 -60 -16 -28 -35 -80
-42 -115 -11 -54 -11 -64 2 -78 20 -19 30 -8 59 66 12 30 36 78 55 105 18 28
43 70 56 95 28 51 42 57 159 59 86 2 113 12 77 28 -35 16 -124 22 -187 14z"/>
</g>
</svg>
