<svg version="1.0" xmlns="http://www.w3.org/2000/svg" width="770pt" height="1280pt" viewBox="0 0 770 1280"><g transform="translate(0.000000,1280.000000) scale(0.100000,-0.100000)" fill="#000" stroke="none"><path d="M2970 12794c-93-14-147-28-193-49-28-14-67-25-85-25-51 0-99-25-119-62l-18-33-3 27c-4 34-29 42-84 28-103-28-254-107-498-262-74-47-160-98-190-112-30-15-66-34-80-41-97-50-372-485-473-747l-32-83 1-205c2-299 29-549 84-768 41-161 106-292 145-292 18 0 87-78 193-220 229-308 433-480 777-653 315-158 498-229 810-311 222-59 293-94 331-167 18-36 18-129-1-219-38-182-193-462-274-497-35-15-45-28-60-83-9-31-28-60-63-93-27-27-52-46-55-44-2 3 3 19 12 37 9 18 14 34 11 38-13 12-89-22-221-99-182-106-239-150-265-203-14-30-26-94-40-212-25-210-40-246-145-340-101-92-143-150-155-213-13-71-35-114-82-160-55-56-112-81-182-81-106 0-148 36-288 245-90 133-130 213-147 293-16 75-14 417 3 529 10 65 25 117 55 180 44 96 50 142 27 196-29 69-103 103-188 86-24-4-46-8-50-9-5 0-26-16-47-36-42-38-56-69-66-149-10-80-24-112-61-145-56-49-129-35-169 33-16 26-17 43-10 131 13 162 11 180-35 257-92 152-146 397-255 1162-53 368-147 969-151 964-1-1-9-74-19-162-9-88-20-164-24-168-13-13-37 89-81 335-81 456-135 809-154 1008-33 331 42 77 153-526 61-328 73-383 78-367 3 7-5 162-16 345-11 183-23 405-26 492-7 179-18 248-48 288l-21 28 38 39 38 39-46 49c-46 50-76 106-76 142 0 35-34 44-90 26-68-23-249-145-3e2-202-51-58-50-84 4-163 58-84 79-190 131-661 53-480 96-755 220-1434 116-632 123-708 105-1037-6-124-9-241-5-260 4-18 22-49 40-68 59-61 95-214 95-399 0-146-18-174-164-261-58-35-68-69-74-256-4-146 8-325 24-369 4-9 17-20 29-25 20-7 23-17 27-82 3-40 18-117 33-170 30-106 101-258 125-269 60-27 74-38 95-74 34-57 53-141 63-286 9-125 23-174 45-166 20 6 34 105 41 303 9 218 17 250 68 259 18 4 46 2 61-4l28-11-7-115c-6-99-4-118 10-140 27-41 39-236 32-520-13-510-40-860-82-1060-48-229-63-311-93-503-50-313-115-572-182-722-29-66-40-108-49-185-10-86-93-507-189-966-16-75-41-221-55-325-15-104-29-204-32-223l-5-34 153 7c84 4 245 11 358 16 269 12 466 12 512 0 27-8 39-18 47-40 10-31 57-65 102-75 15-3 35-15 45-27 17-18 19-38 18-217-2-194-26-581-45-716-14-103-38-193-66-249-13-27-22-55-19-61 2-7 26-18 53-25 26-6 56-14 65-17 9-2 26-20 37-39 24-40 106-84 159-84 47 0 87 24 102 61 13 31 14 31 64 25 28-3 66-6 84-6 21 0 32-5 32-14 0-8 12-24 27-36 24-19 36-21 83-16 46 4 176 42 160 46-3 0-62 5-133 9-70 4-130 11-134 14-3 4 6 112 21 239 73 629 99 965 101 1299 2 164 6 302 9 308 4 6 13 11 21 11 32 0 66 162 105 505 32 284 54 384 111 497 23 46 43 103 49 145 13 81 43 136 98 180 52 42 88 117 106 223 22 124 63 241 161 455 161 349 185 407 2e2 474 21 91 69 187 103 203 17 9 32 29 42 58 30 82 272 459 368 572 26 32 63 93 82 135 54 125 120 254 160 313 43 63 116 133 132 128 23-8 34-37 21-55-49-70-77-170-56-206 7-13 15-5 42 41 60 102 80 113 106 62 29-57 12-140-66-320-66-150-164-324-305-538-191-289-210-334-202-481 5-95 20-137 52-147 34-10 56-35 56-63 0-33 26-71 48-71 9 0 33 12 54 27 27 18 56 28 94 31 63 5 196-15 221-33 19-14 20-34 8-205-7-101-6-117 9-129 23-20 20-62-15-170-51-161-50-326 3-369 43-35 56-55 67-97 12-47 31-59 114-71 26-3 47-11 47-17 0-7-29-39-64-73-49-46-93-76-178-118-163-80-268-105-268-63 0 16 75 58 135 77 64 20 133 58 145 80 25 47-28 79-182 106-51 9-96 20-101 24-4 3 37 42 92 85 55 44 99 80 98 81-1 1-36-4-77-11-135-25-217-14-234 30-9 25 18 68 69 109 25 21 44 40 42 42-2 2-44-5-93-16-49-11-106-20-126-20-20 0-40-5-43-11-9-13 28-67 108-157 105-118 105-152 2-191-122-46-146-26-274 219-111 213-151 357-120 436 5 16 32 52 60 81 27 28 49 56 49 60 0 5-13 17-30 26-37 22-38 40-4 88 30 44 25 59-20 59-97 0-156-140-157-373-1-67 2-140 6-162 11-64 35-132 51-146 33-27 54-87 52-144-2-49 1-58 30-88 38-39 40-60 10-81-43-31-112-18-250 46-115 53-125 50-183-51-61-105-74-116-143-116-46 0-57-3-60-17-3-17 23-47 69-79l23-16-32-47c-43-67-47-109-23-276 32-222 40-360 51-810 11-435 17-507 43-522 23-12 34-66 41-198 4-63 12-194 18-290 10-160 9-179-6-209-10-18-19-31-21-29-2 2-15 65-30 141-14 76-30 148-34 160-10 28-21-110-21-275V252l-68-51c-37-27-105-70-150-94l-83-44 92-6c51-4 121-7 156-7 53 0 63-3 63-17 1-16 2-16 13-2 11 14 35 15 212 8 532-20 1461-31 2370-27 545 2 998 7 1007 12 14 7 15 11 3 40-27 64 9 103 379 414 403 338 456 392 471 487 10 59-6 108-1e2 310-162 349-215 609-215 1049 0 457 27 525 385 968 55 68 122 157 148 198 69 106 205 362 223 418 9 28 17 99 20 177 4 159 7 171 42 187 48 23 56 77 55 383-1 504-68 965-172 1178-27 56-82 185-121 287-82 214-143 346-206 447-84 135-116 229-155 458-55 322-147 582-277 780-71 107-202 237-342 338-69 49-142 105-162 123-45 40-76 49-3e2 84-278 43-316 67-534 340-144 181-224 263-295 303-26 15-50 34-53 43-9 24 20 52 57 56 24 2 32 9 39 33 5 17 13 154 18 305 15 440 38 766 61 870 14 60 31 77 94 90 33 7 61 20 76 36 23 24 23 26 6 39-10 7-46 16-82 20-81 8-123 35-254 161l-102 98 38 33c60 52 154 113 173 113 10 0 41-16 70-35 58-39 80-43 102-17 25 27 29 55 19 124-11 78-4 119 20 125 11 3 19 11 19 17 0 28-120 116-158 116-25 0-42-32-42-81 0-44-15-35-44 26-36 73-75 1e2-139 96-10 0-37-19-59-42-51-52-82-51-86 3-2 21 1 53 7 73 5 21 6 37 0 40-5 4-45-10-89-30-103-46-140-45-156 5-6 19-22 43-35 52-62 45-293 74-361 45-46-19-50-45-8-54 17-3 36-15 42-26 16-31-21-57-82-57-53 0-72 14-68 51 2 18-2 25-21 27-56 8-78-12-95-90-5-20-14-29-34-34-15-3-56-14-92-24-39-12-69-15-74-10-8 8 11 94 31 147 3 8-52-16-121-51-147-76-277-120-414-141-142-22-230-48-332-1e2-80-41-178-76-239-86-60-9-87-28-78-53 5-13 16-15 60-10 118 14 74-66-67-122-27-10-66-35-86-54-31-29-39-45-45-88-4-32-16-64-29-80-30-35-37-67-26-122 12-62 1-71-73-58-68 12-81 5-99-53-6-21-31-62-55-90-24-28-43-61-43-74 0-27 64-108 117-147 44-34 70-35 119-6 71 42 255 35 267-11 6-26 78-41 194-41 124 0 143 9 158 75 15 67 30 92 66 111 49 25 60 14 57-58-3-60-2-62 22-63 37 0 38-35 2-77-48-55-70-209-53-379 11-113 28-151 106-241 117-132 124-204 14-132-67 44-98 42-188-11-34-20-79-39-1e2-42-49-6-140 29-182 71-30 29-34 38-34 87 0 51-1 54-27 57-14 2-50-7-79-19-74-32-137-30-229 5-151 60-305 179-570 445-258 258-452 497-526 646-49 1e2-62 186-74 501-16 4e2-2 522 87 754 51 134 96 220 133 255 18 17 52 60 75 96 48 74 81 102 140 118 58 15 144 70 257 162 122 1e2 259 187 307 195 76 13 108 25 180 68 58 34 78 42 91 34 13-8 26-5 56 15 47 31 163 66 344 102 146 29 205 49 195 65-6 9-120 12-175 4zm-2637-952c9-10 26-53 37-95 25-102 16-127-46-127-51 0-92-11-98-26-3-8 3-61 15-117 59-298 321-1942 4e2-2502 10-77 22-209 26-292 6-139 5-153-11-153-26 0-35 36-77 310-22 140-66 408-99 595-93 534-151 927-225 1530-57 465-81 586-132 673-16 28-21 48-16 53 6 6 43 13 84 16 95 7 102 13 94 75-10 68 14 97 48 60zm4175-1123c316-34 486-140 537-334 41-159 60-626 30-753-36-151-80-191-263-236-147-36-187-71-119-104 35-17 34-37-3-96-54-85-112-92-375-48l-160 27-6 3e2c-9 419-18 476-94 570-25 30-45 59-45 63 0 5 23 12 51 15 29 4 54 9 58 13 9 9-114 121-160 144-1e2 51-296 76-391 50-51-15-1e2-57-96-84 3-19 8-21 73-18 116 6 233-48 352-161 60-57 83-93 83-132 0-21-5-25-29-25-16 0-64 17-107 37-141 67-260 49-354-53-55-62-64-97-27-111 12-4 128-6 259-5 228 4 237 3 257-17 45-45 21-173-54-281-47-68-62-119-51-164 11-44 65-32 95 22 15 27 22 8 23-61 0-86-7-104-46-117-69-22-190 30-261 113-46 54-43 76 15 104 42 20 43 22 20 27-14 3-56 8-95 11-221 19-284 118-285 450-1 374 69 622 209 748 72 65 131 82 351 102 183 16 481 18 608 4zM645 9849c8-36-2-99-15-99-6 0-10 29-10 65 0 68 14 87 25 34zm2867-548c46-30 116-108 145-164 9-19 13-44 10-69-7-52 33-130 86-169 94-68 117-11 36 91-24 31-37 56-32 61 5 5 56 2 123-7 140-20 213-14 277 22l48 27 38-26c48-33 104-42 242-41 150 1 176 13 323 156 83 81 117 108 120 96 7-33-27-87-362-590-45-68-246-301-254-294-1 2 5 45 13 95 13 74 14 103 5 146-11 55-60 140-92 159-42 26-133-120-146-234-11-99-25-95-163 47-182 186-334 391-378 508-31 84-66 147-95 174-52 49-15 57 56 12zM804 8928c17-24 22-114 7-136-11-18-29 32-38 105-6 58 5 69 31 31zm4326-38c237-184 246-263 32-277-75-5-90-9-107-29-28-34-98-44-294-44l-166 1 51 47c259 237 394 352 412 352 4 0 36-23 72-50zm-1468-304c43-108 68-196 68-242 0-56 73-182 180-309 56-66 110-137 121-157 12-24 32-43 55-53 60-25 88-114 58-189-6-16-4-18 12-12 42 18 53 17 73-3 30-30 27-51-6-51-42 0-128 44-222 114-88 65-131 87-131 66 0-24 26-58 111-147 133-138 119-150-46-43-139 90-2e2 108-193 57 2-14 36-44 93-84 114-79 191-146 198-173 4-15-4-32-25-56-16-18-34-34-39-34-4 0-11 16-15 35-3 19-8 35-11 35-3 0-28-17-56-37l-50-37 7 40c9 45 9 43 7 67-1 14-8 18-28 15-22-2-31-11-40-38-12-38-26-40-59-9-12 11-43 27-69 35-53 16-165 19-165 5 0-5 35-28 78-51 103-56 162-113 162-157 0-18-3-33-8-33-4 0-32 19-62 41-69 53-162 96-220 104l-45 7 55-53c30-29 81-77 113-107 32-31 57-63 57-74 0-11-20-43-45-70-25-27-49-67-55-89-14-51-32-51-112 6-160 113-211 145-230 145-20 0-20-1-3-27 9-16 57-66 106-113 88-84 109-120 69-120-26 0-80 28-175 90-77 49-112 66-122 57-15-16 22-65 133-173 141-137 147-152 89-203-52-46-81-42-157 22-88 74-109 87-140 87-37 0-36-20 2-75 54-79 140-135 206-135 59 0 118 36 189 113 35 39 66 69 68 66 2-2 52-69 112-149 124-166 175-243 175-264 0-19-86-126-235-291-150-166-238-277-295-369-25-40-65-93-90-117-32-31-66-86-119-189-114-225-181-317-198-274-11 28 28 104 88 169 32 36 59 74 59 85 0 27-5 26-62-17-59-43-189-189-226-253-36-64-70-98-124-126-55-28-71-30-88-9-31 37 31 135 85 135 13 0 32 8 44 18 20 16 21 27 24 232 4 244 7 260 82 364 51 72 96 167 114 240 27 110 115 247 267 413 103 113 149 171 141 179-3 3-28 1-54-6-44-11-54-11-93 7-25 11-73 43-106 71-34 29-67 52-73 52-6 0-11-19-11-45 0-42 3-48 35-67 50-29 96-125 76-157-12-19-53-4-140 53-126 81-151 89-151 46 0-27 52-84 127-137 58-41 80-73 51-73-25 1-97 39-151 79-53 41-97 53-97 28 0-18 34-60 114-140 77-77 85-110 29-115-28-3-35 2-58 37-22 36-30 41-61 41-57 0-111 20-155 58-37 32-41 39-36 73 9 68 135 272 291 473 32 41 64 92 71 113 9 27 22 43 49 56 30 15 37 26 42 58 7 42 42 79 76 79 25 0 36 34 28 83-10 54-3 73 35 96 26 15 34 28 40 59 8 46 15 55 67 71 121 39 262 350 298 656 19 164 40 256 76 336 36 81 65 186 86 307 6 39 14 72 17 72 4 0 23-42 43-94zm1757-42c12-12-66-66-184-126-162-82-265-150-355-231-41-38-93-78-114-89-22-11-114-93-206-182-121-119-181-170-222-190-85-41-101-35-128 48-14 45-61 125-122 210l-43 58 31 27c17 14 82 73 145 130 165 150 253 206 359 230 25 5 124 21 220 36 96 14 245 38 330 55 85 16 169 31 185 33 35 6 95 1 104-9zm164-154c45-28 57-51 39-75-28-40-260-186-333-210-33-11-50-23-55-38-10-33-55-88-194-237-143-153-185-206-218-270-12-25-58-85-102-135-104-116-128-152-134-197-7-51-44-121-146-273-48-71-108-168-135-215-73-130-128-180-198-180-42 0-81 29-107 80-21 41-41 161-60 349-10 107-8 147 6 105 23-71 55-124 74-124 5 0 8 44 7 98-2 95-1 99 33 156 116 192 487 588 750 799 226 182 601 396 696 397 17 0 51-13 77-30zm-4796-33c58-30 53-70-10-83-39-8-42-11-45-47-2-20 6-83 17-140 42-204 42-330 2-370-29-30-49-15-55 40-18 144-49 301-80 401-43 137-45 164-10 199 23 23 31 25 88 21 34-3 76-13 93-21zm3193-32c74-24 142-53 153-63 18-19 18-20-22-60-42-42-50-68-28-91 39-41-139 47-193 95-65 59-104 164-62 164 11 0 79-20 152-45zm2191-94c54-21 119-61 119-73 0-5-17-8-37-8-77 0-195-43-207-76-3-9-3-45 0-79 6-62 6-63-33-106-72-81-344-431-628-809-173-231-408-521-462-572-28-26-49-49-46-51 28-28-266-356-334-373-49-13-143 53-174 121-44 95-12 203 107 370 32 45 36 55 31 97-5 42-4 47 17 52 53 13 229 202 262 282 10 24 57 77 121 139 110 105 123 122 128 162 4 37 61 114 207 279 73 82 156 179 185 214 78 99 299 311 379 364 39 26 93 55 120 65 68 26 179 27 245 2zm-4623-137c2-11-17-44-41-76-62-80-79-127-127-353-24-110-47-204-51-209-5-5-6 6-4 25 2 19 7 93 10 164 9 227 66 422 137 465 35 21 71 14 76-16zm-743-534c9-26 20-91 24-146 10-114 20-144 61-191 33-37 35-45 20-74-14-25-50-24-83 1-14 11-69 32-124 46-154 41-223 83-223 135 0 35 46 75 99 84 21 3 65 2 96-4 85-16 88-12 79 123l-7 111 21-19c12-10 28-40 37-66zm-112-448c118-62 235-139 248-165 17-30 3-63-46-108-25-23-45-47-45-54 0-6 41-30 90-54 63-29 94-50 102-67 20-43 1-49-134-46-66 1-124-1-129-4-21-12 16-35 96-59 87-27 109-42 103-72-6-31-72-46-172-39-140 9-179 40-237 192-54 140-82 275-83 405-1 142 5 154 69 135 24-8 86-36 138-64zm3156 11c33-81 53-259 29-251-33 11-85 193-73 250 8 36 29 36 44 1zm-111-149c16-19 55-83 87-142 89-164 161-276 214-334 60-66 74-93 67-124-5-20-3-24 15-24 37 0 83-36 119-94 141-225 195-299 387-528l61-74-85-120c-133-187-203-248-203-176 0 32 31 84 113 191 77 99 92 157 28 112-16-12-59-66-96-121-65-97-96-130-122-130-7 0-13 10-13 23 0 40 120 228 183 286 33 30 27 41-22 41-57 0-85-29-141-146-31-65-55-104-65-104-21 0-72 83-91 147-20 68-7 1e2 79 187 59 60 97 82 97 56 0-15 38-50 55-50 30 0 14 38-35 84-27 25-56 46-64 46-15 0-76-68-140-157-21-29-41-53-45-53-13 0-119 129-176 216-30 44-90 148-133 230-93 176-112 207-204 336-38 53-73 111-78 127-12 43 4 92 63 191 95 160 98 162 145 104zm-2199-220c27-34 27-64 2-64-37 0-59 37-45 74 9 23 19 20 43-10zm585-314c-1-69-31-171-51-177-17-6-43 49-43 90 0 71 46 161 79 155 13-3 16-17 15-68zm-966 3c2-9-10-13-42-13-43 0-63 10-49 24 12 11 86 2 91-11zm1272-364c6-63 40-118 118-192 56-51 99-74 115-58 17 17-3 47-93 135-86 84-103 106-80 106 61 0 230-193 230-262 0-41-31-96-81-146-71-70-70-70-224 36-72 49-125 66-125 41 0-22 148-159 194-180 41-18 46-23 46-52 0-46-28-155-51-204-18-37-25-43-52-43-43 0-126 44-177 92-38 37-44 58-16 58 7 0 37-18 67-40 61-46 83-47 113-7 40 54 15 149-61 222-35 34-77 54-89 42-9-9 16-49 73-116 62-73 65-97 13-94-26 2-43 13-66 38-17 19-36 35-43 35-14 0-89-67-101-91-16-28-3-44 95-123 90-73 143-131 131-143-10-11-49 13-111 68-72 63-142 109-167 109-41 0-4-52 111-158 99-92 138-142 126-163-4-5-16-7-26-4-27 9-46-9-79-75-43-85-54-90-95-50-19 19-42 54-52 79-21 59-55 95-120 133-69 39-110 78-119 112-29 117 270 654 492 885 40 41 78 72 85 69 9-3 16-25 19-59zm1364 39c8-13 18-41 21-63l6-40-107-84c-190-150-284-202-284-156 0 58 285 362 342 365 4 0 14-10 22-22zm-351-392c8-20-20-71-84-151-148-185-361-552-469-811-132-313-180-422-265-598-149-310-276-669-380-1081-62-244-78-345-71-429 5-58 3-73-14-101-54-87-136-591-184-1125-26-292-28-395-12-535 19-152 20-307 5-443-11-101-55-351-63-359-4-5-278 25-284 31-2 2 13 51 32 107 42 124 61 240 75 449 11 161 12 194 36 735 30 682 51 852 164 1344 33 141 64 283 70 315 21 115 11 178-31 205-25 16-152 29-378 39l-165 7-7 380c-4 209-11 551-16 760-9 386-6 471 24 583 22 85 43 99 124 83 166-33 192-62 413-462 69-125 150-266 181-315 62-98 68-129 41-221-33-113-38-354-8-384 18-18 67 57 149 226 72 147 134 312 134 354 0 72 203 391 339 534 1e2 105 121 135 255 376 120 215 213 357 290 438 57 62 88 77 99 49zm1331-178c-8-28-35-64-138-191-44-53-82-95-84-92-10 10 111 204 170 270 35 41 63 47 52 13zm126-61c0-23-62-108-129-180-92-98-133-114-97-40 52 109 226 279 226 220zm53-158c-32-54-158-179-181-179-30 0-27 15 11 54 51 54 168 156 179 156 5 0 1-14-9-31zm-3662-99c12-7 19-21 19-40 0-37-16-47-40-25-27 24-35 55-19 66 18 11 17 11 40-1zm3879-20c-19-36-81-1e2-97-1e2-20 0-2 30 53 87 44 47 65 53 44 13zm-3208-227c60-62 111-198 88-233-9-13-15-9-40 19-53 61-138 241-124 262 8 13 33-3 76-48zm1755-560c7-19-43-63-71-63-15 0-30 8-36 21-18 33 13 61 64 57 22-2 41-8 43-15zm-1412-313c10-16-32-1e2-49-1e2-23 0-20 52 5 84 22 28 34 32 44 16zm2442-134c40-20 91-83 136-166 73-133 95-254 61-326-17-36-87-94-113-94-39 0-218 216-281 340-29 57-60 147-60 175 0 38 60 81 133 94 45 8 76 3 124-23zm-3129-817c37-13 41-22 53-131 5-48 20-117 35-155 23-60 25-79 22-163-5-103-28-169-69-191-31-16-107-5-131 18-25 25-37 80-38 163-1 81-16 149-39 175-30 33-44 84-45 154-1 89 8 117 41 129 38 14 133 14 171 1zm2850-51c15-15 16-55 0-64-13-8-58 39-58 62 0 17 41 19 58 2zm-987-237c28-29 37-51 21-51-12 0-98 56-106 69-5 7 4 11 24 11 22 0 41-9 61-29zm-141-206c91-7 228-17 305-20 175-8 2e2-15 215-60 10-30 5-105-7-105-3 0-18 11-35 25-33 28-35 28-203 29-105 1-126 4-169 25-52 26-66 20-66-26 0-13-13-37-29-55-36-41-88-44-125-9-30 29-44 21-71-39-22-48-35-43-35 14 0 54-18 106-36 106-34 0-48 101-16 119 23 14 79 13 272-4zm-1899-167c26-48-3-266-34-255-40 13-27 277 14 277 5 0 14-10 20-22zm2283-234c9-23 7-39-5-71l-12-28-8 30c-15 51 8 114 25 69zm-149-18c18-27 11-52-17-67-42-23-90 45-56 79 20 20 56 14 73-12zm331-2c11-41-7-78-38-82-38-5-54 27-34 67 25 47 62 55 72 15zm206-20c21-46-17-75-78-60-49 13-17 86 38 86 21 0 32-7 40-26zm615-41c6-17-53-79-91-97-43-20-96-21-96-2 0 26 146 121 174 112 6-1 11-7 13-13zm-547-414c22-22 30-39 28-57-4-34-24-39-32-9-8 32-29 40-78 26-22-5-43-7-46-4-9 9 64 75 82 75 8 0 29-14 46-31zm-2585-105c20-8 45-56 45-88 0-34-40-45-75-22-24 16-29 30-25 71 4 37 23 51 55 39zm3455-445c0-14-6-33-13-44-13-17-14-16-20 14-8 39 10 93 23 71 6-8 10-27 10-41z"/><path d="M4685 10328c-147-13-254-54-305-116-16-20-30-40-30-44 0-4 16-22 35-39 19-18 35-36 35-41 0-5-16-25-36-44-40-41-41-68-2-72 38-5 113 37 190 105 121 108 251 161 365 149 54-6 64-4 70 10 8 22-7 45-46 68-39 22-172 34-276 24z"/><path d="M4630 9975c-66-19-136-60-163-97-17-23-19-32-9-52 16-36 96-51 277-50 164 0 253 14 281 45 17 19 17 21-3 47-67 91-253 143-383 107z"/><path d="M4360 9452c0-23 116-106 164-118 60-15 13 71-57 105-43 21-107 28-107 13z"/><path d="M3591 8087c-33-40-58-227-30-227 27 0 71 180 53 220-9 20-11 20-23 7z"/><path d="M3620 7510c0-30 133-111 152-92 16 16-11 48-63 77-47 25-89 33-89 15z"/><path d="M3320 7151c0-13 85-89 134-120 59-37 92-40 101-10 10 32-29 66-111 96-95 35-124 43-124 34z"/><path d="M48e2 6445c-16-19-3-19 30 0 24 13 24 14 4 15-12 0-27-7-34-15z"/><path d="M3670 6849c-56-22-110-101-110-159 0-44 23-38 84 23 66 66 92 112 75 133-13 16-15 16-49 3z"/><path d="M3784 6702c-50-37-114-108-114-127 0-25 33-17 84 19 56 40 101 98 93 121-9 21-18 19-63-13z"/><path d="M3878 6546c-22-16-88-96-88-107 0-5 18-9 40-9 50 0 80 27 80 73 0 44-11 59-32 43z"/><path d="M3947 6431c-50-38-97-99-97-126 0-25 29-55 52-55 34 0 128 141 128 193 0 26-39 21-83-12z"/><path d="M4069 6262c-47-31-128-113-149-151-8-17-9-26-1-34 25-25 150 70 202 152 43 67 23 80-52 33z"/><path d="M4171 6126c-18-38-51-86-73-107-24-23-38-45-35-53 6-16 95-71 102-64 3 2-1 19-8 38-9 24-9 34-1 37 46 16 70 91 56 175l-7 42-34-68z"/><path d="M4271 5746c-49-52-66-96-42-110 12-8 57 46 87 105 40 79 27 81-45 5z"/><path d="M2330 5903c0-66 193-239 243-220 10 4 17 12 17 19 0 23-58 85-143 153-82 66-117 80-117 48z"/><path d="M1980 5170c0-46 184-182 225-166 22 8 19 19-17 67-69 89-208 156-208 99z"/><path d="M4990 12775c0-25 44-45 123-55 141-18 296-60 652-177 433-142 535-198 783-425 140-129 240-243 267-304 13-28 38-62 59-77 54-42 81-136 81-289 0-107-2-118-22-140-27-28-29-50-7-69 41-34 77-152 78-260 1-106-31-122-124-64-22 14-53 25-70 25-43 0-80-39-80-83 0-20-9-45-19-58-35-43-46-14-46 129-1 70-2 135-3 145-5 45-87-5-123-75-11-22-24-73-29-115-5-48-15-85-27-102-11-14-60-47-109-73-79-43-134-86-134-106 0-4 4-13 9-21 7-11 16-8 45 14 47 36 1e2 54 159 55 53 0 59-10 20-35-54-34-84-70-95-113-11-46-39-72-75-72-48 0-136-43-186-91-48-46-50-50-34-66 15-15 20-14 79 17 43 22 78 33 108 34 53 1 130-22 130-39 0-7-18-24-40-39-22-14-42-36-45-49-3-12 3-51 14-87 29-92 27-138-8-186-67-92-128-126-217-122-44 2-59-1-69-16-19-25-9-44 36-66 21-11 40-24 43-29 10-15-29-40-89-55-60-16-215-33-215-24 0 3 26 15 58 27 70 25 112 64 96 89-16 25-70 41-145 41-135 2-253 40-265 86-3 12-4 43-2 70 3 49 4 48-49 73-35 17-75 93-117 223l-42 132-28-144c-39-201-63-403-76-619-12-227-13-490-1-490 26 0 253 42 301 56 30 9 87 35 125 59 39 24 126 73 195 110 158 86 262 156 424 286 166 132 314 280 346 344 26 51 45 66 210 167 44 28 70 53 1e2 99 80 125 130 305 130 473 0 83-15 321-50 811l-20 280-198 195c-205 204-369 343-485 412-276 165-1327 469-1327 383zm1928-2007c15-15 16-72 2-99-22-40-60-10-60 46 0 53 30 81 58 53z"/><path d="M6616 11257c-38-27 2-95 42-71 24 16 28 55 6 71-10 7-21 13-24 13-3 0-14-6-24-13z"/><path d="M5639 11157c-29-22-47-62-68-144-11-45-32-104-46-130-18-35-25-63-25-105 0-31 5-60 10-63 6-4 31 3 56 15 61 30 94 81 104 163 9 72 24 107 45 107 26 0 48 46 40 86-12 66-74 104-116 71z"/><path d="M5868 11043c-11-3-24-29-38-75-19-64-20-72-6-86 14-14 18-14 37 4 60 53 66 170 7 157z"/><path d="M6031 10968c-11-31 6-75 35-95 28-18 141-44 161-36 14 6 18 79 5 1e2-7 12-147 53-179 53-7 0-17-10-22-22z"/><path d="M5651 10633c-15-13-22-26-18-36 6-17 65-37 108-37 38 0 89 20 89 35 0 22-49 46-103 52-42 4-57 1-76-14z"/><path d="M5906 10634c-9-8-16-21-16-28 0-15 32-46 48-46 15 0 42 29 42 45 0 7-7 21-16 29-8 9-22 16-29 16-7 0-21-7-29-16z"/><path d="M2880 9880c-25-25-28-111-6-130 37-30 91 13 102 81 10 62-52 93-96 49z"/><path d="M2622 9868c-17-17-15-54 4-72 39-39 94-27 94 20 0 48-67 83-98 52z"/><path d="M914 5680c-86-71-214-226-275-335-29-52-33-68-33-130 0-122 51-186 159-2e2 74-9 85-26 85-130 0-56-14-145-46-3e2-25-121-59-299-75-395-17-96-41-218-54-270-39-157-71-318-130-660-63-367-144-824-152-857-3-13-1-23 5-23 26 0 89 255 231 920 69 327 267 1325 296 15e2 23 135 32 240 20 252-3 2-27 0-53-5-26-6-61-7-78-3-46 12-120 96-138 157-21 68-20 95 3 146 30 65 125 103 182 73 38-21 50-63 48-179-1-60 1-113 5-120 4-6 18-11 32-11 44 0 49 32 48 296-1 237-7 314-23 314-5 0-31-18-57-40z"/><path d="M3848 5463c-29-33-33-93-7-93 11 0 49 74 49 95 0 20-23 19-42-2z"/><path d="M3769 5273c-20-21-65-81-99-133-35-52-89-127-121-167-33-39-59-74-59-77 0-27 136 33 149 66 5 13 15 38 22 57 7 19 34 67 61 108 61 93 90 151 86 169-2 11-14 4-39-23z"/><path d="M3398 4773c-9-10-30-46-47-80-17-33-54-87-84-120-64-70-82-98-95-146-12-43 0-102 23-111 21-8 55 29 55 59 0 45 35 128 1e2 234 55 93 90 160 90 176 0 12-28 4-42-12z"/><path d="M3e3 3943c0-47 4-73 9-67 17 16 17 144 1 144-6 0-10-32-10-77z"/><path d="M3344 3945c-10-25 5-63 26-70 44-14 55 28 17 63-27 26-36 27-43 7z"/><path d="M3485 3636c-48-15-91-42-99-62-10-25 5-44 35-44 43 0 209 88 209 111 0 13-99 10-145-5z"/><path d="M2907 3453c-4-3-7-28-7-55 0-39 5-54 25-73 27-28 42-30 80-13 37 17 31 45-24 99-47 48-61 56-74 42z"/><path d="M2828 3425c-4-11-22-65-41-120-45-131-53-169-36-163 22 7 56 88 74 175 16 80 18 154 3 108z"/><path d="M2516 2238c6-178 0-228-31-228-37 0-1-158 51-227 25-34 81-69 92-59 16 16-50 513-84 634-26 93-34 61-28-120z"/><path d="M2477 1652c-44-48-49-126-11-171 32-38 46-39 73-5 29 36 29 114 0 160-23 38-39 42-62 16z"/><path d="M2432 1265c-52-58-55-140-8-171 32-20 58-7 81 42 26 55 7 164-29 164-8 0-28-16-44-35z"/><path d="M2538 944c-59-25-71-63-76-236-7-223 8-299 55-284 21 7 46 54 62 121 17 70 39 341 32 403-1 16-27 15-73-4z"/></g></svg>