<svg version="1.0" xmlns="http://www.w3.org/2000/svg" width="639pt" height="1280pt" viewBox="0 0 639 1280"><g transform="translate(0.000000,1280.000000) scale(0.100000,-0.100000)" fill="#000" stroke="none"><path d="M29e2 12413c-90-8-190-27-245-45-160-53-191-135-178-463l8-180-53-65c-29-36-68-81-87-1e2-33-33-47-80-25-80 5 0 27 16 49 35 26 24 54 38 85 44 45 8 48 8 58-18 6-14 14-78 18-141 5-94 11-126 32-175 15-33 34-98 42-144 9-50 33-123 61-185 38-86 44-109 40-146-3-25-7-65-9-90-4-60-53-102-123-106-46-3-126-38-168-74-21-17-268-126-460-201-337-133-498-359-539-758-9-87-19-128-38-166-44-87-52-121-38-170 9-33 9-56 1-96-19-85-51-384-51-467 0-43 7-104 15-136 42-159 222-416 436-621 79-76 242-211 301-249 20-13 30-33 43-87 20-79 15-132-14-163-40-43-106-265-89-301 7-15-4-59-46-177-30-87-71-213-92-280-20-67-71-222-114-343-43-121-99-290-125-375-30-101-58-172-80-205-37-56-59-143-70-273-5-59-4-87 5-97 10-12 10-36 1-112-17-141-27-395-20-491 5-60 14-96 34-136l27-53-25-104c-40-166-47-254-46-593 1-312 1-321 25-387 34-95 32-135-18-243-35-76-42-102-42-156-1-70 2-76 148-325 46-77 43-59 50-368 2-92 9-170 16-187 7-16 28-38 47-50 19-11 33-23 31-28-2-4-10-20-17-37-7-16-20-42-27-57-8-14-14-31-14-38 0-23-32-80-46-80-7 0-20-13-29-30-9-18-32-37-61-49-33-15-45-25-40-36 4-11-1-15-20-15-15 0-39-14-63-37-50-49-81-69-225-144-149-78-179-105-222-197l-35-73 16-87c9-48 18-96 20-107 3-11-2-6-10 10l-15 30 2-43c7-154 314-179 723-58 50 15 115 34 145 42 92 26 124 38 139 49 11 7 13 7 7-2-4-7-2-13 3-13 6 0 11 4 11 10 0 5 7 7 15 4 8-4 15-1 15 5 0 6 3 10 8 10 14-3 72 14 72 21 0 4 16 7 35 8 19 1 44 6 55 12 11 6 24 9 29 6 5-3 14 0 20 8 6 8 24 12 42 10 16-2 28 0 25 4-2 4 25 13 62 20 36 7 71 17 78 23 8 7 15 6 19-2 4-6 10-7 14-3 13 18 98 53 119 49 13-2 21 1 19 8-1 7 7 13 18 13 11 1 26 2 33 3 7 1 10 6 6 13-4 7-3 8 4 4 6-4 21-2 32 4 11 6 20 7 20 2 0-14 39-7 60 10 10 9 22 13 26 10 4-4 4 1 1 11-5 12-1 17 14 17 13 0 18 4 13 12-4 6-3 8 2 5 6-3 16-2 23 2 11 7 11 13 1 32-7 13-9 21-5 17 4-4 16-3 27 3 16 9 17 13 6 27-12 15-11 16 5 3 9-7 17-9 17-5 0 5 9 15 20 22 16 10 20 10 20-1 0-7-14-21-30-31-17-9-28-21-25-27 3-5-1-6-9-3-18 7-20-4-6-26 7-11 10-12 10-2 0 8 6 12 13 9 6-2 11-10 9-16-1-7 2-10 8-6 15 9 13 48-2 39-7-4-1 4 14 19 16 14 28 33 28 42 0 8 5 15 10 15 6 0 10 7 10 15 0 8-7 15-16 15-9 0-12-5-8-12 4-7 3-10-1-5-5 4-16 0-25-8-16-14-18-14-22 2-3 10 2 25 10 32 12 12 13 11 7-10-6-20-1-18 31 15 21 22 35 33 31 23-4-11-2-14 8-10 8 3 12 10 8 16-4 6 0 8 9 5 8-4 20 2 27 13 6 11 15 17 20 15 8-5 111 44 139 66 6 6 12 7 12 3 0-4 7-2 15 5 8 7 22 10 30 6 9-3 14-2 10 3-3 5 8 12 25 16 16 4 30 10 30 15 0 5 10 11 23 15 23 7 42 14 92 36 17 7 32 13 35 14 28 7 50 18 50 26 0 6 5 7 11 4 5-4 19 1 29 10 10 9 23 14 29 11 5-4 13-1 16 5 4 5 14 8 22 5 8-3 11-1 8 4-3 6 2 10 12 10 10 0 26 7 36 14 10 8 27 12 37 9 11-3 20-1 20 5 0 11 37 25 59 22 7-1 10 3 6 9-3 6 1 11 11 11 49 0 174 55 176 78 0 9 4-17 7-59 5-61 12-84 32-110 15-19 29-44 33-56 4-12 25-38 47-56 33-29 39-40 39-73 0-21 9-72 20-113 11-41 20-92 20-112 0-21 6-68 14-106 7-37 14-86 15-108 0-22 3-53 6-70l5-30-11 27c-9 23-14 26-30 18-12-7-19-7-19-1 0 6-12 6-31 1-16-5-36-7-43-4-8 3-16-2-19-10-4-9-11-16-17-16-6 0-8 6-4 13 4 6-1 5-12-4-10-9-25-14-33-11-8 2-11 0-7-6 3-6 2-14-4-17-6-4-9-3-8 2 2 4 0 9-4 11-19 6-28 1-28-17 0-10-7-24-15-31-9-8-15-8-15-2 0 6 6 12 13 15 6 2 8 8 4 13-4 4-18-3-30-15-12-13-16-21-10-17 9 5 11 2 7-9-5-12-10-13-17-6-6 6-15 11-20 11-5 0-2-7 7-15 19-19 10-48-13-40-9 3-5-4 9-15 14-11 30-20 35-20 6 0 3-5-5-10-12-8-11-10 6-10 12 0 28-8 35-17 12-15 12-16-1-8-10 5-8 1 4-13 10-12 23-19 28-16 14 9 38-16 38-39 0-11 3-18 6-14 3 3 19-8 34-24 15-17 35-32 45-33 10-1 20-11 21-22 2-10 8-20 14-22 5-2 7-9 3-15-4-7 1-6 11 2 9 8 16 10 15 5-3-17 13-74 21-69 4 2 13-8 21-23 22-43 1e2-117 147-141 68-35 183-54 282-47 168 12 303 57 434 143 39 26 104 64 143 84 120 61 316 198 377 264 10 11 22 19 27 17 5-1 10 2 10 8 1 5 2 15 3 21 0 6 9 16 18 23 10 7 18 19 18 26 0 7 8 19 18 26 12 10 13 13 3 14-8 0-2 9 13 21 14 11 24 25 21 30-4 5-2 9 4 9 6 0 13 11 17 25 3 13 14 27 24 30 10 3 17 13 16 23 0 9 5 16 12 14 8-1 11 2 8 7-3 5 7 24 24 42 17 20 25 36 18 40-7 4-7 9 1 13 6 4 11 4 11-1 0-4 5 0 11 11 9 15 13 16 21 5 7-10 8-8 5 9-4 18-2 22 9 18 9-3 14 1 14 14 0 10 5 22 10 25 6 4 8 10 5 15-3 5 4 12 16 15 11 4 18 13 15 20-2 7 4 15 16 18 14 4 19 11 14 22-3 10-2 14 5 10 12-8 41 14 34 25-3 5 5 12 17 16 13 4 28 14 35 23 7 9 13 12 13 8 0-5 7-2 15 5 33 29 41 34 53 30 6-2 12 1 12 6 0 6 9 14 20 17 11 4 18 10 16 14-3 4 15 16 39 26 25 10 43 21 40 24-2 4 4 7 13 8 38 3 57 11 54 24-2 8 0 11 4 7 9-9 64 22 64 37 0 5 5 3 10-5 6-10 10 65 10 223 0 208-2 237-16 237-8 0-13-4-10-9 7-10-22-24-34-16-5 3-11 1-15-5-4-6-11-8-16-5-5 3-6 0-4-7 4-9-3-14-17-15-13-1-24-7-26-13-2-5-7-8-11-5-11 6-82-31-73-39 3-4-1-4-11 0-9 3-17 1-17-4 0-6-9-9-20-7-11 2-19-1-17-8 1-7-6-11-17-9-12 2-16-1-10-9 4-8 3-10-5-5-6 4-23-1-39-12-34-23-103-55-119-55-7 0-10-4-7-8 2-4-5-13-16-19-11-6-20-7-20-3 0 4-4 2-9-5-4-7-14-14-22-16-23-4-79-42-72-49 3-4-6-7-20-7-15 0-27-5-27-11 0-5-4-7-10-4-5 3-10 2-10-4 0-5-11-16-24-23-107-59-132-72-138-70-5 1-8-2-8-7 0-9-78-51-93-51-4 0-25-11-48-25-22-14-44-23-49-20-6 4-10 2-10-3 0-8-71-43-95-46-31-4-55-19-49-29 4-7 3-9-1-4-5 4-19 0-32-8-13-9-28-13-33-10-6 3-10 0-10-8 0-8-6-14-12-14-7 1-29-6-48-15-37-18-66-28-76-27-4 0-10-3-13-8-9-12-91-53-107-53-8 0-14-5-14-11 0-5-4-7-10-4-5 3-10 1-10-5 0-6-4-8-10-5-5 3-10 1-10-5 0-6-4-9-9-5-5 3-13 0-16-5-7-11-45-29-56-26-4 0-16-7-26-17-11-9-23-14-28-10-4 5-5-1-1-12 4-12 4-16-2-10-22 25-52 120-71 227-12 64-26 129-31 144-9 22-7 31 8 48 11 12 25 32 32 45 13 26 35 295 34 421 0 59 1 68 8 43 5-18 13-35 20-39 7-5 8-3 4 5-9 14 22 41 40 34 7-2 15 1 19 6 3 6 11 9 16 6 5-4 12 0 15 9 3 8 12 12 20 9 8-3 14 0 14 6 0 6 7 8 15 5 8-4 15-1 15 5 0 6 7 11 15 11 8 0 15 6 15 13 0 9 2 9 8 0 5-8 19-6 52 9 25 11 48 25 51 31 4 5 14 7 23 4 10-4 19-1 22 7 3 8 12 17 20 20 8 3 12 1 9-4-3-6 1-7 9-4 9 3 16 10 16 16 0 5 5 6 10 3 6-3 10 0 10 8 0 17 21 27 55 27 13 0 27 5 30 10 3 6 12 10 18 10 7 0 6-4-3-10-8-5-11-10-6-10 5 0 21 13 35 28 14 15 23 23 19 18-16-21-7-26 17-10 13 8 30 12 36 8 9-5 11-1 7 14-5 20 17 40 30 27 3-3 0-5-6-5-7 0-12-8-11-17 0-11 3-13 6-5 2 6 11 12 19 12 8 0 17 6 20 14 3 8 15 11 30 8 20-4 23-1 17 14-6 17-5 17 10 5 14-11 18-11 22 2 4 8 24 17 45 21 32 5 38 9 33 24-5 14-3 13 10-3 16-19 22-12 18 20-1 6 4 3 11-6 12-15 42-15 35-1-2 4 4 15 15 25 10 9 18 13 18 7 0-5 9-10 21-10 11 0 17 5 14 10-3 6 3 10 14 10 12 0 21 5 21 12 0 6 3 8 6 5 4-3 16-1 28 5 11 6 33 11 49 10 18-2 27 3 27 12 0 8 5 18 12 22 7 5 8 3 3-7-8-12-6-12 8 0 9 7 26 11 36 8 14-3 18-1 14 10-4 10 1 13 21 9 15-3 24-1 21 3-6 11 14 28 40 33 11 2 19 10 17 16-1 7 2 12 8 12 5 0 10-6 10-12 0-10 3-9 9 1 5 7 14 11 20 7 7-5 9-1 5 9-5 11-2 14 10 9 9-3 16-1 16 6 0 6 10 10 23 8 14-2 21 2 19 10-2 10 2 10 19 1 17-9 20-8 14 2-6 9-3 11 8 6 12-4 17-1 17 10 0 15 2 15 13-2 11-14 16-15 22-5 5 9 4 11-3 6-16-10-15 9 1 22 21 18 67 33 67 22 0-6-8-10-17-10-13 0-14-3-5-12 9-9 15-8 26 7 8 11 12 23 10 26-2 4 3 10 12 13 8 3 12 2 9-4-3-6-2-10 2-10 12 0 85 67 83 75-1 4 1 10 5 13 4 4 5 1 3-7-1-7 3-16 10-18 9-4 12 16 12 76 0 65-3 81-15 81-8 0-15-5-15-11 0-8-4-8-12-2-29 23-64 23-88 0-14-12-31-22-37-23-28-2-32-5-38-23-6-20-36-19-32 1 1 6-4 13-12 16-10 3-12 0-8-11 6-17-19-32-29-16-4 6-11 6-20-2-8-6-23-9-34-6-11 3-18 0-17-7 1-6-6-10-17-8-10 2-15-1-12-7 10-16-42-25-59-11-13 11-14 10-9-5 5-13 3-16-7-13-7 2-25-6-38-18-18-17-29-20-47-14-17 7-24 5-28-7-4-9-13-13-22-9-11 4-15 2-11-8 3-8-2-20-11-28-15-11-15-11-5 3 17 21 6 31-19 18-11-6-26-8-35-5-11 5-13 2-9-10 6-14 4-15-10-4-13 11-17 11-24 1-4-8-12-11-18-7-6 3-14 1-18-5-5-8-3-9 6-4 8 5 11 4 7-3-4-5-16-8-27-5-11 3-20 1-20-5 0-6-9-9-20-7-14 3-20-2-20-13 0-13-9-17-43-17-28-1-54-9-74-23-17-12-41-22-52-22-12 0-21-6-21-12 0-9-4-8-10 2-5 8-10 10-10 4 0-13-67-35-86-27-19 7-18-7 1-21 13-9 10-11-14-11-19-1-27 3-24 12 3 7 0 13-6 13-6 0-11-6-11-14 0-22-17-28-40-16-16 9-19 8-13-7 5-12 2-15-10-10-9 3-17 2-17-4 0-5-6-9-12-8-23 4-68-13-68-25 0-6-5-4-10 4-8 13-10 12-10-3 0-10-6-17-14-15-8 2-22-6-31-17-9-11-14-14-10-8 4 9-2 12-19 11-15-1-26-9-26-17 0-8-3-11-7-8-3 4-12 2-20-4-7-6-13-8-13-3 0 5-5 2-10-6-9-13-11-13-20 0-7 10-12 12-17 4-8-11-50-37-65-40-5-1-17-2-29-3-11 0-18-5-15-10 3-5-1-11-8-14-8-3-17-1-20 6-4 7-4-4-2-23l5-35-14 30c-9 21-10 44-4 80 13 80 10 182-8 290-9 55-17 128-18 162-7 209-61 370-150 452l-42 39-7 123c-12 209-24 381-32 440-5 46-2 65 16 105 25 58 27 115 6 206-8 37-20 160-26 275-13 271-14 253 10 253 19 0 20 7 20 148 0 170-8 205-55 262-39 46-40 49-54 167-6 44-42 2e2-82 345-60 224-130 492-153 589-5 24-1 29 48 53 29 14 60 26 68 26 30 0 74 21 87 42 27 43 33 387 7 413-7 8-17 11-20 7-4-3-4 1-1 10 8 21-45 122-93 179-36 42-84 69-123 69-12 0-37 13-56 30-18 16-38 30-43 30-18 0-11 38 16 93 31 62 16 54 309 184 105 47 215 99 245 116 235 132 611 441 660 543 20 41 22 56 17 133-10 139-90 419-168 588-33 72-36 86-27 111 10 26 7 39-31 113-24 46-49 88-57 92-32 18-109 135-141 214-49 123-98 218-149 289-60 86-226 239-328 304-47 30-168 107-268 171-101 64-194 128-208 141-14 14-42 35-64 48-33 20-43 22-68 12-28-10-32-8-92 51-110 108-133 179-143 438-7 178-3 204 30 213 24 6 75 73 117 157 30 58 39 169 17 221-11 26-23 38-44 42l-28 7 8 103c7 85 6 116-8 168-9 34-29 124-45 198-15 74-35 151-44 171-24 56-64 97-104 109-33 9-405 12-492 3zm-930-3601c6-37 19-144 29-238l17-172-92 96-93 95 24 31c22 30 66 155 80 229 10 52 21 38 35-41zm2399-48c13-7 37-34 54-60 45-73 126-176 161-206 17-14 29-28 26-31-3-3-57-37-120-77-151-95-173-111-318-241-68-61-125-109-127-107-2 2 3 35 11 73 8 39 28 134 45 212 22 106 47 187 99 316 38 96 74 187 80 203l11 29 27-50c15-27 38-55 51-61zm-70-1679c0-5-8 6-19 25-11 19-19 40-19 45 0 6 8-6 19-25 11-19 19-39 19-45zm25-97c3-13 5-48 5-78l-1-55-18 70c-23 86-23 85-6 85 7 0 16-10 20-22zM3005 5911c25-77 63-260 105-502 47-271 62-333 140-579 32-102 72-241 89-310 101-412 166-643 211-750 92-218 89-205 93-512 4-3e2 15-388 69-558 36-114 65-172 123-251 44-60 47-71 60-196 4-44 3-45-6-16-5 18-12 33-15 33-4 0-25-10-48-21-22-12-49-26-59-31-10-5-22-6-27-3-6 4-10-1-10-9 0-9-4-17-10-17-5-1-14-3-20-4-5-1-15-3-21-4-5 0-8-5-5-9 2-4-3-8-12-9-28-2-54-10-115-37-32-14-64-26-72-26-8 0-15-4-15-10 0-5-3-9-7-8-11 2-41-10-78-30-16-9-31-15-32-14-8 6-33 0-45-11-7-6-24-14-38-16-14-1-28-8-32-15-4-6-8-8-8-3 0 4-13 1-30-8-16-9-30-12-30-8 0 4-5 2-12-5-7-7-22-12-35-12-13 0-23-4-23-10 0-5-12-10-26-10-15 0-33-8-41-17-8-11-11-12-7-3 6 12 5 13-7 3-8-6-28-14-44-17-17-3-31-10-33-16-2-5-7-8-12-5-5 3-31-4-59-15-28-11-61-22-73-24-13-3-47-14-75-25-29-10-53-17-53-14 0 3-7 0-15-7-8-7-15-9-15-5 0 4-6 2-14-4-8-6-18-11-22-10-5 1-16 0-24-4-14-5-60-17-88-23-8-1-21-6-30-10-9-4-26-8-37-9-39-4-86-18-91-26-3-5-9-7-14-4-5 3-24-3-43-14l-35-19-7 116c-11 189-13 265-8 292 3 15 24 40 53 62 66 50 77 86 56 178-13 55-14 80-6 117 23 105 74 273 112 371 52 136 77 255 84 399 6 120 0 187-45 493-11 74-25 198-31 276-9 120-8 152 5 220 24 115 141 466 186 556 54 108 91 203 132 343 47 156 64 258 77 435 5 80 14 170 20 2e2 12 65 58 227 72 253 9 18 11 18 34-3 13-13 30-44 39-69zm3295-2741c0-5-5-10-11-10-5 0-8-4-5-8 2-4-5-9-16-9-19-2-19-1-3 18 20 21 35 25 35 9zm30-10c0-5-2-10-4-10-3 0-8 5-11 10-3 6-1 10 4 10 6 0 11-4 11-10zm40-14c0-2-7-7-16-10-8-3-12-2-9 4 6 10 25 14 25 6zm-270-56c0-5-5-10-11-10-5 0-7 5-4 10 3 6 8 10 11 10 2 0 4-4 4-10zM2720 1365c0-1-6-8-14-15-12-9-15-8-13 8 0 12 6 18 14 15 7-3 13-6 13-8zm1130-355c0-5-2-10-4-10-3 0-8 5-11 10-3 6-1 10 4 10 6 0 11-4 11-10zm154-146c3-8 2-12-4-9-6 3-10 10-10 16 0 14 7 11 14-7zm31-24c3-5 1-10-4-10-6 0-11 5-11 10 0 6 2 10 4 10 3 0 8-4 11-10z"/><path d="M5596 2672c-3-5 1-9 9-9 8 0 12 4 9 9-3 4-7 8-9 8-2 0-6-4-9-8z"/><path d="M5110 2470c0-5 5-10 11-10 5 0 7 5 4 10-3 6-8 10-11 10-2 0-4-4-4-10z"/><path d="M2909 1473c0-5-2-16-4-26-2-11-1-16 3-13 8 8 14 46 7 46-3 0-5-3-6-7z"/><path d="M2936 1448c3-5 10-6 15-3 13 9 11 12-6 12-8 0-12-4-9-9z"/><path d="M3916 892c-2-4 4-8 14-8 10 0 16 4 14 8-3 4-9 8-14 8-5 0-11-4-14-8z"/></g></svg>