<?xml version="1.0" standalone="no"?>
<!DOCTYPE svg PUBLIC "-//W3C//DTD SVG 20010904//EN"
 "http://www.w3.org/TR/2001/REC-SVG-20010904/DTD/svg10.dtd">
<svg version="1.0" xmlns="http://www.w3.org/2000/svg"
 width="747.000000pt" height="1280.000000pt" viewBox="0 0 747.000000 1280.000000"
 preserveAspectRatio="xMidYMid meet">
<metadata>
Created by potrace 1.15, written by Peter Selinger 2001-2017
</metadata>
<g transform="translate(0.000000,1280.000000) scale(0.100000,-0.100000)"
fill="#000000" stroke="none">
<path d="M4940 12712 c-80 -82 -90 -126 -90 -408 0 -183 -3 -221 -17 -252 -22
-45 -135 -162 -158 -162 -9 0 -49 34 -88 76 l-72 76 -91 -16 c-137 -23 -237
-59 -359 -127 -209 -118 -197 -113 -263 -99 -64 13 -171 66 -183 90 -49 104
-50 110 -45 250 8 227 7 260 -19 334 -28 80 -84 166 -132 203 -43 33 -117 43
-127 18 -4 -10 2 -33 12 -54 10 -20 17 -41 15 -48 -3 -7 8 -29 23 -49 24 -31
28 -47 32 -119 4 -73 1 -93 -21 -148 -62 -153 -97 -361 -79 -458 20 -107 54
-164 168 -275 57 -56 104 -104 104 -106 0 -3 -23 -50 -52 -104 -50 -95 -52
-103 -59 -201 -5 -88 -11 -111 -41 -175 -19 -40 -65 -113 -102 -162 -36 -49
-66 -89 -67 -90 0 0 -4 -80 -8 -176 l-8 -175 -54 -125 c-48 -113 -54 -133 -57
-212 -2 -49 -7 -88 -12 -88 -4 0 -13 14 -20 31 -8 17 -27 40 -44 50 -63 38
-122 15 -132 -52 -8 -47 -13 -51 -83 -60 -69 -10 -106 -45 -237 -227 -99 -137
-134 -207 -134 -266 0 -30 -6 -37 -44 -60 -75 -44 -146 -173 -271 -496 -99
-255 -214 -638 -246 -820 -31 -175 -18 -316 50 -545 27 -91 26 -173 -4 -303
-13 -59 -34 -170 -45 -247 -13 -84 -35 -180 -55 -240 -19 -55 -44 -145 -55
-199 -25 -120 -83 -270 -153 -391 -29 -50 -76 -140 -105 -201 -48 -100 -53
-118 -59 -199 -7 -102 -25 -148 -94 -236 -121 -153 -507 -586 -569 -637 -22
-18 -66 -66 -97 -105 -82 -102 -177 -195 -208 -203 -39 -10 -70 9 -97 58 l-23
43 -140 7 c-77 3 -159 9 -182 12 l-43 6 0 -59 c0 -42 8 -81 29 -133 16 -40 33
-85 36 -100 13 -50 49 -78 100 -78 90 0 104 -30 59 -124 l-27 -54 34 -31 c19
-17 53 -43 77 -58 41 -24 49 -25 126 -19 106 8 160 -8 254 -74 118 -83 235
-246 289 -403 34 -97 29 -156 -20 -236 -52 -83 -50 -91 19 -91 162 0 448 193
598 403 130 182 202 447 174 639 -15 96 -22 99 -103 33 -85 -70 -123 -90 -203
-105 -79 -16 -273 -7 -356 15 -145 40 -268 128 -282 201 -9 50 17 101 94 187
36 40 88 108 117 152 85 131 422 551 540 673 50 51 53 52 108 52 48 0 60 4 82
27 31 34 31 34 -1 72 -33 39 -25 64 27 85 51 20 104 20 138 0 26 -15 30 -15
66 2 21 10 63 41 93 69 l55 51 7 310 c5 254 9 316 23 347 19 44 109 177 137
202 20 18 20 17 20 -86 0 -89 -32 -424 -45 -469 -2 -8 -7 -40 -10 -70 -3 -30
-8 -62 -10 -70 -12 -46 -46 -362 -56 -525 -13 -206 -7 -558 11 -689 8 -53 23
-102 44 -145 41 -81 60 -140 85 -256 25 -117 60 -175 107 -175 17 0 58 14 89
30 31 17 64 30 72 30 19 0 49 -70 63 -150 28 -151 10 -614 -36 -922 -18 -126
-18 -221 2 -297 8 -34 12 -66 9 -72 -9 -14 31 -57 75 -79 63 -32 124 -41 380
-61 80 -5 156 -16 170 -22 13 -7 34 -26 46 -44 29 -43 82 -207 89 -273 3 -34
15 -69 30 -92 25 -38 45 -113 45 -170 0 -16 12 -55 28 -86 26 -56 27 -61 27
-242 0 -181 -1 -186 -28 -250 -16 -36 -39 -87 -50 -115 -79 -180 -287 -375
-403 -375 -17 0 -64 7 -105 17 -67 15 -79 15 -158 0 -47 -9 -120 -22 -161 -28
-100 -15 -138 -31 -146 -63 -3 -14 -3 -34 0 -43 6 -15 12 -12 39 20 29 34 39
38 105 47 39 5 91 14 115 19 23 6 76 13 118 17 60 5 82 3 107 -10 37 -19 40
-37 14 -74 -39 -56 -145 -372 -144 -425 3 -75 100 -137 215 -137 150 0 393 88
667 243 209 118 288 157 315 157 37 0 78 -24 111 -64 26 -31 37 -37 99 -46 74
-12 125 -7 165 15 23 12 23 14 7 21 -10 4 -51 5 -90 2 -79 -6 -131 1 -130 17
1 6 17 19 35 30 94 55 94 55 90 89 -3 27 2 38 27 59 39 32 98 42 209 33 96 -7
136 -22 140 -52 5 -38 -21 -47 -159 -52 -97 -4 -134 -8 -145 -20 -23 -22 -13
-45 30 -66 l38 -19 58 28 c53 25 62 27 89 15 29 -11 35 -10 71 15 22 16 54 47
71 69 26 36 29 46 24 86 -5 37 -2 51 14 72 26 33 104 52 179 42 44 -5 55 -11
62 -30 11 -29 21 -30 44 -5 14 16 15 23 6 41 -6 12 -9 25 -5 28 10 10 99 11
118 0 22 -12 18 -52 -19 -168 -33 -105 -32 -132 12 -180 20 -22 59 -55 87 -73
l50 -32 -42 -3 c-56 -4 -55 -28 2 -37 23 -4 50 -11 60 -17 19 -10 23 -43 7
-53 -18 -11 -1 -23 52 -35 65 -16 104 -34 111 -55 4 -8 13 -15 21 -15 8 0 29
-12 46 -26 25 -21 31 -33 28 -58 l-3 -31 195 -61 c107 -34 244 -75 305 -90
l110 -28 84 18 c111 23 162 50 209 110 56 72 48 156 -27 301 -63 121 -139 196
-279 271 -65 34 -82 64 -82 143 0 57 1 61 41 95 23 19 50 48 59 64 10 16 33
34 51 41 19 7 47 20 62 28 16 8 39 16 53 18 13 1 32 9 42 18 9 8 37 20 62 27
25 6 83 26 130 45 47 19 129 46 184 60 54 14 128 37 165 51 36 14 91 33 121
42 30 9 58 21 62 27 4 5 8 31 8 57 0 58 14 68 49 34 32 -31 41 -26 41 24 0 45
15 53 141 78 l89 17 0 338 c0 262 -3 337 -12 339 -7 0 -17 2 -23 3 -5 1 -81 5
-167 9 -141 8 -261 22 -201 25 12 1 34 6 50 12 l28 11 -25 10 c-39 15 -357 15
-408 0 -42 -13 -49 -32 -11 -32 10 0 19 -4 19 -10 0 -5 -8 -10 -18 -10 -10 0
-26 -6 -36 -13 -16 -12 -17 -16 -5 -37 8 -12 25 -34 37 -47 19 -19 21 -27 12
-38 -7 -8 -21 -15 -31 -15 -10 0 -21 -4 -24 -10 -7 -11 18 -13 125 -10 36 1
63 -1 60 -3 -3 -3 -42 -12 -88 -21 -46 -8 -98 -23 -115 -32 -26 -14 -59 -18
-172 -18 -128 -1 -144 -3 -187 -25 -26 -14 -66 -46 -88 -72 -22 -26 -68 -63
-104 -83 l-64 -36 5 -45 c7 -55 -3 -68 -76 -104 -69 -34 -138 -54 -177 -49
-41 4 -41 24 0 266 39 231 43 262 56 484 11 201 25 228 123 252 40 9 102 50
135 88 15 18 44 51 66 75 l39 43 -11 318 c-7 177 -18 359 -27 412 -17 106 -35
425 -35 627 l0 132 84 168 c127 253 178 383 257 658 85 297 135 429 187 490
37 45 132 113 217 157 111 56 217 91 358 117 121 23 127 25 127 50 0 28 -29
48 -132 90 -234 95 -398 232 -493 412 -48 92 -62 155 -85 379 -36 363 -41 405
-60 525 -71 445 -281 867 -453 910 -43 11 -59 36 -46 74 9 24 9 42 0 69 -6 21
-16 57 -22 82 -6 25 -27 81 -46 125 -54 120 -55 191 -9 369 20 77 36 163 36
192 0 73 -33 171 -79 234 -80 110 -131 198 -156 265 -32 90 -85 166 -146 210
-38 29 -64 38 -131 49 -97 16 -290 62 -332 78 -16 6 -61 12 -102 12 -103 1
-124 18 -145 122 -10 43 -43 144 -75 224 -58 143 -59 146 -58 240 1 53 8 117
16 145 8 28 27 90 41 138 32 106 57 255 57 336 0 44 -10 89 -39 170 l-38 110
79 93 c137 159 209 301 209 412 0 113 -79 415 -117 447 -20 17 -17 60 11 177
14 57 23 108 19 113 -3 5 -17 9 -32 9 -19 0 -42 -16 -82 -58z m-746 -10192 c5
-5 3 -176 -4 -397 -19 -576 -10 -723 40 -723 58 0 123 189 200 585 63 322 91
443 106 463 11 15 19 11 74 -43 l60 -60 165 -6 c187 -8 205 -14 235 -82 48
-109 137 -699 128 -843 l-3 -49 -45 3 c-29 2 -74 -6 -125 -22 -44 -14 -93 -26
-108 -26 -46 0 -160 -32 -190 -53 -18 -12 -56 -22 -99 -27 -38 -4 -74 -12 -79
-17 -13 -13 8 -30 41 -35 l25 -4 -30 -13 c-51 -21 -290 -71 -341 -71 -39 0
-52 4 -63 21 -29 47 -43 110 -51 229 -6 102 -12 135 -34 180 -40 86 -57 189
-63 370 -10 303 28 596 81 632 12 9 66 0 80 -12z"/>
<path d="M7283 2412 c-85 -9 16 -32 138 -32 37 0 49 4 49 15 0 10 -11 15 -37
16 -21 1 -56 2 -78 3 -22 1 -55 0 -72 -2z"/>
<path d="M7245 2341 c-8 -14 22 -19 133 -24 82 -4 93 -3 90 12 -3 13 -21 16
-110 19 -64 2 -109 -1 -113 -7z"/>
<path d="M2750 732 c-89 -3 -117 -11 -80 -22 56 -17 246 -4 198 14 -30 10 -40
11 -118 8z"/>
<path d="M2765 655 c-19 -15 -18 -15 15 -13 19 2 34 8 33 13 -3 17 -27 17 -48
0z"/>
<path d="M2642 603 c-23 -9 -1 -23 38 -23 50 0 77 10 58 21 -14 9 -75 11 -96
2z"/>
<path d="M2695 541 c-7 -12 12 -24 25 -16 11 7 4 25 -10 25 -5 0 -11 -4 -15
-9z"/>
<path d="M4815 470 c-13 -15 -15 -24 -8 -31 14 -14 68 10 68 31 0 23 -39 23
-60 0z"/>
<path d="M2268 423 c-10 -2 -18 -8 -18 -13 0 -15 36 -21 64 -10 49 18 10 38
-46 23z"/>
<path d="M4690 412 c0 -34 72 -59 135 -48 54 10 44 33 -17 39 -29 4 -68 9 -85
13 -20 4 -33 2 -33 -4z"/>
<path d="M2430 361 c0 -17 5 -20 30 -14 33 6 38 -5 20 -51 -9 -23 -7 -26 14
-26 31 0 53 25 33 37 -8 4 -20 22 -28 38 -18 38 -69 49 -69 16z"/>
<path d="M2142 349 c2 -6 8 -10 13 -10 5 0 11 4 13 10 2 6 -4 11 -13 11 -9 0
-15 -5 -13 -11z"/>
<path d="M1978 265 c-64 -17 -178 -72 -206 -97 -43 -42 -48 -129 -7 -144 22
-9 25 -4 34 54 4 28 14 59 21 67 8 9 58 39 112 66 54 27 98 54 98 59 0 6 -1
10 -2 9 -2 0 -24 -7 -50 -14z"/>
<path d="M2170 251 c0 -11 25 -21 55 -21 29 0 41 16 19 24 -24 9 -74 7 -74 -3z"/>
<path d="M4550 173 c0 -13 32 -22 129 -34 42 -5 96 -12 120 -15 35 -6 43 -4
39 7 -2 8 -22 20 -44 27 -50 18 -244 29 -244 15z"/>
<path d="M3052 146 c-23 -8 -73 -32 -110 -55 -55 -33 -131 -59 -181 -61 -3 0
3 -7 13 -15 14 -11 45 -15 105 -15 76 0 83 2 61 13 -39 20 -30 40 30 70 97 48
241 58 351 26 49 -15 99 -59 99 -88 0 -19 6 -21 66 -21 l65 0 -63 51 c-103 84
-153 103 -283 106 -73 2 -124 -2 -153 -11z"/>
<path d="M4414 116 c-19 -19 -34 -41 -34 -50 0 -21 35 -41 95 -55 62 -14 345
-8 397 8 64 20 84 54 51 87 -16 16 -18 15 -26 -7 -19 -49 -25 -54 -78 -62 -30
-5 -117 -7 -195 -5 -115 3 -145 6 -168 21 -25 17 -26 20 -13 35 8 9 20 27 26
40 19 35 -15 28 -55 -12z"/>
<path d="M2518 113 c-30 -8 -20 -22 20 -28 20 -3 50 -13 66 -21 26 -13 31 -13
44 0 14 14 14 18 -3 36 -14 15 -30 20 -64 19 -25 -1 -54 -3 -63 -6z"/>
<path d="M1987 34 c-17 -18 -6 -35 21 -32 16 2 27 9 27 18 0 16 -36 26 -48 14z"/>
<path d="M2312 31 c-10 -6 -10 -10 2 -20 16 -13 56 1 56 19 0 12 -40 13 -58 1z"/>
<path d="M2645 10 c-15 -6 -8 -9 28 -9 26 -1 47 4 47 9 0 12 -47 12 -75 0z"/>
</g>
</svg>
