<?xml version="1.0" standalone="no"?>
<!DOCTYPE svg PUBLIC "-//W3C//DTD SVG 20010904//EN"
 "http://www.w3.org/TR/2001/REC-SVG-20010904/DTD/svg10.dtd">
<svg version="1.0" xmlns="http://www.w3.org/2000/svg"
 width="838.000000pt" height="1280.000000pt" viewBox="0 0 838.000000 1280.000000"
 preserveAspectRatio="xMidYMid meet">
<metadata>
Created by potrace 1.15, written by Peter Selinger 2001-2017
</metadata>
<g transform="translate(0.000000,1280.000000) scale(0.100000,-0.100000)"
fill="#000000" stroke="none">
<path d="M2975 12789 c-224 -23 -493 -83 -650 -146 -427 -170 -625 -458 -625
-909 l0 -120 -72 -23 c-417 -133 -511 -428 -256 -798 107 -156 321 -353 479
-442 l56 -31 12 -152 c50 -639 149 -1176 260 -1412 39 -85 63 -113 193 -228
81 -72 111 -122 123 -201 4 -25 -1 -142 -10 -260 -12 -153 -14 -230 -8 -275
l10 -62 -27 0 c-14 0 -47 -13 -73 -29 -69 -44 -90 -44 -112 -1 -11 20 -23 30
-39 30 -13 0 -86 -31 -162 -69 -77 -38 -236 -113 -354 -166 -293 -133 -471
-224 -596 -306 -135 -89 -199 -121 -351 -174 -221 -78 -319 -146 -372 -258
-45 -96 -117 -333 -145 -474 -34 -176 -49 -309 -96 -823 -22 -245 -54 -537
-71 -650 -16 -113 -37 -254 -46 -315 -18 -127 -23 -496 -9 -700 7 -115 6 -143
-14 -250 -27 -143 -24 -244 14 -626 14 -134 28 -295 32 -357 6 -105 9 -116 36
-150 74 -93 88 -150 88 -379 0 -306 20 -388 170 -704 130 -272 144 -319 144
-454 0 -140 -20 -203 -145 -455 -91 -186 -149 -337 -149 -391 l0 -29 1121 0
1121 0 34 29 c18 16 75 51 126 77 51 27 114 68 140 92 l47 44 50 -12 c56 -13
107 -47 194 -127 74 -68 121 -92 198 -100 l62 -6 -5 224 c-6 222 -19 329 -41
329 -184 3 -894 32 -952 39 -44 6 -106 13 -138 17 l-59 7 4 84 c3 76 6 87 28
105 23 19 34 20 145 14 66 -4 235 -18 375 -32 140 -14 321 -28 402 -31 l148
-6 58 36 59 36 364 32 c273 24 451 34 714 39 283 6 361 10 409 24 79 22 146
59 192 107 l38 39 -24 25 c-22 24 -27 25 -100 19 -110 -9 -116 -4 -123 100 -3
46 -22 155 -41 243 -47 208 -56 270 -56 375 l0 87 53 15 c28 9 125 25 214 36
197 25 275 47 331 96 23 19 42 40 42 45 0 31 -141 17 -411 -40 -226 -49 -367
-66 -480 -58 -73 6 -88 4 -93 -9 -3 -8 -1 -25 5 -36 10 -19 17 -20 87 -15 77
6 112 -3 112 -27 0 -8 -13 -19 -29 -26 -16 -6 -37 -21 -47 -31 -17 -19 -16
-21 14 -52 67 -69 95 -166 138 -467 22 -160 40 -254 60 -304 7 -17 3 -18 -52
-12 -32 4 -115 2 -184 -4 -251 -20 -363 -23 -437 -11 l-73 13 31 38 c40 49 48
105 24 166 -22 58 -23 116 -1 148 16 25 16 26 -24 46 -46 24 -50 42 -20 100
11 22 20 43 20 47 0 5 -25 23 -55 41 -61 37 -75 56 -75 102 0 45 39 57 239 75
99 9 187 22 211 31 39 16 90 65 90 86 0 15 -180 4 -495 -29 -193 -21 -304 -27
-485 -27 -228 -1 -370 13 -370 35 0 5 19 18 43 31 55 28 157 28 323 -1 67 -12
147 -21 178 -21 90 0 160 38 186 101 23 54 -27 102 -124 120 -72 13 -179 -2
-252 -35 l-51 -24 14 30 c12 24 13 34 3 59 -23 56 -70 62 -215 28 -94 -21
-145 -16 -145 15 0 25 26 36 115 51 100 16 117 26 113 69 -3 28 -6 31 -33 29
-16 -1 -42 -4 -56 -8 -37 -10 -43 14 -22 83 25 79 24 358 -1 592 -24 225 -18
429 17 615 39 202 41 237 18 343 -21 101 -17 145 19 177 27 25 76 15 180 -36
116 -58 258 -198 313 -309 54 -112 73 -206 59 -300 -13 -90 -36 -150 -58 -150
-35 0 -85 35 -125 87 -36 49 -86 83 -119 83 -36 0 13 -141 116 -332 122 -226
146 -307 124 -413 -7 -32 -20 -77 -30 -100 -17 -39 -17 -42 0 -66 27 -38 40
-87 47 -171 l6 -76 -121 -4 c-133 -3 -148 -10 -154 -63 l-3 -30 100 -7 c55 -4
278 -4 495 -1 263 4 455 2 576 -7 264 -17 391 6 445 81 l20 29 -28 11 c-36 14
-177 16 -329 5 -88 -6 -134 -5 -171 3 l-51 13 16 36 c14 31 17 69 16 222 -2
174 -3 185 -20 182 -29 -5 -62 -29 -81 -59 -15 -23 -18 -51 -18 -168 0 -115
-4 -146 -19 -174 -14 -26 -22 -32 -39 -27 -12 3 -56 15 -97 26 -91 26 -201 23
-300 -9 -35 -11 -66 -19 -68 -17 -2 2 1 30 7 62 18 105 31 283 41 584 23 660
39 908 72 1086 l11 62 56 -26 c86 -40 173 -40 358 -3 84 17 155 31 158 31 3 0
5 -29 5 -65 0 -59 2 -67 22 -74 32 -12 48 4 48 49 0 49 15 61 65 50 31 -7 54
-24 100 -73 85 -92 131 -111 153 -63 8 17 30 31 72 47 63 23 94 53 88 86 -5
25 -116 79 -203 99 -38 8 -151 28 -251 44 -179 29 -281 57 -304 85 -20 24 -44
18 -63 -15 -14 -22 -25 -30 -47 -30 -36 0 -55 26 -70 97 -18 85 -67 128 -100
88 -7 -8 -13 -52 -14 -105 -3 -121 -8 -126 -101 -97 -66 20 -93 21 -456 23
-243 2 -401 6 -427 13 -40 11 -40 12 -31 44 22 75 40 225 49 417 11 225 29
474 37 533 l5 37 -44 0 c-92 0 -119 -47 -126 -220 l-5 -125 -61 -65 c-33 -36
-127 -151 -207 -255 -81 -105 -174 -219 -208 -255 l-60 -65 6 35 c3 19 21 78
40 130 84 231 103 289 112 348 6 35 8 68 5 75 -9 25 -50 40 -148 53 -126 18
-150 33 -154 97 l-3 46 57 -26 c52 -24 64 -25 152 -20 87 5 97 8 126 35 72 68
172 129 380 232 122 60 247 126 280 146 55 35 58 38 40 51 -30 23 -101 9 -217
-41 -58 -25 -119 -46 -136 -46 -28 0 -31 3 -31 33 0 36 16 54 87 100 42 27 58
57 51 94 -6 34 -88 14 -256 -62 -86 -40 -115 -48 -183 -52 l-81 -6 4 -42 c3
-22 17 -59 32 -82 15 -22 29 -56 32 -75 7 -42 -5 -48 -111 -48 -51 0 -78 5
-101 19 -33 20 -84 80 -84 98 0 6 42 149 94 319 109 357 179 601 231 799 20
77 38 145 40 152 3 9 22 3 61 -17 48 -26 67 -30 135 -30 70 0 83 3 122 29 23
17 109 61 189 99 104 50 161 84 196 116 49 46 92 120 78 134 -4 4 -83 7 -174
8 -102 1 -178 5 -195 13 -29 11 -29 11 -21 -21 29 -129 -22 -242 -123 -273
-19 -5 -23 -2 -23 15 0 13 -20 41 -50 70 -41 39 -50 54 -50 82 0 27 10 44 50
85 49 50 59 74 41 102 -12 18 -35 8 -99 -44 -24 -19 -48 -33 -53 -29 -13 8
-11 40 6 79 22 55 52 61 164 35 71 -17 111 -21 165 -17 93 7 253 41 391 82
159 48 283 81 512 136 111 26 242 61 292 78 249 84 379 202 398 362 l6 54 -84
-79 c-223 -208 -556 -365 -771 -366 -56 0 -49 25 16 56 45 22 62 44 53 68 -5
12 -20 16 -60 16 -68 0 -90 19 -52 44 29 19 33 56 10 96 -20 35 -18 73 5 98
26 28 25 32 -9 32 -60 0 -80 24 -41 48 29 18 25 47 -15 99 -37 48 -49 79 -43
108 3 17 85 54 165 75 41 10 42 11 32 39 -6 16 -19 37 -30 47 -26 24 -24 32
14 47 45 20 57 12 57 -38 0 -48 16 -67 48 -58 26 6 28 38 7 98 -18 49 -18 45
0 45 31 0 125 39 172 71 26 18 85 66 130 106 95 85 149 123 173 123 21 0 31
-35 90 -305 23 -104 53 -230 68 -279 22 -76 31 -92 56 -105 70 -38 190 -123
304 -216 335 -271 433 -327 674 -380 211 -47 255 -65 347 -141 134 -112 183
-133 261 -111 22 6 30 0 70 -54 46 -61 104 -120 308 -308 217 -199 278 -297
441 -706 144 -360 245 -525 374 -610 32 -21 99 -165 131 -285 33 -125 52 -260
71 -515 35 -483 74 -716 256 -1535 125 -560 157 -711 193 -925 69 -405 81
-545 81 -940 0 -285 -3 -356 -18 -440 -28 -151 -87 -317 -184 -513 -92 -187
-111 -255 -81 -296 13 -17 19 -13 95 58 283 266 358 521 357 1211 0 290 -6
386 -45 660 -36 254 -74 421 -247 1110 -124 492 -156 665 -207 1139 -14 127
-35 317 -46 421 -37 339 -89 606 -161 824 -32 98 -40 108 -124 169 -28 20
-105 86 -171 145 l-120 108 -12 82 c-50 358 -207 667 -464 914 -207 198 -356
291 -937 582 -250 125 -500 254 -555 286 -195 113 -358 231 -478 347 l-76 73
-31 185 c-52 307 -87 416 -165 507 -32 37 -103 91 -108 82 -1 -2 -16 -33 -34
-69 -60 -127 -194 -268 -333 -350 -36 -22 -118 -59 -182 -84 -158 -61 -231
-99 -284 -148 -74 -69 -54 -86 50 -43 45 18 64 22 78 14 30 -16 16 -33 -33
-42 -38 -7 -360 -70 -429 -85 -24 -5 -24 -4 -7 15 27 31 21 49 -28 84 -58 42
-68 75 -31 103 86 66 89 70 81 104 -4 21 -13 32 -24 32 -36 0 -111 -28 -169
-64 -33 -20 -69 -36 -80 -36 -32 0 -164 94 -225 160 -52 56 -117 169 -117 202
0 39 87 47 217 21 83 -17 85 -17 99 1 22 31 17 44 -26 71 -48 31 -69 67 -51
89 7 8 34 18 59 22 58 8 72 19 72 54 0 53 -46 75 -203 95 -121 16 -142 24
-106 37 52 20 129 29 244 28 143 0 252 -23 324 -68 49 -30 49 -30 55 -9 21 80
-8 159 -70 191 -37 20 -56 21 -324 21 -226 0 -293 3 -323 15 -42 16 -43 25 -4
54 l27 20 66 -28 c45 -18 76 -25 95 -21 44 10 52 26 38 80 -17 68 -6 165 22
187 37 31 64 31 127 3 50 -23 64 -25 82 -15 21 11 22 17 18 89 -2 42 -10 86
-17 99 l-12 23 -30 -25 c-32 -27 -35 -29 -132 -50 -86 -20 -119 -37 -153 -80
l-28 -34 -18 23 c-10 13 -38 36 -63 52 -25 15 -48 36 -51 45 -2 9 2 68 10 130
9 62 22 164 31 227 19 148 20 329 0 404 -40 154 -126 249 -282 308 -35 13 -63
26 -63 29 1 3 26 20 56 39 192 116 432 342 497 468 16 30 19 31 104 39 173 14
472 -23 649 -82 215 -71 454 -228 586 -386 l41 -49 -40 -42 c-51 -53 -63 -76
-63 -122 0 -30 3 -36 16 -31 75 29 84 15 61 -98 -18 -85 -22 -154 -9 -172 4
-6 50 -23 102 -38 106 -30 160 -60 186 -106 10 -16 21 -30 24 -30 3 0 23 9 45
20 178 91 304 -164 190 -382 l-26 -50 23 7 c85 25 184 122 219 213 30 77 37
207 15 290 -22 89 -61 162 -119 227 l-50 56 7 107 c9 148 30 315 66 527 51
305 65 469 51 599 -14 127 -39 193 -114 291 -96 128 -336 338 -534 468 -173
114 -209 125 -282 88 -43 -23 -53 -19 -122 46 -41 39 -89 52 -279 79 -130 18
-493 26 -615 13z"/>
<path d="M3125 10765 c-93 -17 -196 -47 -277 -80 l-58 -24 0 25 c0 14 -11 36
-25 49 -24 25 -52 35 -40 15 4 -6 -2 -28 -13 -49 -11 -21 -21 -47 -22 -57 -6
-50 -4 -51 88 -58 127 -9 214 -26 208 -40 -3 -6 -12 -35 -22 -65 -50 -162 57
-308 258 -356 88 -21 177 -20 185 1 8 22 -8 46 -43 63 -45 21 -64 42 -64 69 0
22 3 24 33 19 49 -7 74 8 108 63 17 27 32 50 34 50 15 0 35 -38 35 -66 0 -34
0 -34 45 -34 116 0 167 93 77 139 -20 10 -73 28 -117 40 -87 24 -119 41 -135
71 -9 17 -5 22 29 39 64 33 107 35 206 7 49 -14 91 -23 94 -21 12 13 -25 91
-58 124 -65 65 -131 84 -301 87 -97 2 -172 -2 -225 -11z"/>
<path d="M4481 9963 c-7 -65 -21 -155 -32 -201 -10 -46 -19 -86 -19 -89 0 -3
42 -3 93 -1 69 2 100 8 121 22 l28 18 -4 107 c-6 141 -34 207 -100 240 -74 35
-73 36 -87 -96z"/>
<path d="M4639 9552 c-30 -16 -79 -43 -109 -60 -67 -39 -135 -43 -195 -12 -22
11 -41 20 -42 20 -2 0 -3 -13 -3 -29 0 -16 -7 -48 -15 -71 -19 -53 -19 -90 -1
-116 13 -19 21 -20 78 -13 171 21 306 103 383 234 32 54 34 60 18 67 -33 13
-60 8 -114 -20z"/>
<path d="M3765 8744 c-22 -20 -89 -61 -150 -92 -136 -69 -248 -172 -188 -172
43 0 157 36 241 76 146 70 220 156 177 204 -24 27 -33 25 -80 -16z"/>
<path d="M4090 8345 c0 -35 1 -36 32 -33 28 3 32 7 32 33 0 26 -4 30 -32 33
-31 3 -32 2 -32 -33z"/>
<path d="M5048 7593 c9 -49 9 -187 0 -237 l-7 -38 41 6 c79 13 112 50 111 125
-1 83 -55 159 -126 176 -26 7 -26 6 -19 -32z"/>
<path d="M4829 7590 c-20 -6 -103 -49 -127 -66 -2 -1 2 -21 8 -43 22 -83 94
-128 163 -102 l27 11 0 105 c0 102 -1 105 -22 104 -13 0 -35 -4 -49 -9z"/>
<path d="M4510 7460 c-25 -59 12 -115 142 -211 120 -89 270 -157 598 -274 165
-59 236 -92 363 -172 199 -126 303 -168 404 -161 l48 3 -80 81 c-135 138 -323
244 -625 354 -612 224 -630 232 -667 297 -47 80 -85 113 -131 113 -35 0 -41
-4 -52 -30z"/>
<path d="M4994 6582 c-111 -81 -194 -285 -194 -476 0 -209 81 -342 230 -375
54 -12 71 -1 96 65 26 68 14 151 -42 291 -63 159 -66 193 -20 315 44 117 45
145 8 181 -15 15 -31 27 -34 27 -3 0 -23 -13 -44 -28z"/>
<path d="M5934 6541 c-48 -34 -85 -77 -121 -139 -96 -167 -140 -206 -238 -207
l-60 -1 3 -100 c3 -79 0 -103 -12 -119 -16 -20 -17 -19 -54 24 -106 123 -105
123 -156 128 -57 7 -57 29 -3 -177 64 -243 73 -432 28 -551 -36 -94 -31 -91
-141 -73 -52 8 -143 18 -202 21 -102 5 -108 4 -108 -13 0 -25 25 -61 53 -76
13 -7 85 -14 174 -18 132 -5 156 -8 180 -26 15 -11 29 -26 31 -32 5 -17 -87
-15 -177 3 -66 14 -76 14 -97 0 -16 -10 -24 -25 -24 -44 l0 -29 130 -4 c114
-3 132 -5 150 -23 19 -20 20 -33 21 -365 0 -271 -3 -364 -15 -432 -22 -119
-50 -190 -100 -246 l-20 -23 34 -27 c67 -51 170 -156 202 -204 56 -88 80 -170
85 -293 2 -60 1 -135 -4 -165 -8 -54 -7 -58 44 -159 180 -354 230 -831 112
-1063 -42 -82 -57 -96 -103 -96 -22 0 -69 -9 -103 -21 -34 -11 -69 -18 -77
-15 -20 8 -20 7 -1 -47 28 -79 44 -202 55 -434 6 -127 15 -259 20 -295 5 -36
6 -68 2 -72 -5 -5 -88 -9 -185 -10 -119 -1 -177 -5 -177 -12 0 -23 41 -77 72
-96 46 -28 120 -26 285 9 215 45 254 47 336 15 15 -5 17 5 17 99 0 81 3 107
15 117 18 15 17 17 39 -40 30 -77 46 -187 46 -321 l0 -130 -43 26 c-72 42
-110 32 -123 -32 -5 -28 -2 -32 43 -58 163 -94 251 -231 350 -542 l48 -153
712 0 713 0 0 50 c0 56 -14 96 -53 153 -14 20 -28 56 -32 80 -13 74 -20 80
-80 73 -62 -7 -78 5 -73 56 l3 33 -120 2 c-459 9 -710 65 -853 188 -24 21 -41
39 -39 41 2 2 30 -5 63 -16 199 -69 351 -95 554 -95 182 0 247 12 355 65 55
27 175 130 175 151 0 5 -12 9 -26 9 -36 0 -197 55 -248 85 -57 33 -126 98
-126 118 0 9 14 25 30 37 49 35 40 58 -42 110 -177 110 -313 252 -400 418
l-39 74 38 -7 c97 -18 316 -115 536 -237 212 -117 472 -237 485 -223 4 3 -2
36 -11 73 -19 75 -22 128 -7 137 21 13 7 26 -88 74 -99 51 -178 117 -188 156
-5 20 -11 22 -83 21 -72 -1 -80 1 -115 29 -110 87 -138 97 -407 155 -240 52
-339 84 -412 134 -73 49 -129 122 -107 136 20 13 110 12 151 -1 19 -6 110 -47
203 -92 155 -75 175 -82 231 -82 76 0 122 24 103 54 -7 11 -36 35 -66 53 -161
99 -181 119 -189 192 -6 51 -5 51 -68 34 -57 -15 -75 -3 -51 35 22 32 14 47
-39 79 -25 15 -45 34 -45 41 0 8 22 48 48 89 40 60 46 76 36 86 -23 21 -56 13
-111 -29 -44 -35 -56 -39 -68 -29 -14 11 -13 16 2 40 10 15 40 46 67 68 56 47
86 88 86 120 0 53 -64 39 -133 -29 -28 -27 -56 -49 -62 -49 -15 0 -35 21 -35
36 0 11 66 102 159 219 37 46 39 51 24 67 -23 25 -43 22 -92 -13 -31 -23 -45
-29 -53 -21 -15 15 3 49 53 106 82 92 105 146 77 174 -24 24 -53 11 -115 -54
-49 -49 -67 -63 -77 -55 -10 8 -3 21 30 55 45 47 80 125 86 191 3 36 0 40 -21
43 -18 3 -37 -10 -81 -57 -53 -57 -82 -73 -94 -53 -3 5 8 16 24 25 38 23 84
82 115 148 32 70 32 79 -7 79 -39 0 -84 -30 -122 -81 -32 -42 -54 -55 -69 -40
-17 17 12 58 95 133 88 79 114 116 124 176 6 36 4 42 -11 42 -32 0 -76 -35
-136 -107 -44 -54 -66 -73 -84 -73 -13 0 -26 4 -29 8 -3 4 20 39 50 78 69 87
94 134 94 176 -1 99 -67 65 -134 -70 -28 -54 -50 -72 -67 -55 -7 7 -1 28 19
64 29 51 38 96 34 162 -2 24 -6 27 -37 27 -19 0 -39 -6 -45 -12 -5 -7 -19 -24
-30 -38 -19 -24 -21 -24 -31 -6 -6 10 -38 44 -70 76 -33 31 -59 61 -59 67 0 8
18 6 56 -3 65 -17 87 -13 102 21 10 22 8 27 -16 42 -42 26 -82 65 -98 96 l-15
27 36 0 c56 0 47 34 -33 124 l-35 39 26 14 c54 28 54 50 4 135 l-28 46 -9 369
c-9 347 -20 482 -50 617 -6 28 -7 53 -2 58 5 5 44 16 88 25 43 8 85 20 92 25
17 14 15 76 -3 129 -9 24 -36 87 -61 140 -47 102 -70 198 -60 252 5 25 14 35
45 48 79 34 136 158 112 247 -7 23 -18 42 -25 42 -7 0 -31 -13 -52 -29z"/>
<path d="M6560 6211 c-18 -34 -12 -131 11 -178 20 -41 60 -73 92 -73 23 0 40
55 35 114 -5 61 -35 114 -79 140 -35 21 -46 20 -59 -3z"/>
<path d="M6644 5653 c6 -107 20 -564 36 -1218 6 -231 15 -519 20 -640 5 -121
10 -443 10 -716 0 -516 7 -649 41 -784 26 -102 61 -166 121 -220 56 -50 117
-70 211 -69 65 1 67 0 73 -25 21 -94 29 -104 123 -141 30 -11 67 -30 82 -41
15 -10 29 -19 32 -19 3 0 11 16 17 36 18 54 7 79 -44 98 -24 9 -52 26 -62 37
-18 20 -17 32 12 121 10 28 -32 43 -77 28 -22 -8 -42 -10 -46 -7 -3 4 8 50 26
102 18 52 29 100 25 106 -6 10 -33 9 -98 -3 -14 -2 -21 5 -28 29 -7 26 -3 45
17 94 31 73 27 104 -13 96 -68 -14 -67 -14 -70 24 -2 28 4 46 31 81 63 83 69
115 26 138 -23 13 -49 1 -77 -35 -23 -29 -37 -32 -46 -9 -8 21 14 68 67 143
55 76 64 108 42 150 -27 54 -71 39 -109 -37 -22 -43 -40 -31 -33 24 3 31 16
58 46 95 46 57 59 94 44 118 -16 25 -47 24 -73 -4 -26 -27 -46 -32 -53 -12 -7
19 10 55 49 103 39 47 58 106 41 123 -14 14 -54 14 -62 1 -3 -5 -17 -10 -30
-10 -18 0 -26 7 -31 25 -8 31 7 51 52 65 40 14 52 31 46 71 -4 25 -11 31 -51
43 -63 18 -62 43 2 74 37 18 47 27 47 47 0 19 -7 26 -27 31 -107 24 -101 20
-107 77 -3 28 -8 171 -11 317 -6 264 -21 561 -50 950 -8 113 -15 253 -15 312
0 125 -13 197 -46 254 -20 36 -61 74 -80 74 -3 0 -3 -44 0 -97z"/>
<path d="M3490 5380 c-47 -5 -100 -6 -117 -3 -38 6 -44 -11 -15 -46 26 -33 75
-39 187 -24 55 7 137 12 183 11 91 -3 102 6 49 46 -23 17 -44 21 -115 23 -48
0 -125 -3 -172 -7z"/>
<path d="M4048 5382 c-126 -3 -128 -3 -128 -25 0 -13 9 -33 20 -45 34 -37 67
-40 303 -32 113 4 117 5 111 24 -21 69 -78 84 -306 78z"/>
<path d="M4451 5284 c-95 -67 -245 -83 -585 -61 -538 36 -576 37 -623 26 -45
-12 -85 -52 -67 -69 12 -11 174 -37 314 -50 154 -13 498 -13 814 2 257 12 259
11 350 -12 111 -28 153 -23 191 22 24 29 25 32 9 49 -22 25 -62 36 -171 49
-109 12 -138 22 -153 50 -14 26 -37 24 -79 -6z"/>
<path d="M3770 4750 c-19 -35 -24 -125 -10 -176 23 -80 101 -165 186 -200 35
-15 36 -14 29 3 -4 10 -24 68 -45 128 -45 134 -78 201 -118 239 l-30 28 -12
-22z"/>
<path d="M4187 4682 c-31 -37 -38 -51 -35 -80 3 -33 6 -37 40 -44 20 -4 77
-26 126 -48 96 -43 112 -47 112 -27 -1 38 -42 98 -98 140 -33 26 -70 59 -83
75 l-24 28 -38 -44z"/>
<path d="M4409 3959 c-49 -26 -126 -39 -230 -39 -49 0 -89 -4 -89 -9 0 -49 76
-179 186 -317 114 -143 157 -216 149 -254 -11 -50 13 -136 46 -170 56 -55 60
-47 58 113 -2 157 6 193 44 184 12 -3 57 -14 101 -26 71 -19 93 -19 149 -4 9
2 24 18 33 35 l16 31 -84 84 c-87 88 -153 137 -202 149 l-29 7 7 -65 c7 -71 2
-98 -20 -98 -11 0 -14 31 -14 168 0 149 -2 171 -20 200 -23 37 -46 39 -101 11z"/>
<path d="M4953 3221 c-149 -43 -283 -137 -283 -198 0 -17 7 -36 15 -43 12 -10
23 -5 60 28 26 23 80 54 123 72 132 54 216 97 246 129 l30 31 -65 -1 c-35 0
-92 -8 -126 -18z"/>
<path d="M4017 2058 c-6 -102 5 -143 38 -143 60 0 91 160 40 210 -13 14 -35
25 -48 25 -23 0 -24 -3 -30 -92z"/>
<path d="M4874 1787 c3 -12 17 -94 31 -182 14 -88 35 -217 47 -287 l21 -126
31 10 c53 18 96 58 144 132 25 39 56 84 69 100 l24 28 -39 42 c-21 23 -58 70
-81 106 -79 118 -134 166 -215 188 -36 11 -38 10 -32 -11z"/>
<path d="M4868 726 c-57 -21 -87 -44 -94 -72 -4 -14 -5 -27 -3 -28 9 -9 204
16 229 29 32 16 48 51 31 68 -17 17 -121 19 -163 3z"/>
<path d="M4165 639 c-215 -21 -312 -25 -505 -21 -145 3 -211 -9 -260 -48 l-25
-20 24 -19 c65 -51 238 -74 446 -60 381 26 598 67 755 142 l65 31 -40 7 c-67
13 -259 8 -460 -12z"/>
<path d="M5420 524 c-253 -62 -858 -102 -1114 -75 -60 7 -127 9 -148 6 -36 -6
-98 -47 -98 -64 0 -5 48 -11 108 -15 59 -4 168 -20 242 -36 188 -41 268 -52
315 -45 101 16 458 88 525 107 94 25 207 78 239 112 22 24 23 26 5 25 -10 -1
-44 -7 -74 -15z"/>
</g>
</svg>
