<?xml version="1.0" standalone="no"?>
<!DOCTYPE svg PUBLIC "-//W3C//DTD SVG 20010904//EN"
 "http://www.w3.org/TR/2001/REC-SVG-20010904/DTD/svg10.dtd">
<svg version="1.0" xmlns="http://www.w3.org/2000/svg"
 width="989.000000pt" height="1280.000000pt" viewBox="0 0 989.000000 1280.000000"
 preserveAspectRatio="xMidYMid meet">
<metadata>
Created by potrace 1.15, written by Peter Selinger 2001-2017
</metadata>
<g transform="translate(0.000000,1280.000000) scale(0.100000,-0.100000)"
fill="#000000" stroke="none">
<path d="M5323 12666 c-92 -23 -182 -74 -253 -146 -78 -77 -112 -142 -146
-279 -37 -146 -65 -217 -86 -213 -32 6 -40 -43 -38 -233 2 -99 -1 -236 -5
-305 -6 -102 -5 -137 9 -190 l17 -64 -38 -32 c-57 -49 -280 -185 -300 -185
-10 1 -47 6 -83 11 -166 27 -244 22 -387 -26 -187 -63 -277 -128 -441 -318
-100 -116 -139 -171 -242 -341 -117 -193 -156 -281 -191 -422 -18 -70 -38
-135 -45 -144 -15 -17 -19 -75 -6 -83 9 -5 -14 -117 -30 -150 -5 -10 -12 -71
-15 -135 -5 -111 -6 -118 -39 -166 -68 -102 -74 -105 -264 -119 -66 -5 -167
-45 -234 -93 -46 -33 -50 -34 -95 -23 -62 14 -191 -17 -233 -57 -30 -28 -36
-69 -18 -104 8 -15 7 -19 -4 -19 -31 0 -112 -63 -158 -122 -64 -82 -65 -116
-5 -213 23 -38 63 -91 90 -118 35 -36 47 -56 47 -78 0 -64 37 -104 115 -124
32 -8 44 -18 63 -53 30 -54 71 -76 127 -68 39 6 45 4 109 -49 56 -45 74 -55
106 -55 34 0 44 6 87 54 47 53 50 54 88 49 22 -4 92 -7 155 -7 108 0 120 2
199 33 84 34 193 106 205 137 3 8 6 22 6 30 0 8 19 40 42 71 43 59 68 133 68
206 0 92 177 367 237 367 26 0 97 33 127 59 29 26 50 72 36 81 -9 6 -9 13 -1
28 6 11 11 33 11 49 0 26 49 133 61 133 3 0 13 -26 23 -57 33 -105 112 -245
360 -638 53 -84 96 -178 96 -210 0 -10 -11 -15 -35 -15 -30 0 -37 -5 -46 -27
-24 -65 -51 -111 -68 -116 -30 -7 -66 -94 -65 -160 0 -40 4 -61 14 -67 23 -14
20 -128 -3 -145 -35 -25 -48 -215 -15 -215 7 0 9 -17 5 -50 -3 -27 -2 -52 4
-55 5 -4 9 -17 9 -30 0 -13 7 -28 16 -33 15 -9 12 -32 -34 -248 -28 -132 -67
-331 -87 -444 -19 -113 -46 -254 -60 -315 -28 -127 -53 -277 -90 -525 -15 -96
-42 -260 -62 -365 -19 -104 -43 -239 -54 -300 -10 -60 -23 -130 -28 -155 -6
-25 -10 -70 -11 -101 0 -71 14 -84 104 -99 38 -6 72 -13 76 -15 4 -2 10 -78
13 -167 4 -90 16 -233 27 -318 30 -230 35 -404 16 -527 -19 -126 -41 -189
-104 -300 -28 -49 -63 -119 -78 -156 -15 -38 -33 -71 -40 -74 -23 -9 -71 -98
-90 -164 -9 -35 -32 -89 -50 -121 -32 -56 -38 -82 -75 -320 -20 -130 -6 -507
26 -723 31 -208 30 -234 -17 -520 -22 -136 -27 -190 -19 -193 8 -3 10 -22 5
-63 -5 -49 -4 -60 10 -65 19 -7 15 -50 -11 -123 -12 -34 -13 -45 -3 -51 9 -5
-2 -34 -39 -107 -80 -156 -31 -141 -481 -146 -454 -6 -463 -7 -472 -21 -5 -8
-8 -7 -8 2 0 6 -7 12 -15 12 -8 0 -15 -6 -15 -13 0 -14 -42 -18 -51 -5 -3 5
-12 2 -19 -7 -8 -10 -9 -15 -1 -15 6 0 11 -5 11 -11 0 -5 -4 -8 -9 -4 -5 3
-13 0 -16 -5 -4 -7 -19 -8 -36 -5 -19 4 -29 3 -29 -5 0 -6 4 -9 9 -6 5 3 14
-1 21 -9 10 -12 10 -15 0 -15 -8 0 -10 -3 -7 -6 4 -4 14 -1 24 7 11 9 14 10 9
2 -4 -8 -2 -13 4 -13 6 0 8 -4 5 -10 -3 -5 2 -10 12 -10 10 0 29 -10 43 -21
14 -11 18 -17 10 -13 -12 5 -13 4 -3 -6 10 -10 15 -11 27 -1 9 8 16 8 20 2 4
-6 13 -8 21 -5 9 4 18 -3 24 -17 5 -13 10 -18 10 -11 1 8 9 5 23 -8 14 -13 32
-20 46 -17 12 2 20 2 17 -1 -9 -9 16 -31 30 -26 8 3 20 -4 27 -15 7 -12 18
-21 25 -21 19 0 16 -17 -4 -29 -15 -9 -14 -10 10 -11 23 0 27 -4 27 -31 0 -16
4 -28 9 -24 5 3 12 -4 16 -15 3 -11 11 -20 16 -20 5 0 9 -6 9 -13 0 -7 12 -25
28 -41 15 -16 34 -39 42 -51 29 -43 70 -87 83 -89 6 -1 35 -13 62 -26 74 -34
117 -50 155 -57 14 -2 168 -6 344 -8 291 -3 322 -2 360 15 41 18 106 73 106
90 0 4 20 18 45 30 55 27 101 78 114 127 37 149 38 171 15 299 -9 49 -16 98
-16 109 -2 59 13 156 30 195 11 25 25 78 32 119 11 66 14 73 26 57 21 -30 39
-14 36 32 -4 53 5 83 23 76 7 -3 22 -1 33 5 16 9 20 26 25 125 8 131 68 438
121 619 19 65 57 166 84 225 73 157 108 252 143 387 56 215 70 288 72 381 2
82 -1 95 -21 123 -12 17 -27 54 -32 82 -5 27 -17 60 -25 72 -10 15 -15 46 -15
100 0 77 1 81 50 162 121 200 186 432 300 1060 28 156 63 311 72 321 8 7 494
-77 502 -87 1 -2 46 -83 99 -179 123 -224 181 -348 201 -433 l17 -67 -35 -78
c-45 -100 -98 -233 -121 -302 -11 -34 -37 -77 -67 -112 -40 -47 -51 -67 -59
-115 -5 -32 -15 -85 -20 -118 -6 -34 -9 -110 -5 -176 4 -76 2 -119 -5 -126
-15 -15 35 -175 67 -212 18 -21 30 -65 54 -182 35 -174 39 -188 86 -317 l34
-92 -21 -43 c-32 -62 -28 -177 6 -177 28 0 34 -33 19 -102 -25 -121 -37 -250
-24 -258 7 -4 14 -43 16 -91 3 -46 11 -110 19 -142 11 -41 12 -64 5 -77 -6
-10 -10 -29 -10 -42 l0 -23 -467 -1 c-258 0 -481 -2 -498 -5 -16 -2 -38 -13
-47 -24 -10 -12 -17 -15 -18 -7 0 6 5 12 12 12 6 0 9 3 6 6 -10 9 -48 -16 -48
-31 0 -8 -5 -15 -12 -15 -6 0 -9 -2 -6 -5 9 -10 38 7 31 18 -3 6 -1 7 6 3 9
-6 9 -11 -1 -23 -11 -14 -10 -15 11 -8 13 4 33 3 45 -3 29 -14 59 -26 71 -27
6 -1 18 -5 28 -10 9 -4 26 -5 37 -2 11 3 20 1 20 -4 0 -5 10 -7 23 -5 12 2 30
-1 40 -6 9 -5 41 -11 70 -14 28 -3 55 -8 58 -9 3 -2 37 -7 75 -10 38 -3 79 -8
91 -10 13 -3 49 -8 80 -10 32 -3 105 -12 163 -20 174 -25 677 -84 800 -95 221
-18 557 -32 775 -31 289 1 325 7 325 55 0 17 11 25 50 39 72 26 79 36 79 119
0 125 -37 177 -170 237 -281 126 -371 167 -419 191 -54 27 -228 138 -282 180
-27 21 -27 21 -8 40 20 20 26 40 13 40 -5 0 -21 11 -37 23 -28 23 -28 24 -12
49 15 24 15 26 0 32 -9 4 -14 12 -10 22 3 8 -1 25 -9 37 -28 43 -45 139 -45
254 0 125 42 476 96 813 38 229 57 510 36 510 -10 0 -18 28 -25 90 -5 50 -16
53 -58 15 -21 -19 -46 -35 -54 -35 -23 0 -20 97 5 140 93 163 133 272 151 408
13 103 2 209 -32 294 -10 25 -21 70 -24 100 l-7 53 20 -24 c18 -23 22 -23 51
-11 37 15 38 22 11 149 -15 72 -18 113 -13 178 l6 84 78 65 c81 68 133 125
147 165 6 16 -1 72 -24 183 -67 320 -135 534 -263 829 -44 100 -134 308 -201
462 -67 154 -141 339 -166 412 -42 123 -44 134 -30 155 17 27 39 85 67 178 24
78 39 310 20 310 -6 0 -11 5 -11 10 0 21 25 8 91 -45 72 -59 127 -122 147
-167 7 -17 19 -28 31 -28 12 0 55 -34 101 -80 69 -68 85 -79 105 -74 14 3 25
4 25 1 0 -18 44 -176 56 -199 8 -15 46 -62 84 -105 64 -71 68 -79 54 -95 -13
-13 -14 -28 -9 -70 13 -100 69 -178 127 -178 49 0 114 -31 133 -62 20 -35 55
-44 108 -28 67 19 106 41 139 79 l31 35 -7 110 -7 111 31 -48 c27 -42 30 -56
30 -124 0 -75 -1 -76 -41 -120 -30 -33 -39 -51 -37 -71 4 -36 38 -40 80 -10
18 13 46 30 61 38 37 18 43 30 73 149 l26 99 -52 118 c-93 213 -97 221 -167
282 -152 132 -168 149 -154 165 13 17 5 43 -22 65 -8 7 -12 22 -10 35 3 15 -9
40 -37 77 -67 89 -77 117 -126 346 -25 119 -57 253 -71 298 -31 100 -98 243
-149 318 -81 119 -269 347 -292 353 -13 3 -41 34 -70 78 -45 68 -50 72 -84 72
-21 0 -41 5 -47 10 -5 6 -31 80 -57 165 -46 149 -48 160 -50 295 -3 124 -12
228 -31 333 -4 27 -2 32 15 32 26 0 68 50 83 98 l11 38 91 -1 c83 0 97 3 140
28 29 17 54 42 66 65 47 94 55 331 13 425 -45 101 -193 286 -230 287 -7 0 -47
34 -90 76 -42 42 -95 89 -117 105 -33 24 -46 43 -69 107 -51 137 -140 245
-264 320 -67 40 -168 82 -198 82 -34 0 -36 12 -14 75 26 75 26 117 -1 141 -19
17 -22 18 -50 2 -16 -10 -29 -15 -29 -13 0 2 11 50 25 107 35 140 42 263 21
352 -47 201 -211 370 -415 430 -64 19 -184 20 -258 2z m-3093 -3871 c13 -16 8
-81 -8 -97 -6 -6 -8 0 -5 15 3 13 0 40 -5 61 -11 38 -3 47 18 21z m5250 -1872
c-1 -24 -2 -26 -11 -10 -5 9 -7 22 -4 27 10 17 15 11 15 -17z"/>
<path d="M4885 1230 c-3 -6 1 -7 9 -4 18 7 21 14 7 14 -6 0 -13 -4 -16 -10z"/>
<path d="M2493 675 c-7 -21 4 -32 19 -17 9 9 9 12 -1 12 -7 0 -9 5 -6 10 3 6
4 10 0 10 -3 0 -8 -7 -12 -15z"/>
</g>
</svg>
