<svg version="1.0" xmlns="http://www.w3.org/2000/svg" width="632pt" height="1280pt" viewBox="0 0 632 1280"><g transform="translate(0.000000,1280.000000) scale(0.100000,-0.100000)" fill="#000" stroke="none"><path d="M3810 12774c-52-14-105-32-118-40-19-13-26-13-39-2-15 12-31 14-128 19-16 1-61-7-99-19-52-15-77-29-1e2-55-17-19-49-47-71-63-1e2-71-206-173-255-244-21-30-111-126-202-212-90-86-176-174-190-195-53-78-178-283-202-331-60-118-78-221-33-183 10 8 8-7-8-51-28-78-40-144-27-152 15-9 30 15 66 106 37 97 117 234 170 293l35 40-31-80c-18-44-54-109-82-145-27-36-66-101-88-145-42-87-73-214-58-229 16-16 26 2 60 99 31 87 97 221 106 212 2-2-2-21-9-43-8-21-17-60-21-86-7-44-5-48 13-48 17 0 19-5 14-37-3-21-19-64-35-97-44-87-68-195-69-304 0-52 3-98 9-104 18-18 33 21 43 113 13 123 18 135 34 74 21-79 26-136 17-185-11-59-5-83 18-77 15 4 17-1 13-33-3-21 0-54 7-74 16-50 83-132 134-164 44-28 140-110 258-221l68-64-6-48c-9-71 0-96 46-119 21-11 46-20 54-20 11 0 2-24-31-87-120-228-154-266-388-423-71-48-139-97-149-109-11-11-24-21-31-21-20 0-91-59-119-98-50-72-66-133-68-250-1-152 25-221 107-282 18-14 45-52 45-65 0-3-16-5-36-5-70 0-415-73-450-95-28-18-152-41-299-55-66-7-131-14-145-18-14-3-29-4-35-2-5 1-30 7-53 12-28 6-72 31-120 68-114 87-2e2 1e2-224 34l-12-33-72 39c-54 30-83 40-117 40-40 0-45 2-40 18 3 9 15 27 26 40 20 22 20 22 1 22-11 0-25-5-32-12-6-6-19-13-28-14-14-2-14 0 2 17 15 17 15 19 1 19-9 0-19-5-22-11-9-13-56-31-63-24-3 3 3 14 13 25 24 27 1 27-32 0-14-11-34-20-44-20-13 0-19-7-19-24 0-31-40-44-47-15-3 10-9 19-14 19-5 0-9 12-9 27 0 32-11 23-25-20-9-30-32-37-29-9 3 24-21 6-24-19-2-13-8-30-14-36-6-7-8-20-4-28 3-9 0-15-10-15-8 0-12 5-9 10 3 6 2 10-4 10-5 0-11 12-13 28-3 27-3 27-22-10-10-21-22-38-27-38-18 0-8-21 13-29 20-7 14-11-37-25-138-41-269-132-333-234-31-48-62-138-62-179 0-41 16-25 34 35 39 126 115 211 244 274 63 30 89 38 110 33 54-14 132-14 132 0 0 12 41 45 57 45 3 0-5-12-19-27-58-63-138-177-138-197 0-17 7-22 31-24 32-3 51 13 169 131 20 20 45 37 56 36 17 0 16-1-3-9-31-13-43-41-43-105 0-65 18-110 60-150 29-27 30-28 49-11 19 17 21 17 48-3 16-12 52-23 86-27l57-7v30c0 16-5 34-11 40-24 24 89 0 203-43 80-30 133-44 167-44 27 0 62-7 77-15 37-19 51-19 124 2 60 16 61 16 92-7 23-17 45-23 86-24 53-1 62 4 78 42 1 2 89-9 195-23 202-26 275-46 284-75 6-18 66-30 158-30 45 0 50 2 60 30 11 28 15 30 62 30 63 0 71-11 84-122 27-224 21-409-15-449-11-12-14-48-14-150 0-86-4-139-11-146-13-13-9-75 14-253 9-63 21-162 27-218 6-57 13-109 16-115 3-10-216-287-335-424-85-97-112-133-106-143 3-6-14-34-38-63-64-74-157-217-157-239 0-10-29-69-65-131-36-62-74-137-84-167-11-30-39-93-61-140-68-137-114-271-155-450-12-51-51-143-124-291-106-215-107-216-124-193-10 13-35 28-57 34-34 9-45 8-70-6-60-36-64-112-11-229 33-72 38-135 14-172-8-12-15-44-15-70-1-37-7-55-28-79-44-51-64-114-57-184 6-65 41-137 79-164 20-15 21-16 5-34-21-23-22-50-2-72 14-15 14-21 1-52-9-20-27-50-41-67-35-41-27-67 28-82 23-6 48-13 54-15 20-5 4-32-17-27-70 18-120-127-120-348 0-42-10-121-21-175-18-84-22-138-24-354-4-415-14-550-50-675l-16-55h-67c-82 0-128-21-154-70-34-65-24-125 47-274 36-75 37-83 33-161-3-60-11-94-29-130-21-44-30-51-78-67-63-21-94-47-124-103-21-39-23-70-15-205 1-19-7-64-17-1e2-25-91-16-149 28-175 46-28 111-27 529 12l67 6 3-44 3-44 93-9c52-4 123-4 160 0l67 9 16 61c19 69 154 385 169 394 7 4 7 38 1 96-5 49-8 91-6 92 2 2 38-2 80-9 56-9 79-9 87-1 8 8 6 43-10 129-13 65-29 162-37 217-7 54-16 1e2-19 103-2 3-23 7-46 10-27 4-51 16-71 35-47 48-40 103 50 383 22 66 42 131 46 145 6 24 38 52 435 368 235 187 392 380 548 675 55 103 133 227 155 246 10 7 21 4 44-12 25-18 30-27 26-48-4-20 1-31 22-48 15-11 36-21 46-21 23 0 31-14 34-55 3-49 42-121 85-155 53-42 96-58 176-66 41-4 83-15 102-26 18-11 50-20 71-20 34 1 39-2 50-36 8-20 18-43 24-51 31-38 102-31 157 16l31 25 57-38 57-39-92-5c-78-4-96-8-115-27-18-19-20-27-12-50 12-34 74-78 137-97 58-18 90-41 185-128 72-67 179-138 208-138 8 0 32-18 54-40 29-29 47-40 69-40 24 0 46-14 98-63 38-35 97-85 133-112 36-27 97-78 135-114 39-37 81-74 95-83 28-18 31-17-73-44-71-18-117-45-117-69 0-8 22-25 48-40 38-21 58-43 1e2-109 97-153 111-236 60-342-38-78-51-93-84-104-72-24-80-70-24-134l30-33-98-31c-60-19-107-41-120-55-31-33-79-187-58-187 2 0 75-18 162-41 221-56 290-60 424-21 58 17 143 40 189 52 46 12 101 30 121 40 51 26 104 88 125 146 25 73 58 144 65 144 4 0 17-34 30-75 13-41 27-75 30-75 23 0 283 119 292 134 4 6 8 88 8 181 1 94 5 215 9 270 7 80 6 105-5 122-20 32-18 43 19 74l32 27-22 30c-13 17-20 37-17 46 3 8-2 28-10 45-21 39-20 44 4 36 27-9 27 19-1 65-32 53-60 80-85 80-12 0-25 7-28 16-5 12-15 15-39 11-29-4-36 0-77 51-25 31-85 89-135 130-148 122-356 316-417 389-135 160-158 191-158 217 0 23-41 102-60 116-18 14-18 41 0 52 28 18 25 49-13 104-22 34-40 50-57 52-44 5-67 23-121 95-29 39-84 102-123 141-39 39-88 96-108 128-46 71-77 92-123 85-29-5-44 1-86 29-28 19-63 37-78 39-14 3-39 13-56 22-16 9-59 32-95 51-79 43-78 41-61 52 26 16-110 28-166 15-19-4-33-4-33 2 0 5 20 33 45 62 76 90 35 96-108 17-90-50-98-53-107-36-14 26-12 47 3 53 7 3 49 33 92 68 112 90 204 219 316 441 189 374 349 561 674 785 114 79 169 126 295 255 143 145 159 158 191 158 22 0 52-11 80-29 105-68 143-142 142-276-1-53-8-109-17-135-8-24-14-45-13-46 1-1 27 2 57 8 121 22 245 119 334 261 76 121 103 213 98 326-2 30-4 33-24 26-54-16-118-26-183-27-87-1-149 25-217 93-53 53-54 66-8 134 16 22 35 57 43 77 20 48 30 52 62 26 34-26 87-29 113-5 11 10 35 17 61 17 37 0 44 4 61 34 16 26 25 32 44 29 35-7 62 12 92 65 15 26 35 56 44 67 10 11 25 34 34 50 9 17 28 45 41 64 34 46 31 80-11 141-36 52-36 53-20 87 9 18 16 39 16 46 0 8 14 26 31 43 17 16 38 44 45 62 8 17 21 32 28 32 14 0 133 117 150 148 7 12 2 22-24 42-18 14-53 43-77 64l-45 40-64-65c-35-35-71-79-79-96-37-85-62-13-78 217-14 214-13 241 18 359 21 83 26 130 28 240 2 150-18 437-34 488-6 18-27 47-48 65l-37 33-3 125c-3 142-11 169-84 265-54 72-160 175-179 175-8 0-22-6-33-13-17-13-24-3-97 144-43 87-78 166-78 176-1 24-37 103-54 117-8 6-16 41-20 81-6 65-11 77-69 160-34 50-95 131-137 180-74 89-220 286-220 299 0 3 9 6 20 6 40 0 89 28 105 61 14 26 16 51 12 128-7 140-15 158-122 273l-94 102 50 54c59 65 130 163 154 212 9 19 27 40 41 47 13 6 24 9 24 7 0-8-50-84-85-130-36-47-46-94-21-94 8 0 38 26 68 58 31 35 65 62 82 66 37 9 136 110 176 179 21 37 30 65 30 99 0 63-12 90-66 148-25 27-44 54-42 59 1 5 23-15 48-46 71-89 97-81 39 13-28 43-28 46-7 27 26-24 48-30 48-13 0 6-22 46-50 90-27 44-50 82-50 85 0 2 7 2 17-2 13-5 15-2 10 17-6 22-5 21 23-5 17-16 33-25 37-21 16 16-70 157-148 241-43 47-79 87-79 90 0 2-9 28-20 57l-20 53 113-118c97-102 137-134 137-111 0 3-18 31-40 63-22 31-40 63-40 70 0 26-95 148-182 233-52 51-86 92-83 99 10 15 93-67 207-203 80-95 118-127 118-99 0 5-24 44-52 87-29 43-70 105-91 138-21 33-56 84-77 115-27 37-36 57-28 62 13 8 59-39 140-143 51-65 70-79 83-59 5 9-50 93-179 275-35 48-97 122-137 163-41 41-63 70-49 63 45-23 214-203 274-292 38-57 66-88 78-88 23 0 23 2-3 53-80 157-239 320-410 421-46 28-90 59-98 70-35 51-239 217-371 302-25 16-70 50-1e2 77-92 81-169 109-330 122-39 4-82-3-150-21zm145-164c3-5-1-10-10-10-9 0-13 5-10 10 3 6 8 10 10 10 2 0 7-4 10-10zm-95-38c0-13-12-22-22-16-10 6-1 24 13 24 5 0 9-4 9-8zm-340-67c0-17-2-17-10-5-5 8-10 24-10 35 0 17 2 17 10 5 5-8 10-24 10-35zm-160 3c0-16-3-19-11-11-6 6-8 16-5 22 11 17 16 13 16-11zm890-28c18-33 11-35-20-5-16 16-30 33-30 37 0 14 39-11 50-32zm-812-65c-3-3-9 2-12 12-6 14-5 15 5 6 7-7 10-15 7-18zm1115-119c25-18 57-63 57-80 0-2-39 17-86 43-74 41-90 54-116 1e2l-31 52 74-47c41-26 87-56 102-68zm-1243 3c0-18-35-5-38 14-3 16-1 17 17 7 12-6 21-15 21-21zm1305-185c30-19 55-39 55-43 0-5 3-17 6-26 6-15 1-14-34 4-23 12-54 33-70 49-16 15-43 39-61 54-17 14-31 31-31 37 0 11 13 4 135-75zm154 44c20-33 8-27-24 10-22 26-24 32-9 22 12-7 27-22 33-32zm-1928-136c-5-10-18-25-28-33-12-10-11-5 6 19 24 35 38 43 22 14zm1954-24c23-16 49-42 59-58l17-30-65 41c-36 23-66 45-66 49 0 5-3 16-7 26-7 20-1 17 62-28zm-2106-114c-31-55-138-188-146-180-2 1 9 29 23 60 24 52 141 193 151 182 2-2-10-30-28-62zm175 12c-3-15-8-25-11-23-2 3-1 17 3 31 3 15 8 25 11 23 2-3 1-17-3-31zm2041-80c17-13 28-26 25-29-3-3-25 13-50 34-47 42-27 38 25-5zm-2161-53c-10-42-23-66-49-92l-37-36 46 93c26 50 48 92 50 92 2 0-3-26-10-57zm150-4c-51-52-56-41-8 15 22 24 41 40 43 34 2-5-14-27-35-49zm1911 21c3-5 2-10-4-10-5 0-13 5-16 10-3 6-2 10 4 10 5 0 13-4 16-10zm159-196c4-10-9-4-32 15-59 46-73 69-21 33 26-17 49-39 53-48zm-2524-32c0-5-7-17-16-28-8-10-14-14-11-9 2 6 7 18 10 28 7 17 17 23 17 9zm2580-149c11-14 18-28 15-31-3-3-6-3-7-1-2 2-23 26-48 53-39 43-41 46-13 27 18-12 41-34 53-48zm-2241-65c-8-16-14-19-17-9-2 7 2 24 9 39 11 19 15 21 17 9 2-9-2-26-9-39zm2411-172c0-12-14 5-31 39-8 16-6 15 10-4 12-13 21-28 21-35zm-2588-78c-6-6-7 0-4 19 5 21 7 23 10 9 2-10 0-22-6-28zm2432-3c9-14 15-25 13-25-2 0-14 11-27 25-13 14-19 25-13 25 6 0 18-11 27-25zm76-196c0-6-4-7-10-4-5 3-10 11-10 16 0 6 5 7 10 4 6-3 10-11 10-16zm-2496-76c-4-43-13-89-20-103-7-14-13-19-14-11 0 20 33 191 37 191 2 0 1-35-3-77zm2661-63c5-31 2-51-16-87l-23-47-13 32c-11 28-11 37 3 64 11 21 15 46 11 77-5 46-5 46 13 23 10-12 21-40 25-62zm-2330-520c60-60 106-113 102-117-4-4-30 15-58 43-73 71-173 184-162 184 4 0 58-49 118-110zm252-371c-8-19-22-41-32-49-13-11-11-2 9 39 30 57 46 64 23 10zm1458-1107c50-75 91-150 93-166 2-15 8-33 13-40 6-6 19-26 29-43 13-22 27-33 43-33 17 0 43-23 96-85 39-46 107-122 151-168 54-58 76-87 70-97-9-14 21-94 46-121 8-9 23-15 33-12 27 7 56-94 41-144-7-23-10-101-8-201 2-89-1-163-6-165-16-5 30-195 51-214 11-10 42-72 69-138 48-119 49-121 49-234 0-83-3-115-12-118-14-5-19-134-6-146 4-4 7-67 7-140 1-104 4-138 17-157 15-23 13-30-32-140l-48-116 6-125c7-140 3-149-56-126-29 11-33 9-68-25-28-27-50-38-83-43-39-6-51-2-92 25-73 49-135 143-106 162 18 11 86 10 93-2 7-11 51 7 79 32 11 10 25 18 32 18 13 0 84 75 84 88 0 5-26 44-58 88-32 43-111 158-177 254-65 96-158 232-207 301-48 70-93 140-99 156-5 17-35 51-65 77-30 26-52 51-49 55 2 5-7 21-20 35-14 15-23 32-19 37 3 6-3 20-14 32-11 12-25 40-32 62-7 22-30 74-50 115-50 99-117 162-240 224-52 26-99 54-103 62-4 8-15 14-24 14-14 0-15 12-8 93 10 134 20 175 48 205 39 42 49 69 37 92-8 15-7 27 5 49 17 34 20 61 6 61-6 0-9 19-8 43 2 38 0 42-20 41-13 0-23 1-23 2 0 2 13 36 29 76 15 40 31 87 35 103 4 17 23 64 42 106 31 66 41 79 79 97 62 30 111 76 129 122 21 52 95 170 107 170 5 0 9 9 9 20 0 11 3 20 8 20 4-1 48-63 97-138zm-178 71c-17-18-22-8-11 22 5 12 10 13 17 6 8-8 6-16-6-28zM838 8178c20-20 14-25-38-38-28-7-53-16-56-21-10-17-21 0-17 25 5 24 18 30 94 45 3 1 10-4 17-11zm3438-783c39-40 114-175 114-204 0-20-57 19-110 75-44 46-1e2 138-1e2 164 0 5 12 10 27 10 18 0 39-14 69-45zm1160-282c-5-5-36 86-35 101 0 6 9-13 20-43 10-30 17-56 15-58zm-2784-867c-3-26-22-51-90-117-47-46-74-68-61-49 14 19 52 72 84 118 32 45 61 82 65 82 3 0 4-15 2-34zm-312-375c-11-21-29-36-35-29-3 2 2 14 11 26 19 28 39 30 24 3zm2405-215c50-23 119-83 150-130l17-26-123-131c-120-127-2e2-193-407-337-50-35-127-95-172-133-44-39-80-68-80-65 0 23 43 183 53 194 9 12 6 19-14 36l-26 21 22 150c13 83 28 165 35 184 19 50 147 203 188 225 93 48 266 54 357 12zm-2e3-1453c4-49 18-142 31-208 20-97 26-162 31-337l6-217-60-64c-137-146-210-261-358-562-85-171-214-395-229-395-7 0 3 52 12 63 5 7 16 39 23 72 7 33 23 79 36 101 13 23 21 49 17 57-7 19-39 31-55 21-13-8-13-8 17 126 26 112 21 463-6 535-8 22-40 2e2-40 224 0 5 30 19 68 31 124 41 144 87 55 130-29 14-52 28-53 31 0 11 60 82 132 157 67 68 174 154 226 181 14 8 22 21 22 39 1 20 13 37 48 64 26 20 52 37 59 38 7 0 14-31 18-87zM960 590c0-13-44-98-63-122-14-17-52-26-45-10 44 94 75 142 90 142 10 0 18-5 18-10z"/></g></svg>