<?xml version="1.0" standalone="no"?>
<!DOCTYPE svg PUBLIC "-//W3C//DTD SVG 20010904//EN"
 "http://www.w3.org/TR/2001/REC-SVG-20010904/DTD/svg10.dtd">
<svg version="1.0" xmlns="http://www.w3.org/2000/svg"
 width="521.000000pt" height="1280.000000pt" viewBox="0 0 521.000000 1280.000000"
 preserveAspectRatio="xMidYMid meet">
<metadata>
Created by potrace 1.15, written by Peter Selinger 2001-2017
</metadata>
<g transform="translate(0.000000,1280.000000) scale(0.100000,-0.100000)"
fill="#000000" stroke="none">
<path d="M2387 12790 c-99 -25 -200 -110 -245 -208 -21 -46 -26 -72 -26 -140
l-1 -82 -40 -10 c-316 -79 -514 -221 -541 -388 l-7 -42 -112 0 -112 0 124
-532 c67 -293 123 -534 123 -535 0 -2 6 -3 14 -3 9 0 -1 -27 -32 -83 l-47 -84
-105 4 c-97 4 -215 26 -282 52 l-28 11 0 375 c0 206 -2 375 -5 375 -3 0 -29
-17 -58 -38 -29 -22 -97 -70 -152 -107 -149 -102 -234 -192 -288 -307 -83
-173 -106 -312 -114 -670 -3 -141 -8 -260 -12 -265 -3 -5 -33 -27 -66 -49 -86
-56 -187 -155 -214 -209 -19 -38 -22 -58 -19 -110 4 -62 5 -63 60 -114 71 -65
108 -136 108 -208 0 -52 -26 -123 -50 -138 -18 -11 -11 -98 10 -132 11 -18 25
-33 31 -33 7 0 0 -12 -15 -26 -21 -22 -26 -36 -26 -79 0 -35 5 -57 15 -65 22
-18 19 -31 -20 -96 l-35 -58 0 -285 c0 -255 2 -290 19 -326 15 -35 53 -75 102
-110 12 -8 14 -90 11 -512 l-2 -503 -45 0 -45 0 0 -145 0 -145 96 0 96 0 -29
-28 c-37 -33 -58 -74 -67 -127 -4 -22 -16 -66 -27 -97 -26 -77 -25 -197 1
-280 10 -35 22 -89 25 -120 12 -113 101 -198 207 -198 l48 0 0 -395 0 -395
145 0 145 0 0 394 0 394 59 4 c107 8 185 87 197 199 4 30 15 83 25 118 25 83
25 199 0 282 -11 35 -22 80 -26 99 -10 49 -33 90 -68 122 l-29 28 96 0 96 0 0
145 0 145 -45 0 -45 0 0 268 0 267 36 -105 c61 -182 161 -374 263 -505 65 -83
64 -81 36 -109 -52 -52 -65 -99 -65 -243 0 -98 4 -143 16 -172 l15 -39 -46
-64 c-61 -83 -138 -241 -169 -349 -48 -167 -59 -352 -31 -515 23 -133 17 -124
91 -124 l64 0 0 -720 c0 -704 0 -722 20 -761 11 -21 38 -52 59 -67 l39 -29
-29 -17 c-16 -9 -41 -38 -56 -64 l-28 -47 0 -215 c0 -237 3 -252 67 -312 l29
-27 -37 -33 c-67 -59 -64 -9 -64 -955 l0 -858 23 -40 c26 -47 102 -101 164
-118 24 -6 43 -14 43 -17 0 -3 -16 -14 -35 -25 -20 -10 -67 -51 -104 -91 -83
-86 -145 -204 -164 -309 l-13 -70 -642 -3 -642 -2 0 -295 0 -295 2605 0 2605
0 0 295 0 295 -685 0 c-652 0 -685 1 -685 18 0 40 -33 142 -69 217 -47 95
-119 179 -201 234 l-61 40 48 21 c61 27 110 65 134 104 18 30 19 62 19 899 0
957 4 895 -64 955 l-35 30 38 39 c53 57 61 94 61 303 0 214 -7 248 -66 307
l-42 42 35 27 c19 14 43 40 54 58 18 30 19 60 19 759 l0 727 59 0 59 0 10 38
c7 25 10 30 11 15 1 -21 6 -23 60 -23 l60 0 -34 -56 c-65 -108 -84 -210 -61
-322 30 -145 122 -263 253 -325 58 -27 82 -32 165 -35 74 -3 110 0 155 14 133
42 253 161 293 290 39 127 19 281 -50 384 l-30 45 70 3 69 3 5 32 c3 18 15
172 26 342 11 171 23 331 26 358 l6 47 -71 0 -71 0 -1 935 c-1 514 -2 939 -3
944 -1 5 15 20 34 33 19 13 48 43 65 66 l30 44 3 286 c3 322 0 344 -66 408
-33 32 -34 35 -19 52 19 21 24 121 7 138 -8 8 0 22 25 47 49 49 52 112 8 179
-18 26 -28 57 -31 94 -6 74 38 166 109 225 126 107 70 264 -146 414 -116 80
-115 78 -115 204 0 120 -8 152 -47 193 -32 33 -77 43 -127 29 -45 -12 -80 -1
-97 31 -17 31 -14 143 5 196 l15 42 -42 22 c-35 19 -57 23 -127 22 -72 -1
-105 -7 -215 -44 -111 -36 -148 -44 -250 -50 -66 -4 -127 -10 -135 -14 -11 -4
-27 17 -62 84 -32 62 -42 90 -32 90 8 0 14 2 14 4 0 7 220 957 234 1014 l14
52 -123 0 -122 0 -7 49 c-22 167 -257 324 -584 389 l-87 18 3 32 c5 45 -16
139 -43 192 -57 112 -181 191 -309 196 -39 2 -88 -1 -109 -6z m1392 -3777 c35
-24 71 -73 71 -97 0 -7 -8 -20 -18 -29 -16 -15 -20 -10 -63 73 -25 49 -40 86
-35 82 6 -3 26 -17 45 -29z m-2485 -66 l-38 -76 -27 22 c-15 12 -28 28 -28 36
-1 17 28 51 43 51 7 0 27 11 46 24 19 13 36 23 38 21 2 -1 -14 -37 -34 -78z
m2606 -2082 l0 -685 -50 0 -50 0 0 -47 0 -48 -34 77 c-19 43 -61 119 -95 169
l-61 92 15 44 c10 30 15 84 15 171 0 139 -13 184 -64 231 -32 30 -32 42 -5 67
74 66 239 365 295 532 15 45 29 82 31 82 1 0 3 -308 3 -685z m-1248 -2451 c-2
-304 1 -459 9 -487 7 -28 27 -57 58 -88 l48 -46 -35 -28 c-19 -15 -44 -48 -56
-74 -19 -42 -21 -63 -21 -236 0 -216 10 -261 70 -314 l35 -30 -30 -21 c-16
-11 -39 -37 -52 -58 l-23 -37 -3 -843 c-2 -575 1 -855 8 -883 6 -21 25 -56 43
-76 31 -36 136 -93 170 -93 27 0 20 -14 -18 -35 -20 -10 -67 -51 -104 -91 -81
-85 -143 -202 -164 -308 -16 -82 -32 -95 -42 -34 -26 168 -130 336 -264 426
l-59 39 59 27 c66 30 116 75 135 123 12 26 14 188 14 880 0 801 -1 850 -19
888 -10 23 -33 53 -50 68 l-33 27 40 45 c53 60 62 103 62 295 0 200 -9 239
-69 301 l-46 47 37 26 c20 14 46 45 57 69 20 42 21 57 21 505 l0 462 113 0
112 0 -3 -446z"/>
</g>
</svg>
