<?xml version="1.0" standalone="no"?>
<!DOCTYPE svg PUBLIC "-//W3C//DTD SVG 20010904//EN"
 "http://www.w3.org/TR/2001/REC-SVG-20010904/DTD/svg10.dtd">
<svg version="1.0" xmlns="http://www.w3.org/2000/svg"
 width="984.000000pt" height="1280.000000pt" viewBox="0 0 984.000000 1280.000000"
 preserveAspectRatio="xMidYMid meet">
<metadata>
Created by potrace 1.15, written by Peter Selinger 2001-2017
</metadata>
<g transform="translate(0.000000,1280.000000) scale(0.100000,-0.100000)"
fill="#000000" stroke="none">
<path d="M3436 12633 c-7 -16 -60 -134 -116 -263 -90 -208 -108 -241 -154
-290 -29 -30 -72 -84 -96 -120 -24 -36 -58 -82 -75 -103 -41 -48 -72 -142 -87
-263 -11 -83 -10 -104 5 -160 21 -80 41 -111 77 -119 34 -7 38 -17 50 -121 5
-44 20 -119 34 -168 14 -48 31 -118 36 -155 6 -36 24 -117 41 -179 17 -63 29
-116 26 -118 -2 -2 -15 1 -28 8 -16 8 -66 13 -140 13 l-116 0 -95 -63 c-150
-99 -228 -184 -324 -354 -45 -78 -93 -175 -107 -215 -37 -103 -61 -237 -53
-303 4 -30 13 -123 20 -205 8 -83 20 -178 27 -211 11 -54 10 -66 -10 -125 -12
-36 -43 -104 -70 -150 -55 -96 -71 -140 -74 -198 -1 -39 -3 -41 -34 -41 -38 0
-39 -5 -23 -125 6 -47 6 -80 -1 -100 -9 -24 -4 -65 20 -200 43 -230 58 -282
151 -515 47 -116 92 -247 107 -311 21 -90 34 -123 72 -182 51 -78 162 -181
221 -204 19 -8 49 -20 65 -28 53 -23 74 -26 95 -15 11 6 20 17 20 25 0 25 16
17 93 -44 46 -37 82 -75 96 -102 22 -42 23 -47 12 -174 -6 -71 -13 -175 -16
-230 -3 -55 -17 -185 -30 -290 -13 -104 -29 -260 -35 -345 -7 -89 -28 -245
-50 -365 -22 -115 -60 -349 -85 -520 -26 -170 -62 -375 -81 -454 -19 -79 -31
-147 -27 -151 4 -4 53 -40 107 -81 l99 -74 191 -55 190 -56 49 -94 c27 -52 64
-120 83 -151 22 -37 44 -98 64 -173 39 -151 39 -156 -5 -117 -37 32 -76 47
-94 36 -6 -3 -11 -35 -11 -69 0 -46 -4 -67 -16 -77 -27 -22 -7 -557 37 -992
27 -271 27 -477 -1 -581 -12 -44 -27 -91 -35 -105 -15 -30 -18 -118 -4 -127
19 -11 8 -40 -22 -58 l-31 -18 27 -28 27 -28 -43 -23 c-76 -38 -101 -43 -259
-44 -169 -1 -170 -1 -375 -87 -98 -42 -146 -72 -174 -113 -29 -43 -31 -193 -3
-218 26 -24 90 -44 175 -56 41 -6 87 -15 103 -22 16 -6 72 -13 124 -16 105 -6
181 6 414 63 77 19 156 34 175 34 87 0 151 -39 151 -90 0 -25 5 -31 38 -40 65
-19 193 -23 272 -10 66 11 80 17 114 51 l39 39 -5 76 c-4 61 -1 91 17 146 12
38 27 74 33 80 14 14 16 51 3 76 -30 58 -61 159 -61 197 0 78 18 141 45 153
35 16 53 50 61 115 6 51 4 60 -15 81 l-22 23 20 89 c11 49 31 126 43 171 l23
82 49 -107 c85 -188 104 -279 126 -612 17 -259 20 -289 37 -305 8 -9 23 -13
33 -10 25 8 35 -48 15 -88 -14 -27 -13 -31 2 -42 16 -12 15 -18 -12 -86 -50
-129 -76 -191 -140 -329 -34 -74 -71 -155 -81 -180 -10 -25 -30 -61 -45 -80
-42 -56 -51 -94 -33 -143 9 -23 20 -64 25 -91 13 -75 24 -81 132 -80 136 2
343 59 450 122 107 64 139 105 185 239 22 65 47 138 54 163 11 37 18 46 39 48
22 3 31 13 48 55 32 75 35 119 21 266 -10 116 -10 133 4 147 17 16 20 56 7 89
-5 11 -5 27 0 36 5 9 2 38 -6 70 -19 69 -19 164 0 314 41 337 56 495 62 645 5
147 3 181 -20 315 -14 83 -28 174 -32 203 -4 29 -13 56 -21 60 -8 5 -16 21
-18 36 -2 15 -7 31 -13 34 -6 4 -13 50 -17 102 -8 106 -22 158 -53 192 -11 13
-30 61 -42 108 -12 47 -42 136 -67 198 -68 167 -84 226 -94 347 -5 61 -23 163
-39 228 -34 134 -55 323 -45 414 l6 62 56 22 c57 24 132 88 132 114 0 8 20 37
45 65 66 74 72 87 84 179 25 194 12 345 -65 720 l-46 226 -9 315 c-4 173 -10
326 -13 340 -3 14 -10 55 -17 93 l-11 67 38 35 c21 19 42 35 47 35 5 0 40 24
78 53 37 28 96 68 130 87 47 27 93 69 189 175 70 77 164 174 210 215 112 101
312 330 307 351 -3 9 5 27 17 40 59 66 67 81 51 99 -14 15 -14 21 -1 52 8 19
22 40 30 48 18 14 21 40 6 40 -26 0 -18 33 25 99 25 39 61 102 78 139 29 61
32 75 32 162 -1 79 -5 105 -27 156 -47 112 -199 354 -345 549 -58 76 -123 175
-145 219 l-40 79 81 81 c105 105 108 120 49 231 -36 66 -47 80 -67 80 -20 0
-32 13 -63 70 -21 39 -51 105 -68 147 -47 121 -160 312 -238 403 -35 42 -234
169 -290 186 -50 15 -53 21 -102 222 -45 180 -44 178 -181 321 l-89 93 -64
-17 c-110 -29 -151 -62 -196 -159 -31 -65 -35 -67 -75 -49 l-25 11 20 35 21
34 -31 47 c-16 26 -30 53 -30 60 0 7 -12 34 -27 60 l-26 48 23 31 c24 32 24
33 5 64 -10 17 -19 42 -21 55 -1 12 -25 61 -53 107 -28 47 -51 89 -51 94 0 5
9 30 20 55 l20 45 -25 76 c-70 214 -117 264 -291 315 -38 11 -94 29 -124 40
-30 11 -69 20 -87 21 -62 0 -142 153 -178 341 -8 45 -15 83 -15 85 0 2 -11 4
-25 4 -17 0 -29 -9 -39 -27z m-112 -1955 c42 -65 76 -120 76 -123 0 -9 -59 -5
-106 7 -54 15 -59 23 -69 130 -7 77 0 128 15 112 4 -5 42 -62 84 -126z m-368
-1691 c6 -25 21 -59 33 -75 60 -85 89 -173 115 -352 42 -289 44 -305 36 -308
-4 -2 -6 -34 -3 -72 3 -45 0 -70 -6 -70 -6 0 -11 9 -11 20 0 11 -4 20 -10 20
-20 0 -34 -48 -41 -140 -18 -240 -23 -277 -39 -310 -10 -19 -21 -49 -24 -66
-6 -28 -13 -33 -52 -43 -45 -12 -69 -8 -58 10 12 20 10 116 -4 159 -19 60 -32
403 -16 425 12 16 8 45 -15 110 -5 17 -24 75 -41 130 -18 55 -38 105 -46 111
-10 8 -14 42 -15 125 -3 126 7 160 61 229 17 21 42 63 56 94 21 45 29 55 47
52 16 -2 24 -14 33 -49z m2239 -118 c114 -161 240 -289 333 -340 76 -42 80
-62 18 -89 -66 -28 -296 -260 -381 -385 -38 -55 -119 -170 -180 -256 -60 -86
-115 -165 -121 -175 -11 -18 -13 -17 -23 10 -14 36 -15 61 -3 108 15 57 -3
113 -57 187 -27 36 -58 87 -70 113 -11 25 -26 48 -32 50 -14 5 10 97 67 256
68 187 120 294 154 317 33 22 107 169 135 270 17 58 28 75 50 74 6 0 55 -63
110 -140z m-1045 -4760 c0 -5 13 -38 29 -72 15 -34 31 -75 35 -92 12 -48 95
-274 131 -355 31 -69 34 -85 37 -194 2 -89 0 -120 -9 -123 -9 -3 -13 7 -13 30
0 19 -7 40 -15 47 -8 7 -15 17 -15 23 0 6 -6 18 -14 26 -8 9 -22 58 -30 110
-19 108 -72 322 -114 461 -36 116 -45 163 -32 155 6 -3 10 -11 10 -16z"/>
</g>
</svg>
