<svg version="1.0" xmlns="http://www.w3.org/2000/svg" width="853pt" height="1280pt" viewBox="0 0 853 1280"><g transform="translate(0.000000,1280.000000) scale(0.100000,-0.100000)" fill="#000" stroke="none"><path d="M2796 12379c-3-13-12-125-21-248l-16-223 27-40c31-43 29-28 25-323-2-99-8-191-13-205-14-36-38-196-38-257 0-29-7-104-15-169-9-64-13-124-10-133 3-9 20-21 38-26 30-9 32-14 38-65 7-53 27-793 49-1790 6-261 15-853 20-1315 5-462 14-956 21-1098l12-257-55-53c-77-73-108-143-101-231l6-65-33-18c-18-10-46-29-62-42-29-23-30-27-23-75 10-65 10-158 1-216-6-36-3-51 13-78 17-26 26-31 44-27 34 9 45-10 56-103 9-71 15-89 45-125 39-49 64-96 104-199l29-73 12-425c7-234 16-603 21-820 11-482 37-1384 45-1575 3-77 10-291 15-475 13-484 40-1201 46-1227 3-19 11-23 39-23 23 0 37 6 42 17 10 20 1 454-22 1108-8 242-20 613-25 825-12 464-29 943-35 1025-3 33-9 312-15 620-6 308-15 629-20 714-6 101-6 159 0 166 6 7 49 14 99 17 67 4 103 12 146 32 93 42 147 30 125-28-13-36-13-92 1-119 7-12 31-45 55-74 24-28 44-60 44-70 0-11-13-32-30-48-21-20-37-53-55-114-14-47-40-117-56-155-89-204-97-255-49-301 37-35 38-56 6-183-14-53-27-122-30-152-3-30-13-116-21-190-23-195-24-523-4-575 9-22 22-74 28-115 27-165 53-209 159-265 67-35 70-38 96-103 21-54 27-86 29-162l2-95-30 3c-99 10-99 10-119-32-19-38-19-39 4-95 13-31 36-71 52-89 32-37 35-64 13-115-13-33-13-37 7-62 17-22 26-26 53-21 21 4 36 2 42-6 28-36 105-345 148-592 17-99 20-252 5-261-5-3-19-1-31 5-29 16-36 4-14-21 27-29 13-46-85-97-186-96-340-219-340-272 0-37 14-40 186-40 125 0 156 4 260 30 66 17 166 40 224 51 159 31 198 65 171 148-7 20-16 90-21 156-5 66-15 147-24 180-9 33-27 119-41 192l-24 132 21 153c26 186 27 286 4 488-30 262-31 316-7 384 12 33 21 76 21 97 0 54 23 65 76 34 22-13 63-29 90-36 80-20 120-51 137-106 23-70 43-158 58-245 11-64 10-91-1-160-17-1e2-14-256 6-358 9-41 18-156 21-255 5-165 4-192-20-315-52-281-59-419-26-518 24-71 52-98 137-131 41-16 75-21 150-21 122 0 144 10 154 69 9 52-17 113-83 2e2-23 30-46 68-51 85-5 17-9 93-10 169-1 158 16 264 68 432 19 61 38 146 43 190 5 44 16 130 26 190 9 61 19 125 21 143 4 24 16 41 47 63 38 28 47 30 95 24 59-7 82 4 82 40 0 39-42 87-102 117-58 29-98 68-98 98 0 9 18 33 40 54 43 40 49 53 52 136l3 54 65 37c93 52 97 63 105 334 4 127 12 226 18 233 15 19 94-61 170-173 34-49 150-2e2 257-335 292-365 3e2-376 383-497 85-122 135-173 172-173 56 0 44 45-38 147-34 43-84 110-111 148-28 39-157 206-288 373-131 167-279 364-328 437-49 73-116 165-149 205-40 48-63 84-67 108-17 1e2-80 363-119 497-24 83-46 161-49 175-3 14-26 59-50 1e2-53 88-81 183-71 240 4 22 19 57 35 78 26 37 32 39 92 45 131 11 245 83 3e2 191 11 21 31 48 44 60 21 18 28 37 40 121 17 122 20 428 4 515-6 35-22 98-35 140-39 124-41 169-12 231 14 30 29 77 33 104 4 28 17 74 31 104l23 55-32 33c-33 35-96 72-178 107-25 11-86 44-136 73-50 29-129 70-175 90-138 59-184 96-214 166-27 65-131 147-185 147-11 0-36 7-55 14-31 13-35 19-35 51 0 43 5 53 77 162l54 82 85-1c53-2 88 2 95 9 20 20-7 64-71 116-48 39-60 55-65 85-10 62-43 204-58 252-8 25-22 76-31 114-30 128-132 283-221 335-54 32-65 35-132 34-61-1-85-6-137-32-94-46-120-90-185-310-21-73-43-128-53-135-14-8-27 1-75 52-32 34-64 63-72 64-10 2-14-17-15-87-2-59-12-125-29-192-28-107-34-202-17-265 12-42 60-87 131-123 27-14 54-36 58-48 15-39 33-130 38-195 4-57 2-67-32-127-41-74-53-82-148-102-80-16-263-1e2-292-133-11-12-49-37-85-55-67-34-123-85-134-121-4-12 5-51 21-95 25-69 27-83 24-209-2-74-7-145-12-157-11-29-40-29-67 0-33 35-42 72-42 171 0 77 3 98 19 118 16 20 19 40 19 133-1 1e2 1 114 26 159 43 81 27 128-29 84-54-43-55-36-65 438-5 236-16 656-24 934-9 278-20 836-26 1240-6 404-16 931-23 1170-6 239-11 514-12 610 0 167 1 175 20 178 11 2 24 8 29 12 7 8 8 242 1 340-2 19-19 91-39 159-28 97-39 159-51 290-9 91-20 192-25 225-10 60-5 81 24 106 32 26 12 231-41 414-14 50-27 93-29 95-2 2-5-7-8-20z"/></g></svg>