<svg version="1.0" xmlns="http://www.w3.org/2000/svg" width="989pt" height="1280pt" viewBox="0 0 989 1280"><g transform="translate(0.000000,1280.000000) scale(0.100000,-0.100000)" fill="#000" stroke="none"><path d="M6195 9770c3-5-4-11-17-11-13-1-45-3-73-6-97-8-110-8-139 0-22 6-27 5-23-6 4-11-9-14-66-15-39-1-75-6-81-12-5-5-23-10-39-10-16 0-26-4-22-10 3-5-1-10-9-10-22 0-39-37-34-76 4-35-8-48-14-16-3 13-8 9-21-15-10-18-21-33-26-33-5 0-7-9-4-20 5-17 2-18-28-10-40 12-48 6-26-18 10-10 17-24 17-31 0-31 33-71 75-91 39-19 57-21 125-17l81 5-28-46c-14-26-48-83-75-127-35-58-48-90-48-118 0-53-8-65-105-147-63-53-85-78-85-96 0-24 31-64 50-64 6 0 10-9 10-19 0-11-4-23-10-26-14-9-12-47 5-69 12-16 12-20-7-36-20-15-20-20-9-48 13-30 12-34-14-119-3-8-27 1-70 26-109 64-372 142-387 115-3-5 12-52 33-104 21-52 38-102 39-111 0-14-18-17-122-21-108-5-137-10-236-43l-113-37-64 17c-47 13-71 15-96 7-19-5-81-8-139-7-119 2-142-5-186-60l-29-36-40 17c-60 26-158 23-220-6-102-50-245-215-245-284 0-12 11-45 25-74 17-38 21-54 12-57-10-3-425-91-529-111-50-10-78-41-78-87 0-51 30-104 63-112 14-4 95 11 188 33 90 22 216 52 279 67 63 15 151 35 195 45 47 11 113 19 160 18 73-1 84 2 130 30 28 17 66 33 86 37 33 6 37 4 48-23 18-44 94-71 107-38 3 8 14 11 29 9 14-3 30 2 43 15 15 15 39 20 133 26 79 5 126 13 152 25 34 17 41 18 67 4 39-19 70-9 70 22 0 28 13 39 39 30 15-5 18-15 17-68 0-39 12-120 36-222 34-150 46-243 65-520 4-60 0-139-12-235-9-80-18-221-20-315-3-202-30-562-44-596-6-13-15-43-21-66-7-27-17-43-26-43-29 0-38-44-20-98 9-27 19-92 22-144 2-51 7-134 10-183 4-73 2-1e2-13-140-17-46-23-52-125-111-277-161-708-490-866-662-24-26-69-78-1e2-117-31-38-99-119-151-180-256-301-343-478-327-665 3-41 11-92 17-114 10-36 9-40-19-70-16-17-35-41-41-53-7-15-11-118-11-316 0-326 3-344 65-429 45-62 137-134 198-156 32-11 49-24 52-37 3-11 16-87 30-170 14-82 32-173 40-201 32-109 20-130-148-277-156-137-199-161-348-196-296-71-389-117-389-191 0-57 26-104 75-137 73-51 133-65 290-70 133-5 147-3 259 26 66 17 158 49 205 70 75 35 180 71 202 71 5 0 11-16 15-36 4-19 13-38 20-41 17-6 208 15 298 33 38 8 89 23 114 34l45 20-6 85c-5 65-2 91 10 116 26 52 28 144 4 234-47 180-61 303-62 539l-2 225 34 27c126 102 202 224 203 328 1 56-4 72-49 162-48 94-241 410-272 446-9 10-13 24-10 32 13 33 142 113 361 222 127 64 245 125 263 135l32 20-19-53c-22-63-35-128-26-128 18 0 76 37 117 76 52 48 88 60 205 70l81 7 2 58c5 114 4 174-3 195-7 19 1 25 78 57 93 39 444 123 457 110 5-5 27-78 49-163 22-85 78-267 124-405 46-137 98-302 116-365 54-194 130-441 154-501 33-80 210-351 258-395 44-40 118-77 188-94 48-12 67-35 150-183 50-91 142-2e2 197-235 109-70 272-98 418-73 61 11 72 10 102-6 31-16 33-21 33-68 0-99-33-193-112-325-84-141-120-207-139-260-20-56-21-68-11-123 14-74 41-103 135-138 52-20 80-24 172-24 105 1 113 2 175 34 151 78 177 111 230 296 17 61 37 130 45 155 32 106 61 366 52 457-13 119-68 233-153 315-25 24-53 57-64 73-17 28-18 35-5 95 25 119 29 248 10 319-32 123-105 239-182 290-131 87-430 148-573 117-36-8-73-17-82-21-33-13-91 140-114 305-8 58-23 164-34 235-10 72-31 218-45 325-14 107-38 267-52 355-26 165-27 199-7 466 8 113-14 255-61 384-20 55-59 164-86 243l-49 143 19 25c19 24 19 25 0 80-11 31-27 67-35 79-19 28-10 84 17 119 27 35 24 53-15 78-34 22-35 24-41 115-4 51-5 103-1 115 3 13 38 66 77 118 43 58 101 156 148 250 43 85 102 196 132 245 92 156 129 234 129 275 0 45 17 55 68 41 59-17 105-54 273-217 161-155 292-272 452-402 42-34 92-84 111-110 62-84 180-294 178-316-1-18 39-115 70-166 4-8 15-31 24-50 8-19 22-48 31-65 9-16 21-39 26-50 6-11 14-27 19-35 4-8 13-27 19-41 5-14 19-41 29-60 32-55 140-278 140-288 0-5 7-22 15-37 8-16 15-23 15-16 0 19 28 14 40-7 18-34 11-80-29-205-25-78-41-151-46-206-3-47-16-116-26-153-23-77-22-115 2-130 40-25 109 69 129 175 11 56 35 101 51 96 19-6 59-122 79-228 36-186 94-367 119-375 23-7 48 2 55 21 3 8-5 72-19 142-13 71-27 162-31 204-6 67-4 76 12 82 23 9 41-10 102-109 125-205 183-285 206-285 26 0 46 18 46 41 0 9-16 46-36 81-21 34-57 99-82 143-24 44-60 104-79 134-26 41-31 56-22 62 7 4 17 5 21 3 14-9 133-195 163-254 15-30 34-63 43-72 20-23 49-23 61 1 18 34-44 179-141 331-49 76-59 116-34 126 21 8 119-47 2e2-111 39-31 76-53 84-50 7 3 16 5 18 5 2 0 4 10 4 23 0 27-109 137-185 187-65 43-118 93-163 155-20 28-64 80-98 117-66 71-109 159-98 202 7 31-141 492-236 734-44 111-56 132-74 132-17 0-36 29-96 146-65 127-88 160-175 257-55 61-162 183-239 271-173 202-210 240-319 333-48 41-120 114-159 161-40 48-114 128-165 177l-92 90 21 25c57 70 105 219 84 262-11 21-20 24-119 31-61 5-147 5-198 0l-91-9-71 61c-107 92-102 80-81 185 13 63 15 93 8 1e2-6 6-51 26-1e2 44l-89 33v38c0 23 6 41 15 46 8 5 524 124 1145 265 1610 365 1758 399 1817 427 49 23 51 25 23 26-51 2-170-23-760-158-1501-342-2168-491-2173-487-6 7 46 83 68 99 9 7 25 26 36 42 10 17 37 49 60 72 48 48 72 96 90 173 11 48 24 92 64 213 5 18 5 38-1 54-7 18-6 43 1 77 8 36 9 58 1 76-9 22-10 21-5-11 10-62-13-52-25 10-6 33-23 76-36 96-14 20-25 40-25 44 0 4-13 27-30 49-16 23-30 48-30 56 0 10-7 13-22 11-14-3-27 3-36 17-14 20-16 20-28 3-11-15-13-13-20 21-5 29-9 34-14 20-5-16-9-15-33 15-15 19-32 39-37 46-5 7-8 18-5 25 2 7-7 21-20 31-16 11-25 13-25 6 0-8-5-8-16 2-9 7-25 14-36 14-27 2-48 31-48 67 0 18-5 28-15 28-8 0-14-6-12-12 1-7-4-12-11-10-10 2-10-2-2-18 12-23 10-24-22-11-29 12-62 23-66 21-1 0-16 7-33 16-25 12-114 43-127 44-2 0 0-4 3-10zm-419-97c-3-4 4-13 16-20 22-12 22-12-12-12-19 0-44 5-55 10-19 9-19 9 2 5 12-2 27 2 34 10 6 8 14 14 17 14 3 0 2-3-2-7zm775-75c16-29 2-21-22 15-17 23-18 28-6 18 10-8 23-23 28-33zm-881-169c32-27 33-30 10-24-33 9-70 33-70 45 0 18 25 10 60-21zm1170-38c0-5 3-17 7-27 4-11 3-15-4-11-14 9-24 47-12 47 5 0 9-4 9-9zM4959 5250c0-23-1-23-9-5-5 11-9 31-9 45 0 23 1 23 9 5 5-11 9-31 9-45z"/></g></svg>