<?xml version="1.0" standalone="no"?>
<!DOCTYPE svg PUBLIC "-//W3C//DTD SVG 20010904//EN"
 "http://www.w3.org/TR/2001/REC-SVG-20010904/DTD/svg10.dtd">
<svg version="1.0" xmlns="http://www.w3.org/2000/svg"
 width="953.000000pt" height="1280.000000pt" viewBox="0 0 953.000000 1280.000000"
 preserveAspectRatio="xMidYMid meet">
<metadata>
Created by potrace 1.15, written by Peter Selinger 2001-2017
</metadata>
<g transform="translate(0.000000,1280.000000) scale(0.100000,-0.100000)"
fill="#000000" stroke="none">
<path d="M1379 12413 c-6 -16 -31 -131 -55 -258 -66 -338 -90 -442 -125 -541
-18 -49 -36 -105 -40 -124 -17 -68 -50 -436 -44 -478 5 -36 12 -45 41 -59 33
-16 34 -19 29 -58 -12 -97 -27 -409 -30 -625 -2 -129 -19 -498 -39 -820 -20
-322 -36 -591 -36 -597 0 -7 -9 -13 -21 -13 -23 0 -108 -46 -126 -68 -20 -24
-15 -51 12 -76 l25 -23 -24 -13 c-54 -28 -59 -103 -8 -125 12 -5 22 -17 22
-26 0 -9 9 -36 19 -60 20 -43 20 -44 -1 -77 -27 -45 -18 -79 25 -90 27 -7 32
-13 35 -43 1 -19 -18 -374 -43 -789 -24 -415 -67 -1133 -95 -1595 -28 -462
-73 -1213 -100 -1670 -27 -456 -72 -1206 -100 -1665 -27 -459 -61 -1026 -75
-1260 -14 -234 -30 -436 -35 -450 -5 -14 -15 -110 -21 -214 l-11 -190 26 -23
c55 -47 166 -23 216 46 19 28 19 28 -1 27 -11 0 -24 -8 -30 -16 -7 -11 -8 8
-4 62 4 42 8 177 10 300 3 189 54 1047 180 3028 23 359 134 2138 235 3765 22
352 40 651 40 665 l0 25 87 -3 c58 -3 102 1 129 11 40 13 43 13 80 -13 30 -20
40 -33 42 -59 6 -61 134 -201 184 -201 8 0 76 -65 151 -144 75 -79 171 -170
214 -202 133 -100 182 -144 199 -180 17 -35 48 -51 81 -40 22 7 79 58 110 98
l21 28 88 -11 c116 -15 423 -5 533 16 108 21 293 90 456 170 72 35 144 66 161
70 l32 6 7 -188 c11 -268 2 -379 -56 -693 -36 -194 -33 -401 9 -630 32 -173
57 -442 83 -870 9 -152 9 -273 -1 -552 -14 -387 -10 -634 16 -903 13 -131 18
-299 19 -735 4 -994 44 -1323 173 -1432 26 -22 31 -36 46 -132 9 -60 19 -157
23 -216 5 -93 3 -114 -16 -168 -11 -34 -21 -84 -21 -110 0 -41 -5 -52 -32 -78
-18 -17 -50 -41 -70 -53 -26 -16 -46 -41 -72 -92 -45 -89 -84 -139 -106 -139
-10 0 -61 -29 -112 -64 -52 -34 -107 -66 -121 -70 -32 -8 -81 -79 -72 -105 3
-9 1 -38 -3 -63 -12 -61 4 -106 48 -137 19 -13 27 -21 17 -18 -10 4 -16 3 -13
-2 11 -18 100 -41 155 -41 132 0 241 44 369 146 97 78 112 87 273 148 165 63
228 122 227 212 0 23 3 50 6 62 5 15 2 24 -11 31 -17 8 -20 3 -31 -45 -7 -30
-10 -59 -6 -66 4 -7 3 -8 -5 -4 -8 5 -9 23 -5 56 3 26 1 94 -5 149 -13 104
-12 110 25 214 9 25 13 78 12 160 -2 113 1 134 40 287 34 135 52 187 103 286
l61 122 81 4 c124 7 127 9 127 125 l0 96 78 -5 c61 -3 94 -12 146 -36 117 -55
251 -63 427 -27 100 20 144 46 168 99 12 29 31 50 51 61 83 43 299 59 397 30
50 -15 53 -19 111 -113 74 -120 84 -143 126 -306 52 -196 70 -303 56 -336 -12
-30 -2 -67 24 -89 14 -12 16 -39 15 -185 0 -114 4 -181 12 -201 7 -17 11 -34
9 -40 -9 -30 3 -82 24 -103 29 -29 132 -56 296 -77 134 -16 218 -34 400 -83
140 -38 214 -50 346 -58 104 -7 193 8 163 27 -11 7 -11 9 2 9 8 0 25 9 38 21
18 17 21 27 15 52 -9 45 -22 64 -84 130 -71 76 -103 98 -146 102 -54 5 -208
98 -307 186 -59 52 -118 94 -173 121 -65 32 -84 46 -84 62 0 12 -10 41 -21 66
-50 109 -69 549 -35 815 11 90 17 193 15 290 -2 162 4 197 61 353 35 96 39
174 14 283 -9 39 -14 83 -11 97 3 16 -3 42 -14 64 -23 46 -53 50 -97 13 l-30
-25 -6 23 c-4 12 -9 65 -13 117 -5 79 -2 109 16 180 13 47 25 114 28 150 7 91
-33 500 -64 650 -14 69 -25 142 -24 163 3 55 -83 311 -144 434 -51 100 -52
105 -40 141 8 21 21 86 31 145 21 129 17 136 -72 146 -54 6 -58 8 -70 41 -17
48 -17 101 1 143 8 20 13 42 10 49 -7 17 -87 68 -107 68 -8 0 -35 7 -60 16
-41 13 -46 19 -52 52 -11 70 -6 102 26 158 25 45 32 71 36 130 2 41 7 74 11
74 4 0 38 -13 76 -29 321 -135 777 -181 1151 -116 476 83 884 316 1130 645
378 506 267 1167 -265 1578 -48 36 -93 72 -101 79 -26 23 -183 113 -197 113
-7 0 -35 11 -61 24 -77 39 -281 105 -406 130 -408 85 -842 51 -1230 -98 -37
-14 -72 -26 -76 -26 -3 0 -7 39 -7 88 -2 177 -104 446 -192 509 -13 8 -52 19
-88 23 -50 6 -77 16 -117 44 -102 70 -185 85 -261 46 -22 -11 -40 -20 -41 -20
-1 0 12 73 28 163 26 146 28 175 23 302 -7 161 -21 295 -38 345 -18 58 -18 62
8 57 14 -2 22 0 19 4 -3 5 -13 9 -23 9 -10 0 -24 7 -31 15 -14 17 -7 19 19 6
11 -6 22 -6 32 1 11 8 10 9 -5 4 -13 -4 -17 -2 -13 8 4 10 0 12 -14 9 -10 -3
-19 -1 -19 5 0 5 19 8 43 6 l42 -3 -52 24 c-60 27 -69 40 -20 31 23 -4 28 -3
17 4 -8 5 -25 10 -37 10 -12 0 -25 4 -28 10 -3 5 0 8 7 5 7 -3 33 -1 58 3 44
9 44 9 15 16 -59 15 -61 17 -30 31 25 11 27 14 9 14 -24 1 -43 31 -20 31 8 0
16 6 19 13 4 10 -2 13 -21 9 -24 -5 -26 -4 -13 11 7 10 28 21 45 26 30 9 30 9
4 10 -38 1 -28 43 16 62 18 8 16 9 -9 5 -16 -3 -24 -3 -17 0 18 8 15 24 -5 25
-14 0 -13 2 5 9 28 12 29 24 1 17 -21 -6 -21 -5 2 19 12 13 28 24 35 24 7 0
16 4 19 10 4 6 -7 8 -27 4 l-33 -5 24 20 c26 24 16 28 -14 7 -17 -11 -22 -11
-33 0 -10 11 -5 19 30 45 30 22 36 30 21 26 -13 -3 -23 -1 -23 4 0 5 -13 3
-30 -6 -41 -21 -38 -11 5 15 19 12 33 26 30 30 -3 5 3 13 12 19 10 6 14 11 8
11 -5 0 -26 -10 -45 -21 l-35 -21 30 32 c23 24 26 30 10 24 -18 -6 -17 -4 4
19 27 30 19 36 -13 10 l-21 -18 20 25 c11 14 31 37 44 53 14 15 20 27 13 27
-6 0 -14 -4 -17 -10 -3 -5 -11 -10 -17 -10 -7 0 1 14 18 32 l29 31 -36 -26
c-20 -15 -39 -27 -44 -27 -10 0 24 51 44 68 14 10 13 11 -4 5 -11 -3 -31 -13
-45 -22 -17 -10 -10 1 20 34 43 46 36 46 -20 0 l-25 -20 18 21 c27 32 20 38
-15 13 -33 -24 -31 -17 11 41 l25 35 -34 -30 c-19 -16 -43 -39 -53 -50 -18
-20 -18 -20 -8 2 20 40 34 78 36 97 2 18 1 18 -12 1 -21 -29 -15 -4 8 35 l21
35 -32 -30 -32 -30 16 39 c21 50 20 57 -4 26 -13 -17 -20 -20 -20 -10 0 13 -1
13 -10 0 -8 -11 -9 -7 -4 14 5 22 4 27 -6 21 -14 -9 -7 22 17 69 10 20 11 26
2 20 -9 -5 -10 -2 -6 9 18 44 17 49 -2 19 -23 -36 -26 -46 -11 -37 13 8 13 -5
0 -25 -8 -13 -10 -12 -10 4 0 20 0 20 -15 0 -10 -13 -8 -2 6 36 l20 55 -21
-25 -20 -25 -6 22 c-7 26 -24 21 -24 -7 0 -10 -4 -22 -10 -25 -6 -4 -8 7 -4
27 4 28 3 30 -6 15 -18 -28 -42 -2 -35 37 l5 31 -15 -30 -15 -30 5 33 c3 20 1
31 -5 27 -6 -3 -10 1 -10 9 0 25 -19 19 -30 -9 -12 -33 -18 -32 -12 3 3 23 0
28 -19 29 -13 1 -29 -3 -36 -9 -9 -7 -13 -7 -13 1 0 6 -3 10 -7 10 -21 -3 -33
2 -33 16 0 19 -16 20 -23 1 -4 -9 -14 -12 -26 -9 -16 4 -21 1 -21 -16 0 -11
-5 -21 -11 -21 -6 0 -9 6 -6 14 3 8 0 17 -8 20 -10 3 -15 -5 -18 -27 -4 -31
-4 -31 -5 6 -1 20 -6 37 -11 37 -15 0 -23 -35 -16 -67 5 -21 4 -24 -4 -13 -6
8 -11 24 -11 35 0 11 -5 27 -10 35 -7 10 -8 3 -5 -25 l5 -40 -14 30 -15 30 -1
-50 c-1 -43 -3 -47 -12 -27 -6 12 -15 22 -20 22 -5 0 -4 -10 2 -22 11 -22 10
-22 -4 -4 -9 11 -16 25 -16 32 0 7 -4 15 -9 19 -6 3 -6 -7 0 -27 11 -41 11
-51 0 -44 -5 3 -7 -16 -5 -42 l4 -47 -24 50 -25 50 4 -64 c2 -40 0 -59 -6 -50
-5 8 -9 10 -9 4 0 -5 -12 4 -26 20 l-26 30 22 -43 c26 -54 20 -66 -10 -18 -26
43 -36 47 -15 6 8 -16 15 -31 15 -35 0 -11 -26 1 -39 18 -9 14 -16 16 -24 8
-8 -8 -8 -14 1 -23 14 -14 16 -32 2 -23 -6 4 -7 -1 -3 -11 5 -14 8 -13 19 7 7
13 13 18 14 11 0 -7 4 -11 9 -8 5 3 15 -2 22 -12 13 -15 12 -16 -3 -3 -15 11
-18 11 -18 0 0 -11 -2 -11 -10 1 -9 13 -10 13 -11 0 -1 -8 -1 -22 1 -30 1 -8
-12 1 -29 20 l-31 35 17 -40 c16 -40 25 -95 15 -95 -3 0 -17 10 -30 23 l-25
22 17 -33 c9 -18 14 -37 11 -42 -3 -6 -3 -16 2 -22 4 -7 8 -15 8 -18 1 -3 11
-25 24 -50 l23 -45 -36 40 c-31 33 -34 35 -19 10 l18 -30 -30 19 c-25 16 -23
11 15 -30 l45 -48 -57 48 c-62 51 -77 52 -28 1 l30 -31 -24 1 c-13 0 -28 4
-33 9 -5 5 0 6 11 2 16 -5 17 -4 6 9 -15 18 -35 20 -24 3 5 -8 2 -9 -11 -4
-10 3 13 -23 51 -60 38 -36 56 -57 39 -46 -16 11 -41 32 -54 46 -14 14 -29 26
-35 26 -7 0 -8 -3 -1 -8 17 -11 118 -122 113 -122 -3 0 -23 14 -44 31 -40 32
-74 53 -74 46 0 -2 33 -29 73 -60 84 -65 127 -107 107 -107 -9 0 -5 -10 11
-27 14 -16 2 -9 -27 15 -72 58 -76 52 -9 -13 56 -54 56 -54 39 -80 -13 -20
-15 -39 -11 -84 l5 -59 -38 -21 c-63 -35 -128 -94 -160 -144 -17 -26 -30 -52
-30 -58 0 -6 -11 -29 -24 -52 -24 -42 -38 -115 -51 -267 -4 -41 -13 -106 -21
-143 -18 -87 -18 -366 0 -586 l14 -163 -32 -29 c-17 -16 -42 -32 -56 -35 -60
-13 -179 -58 -226 -85 -56 -32 -147 -123 -184 -184 -29 -48 -33 -51 -79 -59
-20 -3 -62 -21 -92 -39 -36 -22 -91 -42 -154 -56 -126 -30 -263 -99 -380 -192
-81 -65 -191 -129 -222 -129 -6 0 -116 -31 -244 -70 -129 -38 -245 -70 -259
-70 -22 0 -54 17 -170 89 -26 16 -7 19 64 9 57 -8 72 -7 84 6 13 13 13 18 -2
41 -23 35 -61 48 -116 39 -60 -10 -80 -7 -180 22 -94 28 -436 196 -607 299
-62 37 -120 65 -135 65 -16 0 -42 12 -60 28 -100 86 -162 112 -270 112 -56 0
-68 3 -68 16 0 38 80 1314 85 1359 4 28 10 59 15 70 9 20 40 469 40 576 0 56
0 56 41 74 63 29 68 49 70 318 2 215 0 241 -24 357 -16 79 -32 204 -42 340
-34 468 -36 490 -56 490 -5 0 -14 -12 -20 -27z m3541 -1084 c0 -6 -4 -7 -10
-4 -5 3 -10 11 -10 16 0 6 5 7 10 4 6 -3 10 -11 10 -16z m-25 -211 l16 -33
-20 25 c-20 24 -26 40 -16 40 2 0 12 -15 20 -32z m-78 -1981 c21 -35 21 -36 2
-53 -33 -30 -46 -2 -52 111 l-6 100 18 -61 c9 -34 27 -77 38 -97z m817 -18
c-10 -24 -18 -45 -20 -47 -1 -2 -21 2 -43 9 -29 9 -40 17 -36 27 3 7 5 18 5
23 0 5 10 9 23 9 12 1 36 7 52 14 17 7 31 12 33 11 2 -1 -5 -22 -14 -46z"/>
<path d="M5521 11464 c0 -11 3 -14 6 -6 3 7 2 16 -1 19 -3 4 -6 -2 -5 -13z"/>
<path d="M4925 10780 c10 -11 20 -20 23 -20 3 0 -3 9 -13 20 -10 11 -20 20
-23 20 -3 0 3 -9 13 -20z"/>
<path d="M5808 10663 c6 -2 18 -2 25 0 6 3 1 5 -13 5 -14 0 -19 -2 -12 -5z"/>
<path d="M5790 10600 c-8 -5 -10 -10 -5 -10 6 0 17 5 25 10 8 5 11 10 5 10 -5
0 -17 -5 -25 -10z"/>
<path d="M4913 1810 c-38 -15 -24 -69 17 -65 8 1 21 3 28 3 20 3 31 44 16 59
-14 15 -30 15 -61 3z"/>
<path d="M4531 974 c0 -11 3 -14 6 -6 3 7 2 16 -1 19 -3 4 -6 -2 -5 -13z"/>
<path d="M4560 966 c0 -2 7 -7 16 -10 8 -3 12 -2 9 4 -6 10 -25 14 -25 6z"/>
</g>
</svg>
