<svg version="1.0" xmlns="http://www.w3.org/2000/svg" width="733pt" height="1280pt" viewBox="0 0 733 1280"><g transform="translate(0.000000,1280.000000) scale(0.100000,-0.100000)" fill="#000" stroke="none"><path d="M2768 12791c-57-19-149-23-214-10-56 11-72 11-117-3-29-9-72-22-97-28-77-20-178-95-320-240-74-75-184-174-245-220-60-46-137-111-170-144-112-113-324-425-325-478 0-21 20-24 38-6 18 18 15 6-17-63-40-86-48-119-28-119 9 0 34 36 61 87 41 76 141 223 152 223 14 0-41-106-85-163-57-76-94-144-122-226-23-65-23-71-5-71 7 0 36 46 65 103 28 56 60 113 72 127 20 24 20 24 9 2-28-56-50-136-41-145 15-15 39 10 63 65 11 27 22 47 24 46 4-5-62-184-91-244-49-104-95-334-67-334 16 0 30 30 38 79 7 46 16 51 31 19 21-43 22-56 7-104-15-52-12-79 9-71 10 4 12-7 9-47-3-35 1-63 11-82 23-44 110-122 166-148 27-12 75-46 107-75 31-29 62-50 69-47 7 2 29-12 48-32l36-37-142-1c-120 0-151-3-2e2-22-96-35-297-183-297-218 0-8-10-14-24-14-56 0-64-74-14-127 26-28 127-78 178-88 25-5 51-24 90-64l55-58-32-31c-39-39-44-56-83-310-17-112-47-269-66-350-40-174-41-186-11-215 37-38 27-130-34-295-26-72-57-132-69-132-13 0-63-87-56-99 4-7-30-82-50-109-1-2-22 7-46 19-30 16-60 22-102 22-37-1-74 6-1e2 18-25 11-64 19-102 19-40 0-77 7-105 20-27 12-66 20-102 20-35 0-71 7-90 17-21 11-59 17-110 18-45 1-82 7-86 13-3 6-48 18-99 28-86 16-93 16-118-1-22-14-25-21-19-48 4-18 7-48 6-67-1-19 3-42 9-50 12-19 170-52 187-39 7 7 32 1 72-16 42-17 79-25 121-25 38 0 73-6 93-17 19-10 58-17 97-18 41-1 78-9 1e2-20 24-13 55-18 1e2-18 42 1 75-5 95-16 17-9 31-16 33-17 1 0-20-43-47-95-71-134-138-297-176-424-56-192-142-382-199-443-17-19-57-47-88-63-31-16-59-33-63-39-3-5-17-10-31-10-26 0-74-43-74-66 0-31 30-45 82-38 30 4 49 3 45-2-3-5-44-36-91-69-90-63-110-91-105-147 3-28-2-41-13-37-2 0-11 2-21 4-10 2-27 11-38 21-26 23-25 0 1-26 24-24 28-49 5-30-23 19-28 6-7-21 10-13 22-32 25-43 7-18 6-18-18-2-21 14-25 14-25 2 0-8 8-21 19-28 10-7 21-23 25-35 5-15 15-23 30-23 31 0 54-47 33-68-8-8-26-15-41-15-14-1-26-5-26-9 0-8 16-12 34-9 15 3 46-10 46-20 0-5-9-9-21-9-11 0-17-4-14-10 3-5 21-9 39-8 18 1 39-2 46-7 7-4 16-2 20 6 7 10 12 10 25-1 16-13 15-15-5-32-12-10-31-18-42-18-10 0-17-4-14-9 3-5 21-9 38-9 18-1 42-2 53-4 13-2 20 2 19 13-1 9 37-23 85-71 90-91 165-137 261-159 61-14 146-14 195 1 38 12 35 13-73 19-103 5-118 9-188 44-50 24-97 58-135 96-52 52-58 61-47 78 9 15 8 24-5 45-9 14-17 32-17 41 0 8-9 15-19 15-10 0-29 9-42 20l-24 20 45-16c57-19 115-21 160-5 67 25 118 53 141 77 18 19 20 26 9 39-7 8-18 15-25 15-7 0-15 9-18 20-6 24-43 27-74 5-28-20-35-7-27 47 11 70 35 105 124 176 85 68 88 72 175 237 21 42 36 59 48 57 22-4 57 15 57 31 0 7 9 23 20 37 11 15 17 34 14 50-4 20 14 47 98 145 57 66 117 137 133 156 17 20 42 39 56 42 15 4 47 31 73 62 41 47 46 57 36 76-18 33-6 33 51 0 44-24 113-53 237-96 8-3-7-30-43-76-55-71-63-91-45-119 6-10 4-21-9-35-10-11-26-45-36-75-18-56-157-393-2e2-485-95-203-95-228-10-322 39-44 63-62 87-66 18-3 58-15 89-26l55-21 13-118c6-64 23-174 38-244l26-128-24-20c-21-18-22-22-9-32 9-7 21-38 27-68 7-30 21-98 33-150 12-52 30-133 40-180 49-216 69-282 128-410 11-25 27-61 35-80 8-19 34-77 57-127 22-51 52-130 66-175 13-46 33-105 43-133 30-80 71-219 71-242 0-11-16-41-36-67-54-72-67-110-52-154 7-20 16-42 21-49 19-26 6-203-17-232-12-16-15-30-20-116-3-33-8-68-11-78-4-10 0-38 9-62l17-44-36-75c-20-42-40-78-46-81-18-12-9-54 15-71 20-13 23-20 16-39-5-13-14-70-21-126l-12-104-63-65c-34-36-79-92-1e2-125-35-55-38-67-45-160-4-55-11-118-14-140-5-31-3-44 9-54 9-7 13-17 10-22-11-18-5-127 10-187 15-56 15-71 1-164-9-57-20-133-25-171-11-73-53-176-94-230-37-48-66-119-96-232l-26-1e2-35-3c-108-8-133-24-118-75 9-28 16-132 20-292 1-70-80-296-137-381-45-66-28-104 47-104 48 0 64-8 51-25-4-6-43-42-88-82-48-43-89-89-102-115-58-121-62-151-24-198 15-18 33-24 98-31 159-16 468-5 566 22 21 5 55 24 75 42 39 35 88 127 98 187 5 29 12 40 29 44 25 6 34 23 65 131 54 184 110 363 122 391 8 18 47 60 86 94 48 41 73 70 73 84 0 12-11 48-25 81-26 63-32 105-15 105 30 0-4 87-45 114-14 9-36 37-48 62-21 44-21 46-4 127 36 178 105 376 175 505 44 81 75 127 89 133 12 4 31 17 42 28 11 11 22 17 24 13 14-24 40-176 49-287 5-71 12-156 15-188l5-57h-40c-44 0-92-31-92-59 0-10 14-38 32-62 69-95 75-190 22-370-42-144-55-174-1e2-215-51-48-42-99 22-118 30-9 53 2 70 35 11 22 22 29 44 29 17 0 30-3 30-8 0-12-24-43-75-96-57-58-91-130-1e2-208-10-82-3-103 45-122 46-18 111-20 225-6 44 5 127 14 184 19 75 7 112 15 130 29 39 28 77 105 96 193l17 79h41c55 0 65 17 78 128 10 91 44 230 79 320 11 29 20 62 20 74 0 14 25 45 71 87l71 66-36 120c-19 66-41 143-49 170l-13 50-44-3c-80-5-95 8-129 112-18 53-41 161-55 261-22 149-24 185-17 290 10 131 23 194 42 206 17 10 17 166 1 196-13 24-14 140-3 273 8 91 0 155-23 202-14 26-17 92-13 225 0 18-7 41-16 51-9 10-26 49-38 87-11 39-27 81-36 93-13 22-13 26 6 43 26 25 27 49 1 91-35 57-22 186 30 309 11 25 21 66 22 90 3 39 1 44-20 47-13 2-30-2-38-8-9-8-14-8-14-2 0 16 71 170 118 256 24 43 41 85 38 92-3 7 17 61 44 119 27 58 63 146 80 195 57 167 189 496 226 562 13 25 13 31-1 58-15 29-14 37 23 168 22 75 45 169 52 207 15 80 30 106 30 53 0-51 30-54 149-12 53 18 118 36 144 39 32 4 50 12 54 23 4 9 16 31 28 47 13 17 25 42 29 58 3 15 9 39 12 53 4 14 2 42-4 62-12 39-14 47-92 387-27 121-59 255-70 299-11 43-18 82-15 86 5 8-40 134-56 155-4 6-10 55-14 110-4 55-14 120-21 145-8 25-14 53-14 63 0 20-7 20 205-4 109-13 278-56 4e2-102l90-34 47-89c47-89 56-121 39-139-6-6-6-32 0-64 9-60 25-84 38-62 7 10 13 11 30 2 21-11 42-71 56-156 14-88 63-223 98-268 20-27 39-67 47-99 6-29 16-66 22-81 9-24 7-31-11-51l-22-24 33-25c18-13 45-32 61-42 18-11 24-21 18-29-5-6-12-21-15-33-7-21-4-23 27-23 19 0 55-3 81-6 45-7 46-7 41-38-3-20 0-38 11-51 15-20 17-19 59 29 24 27 49 61 55 76 6 15 29 37 51 49 69 39 72 50 60 208-15 181-18 191-74 233l-47 35 41 7c49 9 69 23 69 50 0 31-41 77-79 89-20 7-64 28-99 47-90 49-115 94-141 255-9 53-13 51 78 36 159-25 227-30 561-39 362-9 494-20 750-64 193-34 336-52 630-81 258-26 381-31 365-16-12 11-269 86-625 181-146 39-319 87-384 105-262 76-486 109-831 125-242 11-478 38-576 66-18 5-27 44-33 139-6 89-26 177-72 325-25 80-50 153-55 162-5 10-9 31-9 47 0 43-31 74-86 86l-48 10 3 60c4 121-58 246-153 305-31 19-38 33-75 148-82 259-78 242-56 258 43 29 47 37 42 70-3 18-14 45-25 61-11 15-26 52-32 81-7 28-16 55-21 58-5 3-9 16-9 29 0 13-5 36-11 52-6 15-11 30-12 33 0 3-9 34-19 70-10 36-25 96-34 134-8 38-19 76-23 85-5 9-12 48-16 86-4 39-13 80-21 92-8 13-11 34-8 52 4 18 0 42-10 63-16 31-16 34 1 43 41 23 140 134 170 190 41 79 54 151 41 235-13 82-30 115-71 136-17 9-45 27-62 39-16 13-61 39-99 59-67 35-68 36-71 80-3 49-23 83-92 158-45 50-61 85-18 43 13-14 29-25 34-25 6 0 20-18 30-39 22-43 47-71 62-71 13 0 4 31-27 93l-24 48 22-7c12-3 30-16 39-28 28-34 30-15 5 47-13 31-20 57-15 57 32 0-17 129-92 245-32 49-53 92-48 96 5 3 7 14 3 25-4 10 4 3 17-16 14-20 33-35 44-35 13 0 31-17 50-47 16-27 35-48 42-48 7 0 13 3 13 6 0 15-84 172-124 233-43 64-76 132-76 154 0 21 30-19 98-132 67-113 92-141 92-105 0 33-88 198-159 299-96 135-201 294-201 303 0 10 62-61 132-153 33-44 76-113 94-152 18-40 38-73 43-73 6 0 17-13 26-30 17-33 45-40 45-11 0 28-111 239-183 350-78 118-148 189-325 327-75 59-177 146-227 194-119 114-242 195-352 232-98 33-156 41-195 29zm413-356c6-11-3-4-19 15-17 19-31 40-31 45-1 11 34-29 50-60zm-1183-205c-23-33-44-58-46-55-7 6 73 115 84 115 2 0-16-27-38-60zm-304-112c-30-48-115-152-185-226-83-86-85-82-12 28 20 31 192 210 201 210 2 0 0-5-4-12zm1944-34c-4-3-12 5-18 18-12 22-12 22 6 6 10-10 15-20 12-24zm-157-120c22-25 22-26 3-16-12 6-24 18-28 27-8 21-3 19 25-11zm-1794-412c-14-32-67-102-67-87 0 13 63 115 72 115 4 0 2-13-5-28zm2028-99c35-52 32-64-5-18-28 35-37 55-25 55 2 0 16-17 30-37zm-2261-495c-12-17-15-18-10-5 3 11 9 31 13 45 7 25 8 26 11 5 2-13-4-33-14-45zm2514-113c4-41 3-47-13-44-14 3-18 15-19 61-1 48 1 55 13 44 7-8 16-35 19-61zm-2105-370c46-59 5-22-55 49-42 49-44 54-14 26 21-19 52-53 69-75zm367-44c19-36 13-61-16-61-14 0-22 4-19 10 3 5 1 18-4 28-7 13-7 22 1 30 17 17 26 15 38-7zm1555-1350c16-33 21-52 14-57-10-6-7-56 7-102 5-17 13-22 32-20 22 3 29-6 72-102 65-143 88-216 106-335 12-76 27-126 64-210 27-60 70-168 95-240 26-71 54-143 62-159 14-27 14-31-1-41-9-7-16-22-16-35 0-17-4-21-17-15-78 30-330 65-465 65-48 0-89 4-92 8-10 17 7 152 19 152 17 0 36 25 36 47-1 10-1 45-1 78 0 32-6 68-14 80-7 11-16 41-20 68-6 37-14 53-40 74-38 30-38 7-5 258 26 196 70 415 104 523 9 26 36 10 60-37zm-1807-436c2-11 17-51 34-88 16-38 27-71 24-74-2-3-33 6-68 20-35 14-84 31-110 37-27 7-48 15-48 17 0 3 14 30 31 60l31 54 51-3c43-2 52-7 55-23zm96-276c10-52 8-56-39-69-37-10-45-17-45-36 0-14-8-25-20-29-19-6-24-16-21-42 1-7-4-13-11-13-16 1-118 95-118 109 0 19 67 61 136 86 94 33 110 32 118-6zm-530-474c26-20 28-26 16-40-22-26-130-75-130-58 0 11 72 123 78 123 4-1 20-11 36-25zm3416-1286c57-32 78-1e2 46-145-13-17-16-17-29-4-15 16-70 170-60 170 3 0 22-10 43-21zM240 6410c0-5-2-10-4-10-3 0-8 5-11 10-3 6-1 10 4 10 6 0 11-4 11-10zm2380-124c0-3-4-8-10-11-5-3-10-1-10 4 0 6 5 11 10 11 6 0 10-2 10-4z"/></g></svg>