<?xml version="1.0" standalone="no"?>
<!DOCTYPE svg PUBLIC "-//W3C//DTD SVG 20010904//EN"
 "http://www.w3.org/TR/2001/REC-SVG-20010904/DTD/svg10.dtd">
<svg version="1.0" xmlns="http://www.w3.org/2000/svg"
 width="751.000000pt" height="1280.000000pt" viewBox="0 0 751.000000 1280.000000"
 preserveAspectRatio="xMidYMid meet">
<metadata>
Created by potrace 1.15, written by Peter Selinger 2001-2017
</metadata>
<g transform="translate(0.000000,1280.000000) scale(0.100000,-0.100000)"
fill="#000000" stroke="none">
<path d="M2150 12793 c-8 -2 -26 -10 -39 -16 -22 -11 -19 -13 35 -24 33 -7 71
-12 87 -13 24 0 27 -4 27 -32 0 -45 41 -108 97 -148 57 -41 133 -109 133 -120
0 -4 -42 -22 -92 -40 -207 -74 -340 -165 -372 -254 -16 -46 -28 -96 -23 -96 2
0 18 20 35 44 27 37 50 53 135 94 56 27 151 82 211 121 99 66 110 71 125 57
22 -20 44 -22 105 -12 42 8 51 6 63 -10 11 -16 18 -17 43 -7 27 10 37 8 87
-19 50 -27 63 -29 112 -24 161 18 235 17 276 -2 l40 -18 -90 -59 c-118 -77
-260 -219 -311 -310 -61 -110 -86 -209 -87 -345 -2 -159 35 -314 109 -460 47
-94 74 -126 172 -205 107 -86 137 -137 126 -212 -6 -44 -15 -57 -107 -150 -55
-57 -109 -105 -119 -109 -10 -3 -18 -14 -18 -24 0 -34 -22 -69 -61 -95 -42
-27 -59 -66 -39 -90 16 -19 88 -41 192 -59 48 -8 104 -23 124 -32 32 -15 35
-19 18 -25 -435 -173 -507 -196 -636 -206 -73 -6 -78 -7 -117 -47 -22 -22 -59
-77 -81 -121 -65 -124 -76 -140 -136 -186 -67 -52 -82 -79 -100 -182 -8 -44
-15 -81 -17 -82 -1 -2 -17 -10 -34 -19 -26 -13 -33 -23 -33 -46 0 -16 5 -32
11 -36 8 -5 9 -31 4 -88 -4 -45 -8 -102 -7 -128 1 -44 -1 -48 -23 -48 -30 0
-60 -46 -56 -85 5 -56 40 -137 81 -191 l42 -53 -27 -49 c-15 -27 -69 -103
-121 -168 -52 -66 -104 -139 -116 -163 -24 -50 -50 -150 -42 -163 3 -5 24 -20
46 -34 l41 -26 -6 -82 c-4 -45 -23 -138 -42 -206 -19 -69 -45 -164 -57 -211
l-21 -86 47 -79 48 -79 -5 -85 c-3 -47 -20 -141 -37 -210 -29 -113 -31 -129
-20 -173 10 -41 9 -56 -10 -118 -23 -76 -21 -99 7 -99 10 0 29 -7 42 -16 20
-15 22 -22 16 -63 -4 -25 -17 -76 -30 -113 l-23 -66 29 -12 c16 -7 29 -18 29
-24 0 -6 -20 -78 -45 -160 -57 -191 -69 -252 -63 -329 13 -153 97 -224 365
-311 62 -20 130 -43 152 -52 36 -14 41 -14 65 1 42 28 66 76 66 134 l0 52 43
-6 42 -7 28 94 c16 52 41 118 56 147 l27 53 -23 47 c-12 25 -29 91 -38 145
-18 113 -38 163 -72 179 -19 9 -23 16 -18 38 4 17 -3 49 -19 90 -15 34 -26 68
-26 75 0 8 44 34 98 60 116 56 148 77 172 117 14 23 16 35 9 49 -6 10 -26 62
-45 114 l-34 96 30 34 c36 41 38 74 10 140 -20 46 -20 48 -3 65 10 10 65 43
123 73 65 33 104 59 102 68 -2 7 -25 72 -53 145 -27 72 -49 139 -49 149 0 10
20 36 43 58 68 63 68 66 46 201 -34 212 -50 289 -69 332 -10 24 -15 43 -9 43
5 0 14 11 19 25 5 14 13 25 18 25 4 0 28 -69 52 -152 57 -200 102 -330 149
-432 l39 -83 -35 -17 c-53 -25 -103 -66 -135 -110 -28 -39 -28 -39 -7 -54 15
-10 20 -24 19 -51 -3 -63 -1 -70 29 -86 39 -20 45 -43 26 -107 -8 -30 -28
-130 -45 -223 -16 -94 -39 -201 -51 -240 -19 -62 -22 -96 -24 -313 -3 -242 -3
-244 -27 -270 -54 -60 -57 -70 -40 -147 10 -47 16 -122 16 -225 0 -137 -3
-162 -23 -215 -34 -90 -35 -107 -12 -153 12 -23 21 -51 21 -63 0 -12 -22 -70
-49 -128 -60 -130 -63 -147 -29 -191 74 -100 63 -187 -62 -469 -36 -82 -39
-95 -27 -110 28 -31 46 -79 77 -202 38 -150 62 -198 113 -222 47 -24 68 -18
136 33 30 22 61 40 69 40 12 0 14 -32 9 -212 -4 -166 -13 -270 -40 -473 -49
-355 -61 -498 -54 -646 7 -140 26 -247 64 -359 24 -70 25 -75 8 -85 -60 -35
-60 -34 -32 -116 34 -100 50 -224 42 -329 l-7 -86 69 -76 c66 -72 69 -77 70
-129 1 -30 11 -81 21 -114 l20 -60 -50 -3 c-58 -4 -71 4 -43 23 54 38 53 40
-15 47 -72 8 -140 1 -140 -14 0 -5 8 -7 18 -4 20 7 50 -9 38 -21 -4 -4 -36 -8
-70 -8 -46 0 -71 6 -100 23 -37 22 -39 22 -112 7 -110 -23 -279 -15 -333 15
-23 12 250 60 347 60 79 0 112 9 112 29 0 4 -54 5 -120 3 -126 -3 -138 1 -103
40 15 17 14 18 -44 18 -66 0 -148 -21 -178 -45 -19 -15 -16 -16 42 -10 70 7
113 -1 113 -20 0 -22 -36 -27 -143 -20 -96 7 -104 6 -130 -15 -33 -26 -31 -43
8 -50 55 -10 30 -25 -45 -28 -73 -3 -206 17 -165 26 100 19 115 35 46 46 -66
10 -93 27 -88 53 4 22 2 22 -37 15 -75 -13 -210 -7 -354 18 -120 20 -141 26
-127 36 22 16 11 34 -22 34 -15 0 -36 -12 -54 -31 -29 -31 -31 -32 -98 -26
-37 3 -83 12 -102 20 l-34 15 75 2 75 2 -54 11 c-36 8 -59 19 -69 34 -14 22
-13 23 21 23 19 0 40 7 47 15 11 13 2 15 -71 15 -166 -1 -321 -17 -384 -41
-74 -27 -63 -33 96 -48 173 -17 209 -23 209 -32 0 -5 -12 -9 -27 -9 -47 0
-103 -12 -103 -22 0 -4 61 -8 135 -7 110 0 141 -2 161 -16 19 -12 23 -21 18
-37 -6 -20 -4 -21 37 -14 24 4 59 10 77 13 20 3 32 1 32 -6 0 -6 -13 -11 -30
-11 -18 0 -30 -5 -30 -13 0 -9 9 -12 29 -9 15 2 43 -4 61 -13 29 -15 33 -15
49 -1 34 31 131 19 546 -65 156 -32 234 -43 351 -48 120 -6 157 -11 179 -25
15 -10 25 -19 23 -21 -1 -2 -27 1 -55 6 -54 10 -93 0 -93 -23 0 -7 38 -9 130
-4 72 3 189 9 260 12 72 4 130 11 130 15 0 5 -8 9 -18 9 -76 0 -337 23 -377
34 l-50 13 63 5 c34 4 73 13 85 21 21 13 27 13 58 -1 27 -13 70 -16 204 -17
l170 0 19 -39 c22 -46 26 -137 7 -160 -7 -9 -28 -16 -45 -16 -30 1 -30 1 -11
16 19 15 17 15 -25 8 -25 -4 -134 -7 -243 -7 l-198 0 -17 33 c-16 30 -40 41
-34 14 1 -6 -8 -16 -21 -21 -19 -9 -36 -6 -83 14 -54 22 -71 24 -199 23 -233
-2 -415 -22 -415 -45 0 -3 98 -4 218 -3 125 1 227 -3 241 -9 20 -8 10 -11 -60
-16 -97 -7 -370 -21 -849 -42 -306 -14 -590 -32 -615 -39 -5 -2 40 -6 100 -10
101 -7 311 0 699 24 192 12 346 13 346 1 0 -5 -42 -14 -92 -20 -90 -11 -460
-41 -505 -41 -13 0 -23 -5 -23 -11 0 -12 167 -10 596 7 104 4 163 3 167 -3 4
-6 -15 -12 -48 -16 -29 -3 -75 -15 -102 -28 -80 -37 -25 -34 120 7 181 51 373
61 285 15 -20 -10 -18 -11 17 -7 22 3 73 12 114 21 81 17 124 11 156 -25 18
-20 17 -20 -118 -20 -77 0 -137 -4 -137 -9 0 -19 352 -28 535 -15 l120 9 -29
20 c-24 16 -55 21 -185 27 -162 9 -224 23 -256 58 -10 11 -16 22 -14 24 5 5
622 26 627 21 7 -7 14 -115 9 -137 -4 -13 -33 -61 -66 -107 -41 -56 -68 -107
-86 -161 -19 -58 -38 -93 -70 -128 -51 -56 -136 -118 -189 -136 -43 -15 -112
-99 -162 -198 l-34 -67 30 -21 c40 -28 152 -74 231 -94 153 -38 290 -45 403
-21 118 25 184 77 211 168 10 36 21 47 76 80 98 58 267 142 336 167 84 30 182
25 273 -14 133 -58 203 -77 353 -96 84 -11 175 -25 203 -31 47 -11 54 -9 110
19 32 16 69 33 82 37 l23 7 -20 -39 c-12 -21 -30 -50 -42 -64 -22 -27 -37 -83
-31 -111 5 -23 79 -24 257 -2 168 21 312 15 378 -14 l48 -21 51 40 c28 21 114
70 192 108 144 71 175 94 204 152 13 27 24 35 50 37 26 3 35 10 47 38 12 28
19 34 45 34 23 0 33 6 42 25 17 37 158 125 202 125 22 0 38 6 44 16 18 32 229
104 304 104 32 0 40 5 53 30 15 30 17 30 97 30 78 0 82 1 119 35 22 19 59 41
84 47 50 14 54 20 25 45 -33 29 -25 51 23 64 23 6 75 24 114 41 55 22 73 35
73 49 0 12 10 23 26 29 14 6 28 19 31 30 4 14 14 20 35 20 44 0 98 29 119 64
26 43 24 46 -20 46 -22 0 -44 6 -51 15 -11 13 -1 15 80 15 l92 0 -6 28 c-4 15
-19 38 -33 50 -24 22 -32 23 -104 17 -61 -5 -85 -4 -109 8 -26 14 -34 14 -58
1 -29 -15 -135 -18 -167 -4 -16 7 -16 9 -4 9 9 1 27 10 40 21 l24 19 -25 1
-25 1 23 11 c27 14 29 34 2 41 -11 3 -68 -1 -127 -9 -65 -9 -111 -10 -116 -5
-5 5 -16 7 -23 4 -10 -4 -12 0 -8 11 5 14 -4 16 -74 16 -82 0 -115 14 -65 27
37 9 130 10 278 1 l120 -7 -90 19 c-130 28 -268 41 -340 34 -72 -7 -75 -9 -95
-48 -8 -16 -26 -36 -40 -45 -13 -9 -21 -11 -17 -4 5 8 -5 18 -28 28 -38 15
-43 38 -9 43 82 12 87 34 12 57 -74 22 -212 45 -269 45 -62 0 -151 -19 -143
-31 3 -5 25 -9 49 -9 54 0 65 -14 26 -34 -16 -9 -40 -34 -53 -57 -23 -40 -60
-68 -95 -70 -41 -2 35 -17 92 -18 70 -1 90 8 81 37 -6 17 -1 20 36 24 48 5 88
-5 88 -23 0 -7 -11 -9 -32 -5 -40 7 -73 -8 -40 -18 26 -9 66 1 121 31 38 20
72 23 89 8 2 -2 -7 -23 -18 -49 -24 -49 -22 -48 -140 -61 -30 -3 -66 -12 -80
-20 -25 -14 -24 -14 17 -15 47 0 63 -14 34 -29 -28 -15 -71 -14 -121 4 -54 19
-84 19 -100 0 -10 -12 -10 -15 4 -15 9 0 16 -4 16 -10 0 -5 -9 -10 -21 -10
-11 0 -40 -11 -63 -25 -52 -30 -79 -25 -70 14 14 63 27 92 46 102 20 11 20 11
-2 26 -29 20 -24 54 25 165 60 134 75 186 75 256 l0 64 -32 -6 c-23 -4 -53
-27 -96 -71 -70 -72 -92 -81 -92 -36 0 44 19 90 71 169 70 107 74 126 48 212
-18 60 -19 75 -9 100 9 21 19 30 35 30 32 0 45 -20 52 -81 7 -62 33 -95 63
-79 20 10 24 22 35 82 5 35 7 37 36 31 23 -4 36 0 54 17 40 37 32 81 -19 107
-64 32 -65 33 -46 131 19 98 12 137 -26 154 -28 13 -28 16 -9 42 16 21 19 74
8 115 -6 25 -17 25 -123 6 -23 -4 -41 -2 -52 7 -16 12 -18 124 -24 1648 -6
1324 -5 1654 6 1731 13 93 12 97 -10 142 -23 46 -23 48 -10 179 12 125 11 136
-8 191 -18 55 -18 62 -4 120 13 51 16 142 17 522 2 593 -3 529 45 549 30 12
75 16 179 16 l138 0 33 101 c34 104 95 240 131 290 l20 28 -22 43 c-12 24 -40
69 -61 101 -49 72 -77 134 -78 168 0 21 -12 33 -60 63 -67 41 -90 69 -90 106
0 23 -7 27 -77 46 -43 12 -146 47 -228 77 -83 31 -181 61 -218 68 l-67 12 0
55 0 54 -37 -6 -38 -7 -77 104 c-98 131 -121 185 -158 362 -17 78 -30 145 -30
148 0 3 -19 16 -43 30 -56 33 -93 87 -122 179 -14 41 -29 72 -35 70 -29 -7
-50 12 -65 58 -9 27 -21 50 -27 52 -6 2 -34 1 -61 -2 -35 -5 -57 -14 -71 -31
-16 -18 -32 -24 -66 -26 -25 -1 -74 -3 -110 -4 -58 -3 -75 1 -155 37 -88 39
-90 41 -88 73 1 19 14 59 30 90 l29 56 56 -3 c87 -6 95 27 31 125 -38 56 -41
98 -10 117 14 9 28 5 71 -18 39 -21 60 -27 81 -22 23 6 26 10 20 34 -8 34 -29
50 -72 57 -18 3 -49 7 -68 10 -64 10 -73 30 -71 165 0 66 6 123 11 128 6 6 34
6 72 -1 85 -15 117 -1 108 46 -9 44 -68 169 -117 246 -50 80 -108 199 -108
224 0 10 -17 39 -39 63 -73 83 -141 244 -141 334 0 21 -10 44 -29 65 -16 19
-46 66 -67 105 -76 146 -238 258 -404 280 -140 19 -203 31 -232 46 -28 15 -78
73 -78 92 0 5 -21 17 -47 26 -25 9 -96 47 -157 86 -118 74 -170 96 -253 110
-43 7 -60 17 -95 54 -43 45 -98 70 -106 48 -2 -7 -12 -22 -22 -34 -15 -19 -30
-23 -96 -26 -44 -2 -83 -8 -88 -13 -6 -5 -1 -9 12 -9 13 0 25 -7 28 -15 8 -19
21 -22 134 -35 205 -23 300 -54 341 -111 l22 -32 -74 7 c-201 18 -252 19 -305
6 -53 -13 -58 -12 -107 12 -29 14 -99 70 -157 124 -132 122 -210 161 -280 137z
m913 -338 c32 -8 81 -27 110 -41 44 -23 49 -28 32 -34 -28 -10 -105 3 -205 35
-46 14 -110 28 -144 32 -43 4 -54 9 -41 14 34 13 188 10 248 -6z m612 -215
c38 -11 80 -20 92 -20 20 0 22 -5 21 -62 -1 -55 2 -64 26 -85 15 -13 33 -23
41 -23 23 0 45 30 45 63 l1 32 30 -35 c43 -51 72 -116 67 -150 -5 -33 7 -38
38 -15 22 17 54 20 54 5 0 -6 -6 -13 -14 -16 -11 -4 -6 -23 24 -87 21 -45 68
-163 105 -262 107 -287 156 -382 250 -484 l40 -44 -85 6 c-62 4 -117 16 -205
47 -178 61 -270 82 -356 82 -111 0 -151 -16 -231 -90 -59 -54 -118 -92 -143
-92 -3 0 -1 9 5 19 19 36 10 95 -25 176 -19 44 -35 81 -35 82 0 2 7 3 16 3 11
0 14 5 9 18 -3 9 -12 34 -18 55 -7 20 -15 37 -18 37 -4 0 -9 -27 -13 -60 -5
-40 -11 -60 -20 -60 -19 0 -26 23 -26 88 0 31 -7 70 -15 85 -13 25 -13 29 2
34 9 4 28 0 43 -9 21 -12 32 -13 48 -4 20 11 21 13 7 33 -15 21 -14 22 52 29
46 5 99 1 171 -10 126 -21 156 -31 148 -51 -3 -8 -8 -37 -12 -63 -7 -58 13
-90 46 -72 17 9 17 13 5 36 -12 24 -10 32 23 98 l37 72 28 -23 c34 -27 41 -28
61 -8 13 14 16 13 26 -4 14 -28 12 -50 -10 -98 -15 -34 -16 -43 -5 -43 22 0
53 48 64 101 14 65 14 244 0 310 -23 108 -208 250 -384 294 -173 44 -427 -16
-474 -112 -17 -35 -31 -43 -31 -18 0 27 -16 16 -87 -58 -143 -151 -210 -363
-180 -577 l7 -55 -24 29 c-13 16 -29 26 -34 22 -21 -13 -45 95 -49 220 -6 144
14 240 74 363 50 102 187 241 285 289 97 47 278 90 278 66 0 -3 -8 -22 -17
-41 -16 -34 -16 -36 2 -49 22 -17 77 -18 92 -3 7 7 6 22 -4 51 -11 34 -12 43
-1 49 22 14 80 10 153 -11z m159 -276 c47 -31 86 -62 86 -70 0 -21 -23 -17
-38 6 -15 25 -32 17 -32 -14 0 -30 -18 -46 -52 -46 -21 0 -28 5 -28 19 0 11
-3 28 -7 38 -6 16 -8 15 -13 -7 -5 -19 -12 -24 -29 -23 -25 3 -23 -2 21 -58
15 -20 28 -47 28 -59 0 -22 -1 -22 -18 -7 -25 23 -30 21 -34 -10 l-3 -27 -37
38 c-28 29 -38 35 -38 21 0 -12 -5 -16 -17 -12 -62 20 -66 20 -61 6 7 -20 73
-55 148 -78 36 -11 82 -32 103 -46 34 -24 39 -25 53 -11 24 25 34 19 34 -19 0
-25 -4 -33 -14 -29 -7 3 -16 -2 -19 -10 -9 -23 -22 -20 -35 9 -14 31 -34 32
-47 3 -14 -32 -53 -34 -95 -6 -42 28 -46 59 -10 68 l25 6 -22 12 c-32 18 -60
15 -66 -7 -7 -29 -66 -61 -110 -61 -21 0 -54 7 -74 15 -20 8 -37 14 -38 13
-41 -70 -72 -111 -95 -125 l-29 -19 30 -44 c24 -36 29 -52 24 -80 -3 -19 -6
-44 -8 -54 -1 -14 13 -28 51 -51 61 -35 72 -49 72 -88 0 -63 -54 -117 -119
-117 -24 0 -28 -3 -24 -20 12 -45 -35 -105 -51 -65 -3 8 -12 15 -19 15 -19 0
-10 91 9 103 17 10 -2 57 -23 57 -9 0 -13 14 -13 43 0 53 -17 116 -65 236 -24
61 -38 118 -42 164 -5 58 -8 67 -18 53 -10 -13 -14 -14 -18 -3 -6 17 1 28 35
49 32 21 46 57 27 69 -21 13 13 68 82 134 73 70 184 125 251 125 40 0 46 -3
41 -16 -5 -14 -1 -16 28 -10 21 4 55 0 85 -9 98 -30 152 -11 74 26 -38 18 -28
27 31 28 28 1 56 -12 123 -55z m-713 -934 c22 -13 26 -60 5 -60 -17 0 -58 54
-49 64 9 9 21 8 44 -4z m322 -26 c37 -29 56 -37 88 -37 l41 0 -4 -87 c-4 -97
-20 -133 -66 -152 -37 -16 -36 -16 -22 -33 8 -10 30 -15 60 -15 l48 0 6 53 c3
28 9 87 12 130 11 146 23 77 21 -123 -2 -199 -2 -201 -24 -207 -27 -6 -29 -16
-7 -34 11 -9 14 -23 11 -45 -4 -24 0 -37 13 -49 18 -16 40 -92 40 -135 0 -23
-36 -26 -109 -9 -61 14 -201 27 -201 18 0 -3 24 -17 53 -30 43 -19 70 -23 159
-23 l106 -1 6 -29 c3 -16 6 -46 6 -67 0 -39 0 -39 -41 -39 -22 0 -116 16 -207
36 -92 20 -194 39 -227 42 l-60 7 -5 38 -5 39 -42 -31 c-27 -20 -55 -31 -75
-31 l-33 0 0 65 c0 65 0 65 25 60 56 -12 256 -45 275 -45 46 0 -43 40 -135 61
-141 32 -139 29 -85 99 55 71 90 100 121 100 26 0 30 10 13 27 -18 18 -3 41
36 57 30 13 34 18 26 33 -5 10 -19 26 -30 35 -12 10 -21 22 -21 28 0 15 45 12
87 -5 40 -17 73 -20 73 -6 0 11 -39 26 -103 42 -34 8 -45 15 -38 22 17 17 13
35 -11 43 -42 13 5 22 60 11 45 -9 55 -9 69 5 26 27 9 49 -34 46 -54 -4 -53
18 7 86 27 31 50 64 50 72 0 23 24 16 73 -22z m470 -3 c48 -4 90 -11 93 -14
13 -13 -7 -38 -36 -43 -40 -9 -38 -21 7 -33 40 -11 40 -12 154 62 l56 36 21
-22 c12 -12 28 -40 37 -62 10 -22 26 -50 37 -62 l20 -22 -25 -25 c-15 -14 -35
-26 -47 -26 -33 0 -86 26 -104 51 -14 21 -17 22 -31 8 -13 -12 -14 -21 -5 -44
10 -25 7 -30 -25 -59 -20 -17 -42 -49 -50 -71 l-13 -40 -7 37 c-4 23 -1 56 9
91 20 70 21 67 -9 67 -13 0 -40 -13 -58 -30 -39 -34 -54 -36 -117 -12 -43 17
-45 19 -42 55 3 36 2 37 -28 37 -30 0 -32 2 -25 28 3 15 19 46 33 70 21 33 31
41 47 37 11 -3 59 -10 108 -14z m-63 -286 c19 -14 41 -23 51 -20 16 5 16 2 -2
-47 -11 -29 -31 -63 -45 -75 l-25 -22 36 -71 35 -70 49 0 c65 0 105 15 179 67
53 38 62 41 62 24 0 -11 3 -26 6 -35 5 -12 0 -16 -20 -16 -14 0 -26 -2 -26 -4
0 -2 13 -33 30 -68 16 -34 30 -68 30 -74 0 -7 -17 -11 -42 -11 -24 1 -57 -5
-75 -13 -30 -13 -33 -13 -65 19 -28 27 -39 32 -70 29 -34 -3 -38 -1 -38 19 0
21 -3 23 -38 17 -36 -6 -40 -4 -52 25 -7 19 -22 34 -37 37 -22 6 -24 11 -19
38 10 55 16 111 10 99 -3 -7 -12 -13 -20 -13 -19 0 -18 50 0 76 14 19 15 19
38 -3 54 -51 78 -11 33 55 -21 31 -32 62 -22 62 2 0 18 -11 37 -25z m313 -39
c-1 -27 -7 -54 -14 -60 -9 -8 -10 -6 -6 11 3 13 0 26 -5 30 -16 9 -40 -29 -34
-53 4 -14 0 -24 -10 -28 -33 -13 -44 -6 -44 24 0 67 50 134 95 128 17 -3 20
-10 18 -52z m-153 -125 c0 -40 -46 -63 -80 -41 -13 9 -11 14 13 35 34 30 67
33 67 6z m-1060 -256 c0 -28 -35 -65 -62 -65 -34 0 -21 32 27 68 37 27 35 27
35 -3z m895 -75 c29 -57 18 -68 -54 -54 -36 8 -40 27 -14 72 14 24 21 28 35
21 10 -5 25 -23 33 -39z m-315 -216 c77 -20 133 -27 207 -28 97 -1 103 -2 103
-22 0 -11 14 -33 30 -49 17 -16 30 -35 30 -42 0 -30 41 -11 72 32 34 48 49 58
41 25 -4 -14 0 -20 11 -20 28 0 96 32 96 45 0 21 25 24 76 9 26 -8 62 -14 81
-14 l34 0 -19 -27 c-11 -16 -31 -49 -45 -74 -37 -66 -48 -72 -135 -74 -42 -1
-120 -5 -173 -10 -101 -8 -174 -1 -163 16 3 6 -5 26 -18 44 -21 32 -27 35 -74
35 -67 0 -118 19 -204 74 -39 25 -89 55 -112 67 -31 16 -38 23 -27 30 24 15
80 10 189 -17z m-199 -39 c29 -25 87 -59 154 -88 58 -26 123 -58 143 -72 33
-22 37 -23 53 -9 11 10 25 13 39 9 50 -16 -10 -74 -85 -82 -37 -5 -52 -2 -76
16 l-29 22 -12 -26 c-6 -14 -17 -25 -25 -25 -7 0 -43 25 -80 56 -63 54 -129
91 -140 80 -3 -3 9 -13 27 -23 46 -26 90 -63 90 -77 0 -6 -20 -17 -45 -24 -64
-17 -85 -15 -85 6 0 24 -46 94 -109 165 -28 32 -58 72 -66 88 -15 27 -14 29 3
29 35 0 101 -28 170 -72 74 -48 122 -71 122 -60 -1 7 -66 52 -135 92 -52 30
-51 30 -37 39 26 16 78 -2 123 -44z m1001 -145 c15 -27 16 -32 3 -36 -32 -13
-64 19 -51 51 9 24 30 17 48 -15z m-1157 -54 c63 -89 167 -275 160 -286 -10
-16 -57 -12 -77 7 -26 23 -22 3 7 -37 14 -19 25 -42 25 -51 0 -14 6 -17 33
-12 26 4 40 -1 65 -22 38 -32 47 -61 66 -227 8 -70 17 -132 21 -138 12 -20 25
-10 25 20 0 47 18 35 22 -15 2 -37 0 -46 -18 -55 -43 -24 -69 -110 -48 -164
11 -28 43 -18 65 19 31 53 69 44 69 -16 0 -14 -14 -26 -47 -41 -27 -11 -55
-27 -63 -34 -14 -12 -18 -9 -34 17 -15 26 -23 30 -50 27 l-31 -3 0 140 c-1
239 -52 380 -281 781 -35 61 -64 114 -64 117 0 4 6 4 13 1 8 -3 25 4 38 15 38
32 55 26 104 -43z m-260 25 c64 -29 128 -109 194 -244 66 -137 87 -195 75
-207 -5 -4 -30 -3 -55 3 -45 11 -46 12 -99 116 -54 102 -129 216 -197 296 -30
35 -32 40 -16 47 30 11 56 9 98 -11z m1680 5 c18 -13 19 -16 4 -47 l-16 -33
57 -56 c65 -63 110 -144 140 -252 11 -40 20 -74 20 -75 0 -2 -9 -3 -20 -3 -28
0 -74 -50 -60 -64 8 -8 15 -6 26 8 14 19 14 19 38 -3 26 -25 41 -76 51 -180 7
-72 24 -112 56 -135 19 -13 20 -18 10 -47 -15 -42 -14 -47 7 -51 9 -2 -20 -18
-66 -37 -45 -18 -85 -37 -88 -42 -12 -19 -26 -8 -20 16 8 32 -15 86 -48 112
-35 28 -33 47 10 79 42 33 42 39 -12 208 -24 74 -34 125 -33 156 2 37 -3 54
-23 81 -47 63 -62 102 -64 173 -3 63 -5 70 -31 86 -31 19 -79 68 -72 74 2 2
20 13 39 25 41 24 69 27 95 7z m-1733 -123 c45 -47 96 -141 144 -265 l46 -118
73 0 72 0 45 -107 c25 -60 53 -132 62 -162 18 -60 21 -172 7 -200 -13 -23 30
-96 102 -176 l54 -60 42 38 c41 37 44 38 61 22 11 -10 20 -31 22 -49 l3 -31
17 26 c10 14 21 48 24 75 8 67 22 102 45 109 18 6 17 9 -11 38 -49 50 -78 116
-120 277 -22 82 -48 167 -60 189 -11 22 -20 43 -20 46 0 3 27 5 61 5 33 0 110
11 171 26 156 35 153 36 188 -66 39 -115 69 -187 71 -175 2 6 3 30 3 55 1 39
4 45 20 42 14 -3 9 8 -22 43 -41 46 -60 99 -48 130 5 13 21 16 93 13 49 -2
102 0 118 5 l30 7 24 -97 c12 -54 72 -247 132 -429 60 -182 109 -341 109 -352
0 -11 -7 -22 -15 -26 -24 -9 -18 -42 10 -54 55 -25 13 -122 -53 -122 -23 0
-32 -7 -46 -36 -39 -82 -102 -140 -169 -153 -25 -5 -33 -13 -38 -39 -9 -43
-37 -73 -102 -107 -107 -57 -158 -111 -74 -78 96 37 217 129 274 205 29 40 40
48 57 43 45 -13 50 -10 64 38 10 35 21 51 43 63 29 15 30 14 25 -3 -2 -10 -10
-37 -16 -60 -7 -27 -17 -44 -30 -48 -11 -4 -18 -11 -14 -16 8 -13 7 -141 -1
-178 -6 -28 -11 -31 -56 -37 -72 -10 -60 -24 21 -24 68 0 70 -1 70 -25 0 -14
-10 -64 -21 -110 -26 -101 -37 -109 -110 -70 -49 25 -52 25 -70 9 -10 -9 -19
-22 -19 -29 0 -7 -76 -17 -237 -29 -131 -10 -299 -26 -373 -35 -74 -10 -136
-17 -138 -16 -14 11 301 182 415 226 60 23 61 24 56 54 -3 16 -7 31 -8 33 -2
2 -28 -4 -59 -13 -44 -13 -57 -21 -62 -41 -7 -28 -30 -31 -57 -6 -19 16 -20
16 -36 -8 -39 -61 -98 -112 -165 -146 -71 -34 -190 -63 -269 -64 -34 0 -38 3
-35 22 2 14 12 24 27 28 14 3 26 11 29 19 3 9 -6 12 -33 9 -38 -3 -38 -3 -87
82 -127 221 -201 507 -158 615 19 50 47 59 52 18 2 -24 8 -29 36 -31 28 -3 39
3 73 40 21 24 39 46 39 50 0 17 -33 36 -75 43 -45 6 -47 7 -38 33 4 15 7 83 6
151 l-2 124 33 -37 c32 -34 77 -49 89 -28 3 4 -3 32 -13 62 -17 54 -18 55 -53
52 -41 -4 -33 -30 -67 218 -37 274 -82 402 -182 520 -51 60 -78 100 -78 115 0
9 51 -29 82 -62z m932 16 c-20 -34 -160 -57 -260 -44 l-59 8 35 15 c19 8 78
18 130 22 149 11 162 11 154 -1z m496 -12 c30 -8 68 -20 84 -29 l29 -15 -56
-21 c-107 -40 -253 -64 -397 -66 -74 0 -152 3 -172 7 l-38 8 0 -37 0 -37 98 7
c53 3 169 13 257 21 88 8 206 15 263 15 56 0 102 3 102 6 0 3 -5 14 -10 25
-10 17 -7 19 24 19 37 0 56 -19 70 -67 7 -20 3 -21 -91 -27 -413 -25 -674 -56
-996 -119 -19 -3 -87 140 -87 184 0 22 4 39 9 39 6 0 22 -34 38 -75 16 -44 33
-75 41 -75 8 0 32 10 53 22 39 22 58 53 63 104 3 25 8 29 37 32 19 2 122 21
229 42 107 21 209 41 225 43 66 9 173 6 225 -6z m-1638 -24 c22 -20 23 -43 2
-43 -20 0 -84 30 -84 39 0 26 55 28 82 4z m733 -3 c34 0 28 -21 -8 -33 -32
-10 -57 5 -57 35 0 15 3 17 19 8 11 -5 32 -10 46 -10z m-807 -35 c2 -2 -1 -12
-7 -23 -6 -11 -22 -75 -37 -143 -14 -68 -34 -144 -44 -171 -21 -57 -12 -71 46
-66 37 3 38 4 40 48 1 25 14 85 28 134 15 49 25 106 24 125 -4 43 18 52 56 24
32 -23 32 -33 1 -33 -28 0 -44 -25 -28 -41 7 -7 23 -7 49 0 29 8 41 8 50 -2
11 -13 80 -181 113 -279 20 -58 20 -58 0 -58 -12 0 -23 10 -29 28 -16 43 -26
57 -45 61 -16 3 -17 -4 -12 -80 3 -46 15 -113 26 -149 27 -86 28 -161 1 -185
-10 -9 -26 -15 -35 -12 -9 4 -15 1 -15 -8 0 -10 11 -15 35 -15 38 0 44 -10 19
-31 -10 -8 -13 -21 -9 -36 l6 -24 -30 22 c-16 12 -34 18 -41 14 -9 -6 -9 -2 0
15 16 29 6 53 -20 45 -17 -6 -19 -3 -14 23 4 20 1 34 -11 46 -16 15 -16 20 -1
63 11 31 16 82 16 152 0 67 6 126 16 163 16 54 16 61 1 75 -14 15 -18 10 -47
-50 -30 -63 -56 -87 -80 -72 -23 14 -40 -17 -40 -72 0 -36 -4 -55 -14 -59 -10
-4 -7 -17 14 -57 16 -29 36 -80 44 -114 16 -59 37 -224 30 -232 -10 -11 -77
47 -105 92 -92 149 -95 151 -156 107 -81 -59 -151 -85 -229 -85 -60 0 -76 4
-112 28 -47 31 -52 50 -20 84 23 25 48 30 48 10 0 -7 11 -29 25 -49 l25 -37
37 20 c21 10 64 27 96 36 33 10 60 23 60 28 3 19 -49 16 -97 -5 -55 -23 -86
-26 -86 -7 0 8 27 51 59 96 68 93 77 121 58 161 -14 26 -12 32 22 91 34 58 40
63 89 77 60 17 108 56 118 96 9 38 -1 43 -36 18 -27 -20 -60 -29 -60 -17 0 3
7 17 16 30 8 13 14 36 12 50 l-3 27 -36 -25 c-46 -31 -90 -47 -72 -26 6 8 16
34 23 58 11 41 13 43 42 37 28 -6 30 -4 24 19 -6 22 -1 28 30 42 33 16 38 16
64 1 31 -18 40 -15 40 14 0 17 5 19 33 13 17 -4 33 -9 35 -10z m341 -190 c15
-38 31 -86 35 -105 l6 -35 -39 41 c-39 41 -44 57 -65 184 l-6 35 20 -25 c11
-14 33 -56 49 -95z m19 -197 c7 -7 12 -20 12 -30 0 -10 9 -27 20 -38 25 -25
25 -30 0 -30 -13 0 -27 14 -40 40 -29 57 -25 91 8 58z m-748 -94 c0 -36 -10
-47 -34 -38 -17 6 -21 41 -10 82 6 22 8 22 25 6 11 -10 19 -31 19 -50z m-10
-73 c0 -4 -17 -20 -39 -34 -28 -19 -41 -23 -50 -14 -12 12 -15 40 -4 50 10 10
93 8 93 -2z m2304 -158 c23 -35 44 -104 60 -192 5 -29 4 -32 -9 -21 -37 31
-57 81 -89 223 -9 39 9 34 38 -10z m1213 16 c65 -25 74 -58 22 -84 -37 -20
-61 -19 -147 4 -68 18 -92 15 -77 -10 4 -6 -11 -26 -33 -44 -64 -55 -97 -166
-67 -224 9 -18 13 -36 10 -41 -11 -19 -43 -10 -49 13 -11 40 -5 151 12 221
l17 70 70 38 c114 62 185 79 242 57z m275 -46 c9 -10 23 -33 32 -51 10 -19 32
-39 54 -50 28 -13 38 -24 40 -45 2 -16 15 -36 33 -49 22 -16 29 -30 29 -55 0
-25 -4 -33 -17 -33 -36 0 -82 40 -115 98 -29 53 -36 59 -52 50 -14 -8 -26 -6
-48 7 -16 9 -36 14 -44 11 -9 -3 -14 1 -14 14 0 10 -5 22 -10 25 -22 14 4 25
58 26 49 0 53 2 32 10 -32 14 -118 17 -148 6 -23 -9 -23 -9 -7 22 15 30 17 31
89 31 57 0 76 -4 88 -17z m-1246 -149 c23 -51 39 -74 48 -71 17 7 46 -53 46
-96 0 -39 -14 -61 -53 -80 -25 -13 -32 -12 -77 12 -41 22 -48 30 -44 48 4 16
-2 32 -20 54 -35 42 -35 77 2 81 25 3 28 7 35 66 5 34 13 62 18 62 6 0 26 -34
45 -76z m1097 17 c19 -22 40 -49 47 -60 7 -13 21 -21 37 -21 35 0 108 -36 130
-64 10 -12 33 -33 50 -46 20 -14 29 -28 24 -34 -4 -6 -21 -45 -36 -86 -35 -92
-67 -138 -111 -156 -53 -22 -64 -19 -64 21 0 45 27 98 85 169 l45 55 -36 17
c-34 16 -37 16 -61 -3 -18 -13 -37 -49 -59 -108 -36 -97 -60 -125 -105 -125
-33 0 -33 1 -19 105 15 106 38 163 81 206 42 42 41 44 -23 52 l-37 6 -26 -67
c-14 -37 -33 -104 -42 -149 -17 -80 -18 -83 -46 -83 -38 0 -77 40 -77 79 0 38
36 135 55 151 23 19 18 30 -15 30 -38 0 -54 -25 -75 -117 -16 -72 -45 -123
-70 -123 -21 0 -40 61 -38 128 2 75 41 169 91 219 29 28 35 31 64 22 48 -13
110 -10 132 6 33 25 61 18 99 -24z m-3035 -83 c46 -37 49 -43 25 -52 -12 -5
-27 4 -50 31 -53 62 -40 73 25 21z m-316 -3 c25 -9 60 -31 78 -50 39 -41 38
-42 -21 -16 -24 11 -86 30 -137 43 -51 14 -89 27 -86 31 13 13 120 7 166 -8z
m-49 -74 c30 -12 34 -33 12 -71 -8 -14 -14 -35 -15 -47 0 -12 -8 -24 -20 -28
-18 -6 -97 11 -113 25 -4 4 1 26 12 50 13 30 17 49 11 61 -5 9 -6 20 -2 24 8
8 78 0 115 -14z m-163 -43 c0 -4 -9 -8 -20 -8 -23 0 -26 -10 -8 -28 9 -9 7
-13 -6 -18 -10 -4 -22 -2 -29 5 -6 6 -19 11 -29 11 -15 0 -16 4 -7 23 8 18 19
22 54 23 25 0 45 -3 45 -8z m2372 -108 c3 -28 13 -59 22 -69 19 -21 7 -37 -34
-43 -24 -3 -25 0 -36 72 -13 85 -5 116 25 100 13 -6 20 -25 23 -60z m1642 -22
c6 -57 -1 -71 -23 -44 -7 8 -9 35 -4 76 7 71 16 60 27 -32z m-929 15 c3 -27 8
-58 11 -70 6 -29 -13 -30 -43 -1 -26 25 -30 60 -8 78 8 7 15 19 15 26 0 8 4
14 9 14 6 0 13 -21 16 -47z m-3006 -8 c35 -10 42 -14 28 -20 -19 -8 -147 25
-147 38 0 9 44 2 119 -18z m-84 -56 c20 -19 19 -19 -25 -13 -31 4 -68 -1 -120
-15 -83 -23 -100 -25 -100 -12 0 6 20 13 45 17 36 5 43 9 35 20 -9 10 -3 14
27 19 21 4 45 8 53 10 27 6 64 -6 85 -26z m229 -71 c62 -13 111 -28 113 -36 3
-7 -6 -30 -21 -52 -26 -39 -26 -40 -9 -75 14 -29 22 -36 40 -32 39 7 25 -11
-17 -24 -22 -7 -40 -16 -40 -20 0 -4 13 -16 30 -25 39 -24 46 -44 16 -44 -14
0 -27 -6 -29 -12 -4 -9 -15 -3 -32 17 -15 17 -38 43 -52 58 -24 26 -24 29 -9
46 15 17 14 18 -9 29 -14 7 -33 12 -42 12 -15 0 -15 -2 0 -18 21 -23 21 -32 2
-32 -7 0 -18 -6 -22 -14 -7 -13 -16 -12 -63 4 -92 32 -165 23 -222 -28 -26
-22 -22 -39 12 -57 35 -18 48 -19 32 -3 -17 17 -15 35 8 58 25 25 50 26 50 1
0 -11 4 -22 10 -26 15 -10 0 -33 -28 -43 -23 -8 -17 -10 43 -16 228 -20 308
-49 263 -94 -19 -19 -64 -14 -116 12 -77 38 -116 48 -146 36 l-27 -10 19 -28
c23 -31 39 -48 148 -154 44 -43 90 -96 103 -118 21 -37 21 -40 4 -40 -10 0
-47 23 -82 50 -51 40 -72 50 -102 50 -46 0 -55 -11 -29 -35 21 -19 26 -50 10
-60 -5 -3 13 -27 40 -54 35 -33 50 -55 50 -74 0 -15 9 -32 22 -41 20 -14 28
-12 117 36 l96 50 -87 -83 c-121 -116 -138 -166 -91 -264 14 -29 14 -34 -2
-58 -16 -25 -18 -26 -46 -12 -34 18 -43 34 -69 118 -24 77 -55 109 -107 111
l-38 1 -3 -50 c-2 -27 -7 -54 -12 -60 -6 -7 9 -23 42 -45 69 -47 78 -57 78
-86 0 -35 24 -78 86 -156 l53 -66 -52 -40 c-50 -38 -89 -62 -101 -62 -16 0 -3
31 20 47 14 10 34 26 45 36 22 20 26 67 5 67 -28 0 -44 -11 -40 -28 3 -9 -5
-32 -16 -49 -16 -27 -26 -33 -55 -33 -46 0 -88 -39 -83 -77 4 -38 -20 -50 -72
-34 -35 10 -41 16 -37 33 3 11 3 27 0 35 -4 11 -8 9 -17 -8 -19 -40 -136 -88
-136 -56 0 25 40 77 60 77 24 0 26 9 4 25 -9 6 -20 33 -24 58 -7 46 -7 47 24
52 118 20 206 31 211 27 3 -3 5 -19 5 -35 0 -22 4 -28 16 -23 9 3 27 6 40 6
29 0 32 26 7 77 -20 44 -55 65 -158 99 -85 28 -145 59 -145 75 0 6 5 7 10 4 6
-3 19 -3 31 0 18 6 19 12 13 52 -6 43 -6 45 14 34 30 -16 34 -14 20 9 -11 18
-10 23 12 41 l25 20 -32 -6 c-20 -4 -34 -2 -39 6 -11 18 26 40 61 37 27 -3 30
0 35 32 4 25 10 35 23 34 27 -3 20 25 -10 37 -23 9 -31 6 -63 -26 -20 -19 -41
-35 -48 -35 -16 0 -16 37 1 44 8 3 6 9 -7 20 -26 21 -12 33 19 16 14 -7 27
-11 31 -8 4 5 -24 28 -64 53 -1 1 5 16 14 34 10 21 14 45 11 67 -3 19 -1 36 5
40 16 10 37 -23 30 -49 l-5 -22 26 24 c30 27 46 22 40 -13 -11 -58 35 -128 95
-146 38 -10 41 -1 7 30 -29 28 -32 48 -7 66 13 9 17 27 17 70 0 49 3 58 22 65
12 4 25 20 29 35 6 22 3 31 -14 42 -16 11 -22 25 -22 52 0 46 -19 64 -58 56
-26 -6 -31 -2 -69 57 -44 70 -88 108 -145 127 -21 6 -38 13 -38 15 0 2 5 16
10 31 8 21 7 31 -6 45 -11 12 -13 19 -5 19 6 0 15 10 20 21 7 20 10 17 39 -30
18 -28 35 -51 40 -51 10 0 171 131 206 168 l29 31 -34 20 c-19 12 -43 21 -53
21 -33 0 -11 11 41 20 67 12 178 4 307 -22z m-397 -40 c17 -22 25 -68 11 -68
-20 0 -48 32 -48 57 0 25 21 31 37 11z m3498 -67 c29 -12 29 -13 10 -27 -10
-8 -27 -14 -36 -14 -48 0 -109 45 -109 79 0 19 2 19 53 -3 28 -13 65 -28 82
-35z m-404 -98 c40 -70 55 -77 153 -69 45 4 118 9 162 13 l82 6 7 -179 c4 -99
5 -480 3 -847 l-6 -669 -31 -28 c-36 -33 -35 -30 -15 -95 24 -77 28 -246 14
-499 -13 -230 -13 -231 9 -281 15 -35 25 -87 33 -175 10 -108 9 -162 -11 -405
-17 -222 -21 -341 -19 -575 2 -274 1 -304 -21 -420 -26 -139 -25 -267 1 -331
14 -32 14 -38 -1 -65 -13 -23 -16 -59 -16 -174 0 -80 -3 -150 -7 -156 -4 -6
-46 -21 -92 -34 -84 -22 -86 -23 -79 -49 13 -46 9 -432 -5 -531 -34 -237 -102
-468 -197 -668 -45 -93 -53 -117 -44 -134 14 -26 77 -53 159 -69 36 -6 68 -14
72 -18 4 -3 -13 -75 -37 -159 -24 -84 -47 -168 -50 -186 -6 -30 -11 -34 -88
-59 -45 -15 -95 -27 -112 -27 -28 -1 -29 -2 -12 -15 17 -13 15 -15 -35 -30
-41 -13 -102 -18 -263 -21 -115 -2 -199 0 -185 4 14 4 25 14 25 22 0 16 -59
20 -135 10 -33 -5 -34 -4 -34 27 l1 32 -43 -6 c-31 -4 -50 -1 -68 11 -27 17
-73 21 -94 7 -10 -6 -4 -15 22 -37 100 -83 116 -89 116 -49 0 30 15 31 55 5
17 -11 43 -20 59 -20 24 0 27 -2 16 -15 -7 -8 -20 -15 -29 -15 -9 0 -22 -5
-28 -11 -9 -9 -46 -8 -144 2 -116 12 -129 15 -104 25 28 11 28 11 -26 24 -85
20 -117 38 -129 74 -12 36 -2 79 30 133 l21 35 -22 86 c-17 71 -20 105 -16
187 3 55 12 124 21 153 14 44 20 52 42 52 13 0 37 8 52 17 15 9 28 17 29 18 1
1 -1 24 -6 53 -11 74 2 140 49 243 l42 89 -22 45 -22 45 63 223 c126 450 149
571 149 783 0 163 0 162 90 300 63 96 69 128 41 208 -31 90 -29 102 20 109 50
7 87 39 135 119 40 65 86 108 116 108 l21 0 -7 -597 c-7 -618 -21 -1220 -32
-1425 -5 -85 -10 -118 -19 -118 -9 0 -8 -9 5 -35 9 -19 15 -45 13 -58 -4 -21
-12 -25 -61 -30 -31 -3 -130 -4 -221 -1 -181 5 -286 -8 -286 -36 0 -22 39 -24
97 -4 45 15 77 16 233 10 99 -3 193 -9 209 -13 l29 -6 -6 -96 c-4 -53 -18
-161 -32 -241 -14 -80 -28 -198 -32 -262 l-6 -117 28 -11 c16 -6 69 -9 119 -8
l91 3 11 96 c6 53 14 101 17 106 4 6 -5 36 -19 67 -28 62 -42 191 -30 287 7
54 8 55 36 51 17 -2 37 -1 46 2 25 9 -2 36 -36 36 -37 0 -52 20 -44 60 7 31 9
32 43 27 20 -3 46 -9 59 -13 26 -8 29 7 5 31 -12 13 -26 15 -60 10 l-43 -6 0
65 c0 63 1 66 24 66 14 0 47 -5 75 -12 56 -13 77 -4 46 19 -14 10 -33 13 -61
9 -22 -3 -50 -3 -61 0 -27 7 -36 52 -17 81 13 21 22 23 109 23 95 0 115 8 73
31 -19 10 -106 8 -159 -3 -11 -2 -15 14 -17 75 l-3 77 91 0 c58 0 89 4 85 10
-3 6 -44 10 -91 10 l-85 0 3 63 3 62 123 -4 c77 -2 122 1 122 7 0 17 -69 24
-158 16 l-85 -7 7 79 c15 172 25 515 26 824 0 324 13 686 29 833 8 72 13 84
70 169 34 50 60 97 57 105 -3 7 -28 29 -56 49 -51 37 -64 60 -58 110 3 28 12
35 83 67 28 12 30 16 27 62 -1 28 5 104 14 171 9 67 14 133 10 147 -3 14 -24
47 -46 72 l-40 46 18 32 c15 28 17 62 17 242 1 224 7 257 54 304 21 21 21 24
7 79 -26 101 -37 213 -27 275 6 31 13 62 16 67 11 17 58 11 115 -16 30 -14 67
-30 83 -34 l27 -9 0 155 c0 180 -1 180 -89 113 -43 -32 -61 -39 -89 -37 l-35
3 2 185 c2 166 13 309 26 330 8 13 -27 71 -48 79 -28 10 -4 25 28 17 18 -5 25
-1 30 14 9 28 -3 58 -41 109 -42 55 -43 85 -3 140 52 70 43 99 -49 158 -29 19
-50 38 -47 43 4 6 36 10 73 10 91 0 103 9 78 55 -24 44 -78 94 -142 131 -27
15 -50 28 -52 30 -2 1 6 36 17 79 19 70 29 137 46 298 7 57 7 58 26 41 11 -10
33 -42 50 -71z m-2191 -111 c29 -64 70 -154 91 -199 21 -46 33 -83 27 -83 -23
0 -77 42 -101 79 -31 46 -62 140 -77 231 -6 36 -13 79 -16 95 -5 28 -4 29 10
12 8 -10 38 -71 66 -135z m2692 -227 c-2 -11 -7 -170 -11 -352 -4 -183 -10
-336 -14 -339 -4 -4 -10 2 -14 12 -10 25 -10 459 1 597 7 93 10 108 24 105 10
-2 16 -11 14 -23z m-3736 -36 c-8 -56 -38 -144 -60 -174 -14 -19 -15 -19 -26
6 -9 21 -9 35 4 73 9 26 16 69 16 96 l0 50 36 0 37 0 -7 -51z m723 -13 c25
-25 31 -39 26 -55 -3 -12 -9 -21 -13 -21 -9 0 -47 60 -56 88 -10 31 5 27 43
-12z m2181 -20 c0 -2 -15 -14 -34 -25 -50 -32 -113 -26 -73 7 15 13 107 28
107 18z m-580 -69 c122 9 144 6 147 -21 2 -25 -28 -50 -40 -33 -6 9 -10 9 -14
0 -7 -18 -69 -16 -132 3 -57 17 -132 21 -171 10 -16 -5 -20 -4 -12 2 7 5 10
16 6 25 -4 13 -1 17 14 17 12 0 23 4 26 9 4 5 19 3 37 -6 25 -12 49 -14 139
-6z m395 3 c12 -4 27 -15 34 -24 12 -14 11 -19 -5 -31 -10 -8 -24 -15 -30 -15
-21 0 -53 34 -60 64 -7 30 -5 30 61 6z m-645 -10 c0 -5 -15 -17 -32 -27 -25
-12 -55 -16 -123 -15 -116 2 -162 -5 -184 -30 -17 -18 -24 -18 -80 -8 -51 9
-95 7 -251 -10 -160 -18 -199 -19 -250 -9 -33 6 -60 15 -60 18 0 4 28 18 63
30 59 23 80 24 437 32 206 4 393 12 415 17 55 13 65 13 65 2z m-2127 -180 c-1
-14 -3 -38 -4 -53 -3 -47 -24 -23 -27 32 -3 46 -1 52 15 49 12 -2 17 -11 16
-28z m2806 -81 c9 -52 10 -74 2 -82 -8 -8 -11 -7 -11 4 0 9 -11 25 -25 37 -27
23 -31 46 -15 86 17 46 35 30 49 -45z m-1081 -2 c19 -84 18 -87 -30 -87 -25 1
-67 12 -100 28 l-57 28 36 29 c54 44 75 54 108 55 29 0 31 -3 43 -53z m265 -9
c22 -44 14 -83 -20 -105 -13 -9 -26 -14 -28 -11 -3 3 0 31 6 63 6 32 8 67 6
77 -9 32 16 15 36 -24z m151 20 c47 -10 48 -11 43 -43 -5 -28 -2 -34 20 -44
19 -9 29 -9 39 0 16 13 19 59 3 59 -5 0 -7 5 -4 10 4 7 13 6 26 -1 11 -5 29
-7 39 -4 22 7 25 2 35 -57 4 -28 2 -38 -8 -38 -7 0 -28 -16 -47 -35 -19 -19
-40 -35 -48 -35 -7 0 -12 -6 -9 -12 3 -9 21 -12 55 -10 28 2 53 -1 57 -8 9
-14 -55 -40 -99 -40 -28 0 -33 3 -29 19 2 10 -3 26 -13 35 -14 15 -15 19 -3
27 8 5 20 9 27 9 24 0 11 21 -23 36 -51 21 -68 18 -102 -21 -17 -19 -39 -35
-48 -35 -15 0 -17 7 -11 48 3 26 9 73 13 105 5 48 9 57 22 52 9 -4 38 -11 65
-17z m-744 -6 c0 -31 -35 -55 -69 -49 -26 5 -32 2 -51 -30 -17 -29 -23 -34
-31 -22 -24 39 12 89 79 107 57 15 72 14 72 -6z m500 -73 c0 -57 -25 -126 -50
-139 -16 -8 -20 -5 -25 21 l-7 31 -53 -7 c-70 -8 -81 9 -21 35 33 14 46 25 46
40 0 25 16 25 58 0 37 -23 37 -22 16 24 -11 22 -14 44 -10 62 l8 29 19 -24
c13 -16 19 -39 19 -72z m814 72 c23 -25 19 -104 -6 -109 -24 -5 -35 26 -30 81
4 52 10 56 36 28z m-1542 -61 l33 -29 -57 -1 c-58 0 -58 0 -58 30 0 25 4 30
25 30 14 0 39 -13 57 -30z m1430 -41 c1 -32 1 -59 -2 -59 -17 0 -49 34 -54 57
-4 16 -9 35 -12 44 -3 11 4 15 30 16 l34 1 4 -59z m1296 -113 c2 -123 -8 -191
-23 -153 -4 9 -13 17 -21 17 -8 0 -14 5 -14 10 0 6 5 10 12 10 6 0 3 9 -7 20
-18 20 -17 20 8 20 31 0 31 0 15 37 -6 15 -10 33 -8 38 2 6 4 31 4 57 1 43 -1
48 -21 48 -13 0 -23 5 -23 10 0 6 17 10 38 10 l38 0 2 -124z m-1179 54 c13 -1
13 -3 -3 -15 -25 -19 -86 -20 -86 -2 0 22 13 29 44 23 16 -3 36 -6 45 -6z
m-549 -69 c0 -32 -24 -43 -77 -35 -63 9 -68 12 -47 35 13 14 31 19 71 19 45 0
53 -3 53 -19z m-1025 -27 c36 -9 65 -19 65 -23 0 -3 -7 -15 -15 -25 -18 -23
-21 -81 -4 -70 6 4 54 6 106 5 97 -1 126 7 154 42 16 20 16 20 47 -3 23 -17
40 -21 71 -18 23 2 41 3 41 2 0 0 -7 -15 -15 -32 -14 -28 -14 -34 0 -68 8 -20
15 -39 15 -42 0 -16 -309 27 -434 60 l-49 13 -19 69 c-10 38 -23 77 -29 87
-12 23 -14 23 66 3z m1249 -34 c12 0 14 -7 10 -29 -4 -17 -1 -53 6 -81 9 -38
21 -58 52 -84 33 -28 38 -38 30 -53 -6 -10 -22 -25 -36 -33 -14 -7 -26 -17
-26 -21 0 -12 100 16 205 58 96 39 183 63 227 63 20 0 20 -4 14 -70 -5 -45 -3
-77 4 -90 14 -27 -1 -40 -80 -71 -114 -44 -209 -38 -269 17 -33 29 -40 32 -45
18 -6 -16 1 -31 45 -86 12 -14 19 -32 15 -40 -4 -7 -13 -24 -21 -38 -30 -52
-10 -196 36 -254 27 -34 44 -33 59 3 6 16 19 33 28 37 10 4 72 8 140 8 135 2
131 4 110 -66 -9 -31 -9 -44 1 -60 10 -17 10 -23 -5 -39 -9 -10 -17 -32 -18
-49 -1 -27 -4 -30 -32 -30 -17 0 -53 -7 -80 -15 -69 -21 -100 -19 -118 7 l-15
21 -12 -26 c-15 -34 -22 -34 -49 1 -19 23 -21 36 -17 92 3 36 8 73 12 84 6 13
4 17 -5 14 -18 -6 -27 -24 -40 -76 -8 -31 -15 -42 -26 -38 -12 4 -14 -12 -14
-97 0 -62 -4 -96 -9 -87 -20 35 -32 139 -41 351 -7 168 -18 284 -45 464 -20
132 -38 263 -41 290 l-5 50 19 -22 c11 -13 27 -23 36 -23z m170 -5 c27 -16 50
-23 62 -19 15 6 17 4 7 -6 -6 -7 -35 -15 -62 -18 -55 -5 -67 -23 -31 -42 16
-8 36 -8 76 1 52 12 56 11 76 -9 21 -20 21 -22 5 -40 -9 -10 -17 -24 -17 -30
0 -8 -30 -12 -99 -12 -124 0 -144 12 -143 83 1 49 11 74 38 101 21 22 38 20
88 -9z m-509 -70 c32 -17 61 -35 63 -42 2 -6 -11 -24 -27 -39 -18 -16 -31 -37
-31 -51 0 -26 -8 -27 -147 -16 l-83 6 0 69 c0 56 -3 70 -17 75 -35 13 39 33
112 30 54 -2 83 -9 130 -32z m818 -36 c-5 -19 -48 -48 -57 -38 -3 2 2 26 11
53 16 49 16 49 34 28 10 -13 15 -31 12 -43z m-2894 -1 c-13 -24 -38 -47 -51
-48 -5 0 -8 16 -8 35 0 33 2 35 35 35 34 0 35 -1 24 -22z m1256 -87 c77 -17
183 -37 235 -45 52 -9 110 -19 128 -22 44 -7 44 -35 0 -32 -27 3 -34 -1 -42
-24 -8 -22 -5 -37 13 -75 12 -27 23 -57 25 -68 2 -16 12 -21 52 -23 28 -2 57
-11 67 -20 32 -29 48 7 46 101 l-2 78 -36 -6 c-29 -5 -41 -2 -55 14 -17 18
-17 19 1 25 10 3 52 4 93 1 90 -5 92 -9 56 -101 -31 -76 -32 -94 -8 -125 19
-22 20 -22 68 -6 62 20 78 6 28 -25 -35 -23 -40 -23 -88 -11 -28 7 -121 18
-206 23 -165 10 -234 25 -289 63 -33 22 -37 23 -62 8 -25 -14 -32 -13 -115 18
-49 18 -95 34 -101 36 -17 6 -16 54 2 144 9 40 13 82 10 92 -6 17 -3 19 17 14
13 -3 86 -18 163 -34z m-1240 9 c3 -6 3 -31 -1 -56 -6 -39 -9 -45 -26 -40 -11
2 -28 0 -38 -6 -20 -13 -54 -3 -45 12 4 6 23 18 43 28 28 13 38 24 40 45 3 27
16 35 27 17z m2146 -152 c10 -25 10 -48 1 -113 -7 -46 -9 -90 -6 -99 3 -9 2
-16 -4 -16 -17 0 -33 61 -38 145 -3 44 -6 97 -8 118 l-4 39 23 -22 c13 -12 29
-36 36 -52z m-1526 39 c26 -22 26 -24 13 -65 -7 -23 -15 -42 -18 -42 -3 0 -24
18 -45 40 -21 22 -45 40 -52 40 -20 0 -15 17 9 34 31 22 62 20 93 -7z m1370
-33 c13 -17 31 -26 48 -26 l27 0 0 -110 c0 -108 0 -109 -21 -97 -12 6 -26 24
-32 40 -6 16 -19 32 -29 35 -27 8 -22 22 12 29 38 8 47 23 27 42 -12 13 -21
14 -48 4 -17 -6 -36 -11 -40 -11 -5 0 -9 27 -9 60 0 55 2 60 22 60 12 0 32
-12 43 -26z m995 -124 c0 -22 -4 -40 -10 -40 -5 0 -10 5 -10 10 0 6 -10 20
-21 31 -17 17 -19 23 -8 30 33 21 49 10 49 -31z m786 -32 c8 -66 -3 -140 -17
-117 -12 19 -12 196 1 183 5 -5 12 -35 16 -66z m-870 -48 c0 -47 2 -94 5 -104
6 -28 -47 -56 -112 -59 l-54 -2 -5 88 -5 87 -57 -64 c-32 -36 -58 -69 -58 -75
0 -5 10 -11 22 -13 13 -2 24 -11 26 -20 3 -15 -5 -18 -52 -18 l-55 0 -7 36
c-9 49 1 99 27 135 39 56 171 100 284 96 l40 -2 1 -85z m-2860 34 c-12 -30 75
-32 192 -4 106 25 105 26 87 -10 -17 -32 -13 -50 11 -50 22 0 16 -17 -8 -24
-13 -3 -81 -3 -151 1 l-128 6 -25 48 c-31 62 -31 72 1 57 14 -6 24 -17 21 -24z
m1184 -23 c47 -11 145 -29 218 -42 l132 -22 -19 -21 c-11 -12 -25 -42 -30 -69
-10 -44 -9 -50 16 -88 14 -22 38 -46 52 -54 25 -14 24 -14 -27 -15 -60 0 -112
22 -112 48 -1 15 -2 15 -15 -2 -8 -10 -16 -23 -17 -28 -2 -5 -25 1 -51 12 -34
15 -338 99 -364 100 -3 0 7 171 13 207 l5 32 57 -20 c31 -11 95 -28 142 -38z
m2687 -54 c1 -65 -10 -78 -53 -58 -32 14 -40 37 -27 72 7 16 7 29 2 29 -5 0
-9 5 -9 11 0 6 17 9 43 7 l42 -3 2 -58z m-2942 -17 c10 -44 -24 -94 -38 -57
-7 18 15 97 24 91 4 -2 10 -17 14 -34z m2019 24 c3 -8 3 -33 0 -55 -8 -50 -34
-54 -34 -4 0 20 -5 35 -12 35 -6 0 -3 9 8 19 24 24 30 25 38 5z m-1025 -50
l93 -7 -7 -46 c-4 -25 -11 -68 -15 -96 l-6 -50 -17 40 c-29 69 -52 109 -64
112 -20 7 -51 -33 -58 -76 -8 -49 3 -67 48 -77 32 -7 32 -7 7 -15 -40 -11
-290 -11 -290 1 0 6 12 28 26 50 19 28 24 47 20 65 -6 23 -4 25 25 25 34 0 89
46 89 75 0 14 6 16 28 11 15 -3 69 -9 121 -12z m-1651 -35 c17 -6 34 -19 37
-29 14 -43 87 -141 124 -166 36 -23 41 -31 41 -64 0 -20 7 -59 15 -86 19 -62
19 -88 0 -104 -19 -16 -10 -30 20 -30 23 0 42 -16 32 -26 -3 -3 -30 0 -60 7
-43 10 -53 16 -50 30 6 21 -22 81 -47 104 -18 16 -21 16 -44 1 -43 -28 -49
-53 -57 -239 -7 -152 -11 -185 -29 -223 -21 -43 -34 -51 -56 -36 -23 15 -32
50 -39 147 -9 118 -16 141 -51 157 -55 25 -60 -46 -9 -136 41 -74 49 -146 16
-146 -51 0 -74 32 -86 119 -7 48 -13 60 -59 104 -56 54 -69 47 -40 -20 31 -71
45 -125 31 -120 -24 8 -68 95 -83 167 -27 126 -3 420 33 420 9 0 13 -6 9 -15
-3 -8 -2 -15 2 -15 17 1 36 21 86 91 68 96 102 119 176 119 31 0 71 -5 88 -11z
m1802 -84 c12 -75 -3 -204 -46 -398 -29 -130 -38 -193 -43 -317 -6 -136 -10
-161 -31 -205 l-25 -50 -6 105 c-11 187 -10 271 4 269 41 -5 44 0 39 54 -2 28
-10 61 -17 72 -10 16 -9 24 6 45 33 44 50 189 29 244 -6 17 -6 27 2 32 21 13
48 93 54 163 8 82 19 77 34 -14z m1797 34 c22 -8 24 -12 13 -19 -20 -13 -77
-13 -85 0 -17 28 22 38 72 19z m-2747 -91 c84 -30 238 -68 303 -75 36 -4 56
-10 53 -17 -49 -115 -20 -186 89 -219 l50 -16 -60 0 c-67 -1 -125 22 -139 54
-9 21 -9 21 -55 -3 -65 -34 -153 -26 -303 25 l-113 40 -3 110 c-1 60 2 122 7
136 l10 27 53 -21 c29 -12 78 -30 108 -41z m2581 -59 c10 -101 10 -389 0 -389
-9 0 -14 64 -27 334 -5 104 -3 127 8 124 8 -3 15 -29 19 -69z m182 57 c9 -22
-21 -56 -50 -56 -20 0 -24 4 -18 18 4 9 10 25 12 35 6 20 48 23 56 3z m-933
-85 c0 -23 -39 -73 -51 -66 -5 4 -9 24 -9 46 0 37 2 39 30 39 23 0 30 -5 30
-19z m-1072 -34 c31 -33 52 -90 52 -142 0 -78 -5 -81 -138 -77 -65 2 -121 8
-126 13 -6 5 5 9 27 9 41 0 46 13 23 58 -24 47 -51 65 -91 60 -38 -4 -40 -1
-24 35 20 43 80 64 190 66 56 1 69 -2 87 -22z m2002 -54 c0 -47 -9 -83 -21
-83 -5 0 -9 9 -9 21 0 12 -8 23 -20 26 -25 7 -25 14 1 47 30 38 49 34 49 -11z
m-1373 -31 c12 -28 13 -59 8 -146 -6 -94 -4 -118 11 -155 16 -40 16 -44 1 -53
-51 -28 -63 -144 -23 -221 22 -45 22 -47 5 -63 -48 -44 -51 -171 -5 -211 l26
-22 -36 -57 c-54 -84 -74 -134 -74 -187 0 -41 3 -48 18 -45 12 2 18 16 22 53
l5 50 8 -63 c10 -79 15 -92 36 -92 14 -1 14 -2 -2 -11 -13 -7 -27 -7 -49 0
-17 6 -45 11 -61 11 l-30 0 6 218 c4 119 13 282 22 362 33 323 79 678 88 673
5 -3 16 -21 24 -41z m361 -71 c3 -27 0 -33 -12 -28 -9 4 -23 4 -32 0 -13 -5
-12 -8 5 -27 27 -29 38 -114 18 -141 -12 -16 -30 -20 -90 -23 -87 -5 -207 12
-219 30 -15 23 -1 97 26 138 28 43 68 60 98 41 11 -7 18 -7 18 -1 0 6 15 19
33 30 24 16 46 20 92 18 l60 -3 3 -34z m942 -17 c0 -7 -9 -18 -20 -24 -11 -6
-20 -18 -20 -27 0 -9 -3 -14 -6 -10 -3 3 -3 29 1 57 7 50 8 51 26 34 10 -9 19
-23 19 -30z m-2795 1 c28 -8 124 -24 215 -35 91 -12 184 -26 207 -32 l41 -10
-19 -31 c-14 -24 -19 -51 -19 -104 0 -39 4 -74 8 -77 5 -3 24 3 43 12 35 17
41 30 69 140 l11 43 87 -2 c48 -2 106 0 128 5 l42 7 23 -73 c22 -71 28 -139
16 -172 -13 -32 -252 -14 -707 53 -113 17 -211 31 -219 31 -11 0 -9 5 5 21 18
20 18 23 -4 127 -27 131 -27 126 1 118 12 -4 45 -14 72 -21z m-637 -87 c15
-15 15 -71 1 -140 -13 -62 -19 -71 -43 -62 -30 11 -36 47 -20 114 22 94 36
114 62 88z m3502 -51 l0 -63 -45 -32 c-25 -17 -45 -36 -45 -42 0 -5 -4 -10
-10 -10 -16 0 -22 67 -11 121 15 66 34 89 78 89 l33 0 0 -63z m-4025 -97 c20
-43 11 -68 -19 -57 -12 5 -16 20 -16 57 0 58 9 58 35 0z m2961 -94 c1 -63 -2
-83 -11 -80 -21 9 -46 -25 -35 -46 9 -17 5 -19 -32 -24 -24 -3 -69 -7 -101 -9
-53 -3 -58 -2 -63 19 -4 15 -11 20 -23 17 -15 -4 -20 7 -31 66 -15 80 -10 93
44 111 26 8 144 23 231 29 18 1 20 -6 21 -83z m-1951 -13 c-4 -43 -9 -80 -11
-82 -7 -7 -24 50 -24 79 0 16 5 41 12 55 21 47 30 27 23 -52z m3025 4 c0 -10
6 -33 14 -52 18 -42 11 -47 -56 -47 -66 0 -85 17 -69 64 6 18 28 50 49 71 l37
38 12 -28 c7 -15 12 -36 13 -46z m-2770 24 c132 -1 177 -11 212 -46 21 -20 27
-23 37 -12 6 8 23 12 41 9 33 -5 32 0 14 -102 -2 -14 0 -41 6 -59 7 -26 7 -37
-3 -43 -21 -13 -164 -9 -243 8 -75 15 -243 70 -255 82 -4 4 -9 46 -11 93 l-4
85 45 -7 c25 -4 98 -8 161 -8z m2600 -80 c0 -69 -21 -106 -35 -61 -11 33 5
109 21 103 8 -3 14 -20 14 -42z m-1898 -1 c21 -6 40 -15 43 -20 3 -5 3 -45 -1
-89 l-7 -81 -194 0 -194 0 28 24 c27 23 28 28 26 100 l-2 76 132 0 c73 0 149
-5 169 -10z m-797 -160 c40 -13 82 -35 97 -51 l28 -27 6 24 c3 13 8 24 10 24
2 0 62 -10 132 -22 97 -17 169 -22 306 -22 l179 -1 24 -50 c25 -54 30 -127 11
-142 -20 -16 -78 -24 -78 -12 0 6 9 22 20 36 17 22 18 28 6 56 -11 28 -18 32
-47 30 -23 -1 -41 -10 -57 -28 -29 -34 -25 -45 21 -68 36 -18 50 -47 23 -47
-8 0 -48 7 -90 15 -65 12 -83 12 -122 0 -43 -13 -47 -13 -51 6 -4 13 -14 19
-33 19 -22 0 -31 6 -38 28 -10 26 -10 26 -11 -12 l-1 -38 -67 7 c-90 9 -247
48 -318 80 l-58 25 8 68 c5 37 8 84 7 106 -1 29 1 36 11 28 6 -5 43 -20 82
-32z m2845 16 c0 -13 -3 -44 -6 -70 l-7 -46 -46 0 -46 0 3 58 c3 56 5 59 35
69 54 17 67 15 67 -11z m-1081 -70 c26 -81 23 -121 -10 -131 -31 -10 -54 18
-68 80 -7 30 -17 55 -22 55 -5 0 -26 -5 -47 -12 l-38 -12 4 -52 c4 -53 4 -53
-32 -70 -29 -14 -39 -15 -49 -5 -15 15 -16 166 -1 181 13 13 139 38 199 39
l40 1 24 -74z m-847 -68 c-1 -13 -5 -53 -9 -89 l-8 -65 -32 8 c-30 8 -33 12
-33 45 0 44 57 150 72 135 6 -6 10 -21 10 -34z m1928 -24 c-8 -19 -7 -31 2
-41 10 -12 9 -18 -7 -29 -22 -16 -85 -19 -85 -4 0 6 12 10 26 10 14 0 23 4 19
10 -3 6 -20 10 -36 10 -39 0 -29 16 16 24 19 4 35 11 35 16 0 13 -16 13 -41 0
-14 -8 -19 -7 -19 3 0 22 11 27 56 27 43 0 43 0 34 -26z m-2900 -104 c32 -11
134 -33 227 -48 96 -17 185 -37 207 -49 35 -18 42 -19 79 -6 58 20 259 8 282
-17 25 -27 30 -85 11 -115 -9 -14 -20 -25 -25 -25 -8 0 -38 109 -33 123 1 4
-5 7 -14 7 -22 0 -74 -57 -75 -84 -2 -30 -2 -29 5 -52 6 -19 1 -23 -41 -33
-114 -29 -348 -8 -565 51 l-117 32 1 108 c0 59 -3 112 -7 118 -9 14 -3 13 65
-10z m1826 -6 c10 -41 -3 -104 -27 -130 -28 -30 -20 -38 36 -35 51 2 55 -6 20
-39 -23 -21 -33 -23 -122 -22 -54 1 -104 -2 -112 -7 -9 -6 -20 -2 -32 10 -11
11 -26 19 -35 19 -28 0 -14 97 22 156 l31 49 91 5 c50 3 94 9 98 13 14 13 24
7 30 -19z m1051 6 c12 0 14 -8 10 -32 -3 -18 -2 -66 2 -105 7 -71 6 -73 -16
-73 -12 0 -25 -4 -28 -10 -3 -5 3 -10 15 -10 12 0 18 -4 15 -10 -3 -5 -23 -10
-44 -10 l-38 0 3 128 c1 70 3 129 3 131 1 2 15 1 32 -3 17 -3 38 -6 46 -6z
m-1993 -101 c37 -29 56 -71 56 -123 0 -89 -42 -66 -71 39 -10 38 -26 76 -35
86 -16 18 -16 19 3 19 11 0 32 -9 47 -21z m1110 -221 c22 -31 20 -38 -11 -38
-16 -1 -68 -16 -118 -36 -259 -101 -319 -110 -440 -64 l-28 11 23 24 c29 31
63 42 175 55 50 6 109 20 134 32 42 20 45 20 76 4 31 -17 33 -17 70 8 48 33
98 34 119 4z m-1905 -38 c78 -21 171 -43 204 -47 l62 -7 -55 -8 c-75 -10 -160
5 -292 52 -61 22 -114 42 -116 45 -16 15 71 0 197 -35z m576 9 c-15 -23 -62
-31 -153 -24 -51 4 -91 9 -89 11 20 20 253 33 242 13z m2223 -64 c0 -18 -7
-27 -24 -31 -32 -8 -31 -28 0 -22 23 5 24 3 19 -26 -13 -67 -21 -77 -55 -74
-25 2 -34 8 -36 26 -2 15 2 22 12 22 21 0 20 17 -1 29 -17 9 -17 10 0 28 19
22 23 53 6 53 -5 0 -7 5 -4 10 3 6 23 10 44 10 34 0 39 -3 39 -25z m-2761
-100 c33 -22 52 -40 46 -46 -5 -5 -31 -12 -58 -15 -60 -8 -75 -18 -75 -51 0
-23 -2 -24 -45 -17 -42 6 -45 5 -45 -15 0 -19 -5 -22 -37 -19 -36 3 -38 5 -39
38 -1 19 -12 52 -24 72 -14 25 -19 42 -13 53 7 13 20 8 83 -30 41 -24 79 -45
83 -45 5 0 7 10 5 23 -3 19 1 22 25 19 37 -4 34 3 -13 33 -23 15 -38 30 -34
37 12 19 85 0 141 -37z m224 -63 c30 -19 119 -100 119 -107 0 -12 -68 -3 -91
13 -63 41 -128 96 -123 104 9 14 68 8 95 -10z m84 3 c27 -9 83 -14 167 -15
l126 0 -11 -30 c-11 -28 -15 -30 -60 -30 -48 0 -49 -1 -43 -25 6 -24 4 -25
-21 -19 -54 12 -128 53 -168 94 -21 22 -37 40 -35 40 3 0 23 -7 45 -15z m2465
-35 c0 -23 -28 -40 -64 -40 -30 0 -33 8 -8 26 16 12 15 13 -6 14 -13 0 -20 4
-17 10 3 6 26 10 51 10 37 0 44 -3 44 -20z m-2503 -128 c49 -52 46 -62 -22
-84 -28 -9 -44 -22 -54 -43 -15 -29 -16 -30 -91 -30 -74 0 -77 1 -96 30 -11
18 -51 47 -97 72 l-78 41 7 -33 c3 -18 2 -35 -3 -38 -15 -9 -113 82 -113 104
0 19 2 19 22 5 29 -20 52 -20 69 0 19 23 68 12 129 -30 52 -36 84 -45 95 -26
10 17 21 11 22 -11 1 -12 9 -29 18 -39 16 -18 17 -18 36 1 10 10 28 19 39 19
15 0 20 7 20 26 0 23 3 26 28 22 15 -3 35 -9 45 -13 12 -5 17 -3 17 8 0 20
-17 26 -59 19 -30 -4 -33 -3 -28 12 4 10 7 24 7 32 0 27 43 5 87 -44z m2488
-22 c4 -6 -8 -10 -29 -10 -20 0 -36 -4 -36 -8 0 -14 24 -32 43 -32 10 0 15 -5
12 -10 -4 -6 -24 -9 -46 -8 -35 3 -39 6 -39 31 0 19 7 30 23 37 30 12 65 12
72 0z m-1715 -15 c18 -21 4 -64 -25 -77 -36 -16 -40 -5 -19 46 21 50 25 53 44
31z m401 -33 c14 -12 20 -25 16 -35 -10 -26 -46 -21 -59 8 -6 14 -18 25 -25
25 -8 0 -11 5 -8 10 10 16 51 12 76 -8z m-1646 -92 c17 -11 38 -20 48 -20 20
0 23 -20 5 -38 -17 -17 -78 -16 -78 2 0 8 -9 18 -20 21 -23 7 -26 25 -8 43 16
16 18 15 53 -8z m-15 -92 c42 -29 49 -48 18 -48 -31 0 -45 10 -57 43 -13 33
-4 34 39 5z m2970 7 c-7 -9 -10 -18 -7 -22 4 -3 2 -14 -3 -24 -8 -13 -6 -20 7
-28 16 -9 16 -12 3 -22 -12 -8 -12 -12 -2 -16 25 -10 -9 -33 -50 -33 -34 0
-39 3 -34 17 4 9 1 38 -5 64 -17 67 -10 79 52 79 45 0 50 -2 39 -15z m-2670
-107 c6 -7 21 -31 34 -53 18 -33 27 -40 57 -43 27 -2 40 3 59 23 13 14 27 25
32 25 17 0 7 -155 -23 -326 -45 -268 -46 -327 -9 -704 38 -380 47 -733 20
-750 -34 -22 -95 -11 -160 29 l-64 38 3 45 c2 32 -7 67 -30 124 -32 78 -33 81
-33 239 0 88 3 253 6 368 4 176 8 210 22 226 24 26 46 105 46 161 0 47 1 48
44 64 71 27 71 29 30 162 -57 187 -63 214 -70 302 -6 71 -5 82 9 82 9 0 21 -6
27 -12z m575 -4 c12 -12 14 -25 8 -52 -11 -54 -6 -97 20 -189 l24 -81 -28 -21
c-17 -13 -36 -43 -50 -81 -12 -33 -28 -65 -35 -71 -19 -15 -17 -29 6 -59 26
-33 25 -54 -4 -73 -13 -9 -32 -37 -41 -62 -13 -32 -25 -47 -41 -51 -23 -6 -24
-10 -26 -103 -2 -142 2 -303 13 -515 5 -104 7 -192 3 -195 -3 -3 -16 6 -28 22
-12 15 -25 27 -30 27 -4 0 4 -14 18 -30 14 -17 28 -45 30 -63 8 -45 12 -207 6
-207 -24 2 -199 200 -176 200 8 0 37 -27 63 -59 26 -33 51 -60 56 -60 23 -2
-1 37 -61 99 -37 39 -66 73 -63 75 7 8 48 -22 86 -63 46 -49 48 -18 3 34 l-33
37 28 -7 29 -7 -21 30 c-12 17 -44 55 -71 84 -50 55 -56 80 -12 51 35 -23 39
-10 8 31 -15 19 -24 35 -20 35 9 0 75 -50 92 -70 11 -13 12 -11 7 15 -7 34
-12 44 -79 168 -26 48 -43 87 -38 87 14 0 73 -69 105 -124 15 -27 30 -46 33
-44 10 10 -17 60 -70 130 -30 40 -59 85 -65 101 -10 26 -9 27 10 17 11 -6 39
-36 62 -65 23 -30 43 -52 45 -50 7 7 -22 51 -73 110 -66 77 -68 81 -54 103 10
16 9 28 -5 62 -23 57 -11 63 30 15 56 -67 43 -10 -21 86 -52 78 -67 119 -46
119 17 0 39 -29 46 -60 8 -34 12 -36 35 -15 10 9 40 18 67 22 l50 5 6 87 c3
47 15 117 27 154 24 76 76 193 89 202 5 3 18 -7 29 -22 11 -16 24 -25 28 -21
4 5 0 16 -9 26 -27 29 -30 74 -13 157 9 42 16 92 16 111 0 37 10 43 35 18z
m174 -61 c-2 -16 3 -47 10 -71 16 -47 12 -57 -18 -47 -14 4 -25 22 -35 53 -8
26 -17 54 -21 64 -7 16 7 24 48 27 14 1 18 -5 16 -26z m1921 -12 c0 -11 -10
-27 -22 -35 l-22 -16 22 0 c12 0 22 -4 22 -10 0 -14 -35 -30 -64 -30 -24 0
-26 4 -26 39 0 22 -5 43 -10 46 -21 13 3 25 51 25 42 0 49 -3 49 -19z m-2230
-41 c0 -6 -9 -29 -21 -52 -15 -30 -20 -53 -16 -84 3 -33 1 -44 -13 -51 -9 -4
-33 -27 -54 -50 -33 -37 -36 -44 -25 -64 9 -19 9 -25 -5 -35 -16 -11 -16 -15
3 -53 25 -48 25 -51 7 -51 -34 0 -31 -65 4 -78 29 -11 9 -35 -22 -27 -25 6
-26 8 -33 146 -6 129 -5 143 14 181 22 46 20 58 -11 58 -16 0 -19 5 -14 23 3
12 6 43 6 70 0 44 1 47 28 48 15 0 43 7 62 14 43 16 90 19 90 5z m420 -94 c0
-28 -60 -72 -85 -62 -20 7 -19 23 6 58 16 22 20 38 16 66 l-6 37 34 -37 c20
-22 35 -48 35 -62z m1779 17 c-24 -6 -21 -93 3 -93 14 0 16 -7 11 -48 -4 -37
-2 -51 11 -61 9 -7 16 -19 16 -26 0 -20 -55 -38 -90 -30 -27 6 -31 10 -25 28
4 12 9 70 12 130 l5 107 37 -1 c20 -1 29 -3 20 -6z m-1865 -98 c48 -23 64 -60
22 -49 -29 7 -31 2 -15 -27 9 -18 8 -20 -17 -17 -21 2 -28 9 -29 27 -1 13 -11
32 -22 41 -15 12 -19 24 -16 43 5 23 8 26 21 15 8 -7 33 -22 56 -33z m316 -47
c30 -32 30 -33 36 -10 7 25 15 27 61 10 43 -16 37 -33 -13 -33 -33 0 -40 -4
-42 -22 -4 -26 -33 -31 -52 -8 -19 23 -48 84 -42 90 11 10 21 5 52 -27z m-449
-158 c10 -6 19 -19 19 -29 0 -15 -7 -18 -32 -16 -33 2 -44 15 -34 40 6 18 20
19 47 5z m464 -64 c-4 -17 -10 -53 -14 -81 -5 -43 -9 -50 -26 -47 -43 7 -64
79 -25 89 15 4 17 9 10 23 -17 32 -11 48 18 52 39 5 45 -1 37 -36z m1575 -10
c0 -12 -5 -38 -12 -56 -9 -26 -9 -35 0 -38 23 -7 11 -22 -18 -22 -16 0 -30 -4
-30 -10 0 -5 14 -10 30 -10 34 0 41 -23 13 -39 -17 -10 -17 -10 0 -11 18 0 23
-15 8 -24 -5 -3 -30 -3 -55 0 l-46 7 0 50 c0 27 5 78 12 113 l11 64 44 0 c38
0 43 -2 43 -24z m-2470 -40 c0 -5 7 -3 15 4 12 10 13 6 8 -23 -3 -20 -1 -37 6
-41 16 -10 14 -36 -2 -30 -21 8 -79 115 -72 133 5 13 10 12 25 -9 11 -14 20
-29 20 -34z m548 11 c6 -7 15 -25 21 -40 9 -22 8 -27 -4 -27 -14 0 -55 54 -55
73 0 12 27 8 38 -6z m432 -93 c0 -28 -4 -34 -21 -34 -28 0 -59 18 -59 35 0 8
9 20 20 28 12 8 20 18 19 23 -4 25 4 27 21 5 11 -13 20 -38 20 -57z m-423
-115 c2 -45 0 -49 -21 -49 l-24 0 19 -37 c25 -48 25 -78 2 -68 -10 4 -30 12
-45 17 -30 11 -35 27 -17 45 20 20 3 44 -27 37 -22 -6 -25 -4 -22 12 3 14 12
19 37 19 35 0 35 -2 15 77 l-6 28 43 -16 c43 -16 44 -17 46 -65z m380 61 c30
-18 60 -57 50 -66 -8 -8 -101 16 -125 32 -13 9 -26 14 -28 11 -8 -7 26 -37 41
-37 28 0 65 -24 65 -41 0 -28 -17 -32 -40 -9 -25 25 -30 25 -30 2 0 -22 22
-43 63 -60 31 -13 28 -30 -12 -66 -12 -11 -21 -31 -21 -47 0 -27 -2 -28 -32
-22 -53 10 -87 31 -94 59 -9 34 7 49 35 35 19 -11 25 -23 22 -43 -1 -11 21
-10 39 2 12 8 10 14 -14 39 -16 16 -39 31 -53 33 l-23 3 25 37 25 37 -25 17
c-23 15 -23 18 -10 37 8 12 12 31 9 44 -6 22 -4 23 47 23 36 0 65 -7 86 -20z
m1393 -66 l0 -74 68 5 c78 7 110 -6 78 -30 -11 -8 -28 -15 -38 -15 -26 0 -40
-33 -28 -65 5 -14 10 -42 10 -61 0 -19 5 -34 10 -34 6 0 10 20 10 45 0 25 3
45 8 45 17 -1 32 -18 47 -53 20 -48 19 -106 -2 -129 -16 -18 -16 -21 1 -53 20
-36 15 -55 -13 -55 -27 0 -39 20 -43 70 -3 43 -4 45 -32 43 l-29 -2 8 52 c4
29 8 60 8 71 2 21 -28 45 -40 32 -4 -4 -11 -119 -14 -254 -7 -241 -12 -285
-48 -375 -17 -43 -14 -68 9 -74 26 -7 26 -20 -1 -28 -38 -13 -44 7 -30 112 9
61 14 237 16 469 3 362 10 454 36 439 5 -4 9 -40 9 -81z m-2052 -53 c8 -4 23
-59 34 -122 17 -92 21 -156 22 -329 0 -213 -5 -264 -41 -415 l-17 -70 -7 40
c-8 42 -15 241 -24 653 -6 260 -5 267 33 243z m220 -117 c46 -32 63 -95 41
-151 l-11 -28 -13 36 c-7 20 -21 51 -30 69 -42 80 -37 109 13 74z m1722 -206
c0 -120 -4 -150 -20 -186 -10 -23 -26 -45 -35 -48 -27 -11 -16 -24 20 -24 30
0 35 -3 35 -24 0 -17 -11 -31 -35 -46 -41 -25 -45 -47 -10 -56 22 -5 24 -11
23 -53 -1 -25 -23 -131 -51 -236 -27 -104 -55 -233 -63 -285 -19 -124 -35
-147 -94 -141 -37 4 -41 10 -25 34 47 73 103 284 130 493 11 89 55 650 55 706
0 4 16 8 35 8 l35 0 0 -142z m-1354 79 c7 -20 18 -31 28 -31 9 1 16 -2 16 -7
0 -16 -59 -10 -68 7 -12 22 -32 9 -32 -20 0 -12 -3 -25 -6 -29 -10 -9 -76 83
-70 98 4 12 102 26 116 17 3 -2 10 -18 16 -35z m-357 -104 c26 -15 31 -23 29
-48 -3 -25 -8 -31 -31 -33 -25 -3 -28 -7 -23 -27 11 -44 -32 -43 -53 1 -16 36
-14 65 4 58 12 -5 15 2 15 30 0 41 12 45 59 19z m268 -88 c26 -18 38 -67 23
-94 -24 -45 -60 -9 -60 60 0 53 4 57 37 34z m1673 -35 c12 -7 12 -14 2 -43 -7
-19 -10 -42 -6 -51 8 -20 -9 -21 -27 0 -8 10 -21 13 -37 9 -22 -5 -23 -4 -17
27 12 57 48 82 85 58z m142 -113 c-20 -55 -15 -76 22 -98 32 -19 46 -43 46
-81 0 -14 -8 -18 -39 -18 l-39 0 11 30 c23 61 -39 115 -84 74 -22 -19 -21 -20
-23 58 -1 51 1 58 22 63 12 3 33 3 47 -1 20 -5 25 -2 25 12 0 14 3 15 12 6 9
-9 9 -19 0 -45z m-2087 -38 c10 -41 -10 -43 -51 -7 l-37 33 34 6 c40 6 45 3
54 -32z m1892 -21 c-9 -34 37 -215 63 -250 20 -28 21 -34 10 -70 -6 -22 -29
-59 -50 -82 l-39 -41 -11 30 c-22 56 -29 135 -20 213 15 131 32 222 43 222 5
0 7 -10 4 -22z m-1623 -19 c-3 -5 -19 -9 -35 -9 l-31 0 27 -31 c29 -35 30 -62
2 -67 -12 -3 -21 6 -28 27 -6 17 -17 31 -25 31 -32 0 -3 50 36 62 21 7 61 -3
54 -13z m1683 -26 c33 -36 33 -63 -1 -50 -19 8 -57 67 -50 79 9 14 16 9 51
-29z m-2036 -52 c54 -54 27 -111 -53 -111 -21 0 -38 2 -38 5 0 3 7 35 16 70
19 74 31 80 75 36z m-316 -136 c31 -30 54 -59 50 -65 -12 -19 -60 -9 -95 20
-34 29 -35 31 -15 45 16 13 18 19 7 35 -19 31 -8 24 53 -35z m2179 -80 c11
-22 16 -61 16 -117 0 -45 3 -100 6 -120 6 -33 9 -36 25 -27 10 5 31 31 45 57
33 58 73 102 92 102 20 0 8 -44 -29 -105 -24 -38 -30 -58 -27 -88 3 -32 0 -42
-19 -54 -19 -12 -20 -18 -10 -34 10 -16 7 -33 -15 -97 -31 -86 -35 -129 -15
-157 17 -23 37 -12 37 21 0 16 5 24 13 21 15 -6 17 -2 -58 -202 -86 -233 -152
-450 -235 -778 -27 -104 -51 -191 -54 -194 -3 -3 -12 0 -21 7 -17 14 -20 66
-5 105 13 34 -3 40 -60 20 -23 -8 -46 -13 -49 -10 -6 7 -3 70 5 98 3 9 13 17
23 17 14 0 17 10 18 57 3 85 77 323 166 533 30 69 37 98 37 152 0 56 3 69 19
78 16 8 18 14 9 42 -9 29 -5 43 31 117 23 47 41 91 41 97 0 7 5 16 11 20 7 4
10 -6 7 -32 -4 -53 22 -58 51 -9 11 20 21 38 21 40 0 2 -19 21 -41 43 -31 29
-42 48 -44 73 -2 40 -6 43 -45 34 -30 -7 -30 -7 -30 -80 0 -40 -6 -106 -14
-147 -13 -66 -63 -237 -72 -247 -2 -2 -10 2 -19 9 -13 10 -15 9 -15 -7 0 -10
7 -28 15 -39 21 -28 18 -35 -12 -28 -27 7 -27 7 -12 -17 9 -13 19 -32 22 -43
6 -16 4 -18 -20 -13 -28 6 -28 5 -24 -45 3 -54 -14 -190 -31 -238 -6 -18 -17
-30 -28 -30 -23 0 -30 -19 -30 -80 0 -60 -17 -100 -42 -100 -15 0 -18 -8 -18
-50 0 -45 -2 -50 -25 -56 -24 -6 -25 -8 -10 -24 20 -22 4 -36 -23 -21 -23 12
-47 65 -38 86 5 13 30 20 62 16 6 -1 17 27 23 61 7 35 30 130 52 213 22 82 45
181 51 220 15 99 15 100 33 85 13 -11 15 -6 15 32 0 25 9 71 20 103 11 32 20
79 20 103 0 42 1 44 14 26 8 -10 17 -17 20 -14 3 3 8 72 12 153 l7 148 29 15
c15 8 28 18 28 23 0 4 11 13 26 19 l25 12 -26 23 c-33 28 -34 46 -10 178 19
106 19 107 41 92 12 -8 29 -29 38 -48z m-1949 -47 c-4 -13 -24 -88 -45 -168
-38 -146 -78 -248 -108 -272 -10 -9 -45 -12 -111 -11 -110 2 -106 -16 5 -25
35 -2 64 -8 64 -12 0 -4 -15 -15 -34 -24 -42 -20 -115 -20 -221 -1 -44 8 -110
15 -146 15 l-67 0 -11 44 c-6 25 -11 116 -11 204 0 107 -5 174 -14 205 -12 42
-12 47 3 51 24 8 76 -7 166 -47 91 -40 150 -51 150 -27 0 11 15 16 62 17 40 2
87 12 129 29 91 36 113 42 158 43 35 1 38 -1 31 -21z m214 -29 c7 -22 15 -29
26 -25 24 9 18 -18 -9 -44 -38 -35 -56 -21 -56 45 0 63 21 76 39 24z m66 -118
c6 -11 -41 -51 -60 -51 -19 0 -38 28 -31 45 6 17 81 22 91 6z m-14 -240 c13
-10 31 -16 39 -13 13 5 13 3 1 -11 -29 -36 -112 -11 -97 28 7 20 28 19 57 -4z
m1324 -65 c62 -17 75 -23 75 -36 0 -6 -11 -5 -26 0 -14 6 -36 10 -49 10 -12 0
-33 9 -46 20 -29 24 -25 24 46 6z m-1439 -67 c7 -5 14 -18 17 -29 4 -17 1 -19
-21 -14 -45 11 -62 24 -62 45 0 18 4 20 27 14 16 -4 33 -11 39 -16z m2458 -4
c-5 -12 5 -15 57 -15 58 -1 62 -2 45 -15 -11 -8 -36 -17 -55 -20 -20 -4 -66
-12 -103 -19 -74 -13 -81 -9 -52 33 27 38 121 70 108 36z m-5178 -10 c-28 -21
-78 -28 -153 -22 -132 10 -88 37 62 37 98 -1 108 -2 91 -15z m2842 -58 c19
-18 20 -22 7 -29 -26 -15 -85 33 -85 70 0 16 36 -3 78 -41z m-618 -45 c173
-31 220 -66 228 -169 4 -45 2 -53 -13 -53 -9 0 -28 9 -42 19 -13 11 -31 17
-38 14 -22 -8 -2 -37 46 -70 23 -15 48 -37 55 -48 13 -20 11 -20 -89 -21 -99
0 -217 -24 -217 -43 0 -13 69 -29 158 -36 82 -7 187 -46 187 -70 0 -17 -93
-17 -150 -1 -29 9 -58 16 -64 16 -17 0 -13 -40 4 -46 33 -13 0 -26 -50 -20
-40 4 -56 2 -65 -9 -11 -13 -4 -15 48 -15 167 0 257 -57 269 -171 l5 -54 -56
-18 c-42 -13 -62 -14 -77 -7 -24 13 -27 -11 -3 -31 21 -17 44 -63 44 -88 0
-11 -27 -45 -61 -78 -72 -68 -96 -112 -105 -186 -6 -53 -8 -55 -46 -68 -22 -7
-50 -25 -63 -41 l-24 -28 -73 39 c-134 72 -264 91 -338 51 l-35 -19 76 -1
c181 -1 308 -57 334 -147 6 -21 3 -23 -37 -23 -55 1 -148 20 -262 54 -48 14
-112 26 -142 26 -58 0 -62 5 -40 49 37 71 142 126 264 137 92 8 177 -9 265
-54 16 -8 6 62 -14 94 -28 46 -85 78 -185 104 l-41 10 19 43 c32 69 34 71 59
77 18 4 25 15 30 40 12 73 62 130 114 130 9 0 39 12 68 27 40 21 67 27 115 28
62 0 63 0 31 13 -48 20 -119 26 -164 13 -45 -12 -55 -4 -55 44 0 36 30 88 64
111 33 21 24 34 -23 34 -37 0 -39 2 -51 44 -13 46 -12 49 42 134 18 29 19 36
7 64 l-13 31 -23 -27 -23 -27 -11 28 c-15 39 -59 212 -59 233 0 15 4 15 58 -1
31 -9 104 -26 162 -37z m391 -3 c16 -8 18 -13 8 -25 -6 -8 -22 -14 -35 -14
-19 0 -24 5 -24 25 0 27 18 32 51 14z m199 -17 c20 -16 20 -19 6 -31 -12 -10
-20 -10 -46 5 -31 19 -35 26 -23 37 12 12 40 7 63 -11z m-2116 -61 c131 -27
137 -29 106 -40 -43 -15 -80 -14 -165 4 -129 27 -197 48 -183 56 24 16 102 9
242 -20z m2047 2 c30 -12 45 -25 56 -51 8 -19 12 -36 10 -38 -2 -2 -35 16 -72
41 -38 25 -78 45 -90 46 -17 1 -16 2 5 9 38 12 46 11 91 -7z m-1282 -103 c-35
-20 -166 -28 -245 -14 -43 7 -81 11 -86 8 -4 -3 -8 0 -8 5 0 7 59 11 178 11
112 0 171 -4 161 -10z m1291 -96 c28 -11 40 -22 37 -33 -3 -17 -6 -17 -50 -7
-23 6 -28 4 -25 -11 2 -14 -5 -19 -29 -21 -31 -3 -31 -3 -31 42 0 44 1 46 29
46 16 0 47 -7 69 -16z m-1355 -132 l40 -7 -32 -14 c-34 -14 -123 -8 -123 9 0
19 47 24 115 12z m-155 -74 c-54 -25 -189 -34 -295 -20 l-70 9 35 16 c28 13
68 16 205 16 l170 -1 -45 -20z m1940 -19 c24 -1 24 -1 -5 -14 -34 -16 -133
-19 -155 -5 -24 15 28 31 85 25 28 -3 61 -5 75 -6z m1717 -80 c-10 -6 -41 -9
-68 -7 -68 4 -62 -9 9 -17 67 -7 88 -17 84 -39 -5 -27 3 -23 107 46 27 19 71
24 71 10 0 -5 -11 -15 -25 -22 -23 -12 -30 -27 -26 -58 1 -9 -18 -11 -74 -10
-58 2 -78 0 -85 -12 -16 -25 -6 -35 38 -38 23 -2 42 -7 42 -12 0 -16 -37 -30
-77 -30 -36 0 -38 -2 -40 -32 -4 -55 -82 -146 -160 -187 -23 -12 -23 -11 -23
66 0 111 17 245 32 255 7 4 30 8 51 8 20 0 37 5 37 10 0 6 -22 10 -50 10 -48
0 -50 1 -50 28 0 16 3 32 7 35 3 4 54 7 112 7 80 -1 101 -3 88 -11z m-3217
-10 c24 -1 24 -1 -4 -9 -37 -11 -169 0 -141 12 11 4 43 6 70 3 28 -3 61 -5 75
-6z m2354 -15 c4 -9 -24 -81 -68 -173 -40 -86 -82 -182 -92 -213 -10 -32 -22
-58 -27 -58 -15 0 -90 57 -177 136 -102 92 -144 113 -225 114 l-60 0 45 44
c61 58 128 81 334 116 94 16 182 33 196 39 38 15 67 13 74 -5z m-1208 -19 c3
-8 -8 -36 -25 -62 -32 -48 -32 -48 -12 -65 27 -21 26 -30 -1 -26 -16 2 -26 13
-33 36 -10 35 -13 37 -35 22 -13 -8 -13 -11 -1 -19 10 -6 12 -19 8 -40 -5 -24
-3 -33 9 -38 15 -5 15 -7 0 -15 -35 -20 -107 48 -93 87 3 7 34 28 68 46 43 23
66 42 73 61 11 30 33 37 42 13z m226 -91 c134 -48 233 -110 222 -138 -3 -8
-21 -22 -39 -32 -58 -31 -59 -68 -2 -45 50 20 77 25 77 12 0 -6 -11 -11 -24
-11 -14 0 -28 -5 -32 -11 -4 -7 0 -9 12 -6 11 3 71 11 134 18 169 17 257 -7
295 -81 25 -47 21 -50 -70 -50 l-85 0 0 -29 c0 -52 -23 -64 -114 -58 -65 3
-106 14 -204 51 -68 26 -166 55 -218 66 -106 22 -138 36 -174 75 l-25 28 30
-5 c17 -3 38 -9 48 -13 14 -6 17 -1 17 32 0 35 -3 40 -32 48 -41 12 -47 38
-19 76 17 23 19 33 11 48 -5 11 -10 22 -10 25 0 10 64 -17 128 -55 63 -37 118
-56 128 -46 3 3 -31 24 -76 47 -54 29 -86 52 -95 71 -21 39 -19 42 15 24 16
-8 62 -27 102 -41z m-393 -145 c12 -8 7 -9 -21 -5 -46 6 -51 0 -31 -35 21 -36
16 -41 -33 -31 -28 6 -38 13 -36 25 1 9 3 25 5 35 1 9 7 21 12 25 12 9 82 0
104 -14z m1379 -135 c21 -14 21 -17 7 -45 -9 -16 -14 -33 -11 -37 2 -4 -20 -7
-50 -7 -30 0 -54 2 -54 4 0 5 23 74 26 79 1 2 12 -1 23 -8 18 -9 21 -8 21 10
0 24 8 25 38 4z m-1999 -99 c21 -21 12 -24 -37 -15 -50 9 -62 17 -42 31 18 11
60 3 79 -16z m1680 14 c26 -9 30 -14 20 -26 -14 -16 -52 -37 -89 -48 -25 -8
-25 -7 -7 13 18 20 18 20 -12 27 -34 7 -38 14 -19 33 15 15 65 15 107 1z m491
-169 c0 -13 -74 -50 -99 -50 -29 0 -46 36 -24 49 23 13 123 14 123 1z m-293
-27 c4 -12 -56 -43 -83 -43 -26 0 -14 26 19 43 36 18 58 18 64 0z m483 -46 c0
-20 -22 -37 -47 -37 -22 0 -33 27 -16 43 12 13 63 7 63 -6z m-2651 -62 c51
-14 45 -17 -47 -30 -49 -6 -126 11 -116 26 18 29 63 30 163 4z"/>
<path d="M3063 12011 c-9 -26 -8 -30 14 -40 38 -17 43 -14 43 29 0 35 -3 40
-23 40 -16 0 -26 -9 -34 -29z"/>
<path d="M2852 11696 c-20 -9 -22 -16 -17 -46 7 -35 21 -60 35 -60 10 0 33 74
29 95 -5 23 -17 26 -47 11z"/>
<path d="M3720 11451 c0 -42 10 -61 31 -61 27 0 27 65 0 80 -28 15 -31 13 -31
-19z"/>
<path d="M3517 11223 c-2 -10 -8 -26 -12 -35 -6 -16 -1 -18 39 -18 41 0 46 2
46 23 0 13 -5 28 -12 35 -18 18 -55 15 -61 -5z"/>
<path d="M3343 11830 c-27 -11 -30 -28 -7 -37 15 -6 90 23 100 39 7 11 -65 9
-93 -2z"/>
<path d="M3309 11170 c-9 -5 -22 -24 -29 -41 -14 -34 -4 -49 33 -49 27 0 69
47 65 73 -3 24 -41 34 -69 17z"/>
<path d="M4130 9901 c0 -25 -18 -38 -65 -47 -32 -6 -36 -9 -20 -15 11 -4 35
-8 53 -8 26 -1 34 4 42 25 9 23 15 26 45 21 30 -5 35 -3 35 14 0 10 -3 19 -7
20 -5 0 -25 2 -45 4 -32 3 -38 1 -38 -14z"/>
<path d="M3161 9651 c-16 -29 -13 -49 9 -71 l20 -20 21 21 c18 18 20 27 12 53
-11 38 -46 48 -62 17z"/>
<path d="M3380 9176 c0 -63 43 -94 56 -40 8 33 -9 70 -35 77 -19 5 -21 1 -21
-37z"/>
<path d="M4782 8969 c-30 -12 -23 -33 11 -37 30 -4 34 -14 12 -32 -23 -19 -18
-25 17 -24 35 1 36 3 22 72 -7 34 -20 38 -62 21z"/>
<path d="M3610 8528 c0 -6 -9 -22 -21 -34 -25 -26 -17 -46 14 -39 16 4 25 0
32 -16 18 -40 33 -34 25 10 -9 53 -50 116 -50 79z"/>
<path d="M3018 8193 c-21 -5 -22 -15 -6 -60 9 -24 18 -33 35 -33 30 0 63 34
63 64 0 33 -36 44 -92 29z"/>
<path d="M3106 7963 c7 -21 13 -50 14 -64 0 -14 5 -40 11 -58 9 -25 17 -31 39
-31 64 0 72 17 40 79 -17 35 -93 111 -111 111 -3 0 -1 -17 7 -37z"/>
<path d="M3610 9514 c0 -28 26 -44 75 -44 32 0 36 3 33 22 -2 18 -13 25 -55
34 -52 12 -53 12 -53 -12z"/>
<path d="M2298 8979 c3 -49 7 -59 19 -55 8 3 18 6 21 6 4 0 7 25 7 55 0 52 -1
55 -25 55 -24 0 -25 -2 -22 -61z"/>
<path d="M4573 2693 c-38 -5 -43 -20 -9 -29 21 -5 136 21 136 32 0 5 -79 3
-127 -3z"/>
<path d="M5047 2694 c-20 -20 -2 -30 59 -32 61 -3 94 7 94 28 0 9 -144 13
-153 4z"/>
<path d="M4393 2549 c-63 -19 -34 -29 85 -29 88 0 123 4 138 15 18 13 16 14
-27 15 -25 0 -73 2 -105 5 -32 2 -74 0 -91 -6z"/>
<path d="M4451 2400 c-29 -4 -58 -13 -63 -18 -6 -6 48 -9 160 -8 149 1 196 6
181 20 -10 9 -229 13 -278 6z"/>
<path d="M4355 2211 l-40 -19 118 -1 c113 -1 201 12 213 30 3 5 -52 9 -123 9
-104 0 -135 -4 -168 -19z"/>
<path d="M4355 2076 c-56 -14 -131 -51 -85 -42 14 2 54 7 90 10 201 18 297 29
310 37 23 13 -258 9 -315 -5z"/>
<path d="M4334 1831 c-28 -5 -67 -14 -86 -20 -40 -13 -81 -48 -73 -62 13 -19
69 -41 145 -54 44 -8 88 -19 99 -25 19 -10 47 -48 39 -55 -2 -1 -50 -12 -108
-25 -105 -22 -151 -44 -171 -81 -8 -15 -7 -24 2 -35 31 -37 72 -47 234 -54 99
-5 171 -13 190 -21 29 -13 26 -14 -55 -17 -97 -2 -130 -8 -130 -22 0 -13 154
-13 200 0 20 5 45 17 55 25 17 13 18 16 5 25 -34 23 -124 40 -266 50 -84 5
-164 14 -179 20 l-28 11 21 15 c12 8 61 27 110 41 193 56 200 104 24 177 -84
35 -112 52 -112 66 0 5 103 8 229 7 156 -1 233 2 241 9 8 8 -8 13 -60 18 -131
12 -275 15 -326 7z"/>
<path d="M4128 1342 c-34 -20 -37 -37 -5 -28 12 4 67 12 122 18 148 15 159 27
25 26 -89 0 -121 -4 -142 -16z"/>
<path d="M4528 6747 c-41 -31 -67 -84 -36 -72 8 3 22 -3 32 -14 18 -20 19 -19
48 36 28 52 31 83 9 83 -5 0 -29 -15 -53 -33z"/>
<path d="M4510 6154 c0 -41 2 -45 21 -39 16 5 22 1 32 -24 6 -17 14 -31 18
-31 8 0 19 108 12 126 -3 9 -20 14 -44 14 l-39 0 0 -46z"/>
<path d="M3860 6941 c-18 -34 -12 -78 12 -95 41 -29 48 -21 48 49 0 62 -1 65
-25 65 -14 0 -29 -8 -35 -19z"/>
<path d="M2022 6149 c-41 -41 -44 -72 -4 -63 15 4 39 13 55 21 26 13 27 14 12
43 -9 17 -19 30 -23 30 -5 0 -23 -14 -40 -31z"/>
<path d="M1926 6121 c-17 -27 -36 -111 -35 -156 l0 -50 13 35 c7 19 22 51 34
70 12 19 22 47 22 61 0 29 -24 57 -34 40z"/>
<path d="M3726 6059 c-21 -17 -26 -29 -26 -65 l0 -44 45 0 45 0 0 65 c0 57 -2
65 -19 65 -10 0 -30 -9 -45 -21z"/>
<path d="M4527 5892 c-15 -17 -15 -21 1 -52 15 -31 21 -35 57 -35 37 0 40 2
43 29 7 57 -65 98 -101 58z"/>
<path d="M3695 5758 c-45 -25 -41 -61 6 -51 18 3 29 1 29 -6 0 -6 -11 -11 -25
-11 -24 0 -41 -19 -33 -39 4 -12 96 19 102 35 8 21 -25 84 -43 84 -9 0 -25 -6
-36 -12z"/>
<path d="M4527 5633 c-9 -9 -9 -55 1 -70 12 -18 63 -42 78 -36 26 10 11 84
-20 105 -14 10 -50 10 -59 1z"/>
<path d="M3643 5503 c-16 -6 -17 -47 -3 -73 6 -11 29 -25 51 -31 34 -11 42
-10 50 2 15 24 10 75 -9 92 -18 16 -63 21 -89 10z"/>
<path d="M4520 5055 c-16 -42 -5 -77 23 -73 30 4 34 47 8 79 l-19 24 -12 -30z"/>
<path d="M3575 3720 c-7 -12 21 -80 33 -80 14 0 20 32 11 56 -8 24 -35 38 -44
24z"/>
<path d="M3557 3507 c-19 -80 -22 -133 -7 -142 6 -3 10 4 10 17 0 13 9 52 21
86 19 58 20 112 1 112 -4 0 -15 -33 -25 -73z"/>
<path d="M3156 794 c-21 -21 -20 -44 2 -44 9 1 39 7 65 14 46 12 47 13 29 29
-23 21 -76 22 -96 1z"/>
<path d="M6915 3505 c-22 -8 -41 -15 -42 -15 -2 0 -3 -3 -3 -7 0 -13 247 -9
260 3 9 9 -1 15 -40 23 -68 15 -126 13 -175 -4z"/>
<path d="M1436 3358 c-49 -18 -9 -28 114 -27 151 1 180 12 69 27 -100 14 -144
14 -183 0z"/>
<path d="M612 3336 c-84 -21 -73 -27 39 -21 255 14 297 18 254 26 -62 12 -234
9 -293 -5z"/>
<path d="M6878 3319 c-34 -19 -18 -25 65 -25 45 0 125 -4 177 -8 85 -6 93 -5
76 8 -21 17 -61 23 -201 30 -57 3 -108 1 -117 -5z"/>
<path d="M1912 3315 c7 -7 202 -45 230 -45 37 0 7 18 -57 34 -55 15 -185 23
-173 11z"/>
<path d="M6623 3295 c-34 -8 -70 -19 -80 -25 -33 -20 194 -2 241 20 l41 18
-70 0 c-38 0 -98 -6 -132 -13z"/>
<path d="M1558 3197 c13 -15 31 -18 121 -16 58 1 127 -4 153 -10 35 -8 54 -8
75 0 l28 12 -42 12 c-23 8 -110 15 -196 17 -149 3 -155 2 -139 -15z"/>
<path d="M1073 3196 c-85 -17 -92 -28 -13 -22 36 3 136 8 223 11 87 3 168 10
180 15 34 14 -318 10 -390 -4z"/>
<path d="M44 3145 c-9 -21 2 -32 38 -37 18 -3 79 -17 134 -32 141 -36 281 -56
399 -55 138 0 93 17 -84 30 -230 17 -266 24 -355 68 -85 43 -123 51 -132 26z"/>
<path d="M6945 3133 c-38 -8 -104 -15 -145 -16 -60 -2 -75 -5 -78 -18 -3 -14
3 -15 40 -8 24 5 102 6 173 4 130 -5 193 5 202 31 9 26 -87 30 -192 7z"/>
<path d="M6547 3103 c-17 -16 -5 -33 22 -33 38 0 92 20 85 31 -6 10 -97 12
-107 2z"/>
<path d="M1974 3052 c13 -22 105 -42 215 -49 84 -5 112 -3 107 5 -11 18 -71
30 -186 37 -58 3 -113 9 -124 12 -11 3 -16 1 -12 -5z"/>
<path d="M2207 2878 c-38 -3 -71 -8 -73 -11 -3 -2 39 -7 93 -11 54 -3 122 -9
151 -12 36 -4 52 -3 52 5 0 27 -109 41 -223 29z"/>
<path d="M916 2873 c-17 -4 -15 -7 12 -19 18 -7 38 -12 45 -9 6 2 25 6 40 9
15 4 25 11 22 16 -6 10 -84 12 -119 3z"/>
<path d="M1423 2869 c-33 -10 -54 -29 -31 -29 7 1 47 9 88 20 l75 19 -50 -1
c-27 0 -64 -4 -82 -9z"/>
<path d="M7275 2780 c-13 -14 -15 -24 -8 -31 16 -16 144 -23 178 -9 l30 11
-69 25 c-84 29 -107 30 -131 4z"/>
<path d="M1070 2751 c0 -10 -6 -23 -12 -28 -13 -10 -196 -31 -355 -40 -49 -3
-81 -9 -77 -15 9 -14 308 1 376 19 57 15 106 53 93 72 -10 17 -25 13 -25 -8z"/>
<path d="M1885 2734 c-28 -8 -71 -13 -97 -10 -27 3 -48 3 -48 0 0 -16 80 -35
139 -33 36 1 74 -2 84 -6 11 -4 23 -3 30 4 8 8 6 11 -7 11 -14 0 -17 5 -12 25
5 21 3 25 -16 24 -13 0 -45 -7 -73 -15z"/>
<path d="M6857 2739 c-233 -12 -256 -31 -32 -26 130 2 178 7 205 19 23 11 28
16 15 16 -11 -1 -96 -5 -188 -9z"/>
<path d="M1329 2720 c-8 -5 -41 -10 -72 -11 -31 -1 -57 -6 -57 -10 0 -22 106
-26 134 -6 23 17 18 40 -5 27z"/>
<path d="M1567 2713 c-2 -10 -8 -26 -12 -35 -6 -16 -1 -18 39 -18 45 0 68 19
24 21 l-23 0 23 16 c31 22 27 33 -12 33 -23 0 -35 -5 -39 -17z"/>
<path d="M499 2652 l-32 -28 53 -17 c55 -18 175 -23 184 -8 3 5 -26 13 -66 19
-79 12 -98 23 -78 47 23 28 -27 18 -61 -13z"/>
<path d="M1770 2652 c0 -13 139 -33 158 -23 9 5 -5 10 -40 14 -30 4 -68 10
-86 13 -19 4 -32 2 -32 -4z"/>
<path d="M7213 2640 c-27 -11 -30 -35 -7 -44 42 -16 134 0 134 24 0 6 -92 33
-103 29 -1 0 -12 -4 -24 -9z"/>
<path d="M2075 2594 c28 -8 93 -18 146 -23 89 -8 139 -24 139 -45 0 -5 -21 -6
-47 -2 -89 12 -501 17 -468 6 17 -6 147 -15 290 -20 143 -6 273 -15 289 -20
46 -16 84 -12 95 9 10 17 2 21 -77 46 -130 41 -258 65 -342 64 l-75 0 50 -15z"/>
<path d="M1350 2560 c-21 -13 -12 -17 50 -24 60 -7 98 6 70 24 -19 12 -100 13
-120 0z"/>
<path d="M1102 2532 c-15 -10 48 -32 91 -32 26 0 44 14 29 24 -17 10 -107 16
-120 8z"/>
<path d="M1029 2507 l23 -26 -58 -17 c-47 -14 -96 -17 -237 -16 -113 1 -176
-2 -172 -8 4 -6 67 -10 148 -10 95 0 205 -9 332 -25 185 -25 456 -44 444 -32
-3 4 -93 18 -200 32 -310 40 -300 37 -259 63 23 14 27 52 6 52 -8 0 -23 3 -33
7 -15 5 -14 1 6 -20z"/>
<path d="M7215 2504 c-34 -9 -75 -26 -75 -33 0 -12 182 -13 211 -1 40 17 36
30 -8 30 -21 0 -54 2 -73 4 -19 3 -44 2 -55 0z"/>
<path d="M6772 2479 c-30 -5 -61 -14 -70 -20 -18 -11 182 -5 268 8 43 7 44 7
15 14 -42 9 -150 8 -213 -2z"/>
<path d="M395 2451 c-17 -28 112 -84 184 -79 l46 3 -60 14 c-65 14 -97 35 -88
57 4 11 -5 14 -35 14 -23 0 -43 -4 -47 -9z"/>
<path d="M1502 2422 c-15 -10 54 -17 266 -28 71 -4 112 -3 112 3 0 6 -44 13
-97 16 -54 4 -136 9 -183 12 -47 3 -91 2 -98 -3z"/>
<path d="M2133 2389 c41 -21 154 -36 184 -24 21 8 -129 44 -187 44 l-35 0 38
-20z"/>
<path d="M7380 2364 c0 -3 5 -14 10 -25 8 -14 21 -19 55 -19 49 0 62 20 26 40
-21 10 -91 14 -91 4z"/>
<path d="M6763 2351 c-29 -4 -58 -12 -65 -19 -9 -9 1 -12 49 -12 62 0 123 15
123 31 0 10 -26 10 -107 0z"/>
<path d="M545 2310 c-166 -7 -215 -14 -215 -31 0 -16 39 -29 84 -29 43 0 62
13 34 23 -7 2 60 10 150 17 90 7 165 17 168 22 3 4 -7 7 -23 6 -15 -1 -104 -5
-198 -8z"/>
<path d="M6343 2305 c-9 -25 3 -28 56 -15 70 17 73 30 6 30 -41 0 -57 -4 -62
-15z"/>
<path d="M856 2276 c-8 -14 -25 -28 -37 -31 -14 -5 -18 -10 -11 -17 6 -6 31
-4 73 7 67 17 99 35 62 35 -12 0 -25 5 -28 10 -4 7 34 8 118 4 89 -5 126 -4
131 5 5 8 -33 11 -142 11 -147 0 -150 0 -166 -24z"/>
<path d="M1706 2267 c-18 -13 -17 -14 15 -23 31 -7 29 -8 -29 -12 -76 -4 -74
-22 2 -22 38 0 61 6 79 20 21 17 41 20 124 21 123 1 89 14 -63 24 -87 5 -113
4 -128 -8z"/>
<path d="M2152 2258 c4 -29 48 -36 73 -12 15 15 21 16 49 5 47 -19 61 -18 61
4 0 18 -8 20 -93 23 -92 3 -93 2 -90 -20z"/>
<path d="M2515 2244 c-81 -16 -115 -29 -115 -45 0 -8 4 -8 13 -1 6 5 44 13 84
17 51 5 76 12 89 26 20 22 22 22 -71 3z"/>
<path d="M1350 2214 c-34 -7 -80 -25 -80 -33 0 -11 308 -7 320 5 9 9 -2 13
-42 18 -95 10 -172 14 -198 10z"/>
<path d="M7350 2147 c-115 -41 -115 -45 7 -46 93 -1 114 1 133 17 19 16 20 19
7 30 -28 24 -80 23 -147 -1z"/>
<path d="M1680 2157 c9 -10 127 -26 345 -47 327 -32 400 -41 381 -52 -24 -13
-19 -29 7 -23 12 3 28 1 36 -4 13 -8 13 -12 0 -27 -13 -16 -10 -17 50 -11 70
8 83 13 61 27 -10 7 1 10 38 10 44 0 53 3 50 17 -2 9 -23 23 -53 33 l-50 17
57 6 c49 5 106 23 96 31 -1 2 -43 -1 -93 -6 -98 -11 -417 -5 -585 11 -152 14
-346 24 -340 18z"/>
<path d="M2735 2118 c4 -13 11 -27 15 -31 12 -13 43 1 63 28 l18 25 -51 0
c-49 0 -51 -1 -45 -22z"/>
<path d="M6235 2094 c-44 -8 -83 -18 -87 -22 -10 -10 180 -3 225 9 20 5 37 14
37 19 0 14 -80 11 -175 -6z"/>
<path d="M227 2093 c-14 -14 -6 -21 31 -26 38 -4 72 6 72 23 0 11 -93 14 -103
3z"/>
<path d="M890 2093 c-72 -9 -54 -23 31 -24 46 0 118 -3 159 -7 86 -8 133 -5
125 9 -9 13 9 11 41 -6 45 -23 148 -18 219 10 l60 24 -300 -1 c-165 -1 -316
-3 -335 -5z"/>
<path d="M2030 2065 c-11 -13 -5 -15 44 -15 43 0 56 3 56 15 0 11 -12 15 -44
15 -26 0 -48 -6 -56 -15z"/>
<path d="M1070 2020 c-57 -7 -140 -32 -140 -43 0 -2 60 3 133 10 72 7 142 11
155 8 12 -3 22 -1 22 4 0 6 -17 13 -37 16 -21 4 -45 8 -53 9 -8 2 -44 0 -80
-4z"/>
<path d="M1545 1998 c-143 -11 -162 -28 -32 -28 68 0 107 5 127 15 28 14 40
27 23 24 -5 -1 -57 -6 -118 -11z"/>
<path d="M6917 2003 c-8 -12 235 -16 263 -4 19 7 -12 10 -117 10 -78 1 -144
-2 -146 -6z"/>
<path d="M2020 1979 c-281 -19 -523 -39 -528 -43 -12 -13 87 -18 207 -11 75 5
228 9 342 10 183 2 210 5 252 23 26 12 47 23 47 26 0 8 -168 5 -320 -5z"/>
<path d="M7123 1958 c-13 -6 -23 -18 -23 -26 0 -11 9 -13 41 -8 44 7 83 28 72
39 -10 10 -65 7 -90 -5z"/>
<path d="M680 1949 c-25 -4 -130 -8 -233 -8 -127 -1 -186 -4 -182 -11 4 -7
112 -10 318 -9 208 1 324 -2 347 -9 30 -10 22 -11 -51 -7 -82 5 -149 -7 -149
-25 0 -24 70 -25 292 -6 143 13 202 13 266 0 29 -6 19 -24 -14 -24 -13 0 -24
-4 -24 -10 0 -6 33 -10 79 -10 89 0 95 5 85 69 l-6 38 -117 -5 c-70 -2 -176 2
-269 12 -161 17 -268 19 -342 5z"/>
<path d="M10 1925 c-6 -8 -9 -19 -5 -25 9 -15 96 -12 125 5 l25 14 -37 1 c-20
0 -40 5 -43 10 -9 15 -51 12 -65 -5z"/>
<path d="M2457 1925 c-13 -9 -17 -20 -12 -34 5 -17 2 -21 -15 -21 -16 0 -20 5
-16 15 6 16 -14 21 -29 6 -20 -18 -110 -38 -127 -28 -8 6 -24 7 -34 2 -35 -15
54 -24 174 -18 81 4 112 10 112 19 0 7 -9 16 -21 19 -16 5 -19 12 -15 31 7 28
7 28 -17 9z"/>
<path d="M7101 1894 c-81 -17 -96 -30 -46 -40 48 -9 266 3 278 15 6 6 -3 16
-21 25 -38 20 -123 20 -211 0z"/>
<path d="M1535 1875 c-27 -8 -54 -14 -60 -15 -22 -2 23 -18 67 -24 87 -13 63
-26 -49 -26 -69 -1 -119 -6 -138 -15 -27 -12 -10 -13 158 -14 l188 -1 -7 36
c-5 26 -3 39 7 45 8 5 73 9 144 10 105 2 120 3 75 9 -94 13 -330 10 -385 -5z"/>
<path d="M6402 1874 c-56 -6 -105 -14 -109 -18 -3 -3 -1 -6 6 -6 6 0 24 -9 39
-20 l27 -20 65 26 c63 25 88 40 79 47 -2 2 -50 -2 -107 -9z"/>
<path d="M708 1818 c-27 -6 -48 -15 -48 -21 0 -15 253 -1 310 17 44 14 42 14
-85 14 -71 0 -151 -5 -177 -10z"/>
<path d="M6726 1822 c-4 -7 10 -12 40 -14 26 -2 49 -8 51 -14 3 -8 -12 -10
-44 -7 -35 3 -54 0 -68 -12 -19 -15 -12 -16 105 -12 83 4 144 11 180 23 l55
18 -90 7 c-49 3 -120 9 -156 14 -44 5 -68 4 -73 -3z"/>
<path d="M1765 1810 l-40 -6 55 -13 c30 -7 136 -17 235 -21 99 -5 182 -9 184
-9 2 -1 1 -7 -2 -13 -3 -10 33 -14 155 -16 111 -1 157 1 153 9 -4 6 2 13 14
16 43 11 19 23 -46 23 -37 0 -169 7 -293 15 -287 18 -365 21 -415 15z"/>
<path d="M919 1761 l-24 -20 65 0 c72 0 147 12 161 26 5 5 -30 10 -84 11 -82
3 -97 0 -118 -17z"/>
<path d="M2567 1772 c-6 -9 28 -52 42 -52 10 0 41 39 41 52 0 10 -77 10 -83 0z"/>
<path d="M7310 1749 c0 -16 -3 -29 -6 -29 -3 0 -35 -4 -72 -10 -37 -5 -139
-14 -228 -20 -88 -5 -180 -17 -205 -25 -42 -14 -39 -15 86 -10 71 3 205 14
298 26 92 12 171 18 175 14 4 -3 -5 -16 -21 -27 -40 -29 -33 -36 26 -25 139
26 156 35 139 72 -15 32 -58 51 -134 58 l-58 6 0 -30z"/>
<path d="M6530 1745 c-7 -9 -11 -18 -8 -21 9 -8 87 8 105 22 16 12 12 13 -33
14 -34 0 -56 -5 -64 -15z"/>
<path d="M2090 1724 c-23 -8 -73 -11 -145 -7 -78 4 -119 1 -140 -8 -28 -12
-23 -13 75 -20 58 -4 179 -9 270 -12 164 -6 165 -6 141 14 -15 13 -39 19 -70
19 -25 0 -57 6 -71 13 -20 10 -32 10 -60 1z"/>
<path d="M2740 1725 c-16 -19 -17 -19 56 -33 102 -20 117 -15 54 18 -62 33
-92 37 -110 15z"/>
<path d="M2397 1693 c-12 -11 -8 -23 8 -23 9 0 28 -9 43 -20 17 -13 35 -18 45
-14 24 9 21 16 -16 42 -33 22 -67 28 -80 15z"/>
<path d="M2666 1641 c-4 -5 3 -15 14 -21 24 -13 26 -30 3 -30 -9 0 -14 -3 -10
-6 3 -3 40 1 83 10 72 15 104 29 104 45 0 11 -188 13 -194 2z"/>
<path d="M7125 1641 c-7 -13 5 -19 53 -27 50 -8 88 0 96 21 4 13 -7 15 -69 15
-40 0 -76 -4 -80 -9z"/>
<path d="M1900 1620 c-191 -12 -193 -12 -135 -19 37 -4 50 -10 49 -22 -1 -13
11 -13 98 6 55 12 104 27 111 34 6 6 7 10 2 9 -6 -1 -62 -5 -125 -8z"/>
<path d="M2095 1590 c-10 -11 -16 -22 -14 -24 5 -6 150 12 157 19 9 9 -2 12
-64 19 -53 6 -63 4 -79 -14z"/>
<path d="M480 1587 c-19 -7 -34 -16 -33 -22 5 -36 243 -52 303 -20 20 11 28
20 20 21 -8 1 -60 7 -115 14 -55 6 -109 13 -120 15 -11 2 -36 -2 -55 -8z"/>
<path d="M7207 1594 c-3 -3 -2 -16 3 -29 5 -13 6 -26 3 -29 -4 -3 1 -6 11 -6
9 0 40 16 69 35 l52 35 -66 0 c-36 0 -68 -3 -72 -6z"/>
<path d="M7360 1573 c-67 -24 -103 -53 -62 -49 11 0 16 -6 16 -17 -3 -29 39
-31 96 -4 29 14 59 23 66 20 23 -9 16 24 -8 41 -22 16 -78 20 -108 9z"/>
<path d="M992 1410 c-44 -7 -71 -24 -58 -37 4 -5 81 -10 171 -13 90 -3 166 -8
170 -11 15 -15 -139 -23 -430 -21 -184 1 -316 -2 -325 -8 -10 -7 3 -10 46 -10
33 0 182 -9 330 -20 148 -11 383 -24 523 -30 l253 -9 44 30 c60 41 57 54 -13
56 -66 1 -193 41 -136 42 41 1 55 21 14 21 -16 0 -46 -10 -67 -22 l-36 -21
-18 23 c-16 21 -20 22 -50 11 -45 -15 -113 -14 -234 4 -55 9 -110 17 -121 18
-11 1 -39 0 -63 -3z m526 -80 c70 0 80 -12 25 -31 -62 -21 -303 -12 -303 11 0
16 83 29 150 25 36 -3 93 -5 128 -5z"/>
<path d="M250 1401 c0 -5 -3 -17 -7 -27 -5 -13 -3 -15 8 -9 7 5 55 8 106 7 57
-2 102 2 115 9 22 12 22 12 3 20 -28 11 -225 11 -225 0z"/>
<path d="M522 1391 c-10 -6 -8 -10 10 -14 43 -12 134 -7 154 8 17 13 11 14
-66 15 -47 0 -91 -4 -98 -9z"/>
<path d="M1930 1309 c-13 -6 -32 -17 -41 -25 -15 -13 -20 -13 -52 2 -34 16
-67 14 -67 -5 0 -5 12 -12 28 -15 51 -12 298 -19 408 -11 l109 8 -140 28
c-148 30 -205 34 -245 18z"/>
<path d="M538 1205 c-16 -9 -28 -17 -28 -19 0 -2 80 -3 178 -2 97 0 310 -3
472 -8 236 -7 316 -6 400 5 103 14 96 14 -355 20 -253 4 -500 10 -550 13 -72
5 -96 3 -117 -9z"/>
<path d="M2648 1213 c-57 -4 -74 -15 -41 -27 24 -10 223 -5 223 5 0 4 -9 13
-19 19 -19 10 -43 10 -163 3z"/>
<path d="M883 1156 c-42 -19 -42 -33 1 -42 52 -9 190 22 162 38 -30 17 -130
19 -163 4z"/>
<path d="M683 1149 c-23 -5 -47 -16 -53 -24 -11 -13 1 -15 84 -15 77 0 96 3
96 14 0 8 -3 17 -8 20 -18 11 -80 14 -119 5z"/>
<path d="M440 1061 c0 -27 87 -40 150 -22 21 6 17 9 -25 14 -27 4 -67 10 -87
13 -24 4 -38 2 -38 -5z"/>
<path d="M792 990 c-18 -4 -36 -10 -39 -14 -16 -15 42 -18 151 -8 67 7 141 12
166 12 33 0 41 3 30 10 -18 11 -260 12 -308 0z"/>
<path d="M2155 940 c-33 -10 -127 -28 -209 -41 -153 -24 -166 -36 -41 -38 60
-1 146 14 262 45 49 13 61 20 60 35 -1 11 -4 18 -7 18 -3 -1 -32 -9 -65 -19z"/>
<path d="M1690 879 c-19 -4 -96 -6 -170 -3 -74 3 -148 1 -165 -4 -22 -7 13
-11 140 -17 144 -6 176 -5 208 8 20 9 37 18 37 21 0 7 -4 7 -50 -5z"/>
<path d="M1186 426 c-57 -21 -63 -32 -22 -40 31 -6 39 -14 38 -36 0 -3 71 -5
158 -5 139 0 161 2 177 18 16 15 16 19 3 27 -63 41 -281 63 -354 36z"/>
<path d="M1693 396 c-35 -7 -65 -14 -67 -17 -4 -4 271 -4 424 0 54 1 62 3 45
13 -29 17 -325 20 -402 4z"/>
<path d="M454 351 c-2 -2 -4 -15 -4 -29 0 -22 3 -24 33 -18 17 3 156 6 308 7
152 1 283 5 290 10 9 5 -31 9 -99 9 -62 0 -132 4 -155 10 -41 9 -365 19 -373
11z"/>
</g>
</svg>
