<svg version="1.0" xmlns="http://www.w3.org/2000/svg" width="1167pt" height="1280pt" viewBox="0 0 1167 1280"><g transform="translate(0.000000,1280.000000) scale(0.100000,-0.100000)" fill="#000" stroke="none"><path d="M167 12775c-48-19-63-22-88-13-26 9-34 7-55-13-31-29-30-52 3-96 24-31 26-38 15-66-11-28-9-34 11-57 13-14 34-41 47-60 62-93 124-160 147-160 29 0 73 42 73 70 0 24 28 27 37 5 3-11-9-28-35-51-50-42-61-70-36-89 18-13 18-14 1-32-16-19-16-21 5-50 36-49 113-151 188-248 103-132 190-254 202-280 5-12 29-38 52-57 22-19 68-73 101-119 33-46 86-115 118-154 32-38 66-83 74-1e2 9-16 32-50 52-75 102-126 231-359 366-665 83-188 305-721 305-733 0-9 94-84 174-138 48-33 186-165 186-178 0-6 13-23 30-38 17-15 30-36 30-50 0-12 13-48 29-78 42-80 91-234 91-286 0-51 18-133 33-152 7-9 24-12 45-10 41 5 41 4 78-142 14-57 32-116 39-130 8-14 18-52 24-85 8-56 153-421 186-472 8-12 24-23 36-25 13-2 24-8 26-14 6-17-130-34-280-34-1e2-1-137-4-151-15-13-10-44-15-89-15-66 0-71 1-101 35-18 19-40 35-50 35-29 0-29 29 0 71 41 60 57 65 97 29 38-33 64-38 73-15 4 9-15 57-41 109-47 94-63 154-51 2e2 9 37 32 32 60-13 26-41 33-43 151-57 47-5 52-4 83 29 42 43 39 68-7 82-23 7-46 26-73 62-21 29-46 53-54 53-9 0-29 8-45 17-29 17-29 17-29 118 0 111-13 145-55 145-21 0-25 7-35 58-71 356-217 672-310 672-30 0-24-16 10-30 85-35 194-273 256-555 34-158 37-259 8-3e2-12-16-35-57-51-90-27-54-28-65-20-109 8-40 6-63-11-125-12-42-25-104-31-139-6-34-26-98-46-141-19-43-35-84-35-90 0-22-37-10-64 20-26 29-32 31-75 25-25-3-111-12-191-19-80-7-151-17-158-21-7-4-12-16-12-26 0-10-18-40-40-65-22-25-40-53-40-61 0-19 32-32 38-14 8 22 72 89 109 112 50 30 121 39 216 27 1e2-12 144-30 157-64 12-31 36-32 67-3 19 18 33 21 85 19 37-1 80-10 103-21 32-15 53-18 102-13 75 7 79 2 65-88-9-63-3-114 14-114 5 0 12 25 15 55 8 74 35 153 60 176 18 16 45 20 188 25 91 4 186 4 210 1 34-4 47-1 57 12 7 10 37 28 68 40 49 20 62 32 98 87 23 35 49 89 58 119 14 44 22 56 41 58 13 2 67 14 119 28 52 13 102 24 113 24 25 0 78-28 103-55 11-12 27-25 35-27 11-5 10-9-6-21-26-20-12-26 75-29 62-3 65-4 68-29 3-23-2-27-57-42-43-12-65-24-80-46-42-58-26-82 71-102 66-14 108-35 108-54 0-19-31-35-67-35-39 0-70-24-78-60-6-27-10-30-45-30-37 0-40-2-50-41-13-48-27-55-181-93l-106-26-61 25c-65 26-128 34-178 22l-32-8-6 58c-17 151-25 178-46 157-7-7-7-55-1-155 5-82 5-148 0-153-5-6-16-2-29 9-18 16-26 17-96 6-84-14-158-37-222-70-33-17-47-19-62-11-40 21-56-17-18-42 12-8 18-19 14-26-12-19-43-14-49 9-5 17-11 20-36 14-22-5-38-1-58 14-26 19-32 19-108 7-332-55-359-59-363-48-2 7-10 12-18 12-8 0-14 7-14 15 0 25-40 18-2e2-34l-151-49-35 55c-85 133-134 244-134 304 0 15 13 58 29 95 16 38 34 87 40 109 8 31 18 43 41 52 41 16 54 50 99 272 36 175 59 360 81 651 5 69 20 193 34 277 20 122 23 157 14 181-11 30-10 32 93 130 57 54 119 112 137 127 40 34 57 64 44 77-15 15-69-18-139-85-35-33-73-65-85-71-49-24-108-172-147-366-23-113-30-170-60-457-11-99-24-190-30-202-6-11-14-48-17-83-10-96-101-433-142-523-30-67-36-91-37-150 0-60 5-82 38-155 21-47 52-107 69-135 17-27 36-70 42-95 13-51 39-70 98-70 26 0 41-6 52-22 14-20 18-21 66-10 65 15 556 17 565 2 3-5-3-10-13-10-38 0-44-25-58-242-8-117-16-220-19-229-3-10 0-27 6-38 10-15 10-23 1-33-6-8-39-70-73-138-34-68-69-135-79-149-11-16-21-54-24-95-4-37-15-85-25-105-27-52-70-220-86-332-8-53-23-118-33-145-17-44-18-56-6-119 7-38 13-76 13-82 1-7-17-24-38-37-22-14-42-34-46-45-3-11 3-51 15-88 34-110 30-154-33-378-31-110-66-247-77-304-12-57-27-116-34-130-7-14-16-63-19-109-4-45-15-117-27-160-47-182-80-325-1e2-447-26-152-61-279-96-350-25-49-27-76-9-133 6-18 0-29-27-55-33-31-114-159-196-308-23-41-51-84-62-94-18-17-20-30-20-162 0-138-1-147-27-191-14-26-36-58-49-72-12-14-54-67-93-119-62-83-71-1e2-71-138 0-24-9-69-20-102l-21-59 36-93c20-52 39-101 41-110 5-15-87-276-111-313-7-12-19-41-25-66-21-78-50-123-135-206-88-86-108-116-119-178-5-26-22-53-52-84-24-26-44-51-44-56 0-5 36-63 80-128 44-65 80-127 80-138 0-21 7-23 52-20 42 2 83-45 129-150 23-52 47-114 53-138 7-24 24-54 39-68 16-15 27-35 27-51 0-36 33-85 78-116 71-50 151-75 277-87 119-12 121-12 259 19 77 18 146 37 153 43 20 16 16 44-19 148-34 97-69 144-156 207-22 17-35 39-47 80-9 32-32 105-50 163-47 142-76 289-77 380-1 90 58 350 121 535l40 120 88 6c48 3 98 9 111 13 25 8 50 53 77 136 23 70 49 122 70 140 10 8 39 47 66 87 27 40 62 86 78 102 33 34 38 53 76 299 14 89 34 184 44 210 21 53 367 721 426 822 21 36 52 85 70 110 18 25 90 164 162 310 71 146 149 299 172 340 23 41 80 155 126 253 81 174 138 266 163 267 6 0 12-5 12-11 0-6 21-31 48-57 26-26 65-80 86-121 41-79 172-292 266-431 31-47 102-172 158-278 93-177 1e2-195 90-220-8-18-13-134-16-349-3-261-6-324-18-334-11-9-15-8-19 2-2 8-6 181-7 384-2 204-7 378-12 388-10 21-32 22-40 1-3-9-6-191-6-405 0-250-4-397-10-410-6-10-20-19-31-19h-21l7 388c4 214 4 446 0 515-6 111-9 127-24 127-10 0-26-9-35-19-24-26-141-322-210-527-34-103-73-198-96-237-22-36-40-73-40-81 0-20-95-161-124-184-32-25-120-132-139-168-11-22-14-53-10-134 3-58 5-118 5-135-1-44-28-252-41-308-24-111-131-337-186-397-35-38-128-177-167-250-19-36-48-87-63-113-33-57-29-92 12-102 41-9 103-51 143-96 26-29 48-41 85-50 80-19 102-29 115-54 7-13 25-27 41-30 22-5 41-27 88-1e2 67-105 111-187 111-209 0-9 28-25 73-41 39-15 99-38 132-52 153-62 166-65 255-59 47 3 118 12 158 22l72 16v39c0 90-82 228-167 278-43 26-53 37-53 59 0 17-27 69-73 137-40 61-94 147-120 192l-48 81 6 79c9 119 25 213 47 269 16 46 23 53 52 58l34 7 7 82c5 60 15 97 36 139 35 69 68 93 128 93 41 0 47 4 70 37 15 21 42 49 62 62 44 30 60 63 104 211 18 63 40 127 49 142 8 15 22 60 31 98 29 122 57 190 81 193 29 4 34 34 34 206 0 77 4 147 9 155 21 32 102-151 150-339 46-177 84-308 141-481 28-83 50-165 50-184 0-18 10-54 23-81 19-43 22-66 22-176v-128l61-62c34-35 81-90 104-123 67-94 90-115 124-115 37 0 45-11 87-118 17-42 48-113 69-157 20-44 41-99 45-123 4-24 26-91 49-150 56-142 64-176 70-312 6-144 30-223 92-307 13-17 24-40 24-51 0-31 48-108 75-120 88-40 162-22 345 88 74 44 144 80 156 80 36 0 48 23 33 65-12 32-11 37 6 54 31 30 243 120 307 130 45 8 70 20 120 58 58 45 68 60 126 173 106 209 148 365 97 365-16 0-21-11-30-65-22-129-77-257-162-378-48-68-57-74-188-125-49-19-137-58-194-86-102-52-104-52-155-41-68 14-145 39-151 50-3 5 22 25 56 46 87 52 178 128 207 171 14 20 34 59 44 86 28 75 79 147 108 154 14 3 41 18 60 33 19 15 60 43 91 62 31 20 79 56 107 82 63 55 89 63 154 46 27-6 52-9 55-6 14 13-32 45-80 56-29 6-73 22-98 36-51 26-94 31-106 12-10-16-58-44-177-103-88-44-91-45-188-45h-98l-68 68c-46 45-86 98-121 160-48 87-51 94-36 115 10 14 15 44 15 85 0 43 7 80 24 120 13 31 34 91 46 132 53 185 91 288 116 311 14 13 44 33 67 44 23 11 47 31 54 45 7 14 49 138 93 276 66 208 96 282 165 420 47 93 85 172 85 175 0 4-8 9-18 12-19 4-32 44-32 98 0 44 26 36 43-13 27-77 96-302 111-360 8-32 33-103 55-157 22-55 56-155 76-223 32-109 40-127 73-155l37-32-2-95-1-95 87-80c53-48 97-98 112-127 20-39 32-50 68-62 28-9 49-25 61-45 10-17 53-133 94-258 75-225 76-228 76-332 0-136 33-235 109-331 17-21 31-46 31-55 0-9 10-43 23-76 21-55 26-60 62-68 63-13 214 40 329 116 50 33 107 66 126 73 28 10 34 17 32 36-11 79-10 80 50 112 31 17 72 40 90 50 22 13 55 20 1e2 21 37 2 74 9 85 16 69 50 101 83 149 154 30 44 75 109 1e2 145 65 93 109 184 129 269 22 88 16 103-46 113-24 3-65 18-90 32-70 39-130 48-188 25-27-10-57-16-67-13-11 3-77-25-159-66-77-38-152-70-168-70-16 0-59 13-97 30-38 16-73 30-78 30-16 0-72 50-72 65 0 7 11 16 24 19 30 7 36 29 36 149 0 115 11 122 49 33 21-50 23-61 13-90-27-74-8-166 34-166 18 0 25 8 32 32 12 46 37 47 83 2 26-26 42-35 49-28 7 7-5 30-37 70-27 33-76 102-110 154l-61 95 13 97c12 93 33 148 56 148 8 0 9 15 5 44-6 37 1 66 49 2e2 73 205 108 274 143 281 57 12 75 29 94 87 16 48 23 57 46 60 27 3 27 4 33 98 5 88 23 149 48 164 4 3 25-36 46-87 21-50 54-123 72-162 60-123 123-296 133-366 6-43 19-81 34-103 24-35 43-120 48-216 3-43 5-46 49-67 47-23 99-74 99-98 0-17 58-68 97-84 37-15 41-23 110-226 73-214 83-261 83-388 0-121 13-180 65-292 50-106 95-167 140-190 50-25 150-27 186-4 13 8 44 23 69 32 61 24 191 116 209 149 13 22 13 33 4 57-9 25-8 32 6 44 33 30 157 84 205 91 27 3 72 17 101 30 52 24 125 81 125 98 0 5 11 24 25 42 14 18 25 39 25 47 0 9 14 37 31 64 48 75 117 209 127 248 7 25 7 40-1 51-19 24-147 83-205 95-81 17-108 14-165-19-69-39-261-101-314-101-23-1-61 8-86 19-43 19-49 27-120 163-42 79-88 174-103 211-25 63-26 69-11 86 27 29 57 105 57 143 0 20-6 55-14 77-16 44-49 207-66 320-7 52-7 79 0 93 19 35-6 82-95 175-75 78-87 97-104 154-90 302-146 495-176 610-20 74-42 153-50 175-9 22-28 105-45 185-25 124-40 169-1e2 305-39 88-82 196-95 240-13 44-51 136-83 205-75 158-108 242-132 333-10 40-37 106-59 147-21 41-47 1e2-56 130-9 30-23 69-31 86-7 17-22 69-33 115-18 79-22 87-70 129-28 25-51 50-51 56 0 5 14 23 30 39l30 29 30-32c47-52 58-44 90 73 12 44 33 96 46 116 13 19 24 49 24 66 0 17 6 48 13 69 9 27 14 102 15 238 2 186-1 226-33 408-5 29 16 58 41 58 11 0 14-27 14-155 0-152 0-155 23-159 42-10 173-25 262-31 50-3 112-13 139-22 40-13 78-14 2e2-10 83 4 237 8 343 9 178 3 193 5 221 25 26 19 36 21 123 15l94-7-3-28c-2-15 6-42 17-60 21-34 81-207 81-234 0-8-6-13-13-10-6 2-12 13-12 25-1 26-3 27-32 18-25-8-115-123-169-216-20-36-52-86-70-111-37-50-42-80-20-98 27-22 71 15 160 132 47 63 98 126 112 141 34 33 59 35 50 4-3-13-6-47-6-75v-53l-70-46c-64-42-230-210-230-232 0-28 24-12 115 77 79 77 117 106 178 135 42 21 79 42 83 48 4 5-6 20-21 32-25 20-26 23-11 36 28 23 49-8 47-71 0-39 4-58 18-73 17-18 71-205 71-243 0-8 23-62 51-121 28-59 59-127 69-152 10-25 43-94 73-155 30-60 66-143 81-183 14-40 33-86 41-102 8-16 27-62 41-102 15-40 78-179 140-309 63-130 117-251 120-268 6-27 4-31-15-31-68 0-70-231-6-575 8-44 17-101 20-127 4-33 11-48 21-48 25 0 27 27 10 113-34 177-58 4e2-51 483 6 74 17 115 29 104 2-3 20-60 40-127 20-67 45-146 57-175 29-73 86-257 95-304 9-54 21-74 44-74 22 0 26-13 34-115 7-79 52-335 68-380 6-16 22-67 36-112 24-79 25-83 8-102-15-16-23-18-44-9-15 5-99 11-187 11-132 2-167-1-197-15-21-9-38-24-38-33 0-9-9-33-20-55-25-49-25-50 5-50 33 0 32-7-10-66-29-40-35-55-30-81 8-45-7-42-59 10-54 54-67 93-101 286-24 139-25 155-10 170 14 16 13 24-15 85-17 37-28 71-25 77 4 5 22 16 40 23 52 22 56 55 12 119-20 29-41 65-46 80-6 16-27 48-46 70-56 67-188 257-235 338-24 41-61 1e2-82 131-21 32-49 88-62 125-25 70-78 196-122 292-14 29-23 56-20 58 6 7 63-73 92-129 13-27 37-54 52-62 47-24 259-266 234-266-6 0-27 13-45 30-35 30-57 38-57 20 0-5 23-30 50-56 28-26 50-52 50-58 0-20 62-78 99-93 63-27 130 2 117 50-7 31-127 194-245 336-51 61-114 150-140 198-36 68-54 91-80 103-28 12-44 37-117 182-82 162-86 167-120 174-41 7-51 21-94 125-41 98-79 145-125 153-28 6-39 15-55 46l-20 38 25 55c13 30 29 58 35 62 13 8 137 192 179 266 46 82 40 109-24 109-32 0-55 10-55 24 0 6-7 20-15 30-14 19-16 18-54-8-34-24-41-36-55-93-20-79-57-154-95-194-20-20-32-48-40-88-12-61-21-76-108-184-36-44-62-66-81-70-23-5-43-27-95-104-36-54-77-123-90-153-14-30-43-77-66-105-24-30-49-75-62-115-12-36-30-82-41-103-27-54-21-91 15-95 36-4 62 19 78 67 24 72 52 122 78 136 21 11 32 30 51 92 26 86 76 179 156 293 49 70 110 130 132 130 6 0 36-43 68-96 33-52 73-116 91-142 17-26 42-65 54-87 12-22 32-52 45-67 12-15 28-44 34-65 7-21 49-117 95-213 49-103 97-220 115-285 34-116 87-226 178-365 30-47 72-122 92-166 21-45 43-85 49-88 17-11 119-188 127-221 4-16 33-84 64-150 51-107 58-131 69-224 7-57 17-114 22-128 5-13 9-59 9-102v-78l57-79c74-104 103-134 127-134 34 0 1e2-81 135-166 18-43 46-106 61-139 16-33 34-82 40-110 7-27 18-68 25-90 8-22 19-80 26-129 12-96 35-158 74-205 20-23 23-34 16-53-12-33 14-81 70-125 40-32 48-34 89-28 68 10 175 59 270 123 84 57 85 58 93 109 8 48 12 54 55 78 25 14 69 33 96 42 129 42 204 116 277 268 74 157 104 251 91 280-7 14-20 25-30 25-10 0-42 16-72 35-46 29-64 35-111 35-51 0-60-4-113-45-110-85-119-89-223-89-78 0-98 4-121 20-34 26-83 99-162 244l-62 115 12 50c7 28 24 62 37 77l25 26-73 299c-58 235-74 314-74 375 0 73-2 79-32 110-27 28-48 80-123 298-60 177-93 291-1e2 343-13 105-71 244-213 507-37 69-87 244-87 305 0 23-23 87-64 178-36 79-78 179-94 222-17 44-53 137-80 206-28 70-61 164-72 210-24 92-53 157-75 166-9 3-15 18-15 35 0 42-15 64-52 78-31 11-32 12-11 20 19 8 21 14 16 69-5 58-4 61 31 102 69 81 133 301 108 371-6 19-14 125-17 248-3 118-8 231-11 250-3 20 0 48 5 63 12 31 6 64-41 215-15 51-28 105-28 122 0 18-23 67-62 130l-62 101 4 142c2 78 3 156 3 172-1 17-4 127-8 245-4 144-12 251-25 324l-20 109-77 81c-43 45-90 89-105 99-28 19-56 80-78 175-9 40-18 56-39 67-43 22-110 132-95 156 3 5 57 9 119 9 103 0 115 2 125 19 5 11 10 75 10 143 0 140 10 168 59 168 16 0 31 7 34 15 6 14-12 94-32 148-18 48-14 76 13 83 14 3 27 11 29 18 3 6 34 27 70 45 87 44 137 86 137 116 0 16-14 34-49 59-28 19-85 76-128 127-77 90-87 105-114 164-8 17-59 76-114 131-84 85-109 105-160 124-179 66-396 66-524 0-72-37-201-166-201-202 0-7-7-23-15-35-42-60-79-242-69-337 3-34 20-122 36-196 17-74 35-169 42-210l11-75 50-10c28-5 56-14 63-18 32-21-2-97-43-97-29 0-74-44-120-116-19-30-41-54-49-54-22 0-182 219-195 265-8 31-52 85-188 233-98 107-193 213-211 235-32 40-33 43-15 55 79 55 108 81 111 99 2 16-25 52-102 133-57 62-121 140-141 173-60 103-227 280-315 334-39 23-186 63-236 63-17 0-43 9-58 21-25 20-263 327-285 368-18 33-13 58 19 84 36 31 37 35 5 69-25 27-26 27-72 13-27-8-63-15-80-15-32 0-73-29-73-51 0-6 9-22 20-36 19-24 19-28 5-43-15-16-13-22 14-68 16-27 45-73 65-102 19-28 40-67 45-86 5-19 30-70 55-114 25-43 46-83 46-89 0-5-21-16-46-25-34-11-74-43-157-122-62-59-118-120-124-136-7-17-24-71-38-121-45-166-27-409 49-637 28-84 40-96 103-106 48-7 63-24 63-72 0-37-15-50-64-54-36-3-44-9-93-78-67-95-87-134-80-154 10-26 32-18 50 17 17 33 104 140 118 145 4 2 41-21 81-51 96-70 254-177 264-177 4 0 31-18 60-40 55-41 55-42 158-263 57-123 72-217 37-239-25-16-26-39-6-168 16-102 32-150 47-150 6 0 7 11 3 28-14 54-42 227-38 238 7 20 50 34 61 21 15-19 102-401 94-409-8-8-582 575-582 591 0 13 48 31 84 31 25 0 53 15 113 59 84 63 93 74 93 122 0 40-25 48-58 17-15-13-45-36-68-51-22-15-50-41-62-57-19-26-114-90-134-90-3 0-30 33-59 73-28 39-83 102-120 139-48 46-69 74-69 91 0 15-16 39-47 68-49 46-208 234-230 273-7 11-23 47-35 79-19 46-51 88-167 212-78 85-148 155-153 155-6 0-4-8 3-19 8-11 36-52 63-91 27-39 79-98 115-130 36-33 62-62 59-66-4-3-35-3-69 1-58 7-66 11-125 66-59 55-86 69-98 51-2-4 14-27 35-52 22-25 51-62 64-82 33-49 58-64 146-89 1e2-28 123-43 182-124 29-38 85-106 125-150 40-44 76-91 79-105 3-14 33-54 66-90 73-80 82-97 67-135l-11-30-16 33c-8 17-19 32-23 32-5 0-40 40-79 89-94 117-89 114-141 96-58-21-63-19-45 14l15 29-124 139c-68 76-133 147-145 157-36 33-37 8 0-32 19-20 48-57 63-82 28-45 28-45-38 20-37 36-76 84-87 108-22 44-45 63-66 55-21-8-15-21 40-91 30-37 60-78 68-92 28-49 75-107 174-211 55-59 106-114 114-124 8-10 22-15 38-12 20 4 32-6 70-57 63-84 70-89 121-82 35 5 44 2 49-12 3-9 19-34 35-54 16-20 33-51 40-68 9-27 7-36-11-61l-23-30 47-122c26-67 56-148 67-179 12-36 27-59 39-63 10-4 32-17 48-30 16-14 49-33 74-44 56-24 93-69 182-224 54-94 78-126 105-141 30-16 112-114 126-150 3-7-30-18-91-30-110-21-116-19-148 54-31 70-55 1e2-83 1e2-20 0-31 15-73 99-50 99-72 121-97 1e2-8-6-24-9-36-6-28 8-48-9-48-38 0-13 38-106 84-207 47-101 88-196 91-213 13-56 16-63 30-69 9-3 27 0 40 6 18 8 29 8 36 1 14-14-23-40-69-49-25-5-33-3-38 12-4 11-31 75-62 144-30 69-82 208-114 310-115 358-129 391-283 660-81 141-1e2 168-111 157-4-3 8-29 26-57 18-28 30-53 27-56-7-7-121 127-210 248-55 73-78 97-96 97-42 2-152 124-199 221-46 94-107 269-97 278 11 11 13 8 317-438 109-159 132-187 142-172 6 9-72 131-215 335-30 42-92 132-138 2e2-46 67-97 136-114 154-26 28-31 44-43 130-16 125-20 206-10 221 4 7 19 12 34 12 15 0 38 6 52 13 35 18 29 60-22 169l-41 87 24 26c13 14 47 42 75 61 28 19 82 63 120 99 53 50 66 67 57 76-9 9-16 9-27 0-12-10-19-8-36 9-16 16-28 20-48 15-15-4-65-10-112-15-47-4-129-20-183-35-54-14-103-25-109-23-20 7 262 208 291 208 6 0 33-21 62-46 73-65 74-45 2 29-34 34-78 89-99 122-94 150-180 228-347 315-67 34-84 39-178 45-88 6-118 4-194-14l-90-22-75 79c-150 158-325 354-328 369-7 29 9 64 33 73 14 5 25 14 25 19 0 5-21 28-47 50-46 41-46 41-67 22-32-29-62-34-90-16-30 20-62 7-77-32-8-21-5-33 15-64 15-22 22-41 16-44-23-14-5-47 81-145 50-58 93-106 94-108 6-6 60 26 79 47 11 12 24 21 31 21 16 0 255-262 255-279 0-5-15-14-32-20-18-7-50-23-70-36-21-14-42-25-48-25-17 0-11 26 10 45 11 10 20 23 20 30 0 6-29 49-65 94-36 46-65 85-65 87 0 3 7 16 16 29 9 13 13 29 9 35-14 22-44 8-94-45l-53-55 31-38c86-103 151-195 151-214 0-12-26-51-58-87-82-92-92-110-113-203-25-112-23-218 6-366 20-104 32-137 68-2e2 25-43 52-98 62-124 22-60 40-76 90-80 39-3 40-4 40-42 0-28-6-42-21-52-18-13-24-12-47 7-26 19-27 20-33 2-30-84-142-269-171-280-34-13-193 180-193 234 0 70-23 113-124 231-55 65-138 163-183 218-92 112-193 214-193 196 0-20 139-202 227-297 81-86 137-168 125-179-9-10-72-7-92 4-10 5-56 56-101 112-81 102-105 125-116 114-3-3 12-25 35-50 22-24 45-60 50-80 6-20 37-66 69-103 33-38 66-80 75-94 13-20 28-28 61-32 74-10 114-35 132-81 9-23 37-67 62-1e2 43-55 45-59 27-69-10-6-32-23-47-38-23-23-32-27-52-19-13 5-29 19-36 31-6 12-44 66-85 121-42 57-78 117-85 141-8 30-28 59-70 101-51 52-61 58-86 51-15-3-30-8-32-10-11-11 18-62 97-173 48-68 99-142 114-165 15-23 55-74 89-112 34-39 77-93 95-121 37-57 51-66 92-58 24 5 34 0 56-26 15-18 36-51 48-74 23-46 86-116 104-116 7 0 26-17 43-38 25-32 30-47 29-88-1-35 15-97 57-218 31-93 66-189 76-213 24-57 102-139 160-169 56-28 90-66 134-153 20-39 56-88 90-121 56-54 175-222 175-247 0-12-115-53-149-53-10 0-30-13-46-30-51-54-50-55-140 164-34 82-69 154-78 160-12 8-22 7-37-1-24-15-27-10-60 95-24 77-39 93-66 71-11-9-13-22-9-50 4-21 4-43 0-48-10-16-35-1-52 32-30 58-73 2e2-67 222 3 12-2 40-11 61-9 21-21 59-26 84-6 25-39 90-73 145-82 130-183 301-231 393-23 45-47 77-61 82-12 5-25 18-29 29-3 10-19 36-36 57-16 20-62 98-101 173-39 75-101 183-138 241-96 151-135 217-165 283-25 51-45 73-45 47 0-5 24-63 54-127 35-75 61-149 71-203 10-47 32-143 51-214 18-72 32-132 29-134-14-14-115 242-150 381-18 71-38 134-44 140-38 38 28-222 103-405 31-75 56-146 56-157 0-11 10-32 23-48 12-15 32-42 44-59l22-31-49-48c-38-37-52-46-69-40-28 9-230 208-305 299-51 63-56 74-56 118 0 44-4 53-53 106-73 79-117 146-117 176 0 23 4 26 33 26 19 0 60-9 92-20 98-34 136-24 192 52 20 27 23 43 23 116 0 83 14 166 33 190 5 6 22 12 37 12 43 0 60 10 60 35 0 31-37 151-62 2e2l-21 39 32 26c24 20 31 35 31 61 0 33 3 36 65 63 99 43 188 131 166 163-3 5-52 50-108 101-56 50-114 112-130 138-62 1e2-157 241-182 268-45 50-167 143-223 169-44 22-73 27-173 32-69 4-150 2-190-4-84-13-69-26-211 194-53 83-109 164-124 180-15 17-47 58-70 93-42 62-42 63-25 90 10 15 26 37 37 49 22 23 16 43-21 77-20 18-23 18-82 2-51-15-66-15-91-5-27 11-32 10-59-18l-30-29 32-40c17-21 38-52 46-69 15-30 15-30-4-12-11 9-25 17-31 17-26 0-20-24 20-77 24-32 65-88 91-125 27-38 54-68 61-68 23 0 66 25 66 38 0 8-9 27-21 43-19 27-19 30-3 36 12 4 25-3 41-23 48-58 48-58-21-113-78-61-87-83-53-119 30-32 93-131 107-167 5-14 15-27 22-29 51-15 52-14-39-1e2-134-128-197-250-214-416-5-47-11-108-15-137-5-37-1-74 14-130 11-43 23-96 27-118 17-103 84-245 116-245 10 0 36-9 58-21 42-21 61-59 61-121 0-35-27-62-54-53-64 20-61 22-99-67-20-47-47-104-61-129-14-24-26-52-26-62 0-10-8-21-17-24-24-9-123 102-123 139 0 37-10 58-26 58-19 0-93 69-143 133-25 33-46 75-55 111-15 57-21 64-288 335-285 288-493 512-575 618-152 197-398 492-523 627-36 39-87 99-113 133-26 34-64 76-86 95-49 42-221 248-221 265 0 7 14 28 30 46 36 41 36 49 9 93-24 40-26 40-102 9zm53-45c0-16-23-60-31-60-13 0-39 30-39 45 0 13 18 22 53 24 9 0 17-3 17-9zm-110-39c6-16 22-39 36-52 27-25 30-41 11-58-10-8-20-4-39 17-43 47-70 92-64 107 9 26 43 17 56-14zm158-205c23-34 42-66 42-69 0-4-11-7-24-7-29 0-112 101-102 125 12 31 41 14 84-49zm2252-32c0-3-10-19-21-36l-21-29-24 22c-29 27-30 36-6 42 26 7 72 8 72 1zm-99-81c18-27 48-65 67-85 30-31 33-40 22-53-7-8-16-15-21-15-9 0-129 178-129 192 0 23 33 2 61-39zm-1981-76c13-19 38-44 56-56 33-23 84-88 84-109 0-6-9-16-19-22-11-5-34-30-52-55-32-45-33-45-52-27-15 15-17 24-9 39 9 15 4 32-25 84-19 35-47 77-61 92l-27 28 33 30c18 16 36 29 41 29 5 0 19-15 31-33zm207-233c2-5-13-18-33-29-20-11-48-37-62-57-23-36-42-42-42-13 0 19 48 74 85 96 31 19 46 20 52 3zm2107-143c42-65 76-123 76-129 0-11-23-22-48-22-9 0-28-9-42-20-14-11-29-20-33-20-5 0-7 26-6 58 3 62-4 81-58 151-18 24-33 52-33 62 0 21 37 50 55 43 7-3 47-58 89-123zm1691 73c-16-25-17-25-36-8-22 20-11 41 24 46 29 4 33-7 12-38zm-25-80c0-28-24-25-57 7-47 46-66 82-50 98 9 10 22 1 60-40 26-29 47-58 47-65zm-3691 65c14-17 51-59 82-93 30-33 131-155 224-271 226-282 244-303 289-344 22-20 57-58 79-86 21-27 52-57 68-67 29-18 69-72 69-95 0-6-15-16-32-22-18-7-48-26-66-44l-34-32-41 46c-23 25-114 135-202 245-88 109-192 230-230 269-39 38-81 86-95 105-13 19-58 78-99 130-42 52-83 106-91 118-9 14-30 27-50 31-20 4-36 14-38 23-6 32 88 116 132 118 4 0 20-14 35-31zm3636-119c3-6-1-7-9-4-18 7-21 14-7 14 6 0 13-4 16-10zm128-14c14-21 14-26 2-36-21-17-55 5-55 35 0 33 32 33 53 1zm2217-53c-1-5-10-19-21-32-19-23-21-23-37-7-16 16-16 18 2 32 21 15 56 19 56 7zm-3532-18c155-32 246-84 341-194 56-65 161-220 161-238 0-6-42-32-92-57-144-71-208-107-268-152-30-23-75-52-1e2-64-25-13-63-35-85-50-22-14-85-54-140-87-55-33-115-74-133-91-33-31-263-152-289-152-18 0-42 51-75 159-26 88-39 197-20 176 12-14 52-128 52-149 0-9 11-28 25-41 42-42 90-34 239 43 141 73 176 105 157 141-15 26-41 27-91 1-22-11-43-20-48-20-5 0-12 28-16 61-7 72-18 89-57 89-34 0-59 33-70 93-4 23-11 59-14 80-6 31-4 42 14 61 12 13 30 46 41 73 10 28 31 68 45 88 29 44 31 58 10 75-36 30-143-65-2e2-177-27-56-40-69-50-54-8 14 17 69 59 132 20 30 36 64 36 76 0 64 3e2 189 462 192 20 1 68-6 106-14zm3467-77c31-41 42-65 36-71-14-14-33 3-70 62-59 91-31 99 34 9zm-2155 42c0-5-4-10-9-10-6 0-13 5-16 10-3 6 1 10 9 10 9 0 16-4 16-10zm2124-122c18-25 20-38 8-38-4 0-16 14-25 30-21 35-6 41 17 8zm141-58c19-37 19-59 0-66-19-8-44 12-56 43-20 54 29 75 56 23zm-14e2-141c91-40 109-53 195-139 107-106 131-147 110-185-7-14-62-59-123-101-60-43-155-113-210-156-123-95-157-121-312-236-66-49-131-102-145-117-14-15-52-45-84-68l-59-40-20 24c-36 44-89 163-133 299-20 62-34 266-22 332 5 29 23 77 39 105 16 29 29 63 29 75 1 13 13 41 28 62 44 63 129 116 255 158 108 36 116 37 232 35 118-3 122-4 220-48zm1517-11c9-7 37-40 62-73 40-54 43-61 29-72-9-7-29-14-45-14-15-1-34-2-40-3-9-1-12 10-10 29 2 22-6 43-28 74-17 23-29 49-26 57 7 17 37 18 58 2zm-4390-227c-5-140-22-147-22-9 0 74 13 150 24 137 2-2 1-60-2-128zm1218 109c0-5-25-22-55-37-30-15-111-59-181-97-69-37-128-65-131-62-8 8-12 4 88 69 88 58 243 137 266 137 7 0 13-4 13-10zm68-54c15-8 47-35 71-59l44-45-174-5c-96-3-187-8-203-12-22-6-28-5-24 6 5 15 223 129 246 129 7 0 25-6 40-14zm-2607-63c12-19 19-36 16-39-6-7-67 74-67 89 0 15 28-12 51-50zm6034 14c39-13 86-27 107-31 29-5 54-25 121-95 90-96 193-239 180-252-20-20-224-144-271-165-29-13-78-43-110-68-31-24-71-47-88-51-17-3-42-17-55-31-13-13-56-40-96-59-40-20-98-59-130-88-32-30-80-64-106-76-26-13-71-41-1e2-62-28-22-57-39-63-39-15 0-60 96-80 170-8 30-20 1e2-25 155-6 55-13 121-16 146-6 57 32 203 81 311 39 85 108 154 211 210 110 60 303 71 440 25zm-5980-97c3-5 1-10-4-10-6 0-11 5-11 10 0 6 2 10 4 10 3 0 8-4 11-10zm2405-27c17-38 52-144 48-148-9-10-60-8-110 3-51 12-63 11-127-8-43-13-77-30-86-43-8-11-13-23-10-25 2-3 36 6 75 18 65 21 74 22 102 8l31-14-49-25c-27-13-49-30-49-38 0-8 20-19 50-27 66-17 68-17 62 6-6 24 23 60 69 83 17 9 35 24 38 33 5 13 9 15 18 6 9-9 5-19-15-40-15-15-27-37-27-48 0-11 18-65 39-119 21-54 37-104 34-111-3-8-27-14-61-16l-57-3-6-75c-4-41-10-113-14-160-12-139-25-146-119-70-74 62-263 265-296 320-14 22-49 72-77 111-53 71-66 109-38 109 9 0 33 9 54 19 37 19 38 21 44 88 3 37 8 75 12 85 14 35 99 60 320 92 130 20 130 20 145-11zm103 20c-13-2-33-2-45 0-13 2-3 4 22 4 25 0 35-2 23-4zm1977-23c0-5-5-10-11-10-5 0-7 5-4 10 3 6 8 10 11 10 2 0 4-4 4-10zm3345-26c101-20 186-66 269-144 77-73 146-178 146-222 0-33-13-46-111-109-43-28-79-53-79-56 0-5 38 17 133 79 62 39 95 53 104 44 13-13-10-35-76-75-39-23-71-44-71-46 0-7 33 7 74 33 49 30 113 41 121 20 3-8 37-36 75-64 38-27 69-53 70-57 0-5-39-5-87 0-49 4-143 8-211 8-96-1-121 2-118 12 7 17 2 16-44-7-22-11-50-20-62-20-13 0-45-11-73-25-27-13-55-25-61-25-6 0-29-14-50-31-70-56-228-165-289-199-33-19-90-53-128-77-37-24-73-43-80-43-7 0-27 60-51 157-48 197-58 330-31 449 21 98 33 121 106 210 161 197 275 238 524 188zm-7701-83c26-29 45-56 42-58-8-9-32 14-72 69-45 64-31 59 30-11zm409-133 162-161-35-9c-19-6-42-16-52-25-14-13-18-12-35 12-10 15-59 75-108 134-161 190-150 174-126 183 12 4 21 12 21 18 0 5 3 10 6 10 3 0 79-73 167-162zm1307 83c25-49-1-80-56-67-32 8-31 35 4 63 33 28 39 28 52 4zm-1473-127c54-64 111-132 126-152 37-48 54-57 84-43 32 15 156 14 171-1 21-21 13-27-35-30-74-5-61-22 30-42 15-4 31-14 34-22 3-9 41-51 85-94 43-42 78-82 78-89 0-28-35-4-107 74-69 75-113 104-113 75 0-5 28-41 63-81 99-113 1e2-115 93-143-9-38-29-32-76 25-27 32-53 52-72 56-18 3-39 20-56 44-15 21-33 39-40 39-17 0-17 0 102-164 56-77 124-178 152-225 51-84 52-86 90-86 55 0 86-20 78-49-3-13 1-40 10-60 14-35 17-36 65-36 48 0 52-2 75-38 13-20 31-43 40-51 9-7 16-24 16-37 0-13 25-104 57-201 31-98 71-226 89-285 46-147 92-197 219-234 23-7 38-24 67-79 21-39 45-92 54-120 22-64 116-238 157-289 28-36 67-130 67-161 0-7-26-20-57-30-78-24-102-45-129-112-13-31-32-65-43-76-18-19-19-19-29-1-5 11-31 89-56 174-74 248-81 261-114 228-19-19-27-1-51 102-30 130-44 160-76 160-21 0-30 10-50 53-14 28-36 66-49 84-12 17-40 84-61 149-43 136-85 233-108 253-10 7-17 19-17 26 0 6-25 52-56 101-31 49-65 106-75 127-26 50-114 181-159 237-20 25-70 99-109 165-40 66-97 155-127 198-29 43-58 97-65 120-19 74-37 107-58 107-21 0-61 52-1e2 128-23 45-47 58-36 20 16-57 91-251 127-328 102-223 177-440 151-440-16 0-49 42-77 96-31 63-174 384-228 513-21 51-73 163-114 249-40 85-74 159-74 165 0 17 101-116 126-166 26-51 44-54 44-8 0 25 3 28 25 23 21-4 24-1 18 14-9 27-47 86-98 155l-44 59 22 35c12 19 27 34 34 35 6 0 56-52 110-116zm1390 22c24-47 104-170 180-276 70-97 131-163 243-262l65-57h-32c-29-1-48 14-156 122-110 109-271 307-362 446l-29 43 23 19c27 22 43 14 68-35zm2672 17c17-44 32-123 25-134-4-6-12-4-23 5-27 24-87 46-128 46-58 0-133-30-133-53 0-14 5-17 18-12 41 16 107 17 127 2 16-13 17-16 5-20-63-18-75-24-75-37 0-10 17-17 55-23 66-9 80-5 80 26 0 26 17 47 38 47 10 0 13-7 9-21-5-19 21-90 61-167 22-42 9-64-46-75-44-9-48-15-55-87-3-35-3-35-62-40-61-5-84-22-72-54 6-15 10-15 34-3 43 21 90 28 101 14 5-7 12-41 14-76 3-50 1-68-11-81-9-9-21-25-27-36-11-18-12-18-49 1-20 11-56 38-79 61-1e2 99-186 194-202 225-9 19-34 60-56 91-54 81-55 86-23 112l28 23-16 42c-36 89-14 128 88 156 33 9 103 30 155 47 81 26 150 42 196 47 6 0 17-11 23-26zm-2753-59c11-21 33-57 47-78 32-47 33-53 7-61-33-10-64 18-101 90-33 65-34 66-14 81 26 19 36 14 61-32zm4730 11c-3-10 1-15 12-15 22 0 127-104 119-118-6-9-215-26-333-27-36 0-68-6-77-14-9-7-22-11-29-9-7 3 15 23 49 46 63 43 79 50 68 31-4-5 35 11 85 36 51 25 90 49 87 52-3 3-34-9-69-27-73-37-70-30 10 22 61 40 88 47 78 23zm-4812-89c55-98 96-124 144-90 21 14 24 14 49-6 15-11 50-53 78-93 28-40 92-112 144-162 77-75 89-91 72-93-33-5-49-40-62-127-6-44-18-93-26-109-24-47-51-140-44-149 12-13 97 29 117 58 11 14 27 37 38 51l18 25 24-22c35-32 38-55 14-89-11-16-48-85-81-154-35-73-65-123-71-120-6 4-36 59-66 123-40 81-56 127-55 154 0 34-4 40-61 82-54 40-142 123-330 313l-60 59 18 76c19 82 18 104-17 206-13 38-18 66-12 68 6 2 35 19 65 37 30 19 57 33 61 30 4-2 24-33 43-68zm-193-47c17-32-3-46-36-25-21 14-24 20-14 32 17 20 36 17 50-7zm2519-30c11-66-10-80-37-24-13 28-14 37-3 50 19 23 34 13 40-26zm-56-48c8-14 17-40 20-57 9-41 147-220 275-354 99-106 110-131 41-95-34 18-180 179-180 2e2.0 8-34 53-76 1e2-112 127-167 225-131 238 20 7 37-4 51-32zm2463 17c14-17 47-107 42-113-2-2-36 5-74 16-94 26-129 24-171-7-18-14-32-30-29-35 3-4 37-5 75-2 80 7 89-3 35-37-48-30-45-46 11-54 55-7 64-3 64 31 0 32 26 63 53 63 16 0 18-4 12-22-12-38-9-59 18-152 15-48 24-92 21-97-3-5-17-9-32-9-41 0-50-11-54-60l-3-45-65-5c-52-4-65-9-68-23-3-16 3-18 60-15l63 3 8-84c8-84 8-84-20-113l-29-28-99 97c-55 54-121 125-147 158-191 244-192 246-177 256 7 5 27 12 42 16 37 8 44 27 23 69-21 45-20 77 2 96 19 18 169 60 307 88 111 23 120 23 132 8zm-2513-98c40-63 42-76 7-65-24 7-45 43-56 93-10 48 5 39 49-28zm-79-25c32-56 64-77 107-73 31 3 38-3 138-129 58-73 120-148 139-167l33-34-20-20c-23-23-47-122-38-158 4-16 0-34-12-52-10-15-32-64-47-109-16-46-32-83-36-83-4 0-17 24-30 54-23 56-55 86-333 308-44 35-88 75-1e2 90l-20 28 33 68c27 55 32 75 26 102-7 30-4 36 30 64 28 24 38 40 42 74 4 29 14 49 31 62 13 11 26 20 27 20 2 0 15-20 30-45zm2804-72c155-165 304-337 293-341-25-8-80 20-119 61-23 23-70 78-105 122-56 70-68 80-96 80-29 0-32-3-32-30 0-24 13-45 60-93 33-34 60-65 60-70 0-6-10-12-22-15-22-6-22-7 8-39 53-57 105-136 94-143-21-13-8-46 54-133 36-49 85-123 110-163 24-41 59-87 76-104l32-30 19 24 19 23 54-46c30-25 68-64 85-85 31-39 91-156 91-178 0-19 90-253 120-313 38-75 115-140 166-140 35 0 60-38 145-220 45-96 97-207 115-247l34-71-22-49c-24-54-60-113-69-113-4 0-10 16-14 37-5 26-22 51-59 87-46 45-60 68-111 191-32 77-62 143-68 147-6 3-25-1-43-9-18-9-39-13-46-10-8 3-25 34-38 69-12 34-40 101-61 147-33 71-42 83-59 78-26-7-40 19-40 75 0 32-7 54-26 79-14 19-42 66-61 104-61 120-114 209-145 240-31 32-172 264-248 410-132 253-221 393-249 394-11 1-10-4 2-21 37-53 128-219 160-293 54-124 103-306 95-355-4-22-8-17-31 33-15 33-32 78-38 1e2-14 52-107 282-161 397-41 87-66 97-30 12 44-103 132-350 146-407 20-88 63-176 98-206l31-26-74-60c-99-81-126-111-143-158-8-22-24-61-35-87-18-39-25-45-44-41-32 8-58 34-112 113-39 57-46 72-36 84 10 12 3 26-40 78-60 72-75 104-85 179-6 46-14 62-56 108-84 92-110 168-69 205 17 15 26 16 80 5 33-6 88-9 121-7 49 4 66 9 88 31l27 27-4 150-3 150h36c26 0 40 6 51 23 19 29 12 69-25 154l-28 62 24 33c29 40 52 58 73 58 9 0 45-30 80-67zm-704 15c6-22 4-28-8-28-9 0-19 5-22 10-4 6-15 8-26 5-30-10-23 22 9 39 31 16 38 12 47-26zm2411-9c20-54 17-83-11-109-31-29-31-31-1-94 14-28 26-69 28-91 3-40 3-40-37-45-38-5-40-7-43-45-4-51-13-60-62-56-45 3-61-4-54-23 4-9 19-12 54-8l50 5v-61c0-33 2-66 5-74 3-7-1-22-8-32-13-17-16-17-74 12-47 24-82 55-154 135-139 155-259 310-259 336 0 13 40 41 59 41 10 0 12-10 8-41-6-47 8-58 53-39l29 12-19 27c-11 14-22 40-26 57-8 43 26 62 144 80 52 8 128 21 168 29 39 9 78 13 87 9 8-3 18 0 22 6 11 18 28 6 41-31zm199 21c3-5 1-10-4-10-6 0-11 5-11 10 0 6 2 10 4 10 3 0 8-4 11-10zm-4851-24c-6-16-34-30-42-21-8 7 19 35 34 35 7 0 11-6 8-14zm2164-39c7-12 16-33 21-47 5-14 41-68 79-120 39-52 86-115 104-140 18-25 78-89 132-142 76-75 95-98 79-98-25 0-129 77-159 117-12 15-57 72-102 125-80 97-212 286-212 304 0 16 21 33 35 28 7-3 17-15 23-27zm-2238 3c0-5-8-10-17-10-15 0-16 2-3 10 19 12 20 12 20 0zm-2075-86c42-37 127-116 188-175 61-60 129-119 151-132 36-20 44-32 81-122 23-55 59-136 80-180 38-79 38-82 40-205 1-94 8-159 29-260 16-74 32-139 37-144 20-22 20 32-2 122-28 116-34 317-10 345 7 9 17 15 21 12 9-5 23-82 40-210 6-44 22-138 35-210 13-71 27-147 30-167 3-21 10-38 15-38 16 0 12 49-15 181-14 68-34 185-45 259-11 74-26 160-34 190-12 46-12 60-1 87 8 18 18 33 22 33 8 0 75-45 148-99 85-64 101-62 54 9-25 37-69 153-69 181 0 33 67-40 75-82 6-31 52-76 167-164 87-66 93-73 90-104-1-21 5-42 18-59 15-18 21-41 21-76 1-204 8-294 25-336 15-36 18-72 18-175 0-150-19-461-29-488-11-26-26-17-60 37-31 51-66 101-187 276-142 206-279 380-344 437-36 32-98 99-137 148-80 101-436 457-449 449-4-3 45-62 111-132 66-70 137-150 159-178 23-29 66-74 97-1e2 56-48 232-256 292-344 17-25 53-63 79-86 55-46 166-195 197-264 24-55 68-120 119-179 56-64 141-221 119-221-4 0-42 53-84 119-43 65-114 159-160 207-45 49-103 115-127 148-139 181-215 276-299 373-108 125-407 448-498 541-70 70-83 90-83 124 0 17 8 27 30 35 22 8 30 18 30 35 0 22-78 148-154 248-18 25-45 66-60 91-25 45-25 47-7 63 11 10 45 69 77 132 31 63 62 114 69 114 7 0 47-30 90-66zm4273 12c38-57 40-76 10-76-36 0-48 13-62 68-22 80 0 83 52 8zm-2987-49c15-28 0-41-23-20-19 17-58 84-58 1e2.0 10 69-58 81-80zm210 32c43-19 64-39 42-39-20 0-108 39-111 49-5 16 13 14 69-10zm2692-23c22-54 75-88 108-68 26 16 29 14 93-71 29-40 96-117 147-172l94-1e2-38-3c-33-3-40-8-61-50-13-26-27-71-31-99-4-30-17-67-31-85-13-18-29-43-36-56-14-28-32-24-36 9-6 37-32 59-204 176-87 59-177 122-198 140l-39 34 21 35c17 28 21 52 20 111-1 74 0 75 24 70 13-2 27 1 32 7 9 13 58 123 66 149 3 9 15 17 28 17 18 0 27-10 41-44zm-4621-34c28-18 131-164 143-201 3-11 19-30 36-42 30-21 59-67 59-93 0-25-70-7-116 30-48 39-224 262-224 284 0 41 56 53 102 22zm6691-49c58-89 101-143 230-286 59-65 107-122 107-128 0-18-20-8-78 40-70 58-135 133-257 295-72 96-85 119-75 131 7 8 16 15 21 15 4 0 28-30 52-67zm-2237 36c10-17-23-46-38-31-8 8-8 15 2 27 15 18 26 19 36 4zm-4899-86c28-38 60-87 72-110 11-23 25-45 31-48 17-11 56-77 69-118 12-36 11-40-10-63-12-13-27-24-34-24-6 0-44 82-85 183-40 1e2-80 197-87 215-7 17-12 32-10 32 3 0 27-30 54-67zm7057 36c14-11 26-27 26-35 0-24-29-15-68 21-37 34-37 34-11 35 15 0 38-9 53-21zm-2234-4c0-8-7-15-15-15-16 0-20 12-8 23 11 12 23 8 23-8zm-26e2-27c0-6-7-5-15 2-8 7-15 17-15 22 0 6 7 5 15-2 8-7 15-17 15-22zm4765-18c39-34 53-40 90-40 42 0 46-3 91-62 26-35 89-106 141-159l95-96-32-11c-29-11-31-14-24-46 5-29-2-52-42-136-27-55-54-1e2-60-1e2-15 0-40 30-48 56-4 12-35 41-69 65-1e2 70-293 217-307 234-11 14-11 24-1 58 7 23 15 60 18 82 2 22 11 54 19 72 8 17 14 39 14 48 0 34 23 60 67 74 1 1 23-17 48-39zm-4033-37c40-38 93-83 116-102 24-19 63-54 85-78 23-24 73-65 111-91 65-44 73-55 143-177 125-218 126-221 118-279-13-83-7-186 15-270 11-44 22-82 25-84 16-16 16 17 0 92-20 95-17 196 8 242 15 29 37 112 37 139 0 24 59 149 67 141 4-4 10-36 14-72 5-46 12-69 25-79 17-12 14-13-23-8-30 4-43 2-43-7 0-6 9-14 20-17 12-3 53-21 91-39 106-51 111-47 44 41-25 33-45 64-45 70 0 5 41-31 90-80 50-49 90-94 90-1e2.0-6 15-18 33-26 25-11 34-22 40-54 5-22 19-82 33-134 29-111 38-221 26-311-9-60-10-62-11-20-2 57-10 90-24 90-13 0-3-226 18-404 9-71 13-132 9-135-3-3-18 9-33 28-14 18-51 63-82 1e2-71 85-221 277-281 361-69 96-651 660-681 660-12 0 72-84 394-391 101-97 198-196 214-220 17-24 61-84 99-134l68-90-32-3c-41-4-55 9-75 69-9 27-23 49-30 49-8 0-35 26-62 57-65 77-378 391-481 482-155 137-95 63 126-156 208-206 390-411 425-479 30-57 55-188 61-318 7-133 10-151 28-140 14 9 1 244-18 308-8 27-14 54-14 59 0 15 38-22 78-77 31-42 38-63 49-135 6-47 12-112 12-145l1-59-65 6c-37 2-73 11-83 20-9 8-33 20-52 26-28 9-41 23-66 69-17 31-80 136-140 232-61 96-130 210-154 253-44 77-76 106-131 120-13 3-36 19-50 34-26 29-90 173-153 348-20 55-42 111-48 125-18 37-16 44 16 50 59 10 60 64 1 128-18 21-40 56-48 79-8 22-30 60-49 84-45 56-128 178-128 188 0 5 8 11 18 13 10 3 51 53 91 112 39 58 76 106 81 106 5 0 42-30 82-67zm3191-52c82-83 109-131 74-131-23 0-128 125-166 198-22 42 5 22 92-67zm697 60c0-12-20-25-27-18-7 7 6 27 18 27 5 0 9-4 9-9zm-4724-118c32-58 74-131 91-162 70-121 67-106 24-134-54-36-72-37-81-7-58 191-111 410-101 410 4 0 34-48 67-107zm2174 77c26-16 3-21-31-6-31 13-32 14-9 15 14 0 32-3 40-9zm-407-45c28-132 43-182 88-289 28-65 48-123 46-129-2-6-21 12-43 40-28 35-52 84-78 159-20 60-46 132-57 159-22 59-24 76-7 93 22 22 43 8 51-33zm-89-47c16-40 48-131 72-203 49-144 55-152 202-277 45-39 82-76 82-83 0-16-88-125-1e2-125-5 0-12 11-16 25-4 16-26 39-58 60-57 38-165 145-220 218-33 44-36 54-36 114 0 65-1 67-49 118-69 73-114 170-93 202 8 12 47 19 132 21l56 2 28-72zm2516 42c8-5 12-11 9-14-3-3-14 1-25 9-21 16-8 20 16 5zm53-114c72-64 199-217 201-243 0-8-11-25-26-36l-28-21-26 25c-21 20-181 206-233 272-11 14-11 20-1 32 10 12 10 21 1 42l-12 26 28-18c15-10 59-46 96-79zm-3718-22c32-32 60-70 105-140 13-21 13-25-2-40-19-19-9-30-127 126-43 58-77 108-74 112 7 12 59-19 98-58zm-20-1e2c47-63 85-121 85-128 0-23 20-29 39-12 26 24 33 20 29-16-2-25-8-34-25-36-18-3-45 26-142 148-119 149-127 161-115 173 15 14 49-20 129-129zm3555 101c12-19 64-86 116-147 51-62 94-118 94-125 0-23-19-23-34-1-9 13-61 84-116 158-55 74-1e2 138-1e2 143 0 18 20 4 40-28zm-5455-36c7-10-21-49-35-49-6 0-30 44-30 55 0 10 59 4 65-6zm6041-11c18-13 54-41 82-63 27-22 81-61 118-88 179-123 247-188 273-258 7-19 24-56 37-84 29-59 54-191 54-284 0-36 3-84 7-106 6-39 7-39 20 35 8 41 16 99 18 128 9 121 29 118 39-4 4-48 18-149 32-223 28-157 29-181 11-181-8 0-101 93-207 208-308 330-410 433-420 427-11-7 5-45 19-45 13 0 165-164 360-387 62-72 144-159 182-193 92-82 157-165 265-340 89-144 119-199 111-207-3-2-44 47-91 109-144 187-361 451-456 552-86 92-408 396-419 396-5 0 81-91 192-203 227-228 350-369 365-419 6-18 16-93 23-166 12-138 7-170-22-135-14 17-106 176-194 338-22 39-62 106-91 151-57 86-80 101-169 106-38 3-40 5-49 43-5 22-26 81-46 130-21 50-50 126-66 169-26 75-27 80-10 90 53 32 52 29 33 88-9 30-39 87-67 127-27 40-50 81-50 91 0 10-12 27-27 38-21 15-25 23-17 33 6 8 35 44 63 82 29 37 56 67 60 67 3 0 20-10 37-22zm-5130-76c6-66 5-72-11-72-21 0-65 38-65 55 0 23 52 107 61 98 5-5 11-41 15-81zm1998 46c26-36 19-81-30-203-35-88-50-115-63-113-14 3-101 140-101 160 0 4 13 5 30 2 40-9 81 33 110 114 12 34 26 62 31 62 4 0 15-10 23-22zm-2834-48c0-15-38-32-45-20-3 5-3 15 0 20 8 13 45 13 45 0zm3575-49c3-8 3-16 1-19-6-5-56 48-56 60 0 12 48-23 55-41zm-4185-2c12-23 19-44 15-47-3-3-22 11-43 31-31 31-34 39-22 47 24 15 28 12 50-31zm601-157c12-53 42-146 66-207 47-119 60-194 21-120-27 51-148 418-148 447l1 23 19-23c10-12 29-66 41-120zm5408 30c54-88 60-112 36-132-33-27-49-8-77 95-43 161-42 152-24 135 8-8 37-52 65-98zm-5851 46c11-24 52-90 91-147 39-58 71-109 71-115 0-15-49 35-72 74-12 19-48 72-80 117-32 44-58 88-58 97 0 31 28 15 48-26zm1971 21c11-12 23-34 26-50 4-15 15-40 26-54 11-14 19-33 17-42-2-12-23 0-83 51-44 38-81 75-83 82-4 14 29 32 60 33 10 1 26-9 37-20zm-2039-50c0-6-7-6-20 1-11 6-20 15-20 21 0 6 7 6 20-1 11-6 20-15 20-21zm5224-22 20-27-23-53c-13-28-36-81-50-116-15-36-32-66-37-68-20-7-117 187-102 202 3 4 15 1 27-6 34-22 71-1 99 54 26 52 35 55 66 14zm-2674 2c0-24-23-21-28 4-2 10 3 17 12 17 10 0 16-9 16-21zm3827-39c46-59 51-77 28-87-28-10-85 59-99 120-11 46 21 31 71-33zm-2153 41c3-5-1-12-10-15-27-10-44-7-44 9 0 16 45 21 54 6zm-3548-153c60-68 168-184 241-260 72-75 150-165 174-2e2 23-35 69-92 1e2-127 65-70 109-149 109-195 1-17 11-1e2 24-183 25-169 26-169-41-133-21 11-50 20-64 20-21 0-28 6-33 26-22 84-280 630-316 668-20 21-43 31-80 37-32 5-62 17-76 30-24 22-103 212-143 343-23 74-26 96-12 96 5 0 58-55 117-122zm1310 56c35-37 66-75 69-85 4-11 15-19 25-19 30 0 69-57 141-210 39-80 76-158 84-173 8-16 15-35 15-44 0-30 82-298 106-345 16-32 32-50 49-54 28-7 28-8 54-149 18-104 43-163 105-250 51-72 70-115 56-129-6-6-57-12-119-14-95-3-114-1-151 18-34 17-47 19-71 11-28-10-29-9-29 25 0 32-4 37-44 55-52 23-62 45-47 103 6 22 12 55 13 71 3 25 11 34 58 57 30 15 71 27 91 27 85 2 126 39 95 86-22 34-131 106-191 127l-50 17-1 63c-1 117-62 252-107 235-24-9-32-71-17-134 12-49 12-57-4-84-11-19-16-41-13-57 6-25-16-306-29-382-3-19-11-41-17-48-6-8-13-32-16-55-5-37-11-44-66-77-33-20-59-41-58-46 2-5 19-10 38-12 28-3 38-9 46-29 7-20 14-24 32-18 12 3 27 6 32 6 117-9 255-6 284 5 87 36 81-3-30-177-53-83-56-89-35-89 17 0 76 70 145 172 57 86 52 84 191 93 110 8 130 8 138 1 9-10 21-99 21-168 1-38 6-70 12-74 8-5 11 23 9 97-4 133-4 129 24 129 14 0 31 9 38 19 8 11 26 23 41 27 18 4 48 31 81 73 29 36 72 83 95 104 42 37 45 38 104 35 64-5 169-29 222-53 17-7 51-16 76-19 86-12 102-49 37-82-53-26-68-45-68-80 0-40 12-49 71-49 50 0 79-17 79-45 0-20-19-30-56-30-48 0-63-16-57-60 6-39 5-40-38-60-30-13-54-34-74-64-37-56-62-59-173-16-143 55-168 57-267 25-71-22-91-25-111-16-34 15-176 14-244-2-47-11-65-23-120-78-36-36-86-75-113-88-43-21-56-22-141-16-88 7-95 6-105-13-6-11-11-23-11-26 0-3 47-6 104-6 66 0 116-5 136-14 30-12 40-11 107 11 41 14 78 33 83 43 16 29 88 51 198 60 57 4 108 12 112 17 5 4 10 19 12 33 2 20 10 26 43 31 22 4 53 12 68 18 52 20 138 13 237-20 90-29 148-34 210-18 12 3 16-10 18-73 4-116 1-117-190-120-84-1-178-3-208-4-30-1-229-3-443-5-319-2-389-5-399-16-19-24 5-30 79-21 70 8 220 0 228-11 3-6-86-142-148-226-14-19-16-17-52 40-68 108-103 134-150 113-14-6-27-9-29-7-2 2-25 123-50 268-47 264-53 288-86 326-22 26-160 293-160 310 0 8 9 29 19 47 21 36 36 113 46 248 4 47 13 130 21 185 16 108 12 205-12 313-16 74-18 116-4 141 10 19-41 296-62 335-10 18-5 26 38 63 27 24 53 43 57 43 5 0 38-30 73-66zm2372-49c-6-7-26 8-59 44-67 75-62 84 10 19 41-36 56-56 49-63zm2818 98c3-10 9-25 14-34 5-11 2-19-11-27-21-13-49-65-80-147-11-30-24-55-29-55-10 0-30 63-30 93 0 11-9 30-20 44-30 38-26 56 9 48 40-9 82 15 106 59 22 40 33 45 41 19zm-1152-130c15-25 25-48 23-50-6-5-87 56-87 67 0 7 25 28 37 30 1 0 13-21 27-47zm1209-7c17-51 14-58-19-46-13 5-24 6-24 3 0-4-5-2-11 4-10 10 17 83 32 83 4 0 14-20 22-44zm-1937-21c30-52 27-61-12-48-36 12-49 33-40 66 9 38 21 34 52-18zm-766 16c0-5-6-14-14-20-16-13-32 2-21 19 8 12 35 13 35 1zm-1940-41c0-13-1-13-10 0-5 8-10 22-10 30 0 13 1 13 10 0 5-8 10-22 10-30zm1350-1c0-11 16-40 35-63 19-24 40-58 47-77 6-19 23-50 38-69 15-19 35-51 45-70 42-83 106-166 150-194 29-17 54-44 67-70 41-81 129-360 137-432 6-66 11-77 61-145 30-41 71-105 90-144 26-52 43-74 67-85 73-34 23-45-137-31-78 6-131 16-146 26-13 8-39 15-59 15-33 0-35 2-35 35 0 31-5 38-35 52-41 19-42 29-15 109 21 60 40 229 40 361 0 74-10 129-39 218-14 42-20 50-41 50h-25l-1-120c-1-139-34-352-64-405-10-20-27-76-36-125-14-69-24-96-47-122l-29-33 21-32 20-33h105c155 0 166-24 45-102-78-51-121-84-116-89 7-7 131 41 180 69 25 15 55 44 68 64 12 21 24 40 25 42 2 2 15-6 30-18 21-17 30-18 47-9 23 12 234 3 252-11 25-20 80-20 144-1 71 22 71 22 139 145 18 33 40 66 49 73 10 7 45 12 83 12 61 0 71-3 120-37 66-47 77-69 29-59-65 13-171 18-180 9-14-14-1-39 27-52 32-14 53-14 85 3 17 9 61 13 137 12 118-1 143 11 59 29-55 12-93 46-145 129-20 33-78 121-127 195-50 75-119 186-153 246-89 155-83 150-147 150-42 1-60 6-78 23-32 30-101 193-132 312-27 103-29 120-17 120 8 0 108-108 337-364 55-61 127-139 162-173 69-68 72-75 103-256 19-112 39-175 47-150 2 6-3 38-11 71-9 33-16 88-16 122 0 52 2 61 17 58 9-2 32-28 50-58 27-46 35-74 47-165 14-104 31-173 41-163 3 2-2 44-11 93-9 54-12 91-6 97 6 6 28-17 59-59 65-90 178-264 204-316 29-57 39-152 29-279-9-103-11-111-60-203-29-52-55-97-59-99-4-3-37-8-72-12l-64-6 3 127 3 126 28 10c29 10 51 45 51 79 0 15 7 20 29 20 40 0 55 22 48 70-7 55-22 70-71 71-22 0-50 4-61 9-22 9-16 13 40 25 52 11 75 32 75 68 0 37-24 77-46 77-17 0-16 3-5-36 12-41 4-51-54-72-57-21-95-64-79-90 7-11 29-19 65-22 60-6 79-14 79-36 0-9-10-14-29-14-40 0-91-43-73-61 18-19 15-28-17-41-16-7-46-35-67-63-35-46-39-58-49-153-7-56-15-105-17-108-23-22-275-31-403-15-49 7-115 9-145 7-127-13-520-17-520-6 0 19 67 40 132 41 81 0 177 21 188 39 6 8 10 27 10 42 0 23 6 29 38 37 89 24 90 24 123 0l31-22 64 31c36 18 71 32 79 32 9 0 57-14 108-31 51-16 113-33 139-36 44-5 48-4 57 21 9 22 16 26 52 26 52 0 48 20-7 36-192 56-327 87-385 88l-65 1 4 108c4 93 3 107-12 107-19 0-22-14-35-146-6-56-13-109-17-118-3-8-22-20-43-25-178-48-189-49-247-25-38 16-38 16-59-10-20-25-27-27-110-29-106-2-96-15-155 187-22 76-54 166-70 2e2-16 33-40 105-54 160-14 54-39 126-57 160-30 57-31 66-25 128 6 54 11 68 27 73 29 10 33 43 25 248-4 127-3 208 5 246 10 52 8 65-14 137-13 43-33 114-43 157l-18 77 49 50c54 55 65 60 65 29zm2021 0c51-25 89-57 89-76 0-26 43-139 61-158 10-11 39-62 64-113 32-65 52-95 69-102 29-11 29-12 56-160 33-186 40-216 75-321 28-81 48-120 111-207 42-59 82-121 89-137 8-17 23-39 34-49 28-25 18-36-33-36-23 0-48-6-55-12-6-7-31-13-54-13-23-1-63-4-88-9-41-7-49-5-79 20-18 16-39 43-46 60-12 29-19 33-56 36l-43 3v95c0 84 2 95 19 98 10 2 32-10 53-30 31-30 36-31 47-16 6 9 25 18 40 20 16 1 34 11 40 21 9 16 6 23-24 45-91 70-121 117-146 222-17 76-62 192-81 210-14 13-15 12-10-10 2-14 11-47 18-73 11-38 11-52 1-67-7-12-10-35-7-58 5-28-5-70-38-172-51-153-82-298-73-335 7-29-6-32-44-10-36 20-67 18-103-7-42-28-87-70-87-80 0-14 37-9 50 6 6 8 32 23 56 32 42 16 45 16 64-1 11-10 20-26 20-36 0-29 15-31 72-8 60 24 173 24 188 0 13-22-29-108-66-136-32-24-46-55-25-55 17 0 99 102 125 156 27 54 27 54 51 38 18-12 36-14 67-10 106 17 156 18 155 4 0-7 1-44 1-83 2-88 20-76 29 19 3 37 12 73 19 81 7 7 44 16 81 19 180 17 168 14 203 65 17 25 47 68 66 95 19 26 34 59 34 72 0 30 20 40 103 49 61 6 71 4 111-19 25-14 53-37 64-51 11-14 30-25 43-25h23l-21 15c-11 8-26 34-32 59-13 55-15 146-2 146 12 0 88-105 134-185 19-33 49-84 67-113l33-52-23-25c-21-23-24-37-31-182-4-87-13-207-20-266-10-91-15-109-32-119-11-5-68-12-126-15l-106-4 30 26c17 14 39 35 51 45 37 34 64 164 44 215-15 40-30 17-30-50 0-68-11-126-21-119-5 3-9 26-9 52-1 26-7 64-14 84-13 36-12 38 18 66 17 16 38 32 47 35 9 3 23 25 31 49 13 39 18 43 51 46 45 4 58 19 60 72l2 42-66 17c-106 28-114 44-30 56 73 10 87 24 76 71-8 29-16 40-32 42-13 2-23-1-23-7 0-6 5-11 11-11 6 0 9-10 7-22-3-20-12-25-67-34-64-12-76-20-87-63-8-29 4-37 68-45 76-10 1e2-22 96-49-2-17-11-23-43-27-31-4-45-13-65-41-14-20-51-63-83-97l-59-60-91 24c-50 14-94 30-98 36-4 6-12 42-17 81-17 112-28 101-36-35-8-135-14-148-70-148-17 0-64-9-105-20-62-16-83-17-124-9-40 9-51 8-66-5-23-21-38-20-46 3-9 29-24 31-157 20-195-16-256-35-278-88-16-39-29-43-91-28-51 12-53 14-80 72-39 86-139 382-139 411 0 14-9 42-20 64-11 22-20 48-20 58 0 11-10 32-21 47-29 36-36 170-11 198 14 16 17 48 19 195 2 98-1 234-7 303-10 117-9 131 11 195 31 101 53 138 110 186 29 24 71 60 93 80 23 21 46 38 52 38 5 0 30-9 55-21zm-934-470c123-124 223-231 223-238 0-6-7-11-16-11-9 0-22-7-29-16-10-14-24-2-106 87-52 57-151 159-220 228-69 70-162 170-208 223-45 53-91 1e2-101 103-11 4-24 15-30 25-8 15-5 22 17 38l27 19 110-116c61-64 211-218 333-342zm2236 409c17-13 45-23 61-23 24 0 41-13 92-72 69-79 84-116 83-208 0-54-1-57-12-35-20 43-21-119-1-245 26-160 21-437-6-420-11 7-85 120-136 205-18 31-58 84-88 118-31 35-56 65-56 67 0 2 5 16 10 30 7 20 5 51-11 123-36 171-49 256-49 319 0 40-5 67-14 75-15 14-7 58 16 85 16 20 68 11 111-19zm-1945-9c17-6 32-14 32-18 0-5 26-42 58-82 32-41 79-103 104-139l44-65 2-165c1-166-9-191-23-57-8 71-25 102-25 45 0-56 38-339 53-403 26-102 28-115 19-115-14 0-58 53-84 102-27 49-70 106-125 166-18 19-33 42-33 50 0 8-13 30-30 49-16 18-30 44-30 56 0 34-98 447-115 485-19 42-19 62 1 91 15 20 21 22 68 16 28-3 66-11 84-16zm833-101c7-13 32-53 55-90 43-66 52-88 36-88-13 0-122 165-122 184 0 23 17 20 31-6zm-3836-59c9-29-2-36-20-13-18 24-19 34-1 34 8 0 18-9 21-21zm1905-38c0-10 7-24 16-31 23-20 36-48 25-55-12-7-81 52-81 69 0 14 20 36 32 36 4 0 8-8 8-19zm-3715-477c46-162 65-244 56-244-22 0-73 126-95 237-14 65-32 145-40 178-9 32-16 73-15 90 1 37 42-78 94-261zm5920 76c31-74 75-185 96-247 21-61 53-139 70-173 32-63 63-170 49-170-10 0-95 107-143 180-27 41-41 79-56 150-11 52-33 157-50 232-28 126-37 178-27 167 2-2 29-65 61-139zm-2017 33c25-60 52-140 52-155 0-29-23 15-55 105-36 99-34 135 3 50zm2471-136c22-43 52-93 67-110 56-67 95-187 60-187-22 0-31 16-111 2e2-97 223-92 209-72 190 8-8 33-50 56-93zm-5503 30c29-38 32-51 39-145 7-103 25-152 25-68 0 25 4 46 9 46 30 0 159-183 216-305 21-44 52-109 70-145 30-60 33-75 39-190 3-69 9-166 12-216l6-90-57-85c-32-46-63-88-69-92-10-7-145-1-153 7-2 2 4 16 13 32 15 27 15 39-3 187-11 87-23 160-27 164-14 14-16-8-7-68 5-35 12-1e2 16-145l7-80-52-63c-29-34-54-60-56-58-2 2-5 97-7 210l-2 207h28c29 0 67 31 67 55 0 27 38 55 75 55 39 0 55 20 55 70 0 47-15 67-57 74-56 10-133 36-133 46 0 16 27 29 88 43 35 8 66 17 69 21 8 8-14 84-33 114-13 20-20 22-64 16-40-5-50-4-50 8 0 8-13 27-30 43-32 31-52 101-70 255-12 101-13 140-2 140 4 0 21-20 38-43zm1213-128c28-64 51-121 51-128 0-7 16-45 36-86 20-41 34-78 33-83-9-21-69 19-90 60-31 61-108 379-86 358 2-3 28-57 56-121zm4586-25c34-46 35-49 35-135 0-67-3-89-13-89-19 0-57 38-57 58 0 9-5 57-10 105-9 78-8 107 5 107 2 0 20-21 40-46zm-3450-94c16-22 26-43 23-45-4-4-51 57-73 95-17 30 22-9 50-50zm-123 3c14-16 34-44 43-63 10-19 28-49 40-66 13-17 38-57 55-89 26-48 30-62 21-84-5-14-13-64-16-111-17-234-35-321-87-432-25-54-37-68-55-69-13-1-29-2-35-3-10-1-13 33-14 134-1 74-5 158-9 186l-7 51 47 6c26 2 52 11 57 18 8 13 3 97-7 107-2 3-28 12-57 22-64 21-72 47-19 65 48 16 57 34 43 82-10 32-42 233-42 263 0 17 16 11 42-17zm346-608c22-71 50-168 62-215 12-47 33-107 46-134 17-33 24-62 22-88l-3-38-90 42c-70 33-105 43-157 46l-68 4-6 34c-4 22 2 63 15 113 16 60 61 379 61 436 0 5 17-8 38-30 33-34 45-61 80-170zm3617 128c17-28 43-68 58-90 38-54 106-238 93-251-3-3-27 6-53 20-27 14-70 34-98 43-80 29-78 26-71 145 13 210 19 221 71 133zm88-63c3-11 1-20-4-20-5 0-9 2-9 4 0 2-3 11-6 20-3 9-2 16 4 16 5 0 12-9 15-20zm-5803-60c12-23 28-44 37-47 12-5 14-16 9-60-5-43-3-53 9-53 8 0 19 17 26 43 27 1e2 46 120 61 66 7-27 68-340 68-351 0-15-16-7-70 33-30 23-75 51-98 61-31 14-48 29-57 52-13 30-35 2e2-35 267 0 42 26 37 50-11zm3935-103c24-52 48-118 53-148 18-90 35-247 28-257-7-12-28-7-129 32-37 14-80 26-96 26-76 0-79 34-16 140 31 51 45 86 45 111 0 20 3 71 7 114 5 59 8 73 15 56 10-28 32-23 36 8 5 31 9 25 57-82zm-2259-48c-12-149-16-166-42-178-22-10-26-8-35 17-14 33-4 209 12 228 6 8 25 14 42 14h30l-7-81zm3634-11c0-54-5-70-40-130-23-37-42-68-43-69-15-5-221-31-247-31-19-1-179 5-355 12-176 7-364 13-419 14-111 1-130 12-108 60 11 25 16 26 89 26 43 1 110 6 148 12 39 6 167 12 285 13 250 2 297 11 350 72 27 31 39 36 69 35 20-1 42 2 50 7 9 6 34 2 71-12 68-24 85-20 93 22 5 25 12 31 32 31 24 0 25-2 25-62zm-6167-11 69-31 126 33c199 51 179 52 187-12 10-82 2-234-13-249-13-13-94-18-630-36-2e2-6-225-9-237-25-11-15-17-17-34-7-12 6-50 14-86 17-77 7-92 19-35 27 22 3 57 9 78 12 22 3 53 17 69 32 17 15 47 40 67 55 20 15 36 36 36 46 0 22 37 37 113 47 65 8 73 15 81 64 3 22 7 40 9 40 1 0 20 7 42 14 47 17 68 14 158-27zm6602-27c37-17 80-39 96-51 26-19 29-26 29-80 0-72-20-89-54-46-12 15-29 27-37 27-9 0-46 14-83 30-66 30-66 30-66 71 0 46 14 79 34 79 8 0 44-14 81-30zm-2234-96c-12-101-19-119-52-129-39-13-49 11-43 94 6 74 8 77 48 113 22 20 45 33 50 28 5-5 3-51-3-106zm-3476-43c40-18 149-99 173-129 14-19 17-178 2-187-5-3-54 24-108 60-54 36-121 74-148 83-43 16-49 21-52 50-2 23 6 45 35 86 21 31 43 55 48 55 6 0 28-8 50-18zm5682-28c30-15 58-34 62-42 5-9 14-97 21-196l13-180-37-113c-21-63-43-111-49-109-6 2-21 34-34 73-16 47-32 77-54 96-29 25-31 30-25 72 10 62-13 324-30 360-17 36-18 48-1 65 17 17 69 8 134-26zm-3924 10c8-10 19-31 22-46 10-38-14-184-32-199-19-15-47 1-51 31-3 17 2 21 22 21 20 0 26 5 26 23 0 13-5 28-12 35-15 15-48 16-48 2 0-18-26-11-47 13-28 30-55 85-48 97 3 6 16 10 28 10 12 1 33 7 47 15 34 20 74 19 93-2zm-273-35c0-6-14-36-31-67-88-157-129-197-173-167-29 19-109 177-104 207 3 23 7 24 108 30 191 10 2e2 10 2e2-3zm2998-27c9-3-5-27-55-94-32-42-66-88-76-102-10-14-22-25-26-25-5 0-36 36-70 81-66 87-77 127-42 151 16 11 41 12 143 1 68-6 124-12 126-12zm978 15c16-12 20-29 22-111 2-53 0-101-5-106-12-12-163 142-163 165 0 9 7 28 16 41 14 21 24 25 63 25 26 0 56-6 67-14zm-7156-10c0-27-28-39-75-32-53 8-57 19-12 34 48 15 87 14 87-2zm2764 6c3-5-11-31-30-58-20-27-53-79-74-115-27-45-49-70-69-79-36-15-61-8-61 17-1 30-39 104-82 160-61 79-54 83 148 83 89 0 165-4 168-8zm3060-1c8-12-43-73-55-65-10 6-12 57-2 67 10 10 51 8 57-2zm1156-3c0-24-51-118-70-128-16-8-26-6-50 11-25 19-32 20-45 9-23-19-14-53 18-68 34-16 35-40 2-48-31-8-47 6-114 91-65 82-64 79-28 106 26 19 49 25 117 30 144 10 170 10 170-3zm-405-19c6-6 6-14 0-23-6-7-34-48-63-90-53-76-98-112-130-102-19 6-122 183-122 209 0 12 12 17 48 20 70 6 256-3 267-14zm-2876-5c78-23 181-74 196-98 7-12 16-48 20-81 4-33 9-68 11-77 7-23-14-23-46-1-25 18-64 34-2e2 82-41 14-80 29-87 34-6 4-14 35-18 69-6 53-5 63 11 75 23 17 49 16 113-3zm3826-202c0-173-1-179-30-254-16-43-33-78-37-78-4 0 3 30 17 66 29 76 30 113 13 305-6 74-8 144-4 154 6 18 8 18 24 1 15-14 17-40 17-194zm-2221 161c13-83 2-205-17-183-4 5-85 132-1e2 156-4 7 3 23 14 38 16 20 29 26 58 26 37 0 39-2 45-37zm-208 1c16-21 8-43-32-89l-34-40-21 28c-26 34-46 35-61 2-13-29 3-55 33-55 11 0 19-7 19-15 0-17-43-65-59-65-11 0-109 136-136 189-20 40-8 54 40 48 17-3 62 1 1e2 9 79 14 134 10 151-12zm-404-2c26-26-101-229-164-263-27-15-52 4-92 68-19 32-53 83-76 113-54 73-51 83 30 91 112 11 288 5 302-9zm-445-8c3-9-1-30-10-47-22-46-136-197-148-197-10 0-21 10-98 94-51 57-65 114-36 146 16 18 31 20 152 20 113 0 135-2 140-16zm-4297-25c13-15 21-17 55-9 65 15 195 13 201-4 8-20-139-268-169-285-22-13-28-13-51 2-36 24-34 41 4 34 40-8 60 1 60 26 0 22-36 67-53 67-6 0-19-8-29-17-24-22-30-13-59 82-12 39-27 82-35 96-7 15-10 29-7 33 12 11 67-5 83-25zm1559 7c16-15 21-31 21-73 0-52-1-53-29-53-55 0-68-61-16-74 27-7 32-20 13-32-15-9-86 67-155 168-29 42-53 79-53 83 0 4 45 5 99 3 80-2 103-7 120-22zm1288-123c-3-82-9-156-12-166-11-28-55-45-157-63-1e2-17-220-15-259 6-21 12-22 15-16 151 3 76 8 143 12 149 12 19 33-8 56-71 20-54 31-65 62-60 5 1 20-8 34-19 32-25 39-25 96 0 31 14 53 33 68 58 46 78 104 162 113 162 5 0 7-61 3-147zm2759 126c73-28 147-96 142-133-2-15-7-27-13-26-5 0-74 20-152 46-133 42-143 47-143 70 0 14 5 34 10 45 15 26 82 25 156-2zm-4386-3c0-19-24-75-82-191-60-119-72-135-109-135-23 0-33 8-50 43-28 53-1e2 278-93 289 3 4 79 8 170 8 133 0 164-3 164-14zm2040-134c0-75-4-144-10-152-12-20-105-38-231-46-104-7-106-6-122 17-13 17-17 46-17 111 0 52 4 88 10 88 6 0 10-6 10-14 0-28 32-40 112-42 72-2 82 0 110 24 17 14 50 57 75 95 24 37 48 65 53 62 6-4 10-65 10-143zm-2501 129c18-12-7-75-82-205-56-97-82-118-119-94-40 27-158 279-135 289 1 1 63 5 137 8 74 4 146 8 160 9 14 1 31-2 39-7zm1606-143c-4-84-9-156-12-160-10-17-296 1-314 19-16 16-38 122-38 178v50l27-34c65-80 64-80 129-87l61-6 29 41c84 123 105 151 115 151 7 0 8-49 3-152zm4373 91c24-30 56-71 73-91 48-61 1e2-46 163 46 21 31 42 56 46 56 11 0 22-151 14-207l-6-50-69-12c-37-6-106-11-153-11-81 0-85 1-109 29-20 24-26 45-32 115-8 99 1 189 19 183 6-2 30-28 54-58zm-812 14c-11-11-19 6-11 24 8 17 8 17 12 0 3-10 2-21-1-24zm-4613-12c-17-28-16-29 38-114 30-47 60-88 68-92 8-3 24 1 37 10 30 20 31 19 38-10 5-21 12-25 43-25 51 0 73-23 73-76 0-70-4-71-202-95-54-6-104-9-112-6-24 9-30 91-18 248 12 148 24 205 41 194 6-3 3-17-6-34zm4946-111c0-58-3-111-8-119-7-11-35-12-137-8-71 3-146 10-166 16l-38 12v69c0 80 8 86 56 39 29-28 34-30 85-23 58 8 64 13 149 114 43 52 45 53 51 29 4-13 7-71 8-129zm932 23c32-46 39-103 14-123-15-13-120-9-133 5-9 9-16 211-8 232 6 14 14 9 52-28 25-24 59-63 75-86zm-5483 82c26-13 74-44 107-68l60-43 6-164c12-318 10-465-6-503-8-20-17-62-20-94-12-114-13-115-47-43-41 89-103 280-123 381-10 46-21 92-27 102-5 9-11 84-13 165-2 81-9 163-15 182-13 46-13 83 2 98 16 16 22 16 76-13zm1621-13c25-49 45-65 70-57 11 3 33-1 48-9 25-12 32-12 57 1 42 22 51 6 32-61-23-77-44-90-143-84-59 4-79 9-90 24-16 21-19 224-3 224 5 0 18-17 29-38zm1502-30c0-49 5-65 37-112 45-67 65-71 144-33 44 21 67 41 95 82 58 84 63 80 63-51 0-76-4-120-12-131-31-40-293-45-341-7-21 18-22 24-20 160 2 78 5 146 9 151 13 21 24-6 25-59zm445-4c26-40 55-85 65-1e2 22-31 24-69 8-101-17-32-28-37-85-37h-51l-7 38c-8 48-8 236 0 256 11 28 23 18 70-56zm1624 57c0-8-4-15-9-15-13 0-22 16-14 24 11 11 23 6 23-9zm-265-222-6-42-57-8c-105-14-225-10-255 10-26 17-27 22-27 97 0 44 2 80 4 80 2 0 15-18 30-40 29-43 47-49 92-25 16 8 37 15 47 15 35 0 77 31 119 88l43 57 8-95c4-52 5-114 2-137zm-5385 80c0-158-13-243-40-265-31-25-124-42-231-43-81 0-1e2 3-117 19-24 21-37 89-28 140 6 33 8 34 54 34 39 0 52-6 74-29 22-24 35-29 75-29 26 0 53 4 60 8 14 9 133 250 133 270 0 6 5 12 10 12 6 0 10-46 10-117zm3094 55c7-72-8-226-24-242-7-7-58-11-127-11h-117l-12 45c-6 25-19 60-29 77-9 18-15 47-13 65l3 33 58-53c31-28 59-52 61-52 19 0 44 24 107 106 41 51 77 94 80 94 4 0 10-28 13-62zm38 30c-9-9-12-7-12 12 0 19 3 21 12 12 9-9 9-15 0-24zm383-254c-2-12-15-25-27-29-38-11-301-18-338-8l-35 9 4 95c1 52 7 98 11 102 4 5 17-8 30-27 31-51 57-66 115-66 71 0 145 44 181 107 63 111 59 113 62-32 1-71 0-140-3-151zm-4479 104c-9-79-19-153-22-166-8-36-60-62-128-62-57 0-213 15-265 26l-24 5 6 146c3 80 10 150 16 156 8 8 33-58 56-155 10-41 26-48 115-51l82-2 33 38c18 20 47 65 65 1e2 40 75 70 120 77 113 3-3-2-69-11-148zm518 120c3-13 6-91 6-175v-152l-26-20c-38-30-172-30-212-1-25 18-34 19-124 9-152-17-163-3-138 188 21 157 33 162 92 37 38-82 41-86 68-81 17 4 42-1 66-13 82-42 109-25 184 117 34 62 65 113 69 113 5 0 11-10 15-22zm2999-26c60-24 91-42 97-56 8-19 22-126 37-283 3-36 1-81-6-105-6-24-18-83-26-133-11-73-43-234-70-351-7-30 36-74 73-74 54 0 61 14 109 221 38 169 45 214 50 347 3 84 10 155 15 158 11 7 132 6 398-2 109-3 201-1 245 6 38 6 151 13 250 14 101 2 192 9 208 15 16 6 77 11 137 11 137 0 134-3 124 155-6 1e2-5 115 9 121 9 3 62-9 119-28 121-39 110-15 132-274 11-125 13-189 6-210-5-16-17-85-25-153-16-127-20-141-34-141-15 0-126 269-165 401-14 47-34 93-44 102-16 15-20 15-40 1-27-19-28-39-2-98 10-25 24-74 31-108 16-92 46-184 82-255l31-63-19-24c-11-14-53-69-94-123-125-165-161-204-208-224-49-21-60-40-44-75 14-31 52-48 87-40 30 8 240 204 266 249 20 35 10 64-24 69-28 4-36 28-9 28 32 0 94-62 97-96 3-51 54-226 90-314 60-144 81-203 89-250 4-25 47-126 96-225 48-99 102-222 118-273 26-78 40-104 85-155 77-86 125-204 182-447 25-107 49-217 54-245 5-27 18-93 30-145 12-52 24-135 27-185 3-49 10-95 15-102 12-15 36-6 41 15 8 34 27-32 51-174 13-78 32-153 41-167 9-14 48-51 86-83 38-32 69-58 69-59 0 0 9-25 20-55 11-30 29-117 41-195 11-77 25-155 31-173 7-24 7-41-1-61-9-21-8-35 4-64 19-45 19-97 1-122-13-19-15-19-33-3-12 11-54 21-126 30-59 7-107 15-107 18 0 4-6 14-13 24-13 18-18 16-1e2-28-73-40-87-52-87-72 0-18-67-152-96-192-1-2-28 16-59 40l-58 44-42 170c-60 235-1e2 356-128 383-13 12-37 54-53 93-26 65-27 71-11 83 9 7 17 15 17 19 0 3-31 64-70 134-92 167-129 257-201 487-33 104-64 202-69 217-5 15-5 30 0 33 4 3 36-16 69-41 45-33 68-45 86-42 29 6 29 6 102-61 33-30 87-70 120-90 34-20 93-64 132-98 39-35 76-63 81-63 23 0 7 30-32 62-1e2 82-110 94-103 131 6 33 0 43-113 183-66 82-144 172-174 201-30 28-70 71-88 95-58 76-93 108-116 108-16 0-37 18-70 63-106 140-148 187-180 202-20 10-54 45-88 93-30 42-82 104-115 137-60 59-69 77-52 104 8 12 22 3 72-43 34-32 74-63 88-69 14-6 64-39 111-72 47-34 117-82 155-107 39-26 90-60 114-77 53-37 110-42 141-11 11 11 20 26 20 34 0 7-39 49-87 92-49 43-143 132-210 197-114 111-125 119-153 113-27-5-38 1-91 50-45 41-67 55-87 54-15-1-33-2-39-1-34 3-64 142-39 176 13 18 26 19 193 16l178-3 24 26c17 18 22 32 17 50-7 29-5 28-165 60-81 16-127 30-133 40-19 34-40 47-68 41-40-9-43 6-15 59 44 82 18 49-51-66-80-134-137-248-190-378-21-52-51-117-67-145-16-27-71-150-122-272-85-202-168-358-185-348-4 3-13 33-20 67-15 80-75 261-133 403-24 61-64 169-87 240-24 72-54 152-67 179-14 27-44 104-67 170-24 67-64 175-90 241-60 152-66 171-66 218 0 28-11 54-39 96-26 38-38 65-35 79 3 11-1 31-9 43-14 21-14 26-1 43 8 11 14 31 14 44 0 13-29 115-64 225-105 328-119 381-112 440 4 29 9 77 12 107 9 82 15 83 167 22zm-1865-264c1-127-1-199-7-193-12 12-36 377-27 4e2 5 13 10 14 19 6 10-8 14-61 15-213zm3832 163c6-25 6-49 0-71-6-19-10-53-10-75 0-50-15-78-23-43-10 41-20 216-13 233 9 25 33 2 46-44zm-5695 39c3-6-1-13-10-16-19-8-30 0-20 15 8 14 22 14 30 1zm3906-22c4-17 9-321 5-317-13 13-49 295-40 310 5 8 33 13 35 7zm-501-88c30 0 37-12 77-125 13-38 24-92 24-120 0-36 13-80 50-170 68-163 68-158 25-173-62-23-153-169-204-328-24-74-48-122-75-151-17-19-18-25-6-39 21-25 55-34 88-23 26 9 41 33 114 182 47 95 94 181 106 191 21 19 21 19 21-7 0-20 10-33 40-52 22-14 47-36 55-49 15-22 15-27 1-55-25-47-20-77 35-211 28-69 64-163 79-210 1e2-295 254-674 294-719 27-31 44-78 79-216 20-77 63-227 96-333 34-105 66-224 72-264 6-39 19-89 28-112 10-23 24-83 32-135 11-79 17-96 37-109 31-20 141-252 119-252-2 0-43 18-91 40-89 41-106 46-106 31 0-5 37-28 83-51 93-49 117-66 117-89 0-9 19-26 43-39 67-36 111-119 142-272 14-69 34-156 45-195 72-260 86-358 54-389-8-9-24-16-33-16-10 0-34-6-52-14-19-8-95-24-169-35-142-23-180-38-180-72 0-12-17-40-38-64-20-23-51-70-67-104-17-33-35-61-41-61-7 0-44 35-83 78-67 76-70 80-59 109 9 23 8 39-4 74-14 42-14 47 3 68 26 32 24 50-12 129-74 162-103 252-81 252 4 0 18-9 32-20 14-11 32-20 41-20 24 0 42 26 35 53-7 29-141 244-234 374-77 109-99 150-196 369-64 147-73 174-59 174 18 0 89-59 118-98 19-23 56-61 84-83 27-22 66-62 86-89 31-42 35-54 29-84-5-32-2-40 29-71 28-28 43-35 74-35 45 0 63 14 63 47 0 27-187 315-263 405-113 133-118 141-112 166 7 28-4 43-129 186-86 98-96 119-75 158 13 25 4 40-130 191-78 88-96 114-96 141-1 42-28 79-123 166-102 94-261 267-301 326-36 55-39 82-10 118 27 34 39 33 89-9 47-39 79-44 104-16 21 23 40 19 78-17 24-22 33-24 76-19l49 6 69-70c38-39 84-79 102-91 40-24 78-18 93 16 14 29 2 46-163 251-71 88-122 142-138 147-14 3-59 17-1e2 30l-75 24 1 85c1 46 7 102 12 123 13 46 1 86-26 86-29 0-59-41-67-90-8-54-121-248-175-301-20-20-47-58-59-84-12-25-52-95-88-153-36-59-97-172-134-251-38-80-84-162-102-183-23-25-43-66-61-121-16-51-36-93-51-107-14-13-27-22-29-19-15 17-146 324-146 343 0 4-28 68-61 144-74 166-106 257-115 326-4 28-26 103-50 166-23 63-45 133-49 155-4 22-22 1e2-41 173-19 72-34 142-34 153 0 12 22 74 49 138 87 205 85 191 76 553-7 299-6 318 11 325 28 10 284-15 334-34 71-27 334-24 415 4 46 17 64 19 80 11 44-24 390 3 419 32 7 8 34 10 85 6 41-3 86-6 101-6zm-1948-199c4-24 14-53 21-65 8-11 22-46 32-76 10-30 25-63 34-73 9-11 14-30 13-43-2-13 6-51 17-85 12-33 19-64 16-69-3-4-49-35-102-69-54-33-108-69-120-80-34-28-133-192-133-218 0-37 27-39 69-5 26 21 42 28 52 21 26-16 37-9 76 45 37 52 151 149 165 140 24-15-113-238-273-444-41-52-55-78-48-85 7-7 23 4 51 35 45 51 161 202 232 303 47 67 85 91 70 45-17-50-11-61 41-81 27-10 53-24 57-30 25-38 50-131 53-192 3-54 13-94 44-173 23-56 41-117 41-135 0-43 21-116 58-207 94-230 137-323 187-405 30-50 55-95 55-1e2.0-4 13-29 29-54 35-59 126-263 140-316 37-143 77-287 130-470 33-115 63-230 67-255 3-25 21-90 40-145 50-143 84-276 84-329 0-44 1-46 45-65 137-60-74-70-259-12-110 35-156 40-136 17 6-8 33-23 58-32 26-9 80-30 120-45 39-16 101-34 137-40 55-9 73-8 121 7 54 17 57 17 70 0 15-21 31-90 45-196 5-41 14-88 20-105 16-47 109-455 109-476 0-11-11-45-24-77-12-31-26-65-30-76-6-18-7-18-26-1-15 14-53 21-157 31-234 23-289 18-333-26-31-31-26-50 15-50 19 0 35-3 35-7-1-15-106-147-133-167l-28-21-92 95-92 95-1 70c-1 39-13 120-29 183l-27 113 21 23c27 29 27 38-14 189-23 89-31 135-25 151 6 16-4 52-42 143l-50 121 22 30 22 29-46 91c-25 50-66 126-92 169-25 43-57 101-71 128-14 28-45 75-68 105-23 30-75 109-114 175-39 66-78 130-87 143-15 20-15 22 0 22 9 0 40-26 69-57 147-160 134-149 156-136 12 7 23 13 25 13 3 0 23-26 45-57 21-32 48-66 60-75 11-10 34-45 51-78 34-67 49-78 86-62 39 18 30 53-51 195-41 73-81 144-89 160-8 15-26 31-39 36-13 5-39 34-57 65-25 41-40 56-59 58-21 2-33 17-66 82-49 98-71 115-108 85-34-26-34-39 3-71 28-25 40-58 21-58-5 0-25 18-45 40-26 29-36 49-36 73 0 22-13 55-38 93-21 32-51 82-67 109-16 28-59 82-97 122-37 40-68 78-68 85 0 6 14 26 31 44 22 23 29 38 24 53-3 11-78 90-167 176-171 165-173 168-109 195 16 6 33 21 39 33 10 21 17 15 123-93 84-84 119-114 138-115 20 0 32-11 56-54 35-64 79-101 97-83 22 22-45 215-91 261-12 12-32 21-45 21-17 0-35 15-65 55-23 31-56 61-74 69-42 17-138 123-174 192-28 53-28 54-10 81 37 57 109 216 114 252 10 76-54 75-93-2-10-17-29-48-44-67-15-19-40-66-54-105-14-38-33-81-41-95-7-14-84-165-170-337-86-171-169-328-184-347-15-19-66-113-112-208-180-372-191-391-226-4e2-19-5-43-23-58-43-15-18-89-160-166-314l-139-280-44-20c-40-17-49-28-86-101-22-44-50-104-61-133-31-78-78-146-105-153-34-9-65-52-118-168-25-54-60-114-77-133-29-33-29-36-13-54 12-13 31-19 60-19 40 0 45 3 66 40 13 22 28 40 34 40 17 0 26-175 13-245-11-61-66-157-1e2-176-9-5-31-34-48-64-18-31-38-58-46-62-9-3-15-18-15-37 0-46-45-176-74-213-1-1-42-7-91-13-50-6-102-16-116-21-38-15-134 5-254 51-129 50-159 57-153 39 3-9-7-18-26-24-24-8-38-23-58-65-39-79-105-267-112-319-7-46-31-101-45-101-12 0 3 65 35 153 14 40 48 133 74 207 26 74 55 152 64 172 20 46 20 87 1 158-32 119-12 192 80 291 88 96 131 168 152 257 5 22-10 31-22 12-17-28-25-1-25 91v101l71 132c91 165 165 292 248 421 14 22 37 69 52 105 30 73 85 173 123 222 13 18 47 81 76 140 30 63 58 109 69 113 31 10 58 47 97 135 23 53 50 98 74 120 28 27 45 58 73 140 31 86 43 108 66 121 35 21 67 85 154 315 81 213 90 243 75 261-17 21-46 15-64-13-10-14-38-84-64-156-44-125-48-132-79-143-47-16-65-42-98-145-23-75-32-92-52-97-43-11-106-140-126-255-4-25-15-44-32-55-59-40-80-73-123-190-44-123-78-198-86-190-2 2 11 85 30 183 19 98 49 258 66 354 17 96 47 249 66 339 27 124 33 170 25 187-11 25 1 85 50 252 32 106 38 172 25 257-6 45-6 48 7 27 17-30 54-54 151-103 86-42 137-49 174-23 28 20 44 48 36 68-8 20-28 20-60 0-33-22-85-14-173 26-76 35-99 54-81 65 5 3 10 30 10 59 0 49 2 55 28 65 15 6 70 13 122 15 95 3 150 18 150 42 0 22-27 23-101 3-101-26-117-25-125 7-20 80 47 476 117 692 49 151 52 164 40 197-11 32-10 39 11 78 34 61 65 73 158 60 79-12 103-7 128 28 10 14 25 18 65 17 29-1 75 5 103 14 52 16 52 16 78-11 25-24 32-26 114-24 48 1 140 5 205 8 109 6 121 5 140-13 31-27 81-42 143-42 67 0 102 13 114 44 8 21 17 25 77 31 37 4 79 12 92 17 14 5 74 11 134 13 60 2 112 7 115 10 4 3 18 5 31 3 22-3 27-10 33-47zm2434-181c-4-38-13-89-21-112l-14-43 5 60c7 74 24 165 31 165 3 0 2-31-1-70zm1774-16c0-14-4-23-9-20-5 3-7 15-4 26 7 28 13 25 13-6zm-3793-219c-3-74-11-119-31-174-14-41-26-89-26-106 0-17-6-40-14-51-13-17-14-6-10 91 10 206 21 288 45 338 22 45 24 46 32 25 5-13 7-68 4-123zm3766 43c-6-32-23-63-23-41 0 13 21 73 26 73 2 0 1-15-3-32zm-1798-45c-9-37-18-20-9 19 4 18 9 27 11 20 3-7 2-24-2-39zm-2075-175c-1-83-13-155-28-170-14-14-62-1-62 17 0 8 9 19 20 25 17 9 20 21 20 76 0 63 21 124 42 124 4 0 8-33 8-72zm1048-1060c32-60 234-348 347-498 34-45 99-166 110-206 4-15-3-31-20-52-18-22-25-41-25-74 0-46-14-108-55-244-21-69-29-83-50-88-18-5-27-17-35-45-6-23-24-51-43-68-20-18-58-79-1e2-163-37-74-81-159-97-189-23-40-30-66-30-106 0-29-9-82-20-117-25-80-26-111-2-106 11 2 25 27 41 71 17 48 27 64 33 55 7-12 0-237-8-247-2-2-23 12-48 32-78 65-140 217-241 592-25 94-63 226-85 295-21 69-51 179-65 245-14 66-35 141-45 167-25 58-25 64 0 71 13 3 30 27 46 63 14 32 39 75 55 95 16 21 52 90 80 154 29 63 69 144 90 178 21 34 58 97 81 140 23 42 48 77 55 77 8 0 22-14 31-32zm1927-24c14-15 45-61 69-104 25-42 66-103 93-136 84-102 153-204 153-224 0-11 22-51 49-88 50-68 131-209 131-227 0-5-13-17-28-26-22-13-38-39-68-115-37-94-42-1e2-94-135-62-41-2e2-181-2e2-203 0-8-20-76-45-150-25-75-45-139-45-142 0-4 9-4 20-1 15 4 22-1 27-21 10-39 10-229 0-239-16-15-90 82-134 177-67 142-169 388-187 449-9 30-16 71-16 90 0 20-25 107-54 194-83 238-82 255 3 368 22 29 55 89 72 133 18 43 42 90 54 105 12 14 45 85 74 157 48 121 73 164 94 164 4 0 19-12 32-26zm-1366-750c22-28 27-59 11-69-9-5-50 63-50 85 0 18 18 11 39-16zm-29-403c-1-418-15-896-36-1169-18-247-16-277 21-269 40 7 30-18-18-46-74-44-69-57-73 203-2 231 1 333 31 955 8 171 15 396 15 502 0 105 3 199 6 208 5 13 12 7 30-25 24-42 24-44 24-359zm2104 270c37-39 31-57-11-31-20 12-33 28-33 40 0 27 11 25 44-9zm-159-1c3-5 8-285 12-623 6-590 5-615-13-646l-19-32-6 28c-9 37-11 1129-2 1216 5 63 14 80 28 57zm-104-93c-20-20-34 6-19 38l12 27 9-27c6-18 6-30-2-38zm-1757-45c3-9 2-62-4-117-5-55-10-334-10-620 0-516-6-620-35-674l-14-26-2 25c-1 14-1 48 0 75 1 28 8 280 16 560 8 281 18 574 21 653 7 132 15 168 28 124zm-214-652c-6-102-15-361-19-577-8-372-10-394-30-433-22-42-19-63 13-89 13-11 12-20-4-79-27-97-49-154-65-172-28-31-65-187-65-278 0-22-4-43-8-46-12-7-82 127-82 158 0 25 68 212 89 245 5 8-4 60-25 138-21 79-30 132-25 142 5 9 11 160 15 336 3 176 11 381 16 455 5 74 14 227 20 340 10 191 18 235 37 216 15-14 15-609 2-941-15-346-17-690-6-702 4-3 10-4 13-1 3 4 9 118 14 255 5 136 14 329 20 428 14 258 30 696 30 863 0 117 5 164 26 260 15 64 29 122 33 127 11 18 12-457 1-645zm-1697 580c67-62 124-136 114-146-3-4-28 12-54 35-26 24-60 45-76 48-21 4-38 20-58 51-58 92-18 99 74 12zm2096 1c22-31 28-71 11-71-9 0-50 80-50 96 0 13 22 0 39-25zm1523-717c3-612 1-723-11-744l-15-25-7 35c-5 19-8 351-9 737-1 553 2 706 12 722 9 16 14 17 20 7 4-7 9-337 10-732zm268 299c5-395 8-417 45-395 15 8 17 25 16 131-3 156 9 299 21 277 5-9 12-87 15-174 5-145 4-163-16-224-25-76-48-101-87-96-20 2-30 10-35 28-9 33-11 875-2 884 4 4 14-6 23-21 12-23 16-91 20-410zm-4245-116c0-430-1-465-18-491-40-60-42-38-38 351 3 368 3 371-18 389-11 10-21 24-21 31 0 7 16 56 37 109 26 69 39 92 47 84 8-8 11-151 11-473zm3876 301c4-84 10-309 14-499l8-346-32-11c-28-10-31-9-35 11-9 42-22 414-21 557 4 425 4 428 21 445 12 11 20 13 27 6 6-6 14-79 18-163zm-102-228c19-496 25-914 14-907-6 4-25 59-43 123-28 102-31 122-21 153 9 27 9 132 1 416-5 209-13 392-16 406-7 30 32 117 46 103 4-5 13-137 19-294zm-1417 122c-5-241-22-586-31-622l-8-35-8 48c-9 60-1 735 10 760 7 17 9 17 24 3 13-14 15-39 13-154zm-4381 75c-8-8-11-4-11 14 0 33 14 47 18 19 2-12-1-27-7-33zm2362-31c32-50 32-53 11-94-12-25-17-81-21-256-3-124-9-230-14-237-4-6-15-9-24-5-16 6-17 29-10 314 4 169 9 310 12 315 8 14 18 6 46-37zm2119-249c4-1e2 10-2e2 13-222 5-33 0-49-26-95-31-53-33-54-40-29-7 27 6 426 17 508 4 33 8 41 17 32 8-8 15-77 19-194zm1587-49c0-151-4-245-9-233-12 29-12 485 0 485 6 0 10-90 9-252zm-4160-68c1-186-13-579-27-760-7-90-18-105-55-77-17 12-18 25-8 212 24 475 25 554 7 561-10 4-22 2-28-4-13-13-25-180-36-501l-8-234-27-19c-33-24-34-34-2-80 28-41 31-97 18-291l-6-98-26 3-26 3 2 250c1 138 7 363 13 501 8 189 8 258-1 277-10 22-6 38 34 123 24 55 68 171 97 259 29 88 55 165 59 170 11 18 19-98 20-295zm1938 63c-4-109-10-341-13-515-4-175-10-318-15-318-4 0-19 49-33 108-28 118-32 208-16 372 18 188 24 388 11 404-9 11-5 28 21 80 18 36 36 66 42 66 5 0 6-78 3-197zm-1378 130c23-35 23-37 6-87-12-37-18-99-22-226-3-129-8-185-20-213-25-59-34-30-23 78 5 55 10 163 10 240 0 144 8 245 19 245 3 0 17-17 30-37zm3996-53c0-7-6-15-12-17-8-3-13 4-13 17 0 13 5 20 13 18 6-3 12-11 12-18zm-775-313c0-10-4-15-10-12-5 3-10 18-10 33 0 21 2 24 10 12 5-8 10-23 10-33zm3564-13c24-9 20-20-16-43-56-34-78-60-78-92 0-37 16-44 62-24 46 18 53 9 23-29-20-25-31-30-79-32-47-3-60 1-83 20-26 23-27 25-15 75 16 70 15 1e2-3 107-8 4-15 10-15 15 0 10 179 13 204 3zm-6928-291c-8-211-52-384-107-414-31-16-39-2-39 74 0 87 8 104 40 87 45-24 69 36 70 171 0 134 11 229 27 229 11 0 13-26 9-147zm6598 125c-28-50-47-69-57-59-8 8-3 20 18 41 29 30 52 41 39 18zm-7289-54c7-61-3-284-14-284-3 0-15 7-26 16-18 14-20 27-20 143 0 91 4 136 14 155 23 42 38 32 46-30zm598 37c8-32-10-257-23-281-12-22-13-22-22-5-12 20-1 245 13 282 10 28 25 30 32 4zm2127-87c-7-24-17-44-21-44-10 0-12 1e2-2 125 5 15 8 13 21-10 11-23 12-35 2-71zm-2240-170c-11-252-29-332-61-272-9 16-10 67-5 193 10 228 18 284 41 301 16 12 20 12 27 1 4-8 3-108-2-223zm7190 199c-1-13-37-53-48-53-16 0-22 28-9 38 23 18 57 27 57 15zm-78e2-95-1-43-19 24c-28 33-25 61 7 61 9 0 13-14 13-42zm493 18c3-8 2-59-3-113-5-54-12-137-15-185-5-62-11-88-20-88-21 0-26 55-19 214 5 114 10 155 22 169 18 21 28 22 35 3zm6951-44c27-55 40-102 27-102-9 0-47 82-62 133-11 41 7 24 35-31zm416 29c0-12-49-71-59-71-4 0-13 11-19 25-12 27-8 32 36 45 37 11 42 11 42 1zm-3287-71c-3-11-9-20-14-20-10 0-12 33-3 43 12 12 22-3 17-23zm4007-29c0-11-48-51-61-51-9 0-1 28 14 48 11 14 47 16 47 3zm-7e2-38c1-33 6-41 38-62 30-19 50-24 102-23 48 0 73-5 96-19 38-23 64-25 64-4 0 16 16 20 24 6 9-14-26-48-63-60-29-9-37-8-53 6-10 9-30 18-46 19-115 12-176 45-210 115-25 49-21 59 19 59 27 0 29-3 29-37zm80 17c0-5-5-10-11-10-5 0-7 5-4 10 3 6 8 10 11 10 2 0 4-4 4-10zm-7964-340c-7-293-32-857-42-978-6-67-9-74-35-88l-29-15v143c1 289 44 892 75 1036 11 54 12 84 5 115-5 23-10 55-10 71 0 29 0 29 21 10 22-19 22-22 15-294zm8675 291 24-19-19-38c-10-22-29-70-42-108-13-38-35-87-48-110-37-63-136-152-202-181-33-14-94-47-137-72-66-38-83-44-112-39-19 4-35 10-35 14 0 4 20 28 45 52 52 51 123 189 134 262 5 26 16 57 25 67 16 17 117 82 221 141 25 14 50 31 57 38 18 18 62 15 89-7zm-5931-70c0-15-7-36-15-47-13-17-14-14-15 40 0 51 2 57 15 46 8-7 15-25 15-39zm3252 21c9-9 10-17 2-30-8-12-27-18-70-20-41-2-63-8-71-19-18-23-16-63 2-63 9 0 15-9 15-23 0-13 13-36 29-51 24-23 35-27 59-21 38 8 52-10 14-20-35-9-52-23-52-46 0-22 37-49 68-49 21 0 23-3 17-28-7-36 8-50 71-66 58-15 64-28 22-47-17-8-34-20-36-26-5-16 39-33 84-33 19 0 42-4 52-9 9-6 49-17 87-25 39-9 81-19 94-22 20-6 23-4 18 10-5 13-2 17 10 14 48-9 0-88-54-88-75 0-153-111-153-217 0-29-4-53-10-53-5 0-17 27-27 60-13 48-23 64-51 83-28 18-40 37-57 88-21 61-24 65-82 98-64 35-78 53-88 114-3 22-18 50-35 67-17 17-30 42-30 55 0 40-36 122-69 160-17 20-31 44-31 55 0 46-62 36-80-12l-11-33-19 35c-11 19-19 44-20 56 0 24 63 102 94 115 33 14 293 6 308-9zm2423 0c-6-5-37-29-70-54-81-62-91-75-99-132-6-50-79-196-97-196-7 0-8 32-4 88 3 48 6 111 7 140 1 28 6 52 11 52 6 0 30 21 54 47 41 46 44 47 74 36 27-11 38-9 73 6 45 21 66 26 51 13zm-8304-402c-2-279-7-406-16-432-7-21-9-42-4-50 10-16 10-419 0-5e2-4-32-10-61-14-65-4-3-21 9-38 28l-30 34 6 2e2c3 110 10 297 16 415 5 118 13 332 18 475 5 143 12 268 16 278 5 11 16 17 29 15l21-3-4-395zm4254 122c0-132-4-244-8-248-12-13-21 7-67 156l-43 139 27 75c30 81 61 129 80 123 8-3 11-73 11-245zm3477 174c13-8 40-18 60-21 21-4 42-12 47-19 12-14-26-106-44-106-19 0-114 88-131 122-21 41-12 61 21 48 13-5 35-16 47-24zm-1836 14c15-6 25-12 23-14-8-8-139 7-139 15 0 12 83 11 116-1zm-1806-73c0-27-26-45-74-50-58-6-101-35-101-68 0-26 1-26 110-17 52 4 62-15 12-23-45-7-81-38-72-61 4-9 19-22 35-28 26-11 28-14 18-36-13-28 3-54 33-54 17 0 18-5 13-40-6-36-4-40 20-50 15-5 40-10 56-10 55 0 63-9 35-42-14-16-25-40-25-53 0-13-5-36-12-51-11-23-10-28 8-43 11-9 60-22 108-30 85-13 88-13 102 8 16 22 48 28 59 11 3-5 17-10 30-10 20 0 24-6 27-37l4-38 22 45c17 35 22 40 22 22 0-13-7-37-17-52-15-27-20-28-85-28-106 0-127-22-143-154-4-27-8-48-11-48-3 0-16 7-30 16-20 14-30 15-50 5-22-10-30-7-61 16-45 35-53 57-53 157 0 61-4 87-15 96-8 7-17 28-21 49-8 49-29 79-56 83-18 2-24 13-34 61-6 32-21 68-32 80-29 31-52 89-52 132 0 52-15 75-49 75-22 0-34-8-49-33-15-26-25-33-48-33-22 1-30-4-32-20-2-12 22-97 52-190 30-93 64-2e2 75-239 11-38 30-86 42-105 17-27 23-60 30-149 5-63 6-117 4-120-3-2 3-14 13-25 10-12 27-42 36-69 19-52 73-101 103-95 23 5 21 23-12 118-14 41-29 95-32 119-5 39-4 43 13 39 14-2 21-15 25-47 5-35 14-52 46-80 22-20 45-49 51-64 16-37 36-43 80-23 54 23 124 37 119 23-4-14-86-56-110-57-10 0-58-36-105-80-48-44-94-80-103-80-10 0-35 20-56 44-56 63-84 152-94 294-6 94-13 134-39 202-17 47-35 103-40 125-4 22-17 63-29 90-11 28-48 126-81 220l-60 170 43 43c23 24 73 71 111 105 69 61 70 62 165 79 121 21 161 22 161 5zm1393-24c17-39 121-343 160-465 11-37 18-71 13-75-11-11-24 16-37 76-13 63-115 325-160 412-17 33-29 66-25 74 10 26 32 16 49-22zm423 7c15-6 24-13 21-16-9-9-107 7-107 17 0 12 52 11 86-1zm1610-35c4-8 3-23 0-32-6-15-8-15-16-3-13 20-12 50 0 50 6 0 13-7 16-15zm-7275-36c7-14 7-25 1-31-15-15-52 9-52 32 0 27 36 26 51-1zm3799 2c0-10-35-21-65-21-20 1-20 1-1 15 22 16 66 20 66 6zm-3685-41c0-16-6-26-17-28-14-3-18 3-18 28 0 25 4 31 18 28 11-2 17-12 17-28zm3988 10c-3-11-7-20-9-20-2 0-4 9-4 20 0 11 4 20 9 20 5 0 7-9 4-20zm1638-10c37-20 20-30-38-24-73 7-86 11-78 24 8 13 91 13 116 0zm-1876-70c-3-5-17-10-31-10-14 0-22 4-19 10 3 6 17 10 31 10 14 0 22-4 19-10zm3513-190c12-19 28-49 36-66 15-30 17-31 68-26 29 2 61 9 71 14 10 5 21 8 23 5 5-4-53-43-123-83-42-24-56-11-57 54-1 40-7 55-35 87-42 48-57 84-65 155l-7 55 34-80c18-45 43-96 55-115zm-7382 148c9-28-9-43-35-29-36 20-21 67 16 54 7-3 15-14 19-25zm7573-48c7 0 21 5 33 11 17 9 25 6 49-17 15-15 26-31 24-35-9-14-194-109-212-109-11 0-24 5-31 12-14 14-16 58-2 58 5 0 17 11 26 25 15 23 15 31 3 67-12 37-11 42 6 54 16 12 22 10 55-26 20-22 42-40 49-40zm-1779 55c10-13 9-15-11-15-34 0-69 11-69 21 0 15 67 10 80-6zm-6274-107c-3-40-13-217-22-393-8-176-17-321-19-323-2-2-9-1-15 3-7 4-9 106-6 341 4 320 6 338 27 390 13 30 27 54 32 54 6 0 7-30 3-72zm7019 53c3-6-3-15-14-20-28-16-33-14-21 9 12 22 25 26 35 11zm-2675-11c-19-13-30-13-30 0 0 6 10 10 23 10 18 0 19-2 7-10zm2801-51c28-14 23-40-16-99-19-28-44-71-54-95-11-24-54-96-96-159-77-114-78-115-127-126-28-6-115-41-193-79l-142-69-56 13c-60 14-77 22-77 35 0 5 36 34 79 64 43 31 88 71 99 88 99 163 129 215 134 229 10 27 89 86 164 123 39 19 97 50 128 69 52 31 61 34 98 25 22-5 49-13 59-19zm-221-4c0-3-33-21-72-41-88-44-196-135-204-172-12-50-112-187-191-261-43-40-1e2-95-128-121-55-52-222-160-248-160-16 0-37 28-37 50 0 7 7 10 15 6 8-3 22 2 31 11 14 14 15 28 9 87-14 123-12 191 5 191 8 0 39-35 68-78 69-101 132-135 132-72 0 16 11 29 34 43 31 19 56 65 56 107 0 6 16 22 35 38 24 19 36 38 40 65 10 61 21 79 54 85 25 5 31 11 31 32 0 45 18 64 101 106 84 42 269 1e2 269 84zm-6462-31c2-11-6-28-17-38-20-18-20-18-27 8-7 28 11 59 30 53 6-2 12-12 14-23zm3972-3c0-11-38-21-56-14-8 3-11 9-8 14 7 12 64 12 64 0zm-2069-52c5-8 9-25 9-38 0-22-3-23-37-16-70 14-78 12-81-18-4-34 22-67 53-67 21 0 45-17 45-32 0-4-6-8-14-8-22 0-39-28-32-54 5-20 16-27 61-36 30-6 65-20 77-30l23-19-47-1c-46 0-48-1-48-29 0-36 18-51 70-58 50-7 57-17 35-49-15-23-15-28-1-49 8-13 36-31 61-41 39-14 46-21 41-38-4-15 3-28 27-48 17-14 30-28 27-31-3-2-29-7-57-10l-53-6v32c-1 57-1e2 143-2e2 173-25 7-53 19-62 26-23 17-163 361-149 366 5 2 22 13 36 24 21 16 26 27 22 51l-4 30 95-5c65-4 97-10 103-19zm2906-26c7-15 12-27 10-28-1 0-20-13-43-27-23-14-81-46-130-71-49-25-99-56-112-70-13-13-40-32-61-42-31-14-44-29-72-86-58-122-81-118-28 4 18 42 29 83 26 99-5 39 21 59 128 103 99 40 107 46 129 90 17 32 60 53 111 54 23 1 33-5 42-26zm669 16c10-16 34-148 34-184 0-17-7-41-16-53-29-41-39-21-39 79-1 52-5 111-9 132-7 30-6 37 7 37 9 0 19-5 23-11zm2284-29c12-7 12-12-4-28-9-11-30-23-44-27-15-3-48-20-75-37-56-36-149-46-155-17-3 17 95 86 153 107 38 13 105 15 125 2zm-7882-12c15-15 16-80 0-96-21-21-38 6-38 59 0 50 13 62 38 37zm-2068-68c52-21 113-44 135-52 27-11 41-23 43-37 4-28-4-27-79 9-34 16-66 27-71 24-4-3-8-21-8-39 0-29 5-37 33-51 38-20 83-54 71-54-5 0-28 7-51 15-48 17-69 12-79-17-7-22 17-54 47-63 29-9 12-25-25-25-65 0-73-55-12-84 19-9 41-16 50-16 9 0 16-7 16-15 0-18-7-18-66-3-42 12-47 11-60-7-15-20-10-50 13-76 12-14 11-17-7-22-11-3-23-13-27-24-4-10-15-30-26-45-12-15-16-31-11-39 4-7 8-37 9-66 1-29 8-60 15-68 10-12 8-18-11-35-31-25-32-25-77 4-20 13-52 27-70 31-61 13-84-37-35-73l28-20-28-13c-15-7-27-20-27-29 0-22 36-37 117-49 47-7 73-18 103-42 40-32 40-33 22-53-15-17-17-29-11-61 4-22 2-48-3-59-9-17-5-18 89-15l98 4 19-58c10-32 16-60 13-63-2-3-23 5-47 17-47 25-132 29-170 9-13-7-48-32-78-57-30-24-57-42-59-39-3 3-5 39-4 80 2 72 1 75-28 95-16 12-33 30-36 41-3 10-14 22-25 25-13 4-19 18-22 52-4 58 8 63 67 29 52-31 92-80 101-125 5-22 10-29 17-22 14 14-15 87-55 135-45 54-137 96-208 95-91-2-114-10-125-45-14-44-25-44-40-1-16 46-54 105-95 147-34 35-38 70-15 126 18 43 98 137 166 194l51 43 25-26c32-32 23-47-28-47-65 0-119-44-165-135-44-84-41-103 14-117 36-10 36-11 21-39-8-16-7-26 6-45 23-36 58-31 105 16 23 23 52 45 65 50 21 8 25 16 25 47 0 21-4 53-9 70-5 18-6 35-2 37 4 3 36-4 71-15 70-22 96-18 106 14 5 17-2 28-35 55l-41 35 35 38c19 22 35 46 35 54 0 9 12 38 26 65 20 38 25 58 20 84-5 27-1 46 21 85l28 50-19 35c-18 34-18 35 3 65 16 22 31 31 50 31 64 0 64 53 1 89-22 12-40 27-40 32 0 13 39 2 150-41zm4065 20c3-5 2-10-4-10-5 0-13 5-16 10-3 6-2 10 4 10 5 0 13-4 16-10zm2135-10c0-5-7-10-16-10-8 0-12 5-9 10 3 6 10 10 16 10 5 0 9-4 9-10zm930-5c34-18 36-34 15-95-53-150-259-452-318-465-156-34-235-58-283-87-31-18-65-39-77-46-24-14-65-10-141 15l-50 16 28 23c15 13 33 24 41 24 26 0 129 1e2 177 173 27 40 57 96 68 126 44 115 95 163 231 216 34 14 70 32 80 41 32 29 133 74 167 74 18 0 46-7 62-15zm-5523-234c-4-121-11-209-17-215-8-8-19-6-38 4-26 15-27 20-30 105-2 61 2 105 13 137 19 58 19 67 0 88-13 14-11 22 22 69 52 79 57 60 50-188zm2033 125c0-62 17-102 53-124 26-15 39-37 71-118 21-54 61-151 87-214 63-149 86-216 112-321l20-85-25-37c-14-20-28-34-31-30-4 3-7 34-7 67 0 43-8 79-26 121-15 33-52 130-84 215-77 207-71 192-157 378l-77 164 24 18c32 24 40 17 40-34zm523-10c15-4 27-13 27-21 0-12-7-11-45 3-43 15-65 39-27 29 9-3 29-8 45-11zm-2095-34c4-23-13-52-29-52-5 0-9 18-9 41 0 33 3 40 18 37 9-2 18-14 20-26zm-1915 1c-7-2-19-2-25 0-7 3-2 5 12 5 14 0 19-2 13-5zm-77-78c10-8 14-15 7-15-19 0-43 11-43 21 0 13 14 11 36-6zm1980-404c8-302 7-310-38-250-18 23-18 36-8 229 6 113 14 243 17 290 10 146 21 44 29-269zm5614 307c0-7 18-56 39-108 21-52 36-97 34-1e2-11-12-45 49-68 124-28 93-29 96-15 96 6 0 10-6 10-12zm-7602-15c-10-2-28-2-40 0-13 2-5 4 17 4 22 1 32-1 23-4zm4243-34c26-13 15-29-20-29-26 0-51 16-51 32 0 12 48 10 71-3zm-2908-60c33-17 57-41 51-50-7-11-53 13-78 40-21 23-8 28 27 10zm6754-4c49-14 93-49 80-62-15-15-147 45-147 67 0 13 7 13 67-5zm-104-16c9-32 2-41-66-86-71-48-148-83-183-83-46 0-24 28 49 63 39 19 97 55 127 80 30 25 58 46 61 46 4 1 9-8 12-20zm-8017-15c18-15 18-15-11-9-37 8-57 25-29 25 11 0 29-7 40-16zm2098-41c14-129 19-440 8-447-25-15-32 50-32 275 0 220 10 293 24 172zm6067-23 24-20-28-25c-15-14-37-25-47-25-10 0-32-11-48-25-73-62-212-101-220-62-8 40 7 64 53 81 25 10 69 35 97 57 44 32 60 39 99 39 32 0 54-6 70-20zm-6641-11c0-24-23-21-28 4-2 10 3 17 12 17 10 0 16-9 16-21zm2610-14c14-8 36-14 49-15 23 0 22-2-15-35-47-41-67-44-82-10-29 63-7 91 48 60zm-2490-5c0-5-7-10-16-10-8 0-12 5-9 10 3 6 10 10 16 10 5 0 9-4 9-10zm3090-5c7-8 21-15 31-15 27 0 24-15-7-35-15-9-23-22-20-31 6-15-30-54-50-54-10 0-11 7-2 30 30 87-64 80-145-9l-37-41-40 26-40 27 41 18c23 11 50 19 61 19 33 0 58 19 58 45 0 29 10 33 81 34 39 1 60-4 69-14zm-2548-56c23-81 39-187 41-274 2-97 1-1e2-20-103-34-5-39 21-47 226-5 145-3 183 7 180 6-3 15-16 19-29zm-2224 5c24-7 31-34 8-34-24 0-66 19-66 30 0 11 24 13 58 4zm6210-120c3-28-3-34-85-88-48-32-98-67-110-78-23-21-43-17-43 8 0 19 79 105 144 156 59 47 90 48 94 2zm-1538-25c-9-15-15-18-23-10-7 7-5 16 8 32 22 24 32 10 15-22zm-2808-26c31-33 61-90 55-106-3-10-97 112-97 127 0 13 18 5 42-21zm472-14c7-14 29-27 58-36 32-9 55-24 71-46 27-36 50-95 41-108-3-5-27-9-54-9-27 0-61-5-76-12-23-11-28-10-45 10-15 19-18 41-18 128 0 106 3 113 23 73zm2176 21c0-5-11-33-25-62-13-29-29-72-35-96-10-39-18-48-94-97-46-29-86-61-90-70-4-10 2-32 14-52 12-20 20-52 20-76 0-37-5-45-39-69-22-16-44-28-50-28-20 0-12 72 11 97 27 28 10 30-42 3-69-35-106-23-69 23 11 15 27 50 36 79 26 90 39 107 84 114 84 14 119 82 57 112l-28 13 26 39c30 46 40 48 94 20 47-24 63-19 89 26 19 32 41 45 41 24zm1825-21c68-11 73-15 57-31-32-32-253-144-303-153-37-7-69 11-69 39 0 12 139 128 185 154 11 7 31 9 45 6 14-3 52-10 85-15zm-2255-35c0-8 15-28 32-45 27-24 31-32 22-47-23-35-42-26-58 29-18 60-20 93-6 84 6-3 10-13 10-21zM330 890c0-6 16-26 35-46 19-19 35-43 35-53 0-10 9-30 20-44 21-26 26-47 12-47-23 0-136 164-128 186 6 16 26 19 26 4zm768-1c-5-14-108-43-117-33-3 3 5 14 18 25 26 21 105 27 99 8zm12-69c0-16-7-20-30-20-36 0-39 13-7 28 32 15 37 14 37-8zm-476-61c-3-5-10-7-15-3-5 3-7 10-3 15 3 5 10 7 15 3 5-3 7-10 3-15zm508-51c-6-6-18-8-28-4-16 6-15 8 2 27 16 18 19 18 27 3 6-10 5-20-1-26zm-527-89c15-38 31-69 36-69 6 0 17-17 25-37 22-52 76-132 113-167 17-17 31-36 31-44 0-8 16-32 35-55 41-48 47-82 13-71-35 10-42 15-92 72-25 29-59 82-76 118-16 36-42 84-57 107-31 46-113 210-113 226 0 17 24 19 42 4 9-9 29-46 43-84zm540 42c8-14-10-22-30-15-13 5-14 8-3 15 17 11 26 11 33 0zm3890-61c15-29 40-60 60-73 39-24 42-34 21-63-12-15-19-17-33-9-19 11-76 121-87 168-10 44 11 31 39-23zm488-142c20-6 37-16 37-22 0-13-56-51-90-61-14-4-34-16-45-26-25-23-139-74-183-82-34-7-102 14-102 31 0 22 42 60 72 66 18 4 69 31 113 61 86 59 101 62 198 33zM1320 352l74-57 3-62c3-74 10-69-142-113-103-30-113-31-163-19-76 18-74 29 5 29 82 0 128 23 138 68 5 26 12 31 52 39 26 4 48 13 50 20 8 22-44 25-120 8l-75-17-121 62c-101 52-124 60-136 50-9-7-19-10-23-6-14 15 52 56 91 56 21 0 58 5 82 11 32 8 58 8 96 0 48-11 55-10 73 9l20 20 11-21c6-11 45-46 85-77zm3841 48c26-14 24-26-7-46-32-22-49-8-35 29 12 30 14 31 42 17zM794 186c30-39 164-101 197-91 11 4 48-3 82-16l62-22 145 36c85 22 148 33 153 28 15-15-33-38-140-67l-102-27-138 27c-107 21-152 35-203 63-80 44-1e2 61-1e2 85 0 27 15 22 44-16z"/><path d="M3104 117e2c-43-14-71-46-58-68 8-13 31-18 90-22 86-5 88-6 154-61 67-55 147-91 171-79 55 30-20 159-126 217-35 19-185 27-231 13z"/><path d="M5069 11377c-23-16-34-31-34-47 0-24 2-25 70-25 75 0 114-15 172-66 29-25 37-27 90-22 32 3 64 11 72 19 22 20-27 76-109 124-64 38-73 40-148 40-66 0-85-4-113-23z"/><path d="M4662 11228c-5-7-22-53-38-103-24-78-28-106-28-215-1-123 0-126 38-215 57-133 73-162 95-168 21-5 94 24 105 42 4 6 25 20 47 32 47 24 161 134 183 177 14 28 14 32 0 47-17 16-68 13-89-6-17-17-64-10-75 11-8 15-21 20-50 20-32 0-40 4-40 18 0 26-20 42-51 42-34 0-39 13-39 113 0 66 4 87 20 107 27 34 25 65-6 89-30 24-57 27-72 9z"/><path d="M7160 11135c-6-8-35-21-65-29-60-18-78-35-73-68 3-21 7-23 60-20 48 3 71-3 135-31 43-19 87-38 99-41 12-4 26-18 32-31 22-48 91-23 78 29-11 46-74 121-135 163-65 45-109 54-131 28z"/><path d="M6645 11029c-19-17-55-63-79-102-39-63-46-83-57-162-20-157 5-396 49-454 27-37 63-47 111-32 1e2 29 301 201 301 256 0 35-19 40-84 21-91-27-105-19-106 52 0 16-8 26-29 33-22 8-31 18-33 37-2 20-13 32-40 45l-38 17v66c0 71 6 89 57 150 37 46 42 78 14 94-27 14-26 14-66-21z"/><path d="M3160 10696c0-30 7-40 45-67 40-29 67-70 89-133 5-13 10-16 17-9 7 7 7 23-1 52-8 32-8 46 0 56 9 11-4 26-65 74-42 34-78 61-81 61-2 0-4-15-4-34z"/><path d="M3437 10444c-4-4-7-16-7-27 0-16 4-18 23-12 12 4 40 10 62 13 22 4 39 12 38 17-3 12-105 19-116 9z"/><path d="M8954 10982c-18-12-23-39-11-55 7-9 35-25 62-36 28-10 82-36 120-56 59-31 77-36 114-32 52 6 76 29 60 59-11 20-67 58-139 94-46 23-185 41-206 26z"/><path d="M8604 10871c-40-24-98-95-123-152-18-39-21-65-21-220 0-135 4-185 15-212 8-20 15-48 15-61 0-14 7-44 16-66 18-44 39-51 84-25 14 8 35 14 47 15 21 0 169 117 227 178 28 30 28 32 12 57-9 14-26 25-37 25-20 0-21 4-15 54 6 42 4 57-9 70-21 21-29 20-98-8-31-13-59-21-61-17-2 3-10 43-16 88-12 78-11 83 9 112 30 41 52 128 40 158-11 28-42 30-85 4z"/><path d="M2960 10517c0-8 7-34 15-57 8-23 15-64 15-90 0-52 4-57 88-110 44-27 58-32 79-24 14 5 31 17 37 27 9 14 6 22-19 42-16 13-53 37-82 52-46 24-55 35-78 90-28 64-55 99-55 70z"/><path d="M5060 10293c0-37 40-146 65-178 29-39 80-58 140-53l40 3-35 20c-19 11-57 29-85 41-44 20-51 27-62 66-26 90-63 150-63 101z"/><path d="M8166 9444c-21-21-20-40 5-80 36-59 81-67 1e2-18 11 31-2 66-37 93-32 25-47 26-68 5zm72-67c2-10-3-17-12-17-9 0-16 2-16 4 0 2-3 12-6 21-5 13-2 16 12 13 10-2 20-11 22-21z"/><path d="M9262 10312c-61-18-63-36-4-40l42-3-17-25c-23-35-6-48 51-40 31 5 46 12 46 22 0 8 13 23 30 32 38 22 38 30-2 46-55 23-90 25-146 8z"/><path d="M9184 10079c-3-6-2-14 2-19 12-10 76-31 81-26 9 8-10 34-33 45-31 14-41 14-50 0z"/><path d="M2857 9856c-109-46-177-105-163-142 6-16 8-16 25 0 16 15 21 15 46 2 26-14 32-13 74 8 25 13 76 33 114 45 55 19 68 27 73 48 11 41-7 58-62 60-34 2-67-5-107-21z"/><path d="M6960 10084c0-9 66-174 72-179 13-11 90-45 103-45 29 0 15 27-25 45-33 15-46 30-71 81-29 57-79 120-79 98z"/><path d="M8881 9923c40-93 59-118 114-148 30-16 57-26 61-22 10 10-20 41-60 62-44 24-88 115-56 115 6 0 10 7 10 15 0 18-17 20-22 3-3-8-11-7-28 5-38 26-41 21-19-30z"/><path d="M5031 9699c-54-22-211-147-211-168 0-6 11-11 25-11 18 0 25-5 25-20 0-40 29-32 125 31 67 45 97 72 102 89 3 14 13 33 22 43 14 17 14 20-4 33-22 16-49 17-84 3z"/><path d="M5404 9260c13-42 25-99 56-258 28-144 49-211 57-185 5 13-60 324-82 398-9 27-20 54-27 60-8 7-9 3-4-15z"/><path d="M88e2 9457c-106-44-188-117-131-117 11 0 23-12 31-29 6-16 18-32 27-35 17-7 63 15 83 39 8 9 33 30 56 45 23 16 44 40 47 52 3 13 9 33 12 46 7 20 4 22-31 22-22 0-64-11-94-23z"/><path d="M9140 8806c0-9 5-16 10-16 6 0 10 4 10 9 0 6-4 13-10 16-5 3-10-1-10-9z"/><path d="M5248 8103c-37-9-30-93 8-93 24 0 88 29 1e2 46 7 8 10 24 7 34-4 17-14 20-52 19-25-1-54-3-63-6z"/><path d="M4364 7195c-3-8-3-19 1-25 9-14 45 6 45 25 0 19-39 19-46 0z"/><path d="M7795 8888c-4-21-3-97 3-170 6-73 10-142 10-153-2-48 34-202 66-289 31-81 34-99 24-120-10-23-7-33 25-83 41-67 61-83 78-66 10 10-1 45-45 158-31 80-68 188-81 241-24 96-54 326-56 426 0 29-4 62-9 73-6 17-9 14-15-17z"/><path d="M9113 8103c-6-5-14-20-18-36-9-34 4-39 70-29 37 5 51 12 53 26 2 10 0 22-5 27-12 12-86 21-1e2 12z"/><path d="M5946 7743c-3-21-8-73-11-117-6-62-4-77 6-74 17 6 26 41 34 143 6 73 5 85-8 85-10 0-17-13-21-37z"/><path d="M5234 7185c-7-16 20-65 35-65 25 0 41 14 41 36 0 37-64 61-76 29z"/><path d="M8250 7172c0-23 19-42 41-42 29 0 34 22 9 42-28 23-50 23-50 0z"/><path d="M4822 7178c-16-16-15-53 3-68 38-32 74 22 39 61-20 22-26 23-42 7z"/><path d="M8644 7145c-9-21 14-45 42-45 16 0 24 6 24 18 0 37-54 59-66 27z"/><path d="M6767 7113c-11-11-8-48 5-61 17-17 58-15 65 4 10 26-14 64-40 64-13 0-27-3-30-7z"/><path d="M6327 7143c-4-3-7-19-7-34 0-30 30-55 56-45 17 7 19 57 2 74-13 13-41 16-51 5z"/><path d="M3197 7023c-27-27 19-96 51-77 24 16 28 55 6 71-19 14-47 17-57 6z"/><path d="M2747 7023c-13-12-7-60 8-73 21-17 65-4 65 19 0 11-12 29-26 40-28 22-37 25-47 14zm38-43c3-5-1-10-10-10-9 0-13 5-10 10 3 6 8 10 10 10 2 0 7-4 10-10z"/><path d="M7377 6723c-4-3-7-34-7-67 0-34-5-95-11-136-6-41-14-178-19-305-4-126-11-243-15-258-7-25-5-28 11-25 26 5 33 53 33 238 1 85 8 242 18 347 12 133 14 196 7 203-6 6-13 7-17 3z"/><path d="M6510 6650c0-39-2-42-23-36-19 4-25 0-35-28-15-40-89-112-138-132-19-8-34-19-34-24 0-23 85-3 180 43 51 25 101 136 84 186-15 42-34 37-34-9z"/><path d="M6525 6201c-7-13 7-21 73-40 49-15 57-21 64-48 6-23 26-44 71-76 35-25 105-79 157-121 55-45 102-76 116-76 21 0 41-16 32-25-2-3-41-15-85-28-78-22-140-53-130-64 6-5 249 25 273 34 17 6 18 35 2 52-11 10-9 15 6 27 29 21 42 17 56-16 14-35 30-39 30-9 0 25-46 104-97 167-38 46-124 92-173 92-15 0-75 22-132 49-92 43-223 91-248 91-5 0-11-4-15-9z"/><path d="M6558 5647c11-12 54-40 94-62 65-35 80-40 138-39 70 0 142 26 179 63 38 38 22 39-60 4-70-31-89-35-144-31-51 3-75 11-135 46-81 47-104 53-72 19z"/><path d="M8775 3171c-62-37-129-146-174-279-35-103-22-140 21-59l23 42 3-56c2-34-3-74-13-1e2-28-76-28-77-6-88 47-26 84 30 107 162 11 60 28 108 69 188 39 76 55 119 55 146 0 63-29 78-85 44z"/><path d="M5486 6788c-3-7-7-78-10-158-3-80-10-174-16-210-5-36-14-155-20-265-5-110-12-233-16-272-4-47-2-73 4-73 18 0 21 28 37 305 8 149 22 322 30 385 17 136 20 3e2 5 3e2-6 0-12-6-14-12z"/><path d="M4654 6643c-14-46-25-63-38-63-9 0-19-15-25-34-18-66-103-168-165-197-38-18-45-39-14-39 41 0 123 46 159 89 68 79 138 261 1e2 261-6 0-14-8-17-17z"/><path d="M4823 6064c-14-6-17-42-5-60 4-7 35-28 68-48 61-35 175-132 222-188 14-16 37-35 52-43 16-8 30-25 32-37 2-12 15-29 30-37 22-13 29-13 42-2 29 24 19 82-29 179-56 111-107 162-164 162-24 0-68 14-112 35-79 36-116 47-136 39z"/><path d="M5860 5902c-73-156-163-288-268-394-68-70-82-88-69-94 11-4 36 6 68 27 99 63 266 306 324 469 16 45 20 110 8 110-5 0-33-53-63-118z"/><path d="M4549 5647c-19-12-33-27-31-32 1-6 35-9 76-7 63 2 86-2 153-29 43-17 112-48 153-69 41-21 87-41 101-44 17-4 41-27 70-66 24-33 47-60 51-60 54 0-154 240-250 289-32 16-41 17-62 6-21-11-33-10-88 11-81 30-129 31-173 1z"/><path d="M4802 5405c-35-15-183-37-204-31-34 11-148 16-148 7 0-17 101-41 195-47 98-5 178 14 199 48 17 28-4 39-42 23z"/><path d="M6818 3157c-73-44-108-116-133-269-20-124-20-196 2-220 15-17 15-21-2-59-21-46-13-72 24-77 52-8 72 37 81 188 10 152 20 184 91 289 34 50 58 95 54 101-4 6-1 17 5 25 38 46-56 63-122 22z"/><path d="M3496 6639c-2-13-7-42-10-64-4-22-17-112-30-2e2-29-195-34-234-45-403-6-80-16-150-27-177-17-45-15-63 5-50 31 18 42 71 52 233 5 92 21 244 35 337 45 308 47 326 36 337-8 8-12 4-16-13z"/><path d="M2352 6530c-18-11-42-20-53-20-37 0-75-28-117-88-43-61-102-177-102-199 0-28 19-10 56 53 41 69 67 94 106 98 13 2 39 8 58 14 30 10 44 9 90-7 55-19 82-16 93 11 5 15-14 127-26 146-12 18-68 14-105-8z"/><path d="M3033 5903c-24-9-13-62 32-154 25-51 45-103 45-115 0-24 24-54 44-54 7 0 20 6 31 14 15 11 17 22 12 64-7 58-62 174-105 220-30 32-36 35-59 25z"/><path d="M3760 5689c-117-118-175-168-238-207-85-51-122-95-122-143 0-19 4-21 38-15 20 4 62 10 92 14 87 12 163 61 197 126 13 25 13 35 2 68l-12 38 94 97c91 94 132 156 113 171-5 4-79-63-164-149z"/><path d="M2740 5643c-76-5-88-10-69-28 9-9 51-18 107-24 87-9 182-41 182-60 0-4 16-26 36-49 29-34 41-41 65-39 27 2 32-2 44-37 19-54 35-68 35-30 0 59-71 182-129 223-27 19-167 53-201 49-8-1-40-3-70-5z"/><path d="M2935 5405c-36-30-106-55-153-55-45 0-38-22 11-34 72-18 218 53 201 98-8 22-24 20-59-9z"/><path d="M4983 2809c-73-28-121-87-195-238-54-108-63-135-66-191-2-50 0-61 8-47 7 10 23 17 44 17 37 0 49 11 86 78 18 32 35 49 57 56 18 6 39 21 48 33 12 17 22 20 53 16 25-3 41-1 49 8 5 8 13 73 16 146 7 160 5 162-1e2 122z"/><path d="M1545 2321c-46-21-113-63-169-106-45-34-246-260-246-276 0-6 12-8 29-4 17 3 32 2 36-4 3-6 17-11 30-11 22 0 34 11 111 107 21 25 48 44 81 56 63 21 61 21 65-4 4-27 29-44 51-36 9 3 45 51 81 105 36 54 72 105 81 112 8 7 15 22 15 35 0 45-92 59-165 26z"/><path d="M1757 9463c-11-11-8-23 6-23 40 0 144-157 231-348 34-75 68-146 75-157 48-78-87 234-150 345-46 83-91 146-123 172-23 19-29 21-39 11z"/><path d="M62e2 9381c0-60 69-123 98-88 9 10 1 25-34 65-25 29-50 52-55 52-5 0-9-13-9-29z"/><path d="M1610 9196c-15-39-12-283 4-407 8-58 26-160 40-227 17-82 24-136 20-165-6-38-1-58 34-133 22-49 45-105 51-124 14-44 60-95 73-82 5 5 10 36 11 68 1 65-11 95-96 239-50 86-75 180-112 430-19 128-22 337-6 379 8 20 8 33 2 39-7 7-14 1-21-17z"/><path d="M3203 8159c-25-7-33-15-33-33 0-37 23-49 77-41 59 9 113 30 113 45 0 15-63 40-97 39-15 0-43-5-60-10z"/><path d="M1659 7810c-30-4-87-17-126-28-56-17-78-30-107-62-50-56-73-106-60-128 18-28 40-25 53 6 7 16 31 47 53 68 45 44 45 44 0-46-38-77-52-159-29-178 18-15 28-5 52 61 10 26 39 81 64 121 25 41 53 87 62 104 18 33 51 42 159 42 78 0 104 12 63 28-41 16-120 21-184 12z"/><path d="M9256 6768c-3-24-13-151-21-283-8-132-18-255-21-272-5-25-3-33 9-33 20 0 27 30 27 120 0 41 5 129 10 195 21 263 23 315 13 315-6 0-13-19-17-42z"/><path d="M8549 6727c-17-15-51-29-90-36-72-15-126-39-113-51 5-5 34-2 64 6 30 8 96 19 145 26 76 9 99 8 150-5 54-14 61-14 72 0 12 15 25 15 81-2 14-5 22-3 22 4 0 7-30 26-67 44-57 27-82 32-153 35-77 2-87 0-111-21z"/><path d="M8606 6254c-10-27-7-40 24-85 32-47 37-69 18-69-7 0-67 27-133 60-126 63-202 83-230 60-25-21-18-26 54-37 95-15 185-61 272-139 40-36 87-73 104-81 16-9 45-34 64-55 19-22 51-51 72-64 22-13 39-30 39-37 0-16 41-57 57-57 18 0 36 58 30 97-10 60-64 159-108 197-22 19-72 71-110 117-39 46-78 89-87 96-24 17-59 16-66-3z"/><path d="M9467 5921c-29-26-67-56-84-65-60-30-34-84 34-71 72 13 143 75 158 137 5 20 2 29-13 37-32 17-40 14-95-38z"/><path d="M8635 5776c-48-15-85-34-85-44 0-4 64-7 142-7 151 0 168 6 132 46-14 15-30 19-83 18-36 0-84-6-106-13z"/><path d="M10518 3770c-21-17-50-58-67-93-32-64-87-297-77-322 3-8 17-17 31-21 35-9 58 14 85 82 15 37 32 60 51 69 29 15 30 19 49 145 6 41 15 93 20 114 5 22 7 43 4 48-11 18-61 6-96-22z"/></g></svg>