<svg width="421" height="185" viewBox="0 0 421 185" fill="none" xmlns="http://www.w3.org/2000/svg">
<path d="M322.389 0.290311C328.079 0.810623 333.671 2.5739 336.269 4.68406C337.716 5.84031 338.308 7.92156 338.308 11.6794C338.276 16.5067 335.842 21.5075 331.467 25.6122L330.481 26.5661L330.415 32.9833C330.217 48.3614 330.217 54.6341 330.382 54.8075C330.513 54.8942 335.151 54.8075 340.709 54.6052C351.761 54.2294 386.362 54.4317 391.657 54.8942C398.433 55.5302 404.188 58.1317 411.227 63.8262C412.806 65.127 414.154 66.1677 414.22 66.1677C414.417 66.1677 413.891 50.3848 413.529 45.4997C413.332 42.7825 412.937 39.2559 412.641 37.6661C412.082 34.3708 412.312 32.752 413.595 31.5669C414.385 30.7864 414.845 31.0177 415.832 32.6942C416.687 34.1684 417.279 36.6255 418.002 41.4528C418.496 44.8348 418.595 47.7255 418.595 59.1145C418.595 68.7981 418.693 72.845 418.956 73.1341C419.976 74.2325 420.798 76.1981 420.963 77.9614C421.094 79.4645 420.897 80.9098 420.075 84.3786C418.66 90.4489 418.595 91.8942 419.384 99.4676C420.502 110.192 420.239 128.403 418.759 141.468C418.595 143.058 418.43 144.648 418.43 144.995C418.43 146.758 415.503 144.937 414.779 142.74C414.154 140.804 414.22 126.293 414.911 119.211C415.865 108.949 416.226 100.74 415.865 97.0106C415.667 95.1317 415.437 93.513 415.338 93.4262C415.24 93.3395 414.45 93.7731 413.595 94.438C408.99 97.82 399.946 102.214 391.953 104.989C381.362 108.66 373.337 110.654 351.827 115.019C346.202 116.175 341.565 117.158 341.499 117.216C341.433 117.274 342.19 118.112 343.209 119.037C344.985 120.656 345.084 120.829 345.084 122.217C345.084 123.604 345.018 123.749 343.111 125.397L341.137 127.102L342.19 128.605C343.078 129.848 343.275 130.484 343.374 132.161C343.505 134.097 343.604 134.3 345.183 136.092C348.537 139.936 350.149 144.041 350.149 148.695C350.149 152.193 349.458 154.736 347.682 157.945C344.36 164.015 338.341 168.525 330.941 170.548C327.389 171.531 321.271 171.531 317.949 170.577C314.331 169.507 311.766 168.293 308.838 166.212C302.655 161.847 299.037 155.517 299.004 148.955C298.971 144.764 299.3 143.203 300.55 141.671C302.885 138.809 303.313 138 303.346 136.439C303.412 134.3 302.227 132.912 299.202 131.467C293.051 128.547 285.815 128.114 258.22 129.068C245.557 129.501 234.67 129.472 227.664 128.923L225.198 128.75L225.296 127.738C225.461 125.743 226.086 124.847 229.013 122.275C230.625 120.858 231.94 119.586 231.94 119.442C231.94 119.297 229.967 118.893 227.566 118.517C189.084 112.591 151.161 105.943 95.6085 95.3919C86.3662 93.6286 78.6698 92.1833 78.5054 92.1833C78.308 92.1833 77.9134 92.5301 77.5844 92.9926C75.6768 95.5942 74.5914 96.6637 73.4073 97.1262C72.6837 97.4153 70.9076 98.427 69.4605 99.4098C68.0133 100.393 66.0069 101.52 65.0202 101.896C62.6192 102.879 58.4421 103.601 56.8962 103.341C55.1859 103.052 53.7387 101.925 53.4756 100.653C53.2783 99.7278 53.3769 99.5255 54.1663 98.9473C55.2517 98.1958 56.5344 97.8489 60.4484 97.2708C66.1056 96.4036 70.4801 94.727 71.7299 92.9348C72.7495 91.5184 72.618 91.0848 71.1379 90.738C68.6711 90.1598 63.6388 89.2926 55.8108 88.1364C42.5888 86.1419 28.1827 83.4536 22.2295 81.8348L19.3023 81.0255L19.2036 79.9559C19.1378 79.1755 19.3351 78.4817 19.9272 77.5856C21.5059 75.2442 21.2757 75.013 16.9999 74.695C8.02077 74.0302 3.05428 72.7005 0.850608 70.4169L0.0283424 69.5497L1.04795 69.1739C2.9885 68.4512 6.93537 67.902 13.4148 67.4684C19.7627 67.0348 21.6046 66.8614 22.8873 66.5434C23.4794 66.3989 23.5123 66.1677 23.3149 62.5833C23.1833 60.502 22.7229 54.2294 22.2624 48.6794C21.3415 38.0419 21.0455 24.8895 21.5388 20.1778L21.8348 17.663L24.0056 16.7958C27.0973 15.5528 29.6628 15.0036 33.2808 14.8012C43.5426 14.252 55.2517 18.5591 66.3359 26.913C71.993 31.1911 72.6509 32.0872 75.2163 38.8802C77.3871 44.6903 78.2751 46.1356 82.8469 51.0786C84.7217 53.102 87.4845 56.1083 88.9317 57.7848C92.2208 61.4848 94.5231 63.6528 96.0361 64.4911C96.957 64.9825 97.4833 65.0692 99.1936 64.9247C100.312 64.838 102.318 64.4911 103.667 64.1731C106.364 63.5083 116.297 62.2075 125.375 61.2825C137.676 60.0395 148.957 59.4036 164.251 59.0567L173.395 58.8544L175.007 60.2997C177.967 62.9302 182.21 64.202 188.031 64.1731C191.55 64.1442 194.215 63.8552 196.287 63.2481C197.273 62.988 197.405 62.7567 198.392 60.0106C198.984 58.3919 199.707 56.7153 199.97 56.2528L200.497 55.4723H220.33H240.196L240.13 42.927L240.097 30.3528L235.032 27.838C225.428 23.0395 221.547 19.802 219.442 14.7434L218.85 13.327L219.771 12.3442C222.007 9.9739 227.632 8.67312 244.274 6.64969C261.344 4.56844 264.173 4.30828 277.263 3.44109C289.005 2.66062 292.525 2.31375 303.839 0.984061C308.246 0.463748 315.68 -0.027658 317.949 0.00124823C318.837 0.0301545 320.844 0.174686 322.389 0.290311ZM242.827 41.1348C242.794 48.5059 243.123 54.9809 243.518 55.3278C243.583 55.3856 246.215 55.2989 249.405 55.1544C252.99 54.9809 257.036 54.9809 260.095 55.1544C262.792 55.2989 265.061 55.3567 265.16 55.27C265.456 55.0098 265.554 49.2575 265.324 44.3145L265.094 39.4005L259.799 37.8684C252.694 35.845 246.577 33.8794 244.768 33.0411C243.945 32.6653 243.189 32.3762 243.09 32.3473C242.959 32.3473 242.86 36.3075 242.827 41.1348ZM308.674 36.6833C307.26 36.8567 304.464 37.2614 302.491 37.5794C300.484 37.9262 297.458 38.3309 295.748 38.5333L292.623 38.8802L295.912 41.0481C300.09 43.8231 304.168 46.2223 304.661 46.2223C305.418 46.2223 308.411 43.9387 312.621 40.152L316.798 36.3942H314.035C312.489 36.3942 310.088 36.5387 308.674 36.6833ZM283.019 41.7997C283.644 43.1005 285.683 46.6848 287.558 49.8067L290.979 55.4434L292.788 55.4723C295.288 55.4723 296.833 54.6341 298.675 52.3216L300.155 50.4716L298.84 49.4598C297.228 48.188 286.374 40.1809 285.42 39.5161C284.598 38.9669 282.131 38.7067 282 39.1692C281.967 39.3427 282.427 40.5278 283.019 41.7997ZM277.888 48.1012L277.921 55.0387L279.04 55.27C280.322 55.588 286.243 55.3567 286.999 54.9809C287.46 54.7497 287.098 53.9403 284.269 49.0841C281.441 44.1989 280.158 41.7997 279.138 39.4294C278.941 38.938 278.842 38.9958 278.382 40.0075C277.921 40.9614 277.856 42.2911 277.888 48.1012ZM289.795 40.1231C290.716 41.5973 297.097 46.0778 301.175 48.1012L302.819 48.9106L301.405 47.6098C300.616 46.8872 298.84 45.5575 297.458 44.6614C296.077 43.7653 293.742 42.2622 292.294 41.3372C290.847 40.3833 289.63 39.6028 289.565 39.6028C289.532 39.5739 289.63 39.8341 289.795 40.1231ZM309.299 45.4997C308.279 46.2512 307.424 47.6966 307.654 48.3036C307.852 48.7661 309.365 47.3786 310.45 45.8177C311.338 44.5458 310.779 44.4012 309.299 45.4997ZM315.713 46.2802C314.956 46.7716 312.818 51.4255 313.048 52.0614C313.147 52.3216 313.805 52.9864 314.561 53.4778C315.844 54.3739 315.91 54.4028 316.338 53.8825C316.831 53.2755 317.028 45.9333 316.535 45.9333C316.37 45.9333 316.009 46.1067 315.713 46.2802ZM311.272 48.2458C310.483 49.2864 310.319 50.0958 310.943 49.9223C311.338 49.8067 312.752 47.8122 312.818 47.2919C312.884 46.7716 311.996 47.3208 311.272 48.2458ZM304.628 50.645C304.628 51.3677 305.188 52.0036 305.845 52.0036C306.109 52.0036 306.273 51.6278 306.273 50.9919C306.273 50.0958 306.174 49.9802 305.451 49.9802C304.826 49.9802 304.628 50.1247 304.628 50.645ZM78.5054 51.5411C78.6369 52.0325 78.8343 55.5302 78.9659 59.288C79.0974 63.0458 79.2948 66.2255 79.3934 66.3411C79.821 66.7169 90.1816 65.763 92.0892 65.1559C92.3852 65.0692 91.8261 64.3177 90.5434 62.988C89.458 61.8895 86.7609 58.8544 84.5573 56.2817C79.7223 50.5872 79.3934 50.2692 78.7685 50.4716C78.4067 50.5872 78.3409 50.8762 78.5054 51.5411ZM308.411 52.6684C308.411 53.42 309.069 53.3911 309.167 52.6106C309.266 52.1481 309.134 51.9747 308.838 52.0614C308.608 52.1481 308.411 52.4083 308.411 52.6684ZM301.438 52.6395C300.484 53.1309 299.366 54.6052 299.366 55.3567C299.366 55.4723 300.188 55.4723 301.208 55.4145C303.181 55.27 303.971 54.7497 303.971 53.6223C303.971 53.1598 303.116 52.0903 302.688 52.0325C302.622 52.0036 302.063 52.2927 301.438 52.6395ZM310.549 54.6341C310.319 54.952 310.22 55.2989 310.319 55.3567C310.417 55.4434 311.272 55.4723 312.226 55.4145L314.002 55.3278L313.246 54.663C312.325 53.8536 311.009 53.8247 310.549 54.6341Z" fill="#433C32"/>
</svg>
