<svg width="420" height="751" viewBox="0 0 420 751" fill="none" xmlns="http://www.w3.org/2000/svg">
<g clip-path="url(#clip0)">
<path d="M276.849 0.380215C263.294 1.71076 246.699 5.76576 234.03 10.8345C215.915 17.9941 169.866 40.6134 149.027 52.525C133.445 61.3953 -31.812 160.363 -95.5965 199.012C-103.514 203.764 -114.029 211.24 -114.789 212.571C-115.106 213.204 -114.979 213.648 -114.282 213.901C-113.649 214.155 -109.278 211.937 -102.691 208.009C-96.8633 204.524 -87.1088 199.139 -81.028 195.971C-63.4192 186.91 22.5979 140.848 28.552 137.3C38.0532 131.661 77.1346 107.204 95.1868 95.6094C122.74 77.8687 134.268 71.3427 177.404 48.7868C206.73 33.4538 217.118 28.8286 239.351 21.2888C270.262 10.7712 292.051 6.77951 306.936 8.87037C320.048 10.7078 332.336 16.3468 341.964 25.027C343.737 26.6744 345.257 27.6881 345.257 27.3713C345.257 26.9912 343.8 24.5201 342.027 21.859C335.249 11.7215 324.355 5.32225 308.013 1.90084C301.932 0.570293 283.816 -0.253379 276.849 0.380215Z" fill="#7D705C"/>
<path d="M283.817 14.3192C273.112 15.7132 257.53 19.7048 247.206 23.6964C244.102 24.8369 230.294 30.856 216.485 37.0019C191.719 48.0264 191.276 48.2165 188.045 47.773C185.258 47.4562 184.815 47.5196 185.512 48.2165C186.842 49.6104 186.398 50.3707 183.485 51.828C181.458 52.7784 180.001 53.0318 178.417 52.7784C176.2 52.4616 175.187 53.3486 176.96 54.1089C178.671 54.8059 175.25 56.3899 171.893 56.3899C170.056 56.3899 168.536 56.6433 168.536 57.0235C168.536 57.3403 168.98 57.6571 169.55 57.6571C170.12 57.6571 170.436 58.0372 170.31 58.4174C170.12 58.9243 168.283 59.4311 166.002 59.6846C161.822 60.1914 159.922 61.0785 161.759 61.8388C162.329 62.0289 162.835 62.4724 162.835 62.7258C162.835 63.296 160.175 64.3732 157.135 65.0068C155.931 65.2602 155.298 65.577 155.741 65.7671C157.261 66.2739 154.411 67.7312 151.751 67.7946C148.647 67.7946 146.367 68.3648 146.367 69.1251C146.367 69.4419 147.317 69.6953 148.457 69.6953C152.004 69.7587 148.837 71.3427 144.213 71.8496C139.779 72.2931 136.232 73.3068 136.232 74.1305C136.232 74.4473 137.752 74.7641 139.589 74.8908L142.883 75.0809L140.603 76.4748C139.336 77.2985 137.752 77.9321 137.119 77.9321C135.092 77.9321 131.165 79.1993 131.165 79.8328C131.165 80.213 131.798 80.4664 132.495 80.4664C135.092 80.4664 132.495 82.2405 129.265 82.684C127.554 82.9375 125.654 83.5077 125.021 84.0146C123.944 84.7749 124.007 84.8382 125.718 84.9016C129.138 84.9016 126.414 86.3589 121.98 86.8657C119.7 87.1825 117.483 87.5627 117.167 87.8161C116.216 88.3864 117.737 89.3368 119.763 89.3368L121.347 89.4001L119.763 90.2871C118.877 90.794 116.913 91.2375 115.33 91.2375C113.746 91.2375 112.099 91.491 111.592 91.8078C110.579 92.4414 111.212 93.7719 112.543 93.7719C113.746 93.7719 113.683 94.7857 112.416 95.2925C111.846 95.4826 110.009 95.6727 108.299 95.6727C105.195 95.6727 103.928 96.6864 106.652 97.0666C107.412 97.1933 107.919 97.5101 107.729 97.8903C107.539 98.2704 105.575 98.4605 103.295 98.3971L99.1776 98.2071L101.648 99.1575C103.041 99.6643 104.245 100.235 104.435 100.361C104.562 100.488 103.421 101.312 101.901 102.199C100.001 103.339 97.8475 103.846 94.4904 104.099C89.3598 104.543 86.6994 105.81 91.0066 105.81C94.3004 105.81 95.6939 106.697 93.9203 107.648C93.2236 108.028 91.7667 108.345 90.6899 108.345C89.6765 108.345 88.5997 108.598 88.4097 108.978C88.2196 109.295 88.473 109.612 89.0431 109.612C89.6131 109.612 89.9298 109.865 89.7398 110.182C89.5498 110.499 86.8261 110.942 83.7858 111.196C77.7684 111.639 74.4746 112.716 78.9085 112.78C81.9489 112.78 83.7224 113.667 82.0755 114.3C81.5055 114.49 80.2387 114.681 79.2252 114.681C76.7549 114.681 73.9679 115.821 74.4746 116.581C74.6646 116.898 75.8048 117.215 76.8816 117.215C78.7185 117.278 78.7818 117.342 77.7684 118.102C77.0083 118.736 75.4247 118.862 72.4477 118.609C67.9505 118.292 67.1904 119.242 71.3076 120.003C75.1714 120.763 73.0811 121.587 68.3305 121.207C63.5166 120.763 62.9465 121.397 66.6203 122.917C68.4572 123.741 68.5206 123.804 67.4438 124.628C66.747 125.135 64.5934 125.452 62.0598 125.452C57.2459 125.452 55.789 126.339 59.3994 127.036C61.6164 127.416 61.7431 127.542 60.5396 128.366C59.9062 128.873 58.3227 129.253 57.1192 129.253C54.5855 129.253 52.3686 130.394 53.7621 130.964C55.409 131.597 52.3686 132.991 49.3282 133.055C46.2878 133.055 44.7677 134.005 46.6679 134.765C47.5547 135.082 47.4913 135.272 46.2245 135.969C45.4011 136.413 43.8175 136.793 42.6774 136.856C40.5872 136.856 39.0036 138.123 41.0305 138.123C41.9173 138.187 41.854 138.377 40.5872 139.074C39.7004 139.581 37.5468 139.961 35.7099 140.024C33.9363 140.024 32.2261 140.278 32.0361 140.658C31.7827 141.038 32.4795 141.291 33.6196 141.291C36.5333 141.291 35.3298 142.432 31.8461 142.875C30.1992 143.066 28.299 143.509 27.6022 143.826C26.5254 144.269 26.5888 144.396 28.2356 144.396C31.1493 144.523 28.8057 145.727 25.702 145.727C24.3085 145.727 22.725 146.043 22.2182 146.36C21.4581 146.804 21.5848 147.057 22.7883 147.501C24.1818 148.008 24.1185 148.071 21.7749 149.085C20.4447 149.655 18.2278 150.288 16.8343 150.542C14.8073 150.922 14.554 151.112 15.5674 151.429C16.7709 151.872 16.7709 151.936 15.2507 152.569C14.364 152.95 12.9071 153.393 11.957 153.583C10.9435 153.837 10.2468 154.343 10.3735 154.787C10.4368 155.231 9.42335 155.674 7.6498 155.927C6.06628 156.118 5.1795 156.371 5.62289 156.371C8.28322 156.751 4.35607 159.032 1.18902 159.032C-0.394511 159.032 -0.647875 159.222 -0.0778052 159.792C0.492264 160.363 -0.204487 160.996 -3.3082 162.644C-5.4618 163.847 -8.62885 165.115 -10.3391 165.495C-12.2393 165.875 -13.1261 166.318 -12.6193 166.635C-11.1625 167.522 -17.1166 170.437 -20.4103 170.437C-22.5639 170.437 -23.3873 170.69 -23.3873 171.324C-23.3873 171.831 -23.0073 172.338 -22.5639 172.528C-21.2337 172.971 -25.7309 174.872 -28.2646 174.872C-29.9748 174.872 -30.4182 175.062 -29.7214 175.506C-29.2147 175.822 -28.9613 176.202 -29.088 176.329C-29.278 176.519 -35.5488 179.687 -43.023 183.425C-81.2811 202.56 -109.468 218.907 -115.359 225.433C-119.286 229.804 -119.096 234.24 -114.725 238.421C-113.015 240.069 -48.7871 274.98 -47.4569 274.98C-46.6335 274.98 -46.3168 273.206 -46.0001 267.377C-45.8101 264.082 -45.3033 261.738 -44.2899 259.773C-40.6794 252.614 -14.963 231.262 10.3101 214.345C28.1723 202.433 41.3472 196.034 71.3709 184.503C115.076 167.776 124.641 164.164 141.426 158.145C193.366 139.644 211.608 134.765 243.595 131.091C264.434 128.683 281.22 128.113 291.418 129.443C306.683 131.471 320.365 135.399 328.726 140.151C333.223 142.685 338.67 147.817 340.317 150.985C340.951 152.316 341.837 153.33 342.281 153.14C342.661 153.013 343.231 151.492 343.547 149.782C343.801 148.071 345.701 139.264 347.791 130.204C355.202 97.32 356.976 62.1556 351.845 47.2028C349.185 39.1561 338.1 26.5476 329.802 21.859C319.605 16.1567 312.637 14.5093 297.752 14.2559C291.291 14.1292 285.02 14.1925 283.817 14.3192ZM342.407 74.3206L344.878 76.4748L343.801 80.213C343.231 82.3039 342.724 84.7749 342.724 85.7253C342.724 87.436 342.661 87.436 338.607 87.436C334.806 87.436 331.323 86.5489 331.323 85.5352C331.323 85.2818 332.589 84.5848 334.173 84.0146C337.657 82.6207 337.847 81.2901 334.743 79.326C331.829 77.4252 332.146 76.158 336.073 74.0671C337.847 73.1168 339.43 72.3564 339.62 72.2931C339.81 72.2931 341.077 73.1801 342.407 74.3206ZM335.757 96.8765C335.757 98.1437 336.137 98.904 336.96 99.1575C337.657 99.3475 338.544 99.9178 338.924 100.488C339.937 101.628 338.607 103.212 334.743 105.493C331.703 107.267 331.006 109.485 333.223 110.055C334.046 110.245 334.49 110.816 334.363 111.449C334.236 112.209 333.286 112.526 330.563 112.653L326.952 112.843L327.902 110.499C329.296 107.204 328.852 104.923 326.889 104.67C323.025 104.29 321.188 103.783 321.188 103.276C321.188 102.896 322.265 102.642 323.532 102.642C327.015 102.642 331.323 100.361 332.336 97.8269C333.096 95.9895 333.92 95.2292 335.313 95.1025C335.567 95.0391 335.757 95.8628 335.757 96.8765Z" fill="#7D705C"/>
<path d="M251.133 133.118C235.741 134.512 207.871 140.531 180.761 148.261C174.743 150.035 159.921 155.104 147.823 159.602C135.725 164.101 120.523 169.676 114.062 171.957C97.7205 177.85 98.7339 177.47 71.624 188.811C58.1957 194.45 44.8307 199.899 41.8537 200.913C37.1031 202.56 24.3715 209.213 12.02 216.436C3.9757 221.188 -16.8002 237.471 -27.1248 247.165C-38.5262 257.873 -40.0463 260.027 -42.1366 268.897C-43.4668 274.663 -42.77 277.514 -39.0329 281.759C-37.5127 283.406 -35.4224 286.068 -34.3456 287.652C-31.7487 291.516 -26.5547 301.591 -26.5547 302.731C-26.5547 303.238 -25.5412 306.786 -24.3378 310.588C-23.0709 314.389 -21.9308 318.824 -21.7408 320.472C-20.9807 327.188 -19.4605 331.496 -18.0036 330.989C-17.1169 330.609 -11.7962 324.273 -8.37581 319.331C-7.23567 317.747 -4.13196 314.136 -1.40829 311.348C1.31538 308.497 5.17918 304.315 7.26944 301.971C11.3233 297.346 19.8743 290.123 23.5481 288.222C24.8783 287.588 27.2219 285.307 28.8687 283.216C32.9226 277.894 41.0302 271.495 44.2606 270.925C46.0342 270.671 47.301 269.911 48.5678 268.454C52.9383 263.385 54.6486 261.864 63.7063 255.212C68.2035 251.917 72.004 250.65 74.601 251.6C75.9945 252.107 77.768 254.515 78.0848 256.352C78.3381 257.999 74.981 259.076 69.027 259.076C63.5796 259.14 61.236 260.154 62.6929 261.928C64.023 263.512 62.4395 265.032 59.8425 264.589C58.3857 264.272 57.4356 264.525 56.3588 265.412L54.8386 266.68L56.4221 266.743C58.8924 266.806 59.8425 267.63 59.3358 269.467C58.639 272.319 60.2226 272.572 63.7697 270.228C65.5432 269.024 69.6604 267.186 72.8274 266.173C76.0578 265.096 80.1117 263.385 81.8219 262.308C83.5321 261.294 85.6223 260.407 86.4458 260.407C89.4228 260.407 95.9469 258.38 100.698 255.972C103.358 254.641 109.249 252.17 113.746 250.523C118.306 248.939 123.31 246.911 124.894 246.088C126.541 245.328 129.518 244.187 131.545 243.744C139.969 241.653 145.036 239.879 151.434 236.901C155.171 235.19 158.528 233.796 158.908 233.796C159.605 233.796 161.568 236.204 161.568 237.091C161.568 237.344 160.491 237.724 159.225 237.978C153.081 239.055 145.86 242.793 133.128 251.347C127.427 255.212 125.084 256.225 125.591 254.515C125.781 254.134 127.301 252.677 129.011 251.41C134.205 247.418 132.495 246.088 126.731 249.573C125.147 250.523 122.804 251.663 121.473 252.107C118.56 253.121 118.37 254.515 121.22 254.831L123.247 255.085L121.347 255.592C120.333 255.909 119.003 256.479 118.496 256.922C117.99 257.302 115.709 258.316 113.429 259.076C111.085 259.9 108.742 261.231 107.982 262.118C106.398 264.019 104.561 263.702 103.041 261.357C101.774 259.393 100.951 259.393 98.924 261.294C97.2771 262.815 82.772 268.644 80.6184 268.644C79.985 268.644 78.9082 269.087 78.2114 269.594C77.1346 270.418 77.2613 270.481 80.365 270.545C82.2019 270.545 84.7356 270.101 86.0024 269.594C88.536 268.517 90.1829 268.77 89.6128 270.101C89.3595 270.861 83.5321 273.016 79.2249 273.966C78.3381 274.156 77.198 275.17 76.6279 276.184C75.9312 277.387 74.8544 278.148 73.4609 278.464C72.2574 278.718 68.9003 279.985 65.9233 281.316C62.9462 282.646 59.8425 283.913 58.9558 284.167C56.1687 284.864 61.9328 280.239 66.24 278.211C70.5472 276.184 74.1576 273.396 74.1576 272.065C74.1576 270.671 72.8274 270.988 69.7237 273.142C68.1402 274.156 63.5796 276.69 59.5892 278.781C55.5987 280.809 51.0381 283.406 49.5179 284.484C46.8576 286.448 46.7309 286.574 47.9344 287.461C48.8845 288.158 48.9479 288.539 48.4411 289.426C47.8711 290.313 46.9843 290.439 44.0073 290.313L40.2701 290.059L34.8861 294.558C31.9725 296.965 27.9186 299.943 25.8917 301.084C23.8648 302.224 20.5077 304.125 18.4175 305.329C14.3636 307.673 10.4998 310.968 -2.86513 323.513C-12.683 332.7 -15.8501 337.009 -16.4835 341.697C-16.7368 343.535 -17.1169 346.322 -17.3702 347.97C-17.8136 350.884 -17.7503 351.138 -15.4067 353.799C-8.81919 361.212 -6.34889 366.154 -5.65214 373.187C-5.27209 377.432 -4.82871 378.699 -1.02824 385.542C1.44206 389.977 3.46897 394.602 3.91236 396.63C4.79914 400.748 5.74925 402.839 8.9163 407.084C12.4001 411.709 13.4769 414.18 13.0335 416.208C12.4634 418.742 18.9875 433.632 20.7611 433.885C22.408 434.138 23.9281 432.364 25.5117 428.246C27.2852 423.621 27.5386 421.72 26.7151 420.136C25.7017 418.362 26.4618 414.497 27.982 413.737C28.6154 413.357 30.3256 412.913 31.8458 412.723C34.6328 412.343 36.723 413.357 41.9803 417.602L43.6906 419.059L51.4815 411.202C55.7887 406.957 60.1592 402.902 61.1727 402.269C64.4664 400.241 71.1172 400.938 71.8773 403.409C72.0674 404.043 72.5107 407.718 72.8274 411.582C73.2075 416.651 73.7776 419.312 74.7277 421.276C75.4878 422.734 76.3745 425.585 76.7546 427.549C77.8947 433.695 81.6319 440.538 86.8892 446.05C92.6532 452.069 93.2866 453.083 92.8432 455.617C92.2731 458.785 93.2866 460.433 96.327 461.32C99.0506 462.143 103.928 465.945 103.928 467.212C103.928 468.606 106.208 470.19 110.072 471.394C112.099 472.027 117.673 474.562 122.423 477.033C127.237 479.504 131.481 481.531 131.925 481.531C132.938 481.531 136.232 477.476 136.232 476.272C136.232 475.829 135.788 474.055 135.218 472.471C134.522 470.38 134.395 469.24 134.838 468.669C135.915 467.402 137.055 455.871 136.549 452.196C136.295 450.422 135.978 446.493 135.915 443.516C135.852 439.461 135.535 437.56 134.585 435.849C133.445 433.758 133.318 432.491 133.508 420.326C133.572 413.04 133.825 405.5 134.015 403.536C134.332 400.558 134.205 399.861 133.128 398.911C131.861 397.77 131.735 397.834 127.237 402.015C121.917 406.894 121.347 407.274 113.746 409.808C106.842 412.089 99.0506 412.786 94.1734 411.519C88.156 409.935 80.8718 406.324 76.6912 402.839C74.411 400.938 71.2439 398.467 69.597 397.39C65.9866 394.919 61.3627 388.646 59.2091 383.261C58.3223 381.107 57.1189 378.636 56.5488 377.685C53.2551 372.49 42.4871 357.22 40.2701 354.496C36.0263 349.427 35.6462 348.54 33.9994 340.113C31.339 326.871 32.7959 320.535 40.7135 311.095C46.2242 304.442 47.8077 303.111 52.7483 301.274C57.3722 299.5 57.3722 299.5 73.5875 299.563C88.9161 299.563 89.9929 299.626 92.9066 300.957C95.6302 302.161 96.6437 302.288 101.648 301.907L107.285 301.464L111.782 306.279C114.886 309.574 117.23 311.475 119.446 312.362C122.487 313.692 122.677 313.692 124.704 312.615C125.781 312.045 126.731 311.348 126.731 311.095C126.731 310.588 123.057 307.673 118.686 304.759C115.139 302.414 114.633 301.147 116.469 299.5C117.546 298.549 117.8 298.549 120.333 299.817C123.437 301.337 123.627 301.274 128.251 297.599C130.088 296.078 131.355 295.698 135.725 295.255C139.906 294.875 142.123 294.241 146.43 292.15C149.47 290.756 152.574 289.552 153.334 289.552C154.094 289.552 156.944 290.503 159.605 291.707C166.382 294.684 184.624 300.704 192.479 302.541C196.026 303.428 199.763 304.505 200.713 305.012C203.69 306.533 209.771 308.307 219.145 310.461C228.963 312.679 234.347 314.643 242.328 319.014C249.106 322.689 260.19 330.166 267.981 336.185C273.175 340.303 274.379 341.57 275.329 343.978C276.722 347.716 277.736 348.92 280.586 349.807C284.703 351.138 292.748 355.383 298.385 359.311C306.683 364.95 313.523 373.44 313.587 378.002C313.587 379.269 313.143 379.396 307.569 379.776C297.942 380.473 290.847 382.817 291.671 384.972C291.924 385.542 290.974 386.365 288.694 387.506C284.957 389.407 280.016 392.828 280.016 393.525C280.016 393.715 280.586 394.095 281.283 394.285C282.296 394.539 282.486 394.982 282.233 396.123C282.043 397.01 282.486 398.53 283.373 400.114C284.513 402.142 285.463 402.902 288.124 403.853C289.961 404.486 291.417 405.247 291.417 405.5C291.417 405.753 290.277 406.767 288.82 407.718C287.427 408.731 286.033 409.999 285.717 410.632C285.337 411.202 283.817 412.343 282.296 413.103C280.776 413.8 278.306 415.257 276.912 416.334C275.456 417.348 271.972 419.249 269.058 420.643C265.004 422.544 263.294 423.747 261.14 426.345C258.543 429.386 258.417 429.767 258.923 431.984L259.494 434.328L263.547 434.138C277.546 433.505 281.22 432.238 291.417 424.571C294.711 422.1 297.878 420.073 298.385 420.073C298.892 420.073 300.855 419.376 302.692 418.489C304.592 417.602 306.619 416.905 307.253 416.905C307.823 416.905 309.596 415.828 311.117 414.497C317.261 409.175 317.704 408.985 324.672 408.985C330.246 408.985 331.449 409.175 334.743 410.695C340 413.23 343.357 413.04 343.357 410.252C343.357 409.428 343.61 408.605 343.991 408.351C345.447 407.464 348.234 414.877 347.158 416.905C346.588 417.918 338.987 420.136 332.652 421.086C331.132 421.276 326.255 422.734 321.758 424.191C315.867 426.219 312.573 427.739 309.596 429.83C304.909 433.188 294.901 443.516 291.354 448.648C288.25 453.21 284.197 456.694 281.41 457.201C280.206 457.455 275.836 457.455 271.655 457.201C263.737 456.694 261.457 457.011 253.413 459.482C250.499 460.369 248.536 461.51 246.635 463.347C245.178 464.741 241.631 467.529 238.718 469.43C233.777 472.788 231.623 475.259 231.117 478.046C230.927 479.25 231.307 479.314 237.578 479.377C244.355 479.44 247.649 480.011 246.699 480.898C246.382 481.151 243.595 482.165 240.428 483.115C237.324 484.066 233.65 485.396 232.384 486.03C230.8 486.853 228.71 487.234 225.923 487.234C221.489 487.234 221.489 487.234 217.562 491.986C214.331 495.914 212.051 497.118 206.224 498.005C198.813 499.082 195.646 501.236 189.755 509.093C187.728 511.817 186.841 512.387 182.914 513.718C180.381 514.541 176.833 515.365 174.933 515.619C170.879 516.125 169.993 517.393 173.223 518.026C174.49 518.216 175.503 518.723 175.503 519.167C175.503 519.547 173.033 521.701 169.993 523.919C165.052 527.53 164.229 527.974 161.315 528.037C158.781 528.1 157.514 528.544 155.298 530.191C153.777 531.332 152.194 532.219 151.877 532.219C150.737 532.219 142.313 527.72 140.666 526.2C136.802 522.715 134.142 521.448 131.671 521.891C129.771 522.145 128.314 521.828 124.957 520.307L120.713 518.406L106.968 518.47C99.3673 518.533 93.1599 518.787 93.1599 519.04C93.1599 519.293 94.11 520.054 95.3135 520.624C96.517 521.258 102.851 525.439 109.375 529.874C124.83 540.329 154.601 559.907 158.718 562.251C160.491 563.265 164.102 565.989 166.889 568.27C169.613 570.488 173.793 573.402 176.073 574.606C185.638 579.675 199.7 590.002 206.92 597.162C211.734 601.977 214.901 604.638 217.245 605.652L220.539 607.236L225.986 606.096C232.067 604.829 232.574 604.575 239.858 598.936C243.975 595.768 245.305 594.374 246.382 591.84C247.775 588.482 249.866 580.308 250.626 574.986C251.323 570.108 253.096 568.84 269.628 561.491C277.609 558.006 285.59 554.585 287.3 553.888C295.788 550.53 308.076 545.081 312.637 542.673C315.424 541.152 319.414 539.505 321.504 538.935C323.595 538.301 326.445 537.414 327.839 536.844C329.549 536.21 333.159 535.83 339.113 535.703C347.538 535.513 348.044 535.387 350.515 533.676C359.256 527.657 362.866 522.018 364.576 512.134C365.78 504.974 365.02 496.991 362.676 491.859C359.699 485.333 359.066 478.046 360.079 462.84C360.713 453.716 359.826 449.091 356.342 444.022C354.505 441.361 354.125 440.411 354.505 438.827C355.012 436.103 357.989 432.554 360.333 431.794C361.409 431.414 363.12 430.337 364.133 429.386C365.146 428.436 366.983 427.359 368.187 427.042C369.58 426.662 370.657 425.838 371.101 424.825C371.544 423.938 372.557 422.924 373.444 422.607C374.458 422.227 375.028 421.53 375.028 420.643C375.028 419.883 375.534 417.918 376.104 416.271C377.181 413.23 377.181 413.166 375.851 412.026C374.711 411.076 365.527 397.073 365.527 396.376C365.527 396.25 367.617 394.919 370.15 393.398C376.358 389.724 380.792 386.746 382.312 385.225C383.072 384.528 386.492 383.007 389.913 381.867C395.994 379.776 396.31 379.649 397.704 376.925C399.224 373.884 399.477 371.096 398.401 367.484C397.577 364.823 388.076 352.595 381.108 345.309C378.638 342.711 374.394 337.262 371.734 333.27C369.01 329.279 365.717 325.034 364.26 323.893C359.319 319.838 360.713 319.014 375.154 317.747C387.886 316.607 397.134 314.453 409.042 310.017C418.48 306.406 419.683 305.329 419.683 300.007C419.683 296.142 418.29 294.114 413.982 291.96C412.589 291.2 410.245 289.806 408.725 288.792C402.074 284.23 380.032 277.324 368.694 276.247C353.682 274.79 350.958 274.409 348.994 273.332C347.221 272.445 345.004 272.192 337.023 272.065C331.639 271.938 325.242 271.622 322.771 271.241C320.364 270.861 315.36 270.545 311.75 270.545C306.049 270.545 304.339 270.291 299.082 268.517L293.001 266.49L276.532 266.426L260.064 266.363L255.756 263.955C252.083 261.864 251.196 261.611 249.739 262.181C248.789 262.561 244.988 263.005 241.188 263.195C235.297 263.512 233.904 263.385 230.483 262.181C226.81 260.914 225.733 260.851 213.951 261.231C206.857 261.484 200.016 261.357 198.243 261.041C193.872 260.217 177.467 259.203 163.785 258.886C157.514 258.76 152.32 258.57 152.257 258.57C152.13 258.506 152.067 257.999 152.067 257.366C152.067 256.796 153.017 255.655 154.157 254.831C156.501 253.311 160.428 252.994 164.102 254.134C165.305 254.515 170.626 254.895 175.82 254.958C184.688 255.148 185.511 255.085 188.172 253.754C189.755 252.931 192.162 251.093 193.492 249.699C196.216 246.911 197.989 246.151 203.373 245.518C205.274 245.264 210.214 243.997 214.268 242.603C218.385 241.273 222.502 240.132 223.516 240.132C225.923 240.132 234.664 237.914 238.338 236.33C240.238 235.507 242.708 235.063 245.305 235.063C247.522 235.063 251.323 234.556 253.73 233.986C258.86 232.846 282.613 231.198 293.634 231.325C307.949 231.452 311.433 231.769 315.17 233.416C317.957 234.556 320.111 235.063 323.025 235.063C325.748 235.063 328.725 235.634 331.766 236.647C334.363 237.534 336.706 238.105 337.023 237.914C337.34 237.724 340.76 238.421 344.624 239.435C349.691 240.766 352.542 241.906 354.632 243.363C357.229 245.264 358.116 245.518 361.409 245.518H365.21L364.956 243.047C364.766 240.449 362.296 236.837 358.306 233.226C350.198 225.876 347.284 223.659 345.257 223.278C344.054 223.025 342.217 222.328 341.14 221.758C336.896 219.16 326.762 216.055 322.645 216.055C320.808 216.055 317.894 215.485 315.994 214.725C313.397 213.711 311.813 213.458 309.153 213.775C307.126 213.965 303.832 213.711 301.362 213.204C298.385 212.571 296.548 212.507 295.471 212.888C294.585 213.268 292.114 213.521 289.961 213.521C287.807 213.584 284.26 213.965 282.106 214.408C279.889 214.852 278.116 215.042 278.116 214.852C278.116 214.598 278.939 213.584 279.889 212.697C281.473 211.177 281.98 211.05 283.373 211.557C284.45 212 290.151 212 299.968 211.557C308.203 211.24 315.17 211.113 315.487 211.304C315.804 211.494 318.464 211.747 321.314 211.937C324.355 212.064 328.979 212.888 332.209 213.775C335.249 214.662 338.29 215.422 338.923 215.422C340.823 215.422 351.021 221.124 354.759 224.229C356.659 225.813 359.826 228.791 361.726 230.755C363.69 232.782 365.59 234.43 365.97 234.43C367.617 234.43 367.87 230.185 366.477 226.13C365.4 223.152 365.146 218.78 365.843 215.549C366.287 213.648 366.033 213.141 363.88 210.923C362.043 209.023 360.966 208.452 359.382 208.452C358.052 208.452 357.292 208.136 357.292 207.629C357.292 207.185 356.912 206.235 356.405 205.538C355.582 204.524 355.265 204.461 354.125 205.158C352.352 206.235 351.591 205.601 351.591 203.003C351.591 200.469 351.401 200.406 349.565 202.243C348.108 203.7 348.108 203.637 346.144 200.406C345.511 199.392 345.321 199.392 344.307 200.216C343.357 200.976 343.167 200.976 342.66 200.026C342.217 199.265 341.584 199.075 340.57 199.329C339.683 199.519 338.227 199.265 337.15 198.695C336.073 198.125 334.489 197.681 333.666 197.681C332.779 197.681 331.766 197.301 331.386 196.794C330.942 196.287 329.739 195.654 328.725 195.464C327.712 195.21 326.762 194.767 326.572 194.45C326.002 193.563 322.835 193.753 321.441 194.83C319.794 196.097 318.654 196.034 317.071 194.513C315.74 193.246 315.614 193.246 313.714 194.323C311.813 195.4 311.623 195.4 309.85 194.323C307.569 192.993 306.239 192.929 305.733 194.197C305.162 195.654 303.516 195.337 302.692 193.563C301.869 191.662 301.172 191.535 300.285 193.183C299.398 194.893 297.498 195.337 294.838 194.513C293.128 193.943 292.431 193.943 291.734 194.513C290.974 195.147 290.404 195.147 288.947 194.513C287.427 193.88 286.794 193.943 285.083 194.83C283.627 195.59 282.233 195.78 280.396 195.527C278.559 195.21 277.102 195.4 275.646 196.161C273.682 197.174 273.365 197.174 271.782 196.161C269.311 194.703 268.045 194.893 267.348 196.731C266.651 198.505 265.574 198.758 263.801 197.364C262.091 196.097 260.57 196.224 259.747 197.681C258.923 199.202 257.087 199.329 255.946 197.998C255.06 196.921 253.413 196.731 253.413 197.681C253.413 198.061 252.779 198.568 251.956 198.885C250.436 199.519 245.432 202.687 245.875 202.813C246.002 202.877 248.029 203.003 250.372 203.067C253.413 203.194 254.806 203.003 255.376 202.37C255.756 201.863 256.707 201.483 257.403 201.483C258.1 201.483 260.38 201.039 262.471 200.406C265.638 199.519 266.651 199.519 269.311 200.152C272.098 200.913 272.859 200.786 278.179 199.265L283.943 197.555L285.907 198.948C287.554 200.216 288.06 200.279 289.834 199.645C290.911 199.265 292.748 198.948 293.951 198.948C295.091 198.948 296.548 198.505 297.181 197.935C298.195 197.048 298.512 197.111 300.982 198.378C303.452 199.582 304.086 199.709 306.493 199.012C310.103 198.061 311.433 198.125 313.333 199.392C314.664 200.279 315.297 200.279 317.007 199.709C319.858 198.632 321.441 198.758 323.848 200.152C324.988 200.849 327.712 201.673 329.865 202.053C332.019 202.37 334.426 203.003 335.123 203.384C335.883 203.827 337.213 203.954 338.036 203.764C339.303 203.447 339.683 203.637 340.253 205.094C341.14 207.439 341.837 207.819 345.891 207.819C349.501 207.882 352.225 209.276 352.225 211.113C352.225 212.191 350.451 214.788 349.691 214.788C349.375 214.788 348.994 213.965 348.741 212.888C348.171 210.226 347.284 209.973 345.257 211.937L343.42 213.648L343.04 211.43C342.407 208.136 341.204 207.312 339.873 209.339C338.48 211.43 337.15 211.43 336.643 209.403C336.01 206.932 334.236 206.235 333.033 208.009L332.082 209.403L330.752 207.945C329.992 207.185 328.789 206.552 328.029 206.552C327.268 206.552 326.128 206.108 325.495 205.474C324.418 204.524 324.228 204.524 322.771 205.918L321.188 207.439L319.034 205.348C317.007 203.384 316.817 203.32 316.247 204.461C315.614 205.474 315.36 205.474 314.22 204.778C313.333 204.207 311.94 204.081 310.356 204.334C308.963 204.587 307.063 204.397 305.733 203.954C303.769 203.257 303.326 203.257 302.249 204.334C300.982 205.411 300.855 205.411 298.005 204.334C295.091 203.257 294.965 203.257 294.141 204.334C293.698 205.031 293.318 205.728 293.318 206.045C293.318 207.058 291.227 206.488 289.391 204.968C287.49 203.32 287.427 203.32 286.097 204.524C284.007 206.425 283.31 206.615 281.98 205.855C281.03 205.221 280.459 205.221 279.256 206.045C278.306 206.678 277.356 206.805 276.532 206.488C274.442 205.665 271.845 205.855 270.198 206.932C268.741 207.882 268.551 207.882 266.968 206.615L265.321 205.348L263.991 206.932C262.661 208.452 262.534 208.516 260.254 207.565C257.15 206.235 256.136 206.298 255.63 207.819C255.123 209.466 253.159 209.403 250.816 207.692L248.916 206.298L246.509 209.086L244.102 211.874L242.328 210.48C240.048 208.642 239.541 208.706 237.578 211.113L235.867 213.141L232.827 211.113C231.117 209.973 229.533 209.086 229.217 209.086C228.9 209.086 227.633 210.1 226.493 211.367C224.339 213.648 224.213 213.648 220.792 213.204C218.449 212.951 216.928 213.014 216.358 213.521C215.725 214.091 214.901 213.901 212.875 212.888L210.214 211.494L208.504 213.141C206.604 214.978 205.147 215.232 204.07 213.901C202.803 212.381 200.966 212.317 199.256 213.648C198.116 214.535 197.103 214.788 196.089 214.535C195.202 214.345 193.746 213.965 192.859 213.775C191.719 213.458 190.959 213.711 190.008 214.725C188.488 216.372 188.298 216.372 186.651 214.852C185.448 213.711 185.068 213.648 182.027 214.472C180.191 214.978 178.227 215.612 177.594 215.929C176.833 216.372 176.327 216.309 175.757 215.612C174.553 213.965 172.21 215.105 170.183 218.336C168.346 221.188 168.346 221.251 165.432 220.934C163.849 220.807 161.948 220.427 161.188 220.237C160.111 219.857 159.731 220.11 159.035 221.758L158.211 223.785L151.687 223.405C145.606 222.962 145.163 223.025 144.53 224.229C144.149 224.926 143.833 226.066 143.833 226.827C143.833 228.094 143.643 228.157 141.172 227.714C136.739 226.953 136.612 227.017 135.345 229.804C134.332 232.022 133.825 232.529 132.368 232.529C130.911 232.529 130.594 232.909 129.961 235.38C129.138 238.738 127.491 240.005 123.184 240.512C121.473 240.702 119.003 241.589 117.736 242.413C116.406 243.237 113.619 244.314 111.592 244.821C109.502 245.328 106.778 246.468 105.511 247.418C103.548 249.002 102.978 249.129 101.204 248.559C99.7474 248.115 97.4038 248.179 93.2233 248.812C89.9295 249.319 84.3555 249.573 80.8718 249.509L74.4743 249.319L74.2843 245.771C74.1576 243.87 74.411 241.526 74.7277 240.639C75.1077 239.625 77.8947 237.154 81.8852 234.303C87.7126 230.185 88.726 229.678 91.5764 229.551C93.3499 229.488 96.1369 228.854 97.8472 228.094C99.6207 227.397 102.281 226.637 103.865 226.383C108.805 225.813 115.519 223.722 116.786 222.455C117.863 221.378 118.18 221.378 119.7 222.138C122.36 223.532 124.007 223.215 125.781 220.871C126.984 219.35 128.884 218.083 132.178 216.689C136.802 214.788 136.929 214.788 139.716 215.739C145.1 217.513 147 216.436 144.466 213.014C143.136 211.24 143.136 209.72 144.53 209.72C144.846 209.72 146.493 208.769 148.203 207.565C149.914 206.425 154.474 204.144 158.338 202.497L165.369 199.582L170.879 200.026C175.693 200.342 176.58 200.659 177.847 202.053L179.367 203.637L177.72 204.461C176.833 204.968 176.073 205.538 176.073 205.791C176.01 206.045 175.883 206.805 175.82 207.502C175.693 208.199 175.44 209.276 175.187 209.91C174.427 211.747 177.847 210.1 181.204 206.932L184.181 204.144L188.235 204.461C191.529 204.714 193.175 204.461 197.229 203.067C200.016 202.116 204.577 201.103 207.364 200.849C210.214 200.596 213.445 200.026 214.458 199.709C215.535 199.329 217.942 198.885 219.842 198.695C221.806 198.505 225.353 197.618 227.823 196.794C232.257 195.21 232.384 195.21 236.564 196.224C240.618 197.238 240.935 197.238 244.735 195.971C250.689 193.943 261.14 192.359 273.049 191.725C276.026 191.535 280.649 190.902 283.373 190.332C287.617 189.381 288.884 189.318 292.304 190.015C295.598 190.648 297.118 190.648 301.489 189.825C304.402 189.254 308.583 188.811 310.736 188.811C312.953 188.811 315.487 188.558 316.374 188.177C318.464 187.417 318.527 185.643 316.501 185.643C315.677 185.643 314.284 185.009 313.333 184.312C311.813 183.109 311.117 182.982 307.569 183.362C302.882 183.806 300.412 182.982 299.905 180.764C299.335 178.737 299.968 178.293 301.679 179.56C302.502 180.131 303.706 180.954 304.402 181.461C305.543 182.285 306.049 182.222 309.343 180.828C312.827 179.37 313.207 179.307 314.6 180.194C316.881 181.715 318.527 181.461 319.604 179.307C320.998 176.583 321.821 177.47 321.378 181.144L320.998 184.249L323.785 186.023C325.305 186.974 327.839 188.304 329.359 189.001C330.942 189.698 332.652 190.775 333.159 191.409C333.729 192.042 336.896 193.563 340.19 194.767C343.484 195.971 348.108 197.808 350.451 198.885C352.795 199.962 355.139 200.849 355.709 200.849C357.229 200.849 356.849 198.315 354.759 194.703C352.288 190.395 350.958 189.698 347.854 190.902C344.877 192.106 344.244 191.725 343.674 188.367C343.42 186.847 342.724 185.009 342.09 184.249C340.95 182.792 340.95 182.792 343.23 182.158C344.434 181.778 345.574 181.208 345.701 180.828C345.954 180.004 342.724 178.673 340.507 178.673C338.67 178.673 338.1 177.85 336.77 173.795C335.756 170.754 335.756 170.31 336.706 168.346C337.276 167.142 338.67 165.115 339.873 163.847L342.027 161.503L340.507 158.208C338.543 153.773 334.173 149.782 327.205 146.233C315.234 140.151 303.896 136.476 291.417 134.702C285.4 133.878 280.776 133.562 262.597 132.801C259.494 132.675 254.3 132.801 251.133 133.118ZM309.153 152.696C310.356 153.013 314.41 153.583 318.211 153.9C325.242 154.597 327.585 155.357 329.739 157.765L331.006 159.222L328.472 158.842L325.938 158.462L327.649 159.856C328.535 160.616 330.499 162.073 331.956 163.087C334.426 164.734 334.553 164.988 333.539 165.938C332.589 166.889 332.272 166.825 329.422 165.178C325.432 163.024 324.988 163.024 324.988 165.305C324.988 167.649 326.192 168.599 329.739 169.043C331.322 169.17 332.589 169.55 332.589 169.803C332.589 169.993 331.639 171.324 330.499 172.718C329.359 174.048 327.775 176.139 326.952 177.216C325.052 180.004 324.355 179.814 324.355 176.773C324.355 173.795 323.785 173.605 319.604 175.632C317.197 176.773 316.501 176.899 315.487 176.266C313.84 175.252 312.383 175.315 310.166 176.456C307.886 177.66 306.809 177.343 305.986 175.189C305.289 173.351 303.769 173.161 302.059 174.682C300.919 175.696 300.729 175.696 299.145 174.745C297.878 173.922 297.245 172.844 296.675 170.31C296.295 168.473 296.041 166.889 296.168 166.762C296.295 166.572 297.752 167.332 299.335 168.409C301.489 169.803 303.199 170.373 306.429 170.69C308.836 170.944 311.75 171.324 312.953 171.514C315.044 171.894 315.107 171.831 314.22 170.754C313.714 170.12 312.447 169.233 311.37 168.789C307.696 167.269 304.086 164.101 302.692 161.25C301.172 158.082 300.412 157.765 298.702 159.666C296.928 161.63 295.851 161.25 295.851 158.652C295.851 155.611 296.865 153.963 298.638 153.963C299.462 153.963 301.109 153.52 302.249 153.013C304.782 151.936 306.176 151.872 309.153 152.696ZM307.886 290.186C307.886 290.503 306.999 291.643 305.986 292.72C304.339 294.431 304.022 294.558 303.642 293.607C303.389 292.847 303.832 292.087 305.099 291.01C307.063 289.426 307.886 289.172 307.886 290.186ZM299.335 293.164C299.398 294.178 299.715 295.825 299.968 296.965L300.412 298.993L295.155 297.409C292.304 296.522 289.201 295.445 288.314 295.128C286.667 294.431 286.73 294.431 289.201 293.924C290.594 293.607 292.368 293.037 293.064 292.657C294.585 291.897 298.575 290.946 298.955 291.263C299.082 291.326 299.272 292.213 299.335 293.164ZM355.962 365.203C356.595 365.964 356.469 366.344 355.265 367.104C352.732 368.688 343.801 371.413 342.28 370.969C340.317 370.526 340.443 369.512 342.597 369.005C347.538 367.928 348.931 367.358 350.958 365.964C353.492 364.126 354.949 363.936 355.962 365.203ZM378.068 374.454C377.878 376.038 377.815 376.038 372.811 375.848C365.907 375.531 358.559 377.115 354.125 379.776C352.225 380.98 348.868 382.374 346.651 382.944C341.837 384.148 342.09 384.148 342.154 383.134C342.217 382.184 354.442 375.975 358.812 374.707C360.523 374.2 363.5 373.82 365.463 373.757C367.427 373.757 369.58 373.504 370.277 373.187C370.974 372.87 373.064 372.68 374.901 372.743C378.068 372.87 378.258 372.933 378.068 374.454ZM376.168 385.162C376.041 385.922 374.711 386.365 370.91 386.872C368.123 387.189 364.893 388.013 363.753 388.646C362.613 389.217 361.029 389.66 360.269 389.533C358.369 389.28 362.993 387.062 369.644 385.035C374.901 383.388 376.485 383.451 376.168 385.162ZM307.633 391.244C308.203 392.701 302.946 398.657 301.362 398.404C299.018 398.087 299.462 396.566 302.819 393.398C306.366 390.104 307.063 389.724 307.633 391.244ZM345.891 445.797C348.424 446.367 350.388 447.127 350.578 447.697C351.021 448.774 349.691 452.323 347.854 454.857C347.158 455.807 345.447 457.011 343.991 457.455C342.28 458.025 340.76 459.165 339.683 460.559C337.086 464.107 330.562 470.95 328.599 472.217C325.938 473.865 326.508 475.639 330.562 478.11C333.666 479.947 334.553 480.137 341.33 480.581C350.071 481.088 352.352 481.595 355.645 483.939C358.749 486.093 359.446 488.121 358.876 493.253C358.496 496.737 358.052 497.815 355.835 500.666C352.732 504.594 350.958 506.178 349.755 506.241C349.311 506.241 347.981 506.812 346.841 507.509C343.674 509.473 330.562 510.486 319.731 509.599C312.51 509.029 310.546 508.586 306.049 506.748C300.475 504.404 299.082 503.01 299.018 499.715C299.018 496.421 297.372 493.76 294.268 491.986C291.544 490.338 286.033 484.509 284.387 481.468C283.817 480.327 284.197 479.757 287.68 476.589C293.001 471.711 293.381 471.457 299.272 468.543C303.516 466.388 304.592 465.565 305.986 463.157C307.506 460.559 308.076 460.179 311.94 458.912C315.804 457.645 319.288 455.681 328.852 449.345C332.652 446.81 337.403 444.846 339.747 444.846C340.697 444.783 343.484 445.226 345.891 445.797Z" fill="#7D705C"/>
<path d="M346.207 174.365C347.031 177.153 349.881 183.109 350.325 183.109C351.085 183.109 351.718 178.8 351.211 177.216C350.641 175.189 348.424 172.971 347.031 172.971C346.081 172.971 345.891 173.288 346.207 174.365Z" fill="#7D705C"/>
<path d="M241.885 200.279C240.365 201.039 239.478 201.99 239.478 202.75C239.478 203.827 239.668 203.89 241.378 203.257C243.152 202.687 245.179 200.596 245.179 199.455C245.179 198.695 244.482 198.885 241.885 200.279Z" fill="#7D705C"/>
<path d="M223.77 202.243L221.173 204.904L218.892 203.637C217.372 202.813 216.485 202.687 216.169 203.13C215.219 204.524 211.481 205.918 210.341 205.284C208.631 204.397 206.794 204.524 205.907 205.601C205.211 206.425 205.527 206.552 208.188 206.615C220.096 206.995 221.489 206.932 223.833 205.791C225.416 204.968 226.873 204.714 228.33 204.968C230.927 205.474 235.044 203.89 235.044 202.37C235.044 201.61 234.728 201.419 233.651 201.8C229.914 202.94 229.407 202.877 227.887 201.293L226.43 199.645L223.77 202.243Z" fill="#7D705C"/>
<path d="M198.75 205.158C198.116 205.284 197.736 205.728 197.863 206.108C198.243 207.249 200.017 207.375 200.397 206.298C200.84 205.158 200.333 204.778 198.75 205.158Z" fill="#7D705C"/>
<path d="M162.645 212.697C161.695 213.648 162.265 214.788 163.722 214.788C164.989 214.788 166.002 213.775 166.002 212.507C166.002 212.064 163.088 212.191 162.645 212.697Z" fill="#7D705C"/>
<path d="M152.194 215.549C151.117 216.626 151.244 217.006 153.144 217.893C155.044 218.78 156.121 218.083 155.741 216.309C155.488 214.852 153.334 214.408 152.194 215.549Z" fill="#7D705C"/>
<path d="M125.527 228.157C122.55 230.818 120.84 231.262 119.827 229.488C119.256 228.537 119.066 228.537 118.496 229.361C118.18 229.868 117.863 230.818 117.863 231.388C117.863 232.656 116.596 232.909 115.519 231.832C115.013 231.325 114.253 231.452 112.859 232.275C111.212 233.226 110.642 233.289 109.755 232.656C107.285 230.882 107.285 230.882 102.914 234.113C102.281 234.556 101.648 234.493 100.761 233.923C99.9375 233.416 99.0507 233.353 98.4806 233.669C97.6572 234.113 97.7205 234.493 99.0507 236.077C100.381 237.661 100.571 238.358 100.318 241.146C99.9375 245.074 100.824 245.898 102.661 243.3C103.675 241.843 104.498 241.399 106.018 241.399C107.158 241.399 109.059 240.702 110.262 239.942C111.466 239.118 114.633 237.724 117.293 236.837C124.577 234.366 127.047 232.592 127.934 229.044C128.378 227.397 128.631 225.94 128.504 225.876C128.378 225.749 127.047 226.827 125.527 228.157Z" fill="#7D705C"/>
<path d="M315.361 238.992C314.03 239.372 312.954 239.879 312.954 240.132C312.954 240.449 313.84 241.273 314.854 242.033C316.121 242.92 316.691 243.807 316.501 244.44C316.057 245.834 316.817 247.038 318.021 246.911C318.528 246.848 320.174 247.228 321.695 247.672C323.975 248.432 324.355 248.812 324.355 250.333C324.355 251.854 324.102 252.107 322.328 252.297C320.365 252.487 320.238 252.614 320.428 254.705C320.745 258.506 321.758 259.013 328.662 258.253C332.779 257.809 333.349 257.619 333.92 256.225C334.3 255.085 334.806 254.705 335.63 254.958C336.2 255.148 337.593 255.465 338.607 255.655C342.154 256.415 342.724 256.669 342.724 257.493C342.724 258.316 339.62 259.14 336.326 259.14C335.44 259.14 334.046 259.9 333.033 260.851L331.386 262.625H336.643C340.19 262.625 342.217 262.371 342.977 261.738C343.864 260.977 344.497 260.977 346.714 261.611C354.062 263.765 354.062 263.765 355.012 263.005C355.772 262.371 355.646 261.991 354.315 260.66C353.112 259.457 352.859 258.886 353.429 258.316C354.505 257.239 354.252 256.732 352.415 256.479C351.148 256.352 350.578 255.845 350.198 254.388C349.755 252.55 349.628 252.487 345.764 252.424C343.547 252.424 340.95 252.044 339.874 251.537L337.973 250.713L339.494 250.333C341.394 249.826 341.71 249.066 340.57 247.545C339.81 246.595 339.304 246.531 336.96 247.038C332.969 247.989 331.956 247.862 331.956 246.595C331.956 245.708 331.259 245.518 327.459 245.454C322.011 245.328 320.935 244.567 321.821 241.463C322.138 240.259 322.265 239.055 322.075 238.801C321.631 238.105 318.401 238.168 315.361 238.992Z" fill="#7D705C"/>
<path d="M271.339 241.209C270.895 241.336 270.515 241.779 270.515 242.096C270.515 242.983 272.605 242.73 273.936 241.716C275.139 240.766 275.139 240.766 273.619 240.829C272.795 240.829 271.719 241.019 271.339 241.209Z" fill="#7D705C"/>
<path d="M256.263 243.3C256.073 243.617 255.06 243.934 253.983 243.934C252.78 243.934 251.639 244.567 250.436 245.834C249.486 246.912 248.156 247.735 247.269 247.735C246.509 247.735 245.812 247.989 245.812 248.369C245.812 248.686 246.952 249.002 248.346 249.002C250.816 249.002 250.816 249.002 250.436 251.03C250.183 252.17 249.422 253.628 248.726 254.261C247.396 255.402 247.522 255.402 251.829 255.148C254.3 255.022 257.593 255.148 259.304 255.528C262.027 256.162 262.407 256.035 263.548 254.831C265.194 253.057 265.131 252.804 263.104 252.804C260.887 252.804 259.43 251.917 260.064 250.967C260.38 250.396 263.357 250.27 270.262 250.333C277.166 250.46 280.206 250.333 280.776 249.763C281.346 249.192 281.156 249.002 279.89 249.002C279.003 249.002 277.229 248.559 276.026 248.052C274.189 247.292 272.859 247.228 269.692 247.672C267.475 247.989 264.688 248.052 263.484 247.799C261.584 247.418 261.457 247.292 262.534 246.658C263.864 245.961 263.357 244.25 261.964 244.821C261.457 245.011 260.38 244.567 259.557 243.87C257.783 242.54 256.833 242.35 256.263 243.3Z" fill="#7D705C"/>
<path d="M215.091 245.328C212.051 246.405 211.544 246.785 212.558 247.165C215.598 248.305 221.742 246.721 221.742 244.757C221.742 243.617 219.525 243.807 215.091 245.328Z" fill="#7D705C"/>
<path d="M267.981 251.854C267.981 253.184 270.262 254.705 272.289 254.705C274.949 254.705 274.886 255.782 272.289 256.479C271.149 256.732 270.135 257.429 270.008 257.999C269.818 258.823 270.832 258.95 277.293 258.823C281.346 258.696 284.83 258.38 284.894 258.063C285.02 257.809 284.197 257.049 283.183 256.479C282.107 255.909 281.283 254.958 281.283 254.451C281.283 253.374 276.279 251.79 271.339 251.347C268.995 251.157 267.981 251.347 267.981 251.854Z" fill="#7D705C"/>
<path d="M62.7564 306.786C61.5529 307.103 58.5759 308.687 56.1056 310.334C52.2418 312.932 51.4183 313.882 49.5181 317.621C47.9979 320.725 47.1745 323.576 46.5411 328.075C46.0977 331.433 45.4009 335.234 45.0209 336.438C43.5007 341.697 44.4508 345.245 48.8213 350.694C50.2148 352.405 52.1151 355.953 53.0019 358.487C53.952 361.022 55.5988 364.443 56.6123 366.09L58.5759 369.068L59.4626 366.217C60.0327 364.57 60.4761 360.261 60.5394 355.89C60.7295 349.047 60.9195 348.033 62.8197 343.281C64.91 338.276 65.1 338.086 68.3937 336.565C71.4974 335.108 72.3209 335.044 77.6415 335.361C80.9986 335.615 84.5457 336.248 86.1926 336.945L88.9162 338.086L87.0794 339.543C86.0659 340.303 83.9123 341.76 82.2654 342.774C80.6819 343.788 77.7682 346.512 75.8046 348.857C71.8775 353.609 71.5608 355.003 73.1443 360.895C74.2211 364.95 75.4879 366.914 78.465 369.005C83.1522 372.236 88.8529 371.793 93.8569 367.801C96.3905 365.837 98.2274 365.013 98.2274 365.9C98.2274 366.09 97.8473 367.231 97.3406 368.435C96.7705 369.702 96.6439 370.779 96.9606 370.969C97.784 371.476 101.774 370.336 104.878 368.752C106.208 368.055 108.299 367.484 109.439 367.484C110.642 367.484 112.162 366.914 113.239 365.964C115.583 363.873 115.076 363.049 108.362 358.424C105.448 356.46 102.788 354.559 102.471 354.242C102.091 353.862 101.901 351.961 101.965 349.997C102.028 346.956 102.598 345.182 105.258 339.796C108.045 334.031 108.679 333.144 110.769 332.32C114.126 330.989 115.013 330.419 115.203 329.342C115.456 328.138 107.665 321.929 102.155 318.951C99.8109 317.684 96.2005 315.53 94.1102 314.262C92.02 312.932 88.7262 311.411 86.826 310.841C84.9258 310.271 80.3652 309.004 76.7548 307.927C69.9773 305.962 66.6835 305.709 62.7564 306.786Z" fill="#7D705C"/>
<path d="M120.967 375.341C116.787 380.346 114.443 381.423 108.046 381.423C103.422 381.423 99.8745 382.374 100.508 383.388C100.698 383.704 101.585 383.958 102.535 383.958C103.422 383.958 104.878 384.655 105.765 385.478C106.715 386.302 108.489 387.316 109.819 387.633C111.909 388.203 112.669 388.076 116.153 386.429C118.307 385.415 120.397 384.591 120.777 384.591C121.791 384.591 125.211 378.952 124.958 377.685C124.894 377.052 125.084 375.784 125.401 374.897C126.098 373.187 125.781 371.286 124.831 371.286C124.578 371.286 122.804 373.123 120.967 375.341Z" fill="#7D705C"/>
<path d="M66.3666 377.495C65.4164 378.572 65.6065 378.826 69.3436 382.247C74.1575 386.492 78.4014 388.393 82.0118 387.759C84.4188 387.316 85.5589 386.365 85.5589 384.655C85.5589 384.148 86.0023 383.261 86.5091 382.691C87.3958 381.677 87.2058 381.55 84.0387 381.233C82.0752 381.043 78.338 379.903 75.551 378.636C69.9137 376.101 67.8867 375.848 66.3666 377.495Z" fill="#7D705C"/>
<path d="M30.4526 471.014C30.4526 471.52 31.4028 472.598 32.5429 473.358C33.6197 474.118 35.2032 475.449 35.9633 476.336C36.7234 477.223 38.1169 477.983 39.067 478.11C40.0805 478.237 41.4106 479.06 42.2341 480.074C42.9942 481.088 45.0844 482.545 46.858 483.432C49.3916 484.573 50.0884 485.206 50.0884 486.41C50.0884 487.487 50.4684 487.867 51.5452 487.931C58.196 488.374 58.6394 488.628 55.6624 490.148L53.5721 491.289L55.1557 491.732C56.0424 491.986 57.4993 492.176 58.3861 492.239C59.5262 492.302 60.1596 492.746 60.413 493.633C60.793 495.027 61.2997 495.027 65.2269 493.823C66.6837 493.379 66.7471 493.506 66.367 495.344C65.9236 497.625 65.987 497.688 69.7874 498.258C72.1311 498.638 72.8278 498.512 73.1445 497.688C73.3979 497.054 72.9545 496.484 71.8777 495.977C70.5475 495.344 70.3575 494.963 70.7376 493.379C71.0543 491.732 70.9909 491.605 69.7241 491.986C67.3171 492.746 65.6703 491.795 63.39 488.184C61.8065 485.65 60.793 484.699 59.7796 484.699C58.006 484.699 57.9427 483.685 59.5895 481.214C61.6798 478.046 61.3631 477.54 57.2459 477.92C55.219 478.173 52.622 478.49 51.4819 478.743C50.3417 478.934 48.0615 478.807 46.4146 478.3L43.5009 477.476L45.3378 476.653C46.6046 476.146 48.8215 476.019 51.6719 476.209C57.4359 476.653 59.9062 475.956 59.9062 473.865V472.344H47.5547C36.7867 472.344 35.0132 472.217 33.6197 471.204C31.7195 469.873 30.4526 469.81 30.4526 471.014Z" fill="#7D705C"/>
<path d="M9.4232 500.286C4.98932 504.277 0.808815 510.106 -3.43504 518.406C-5.27193 522.145 -7.74223 526.58 -8.88237 528.164C-11.2893 531.712 -27.8847 548.185 -31.7485 550.91C-35.8657 553.824 -35.739 555.472 -31.1151 560.033C-28.0114 563.075 -27.0613 564.532 -25.9211 568.017C-24.4009 572.642 -18.1302 582.526 -11.5427 590.636C-9.3891 593.297 -7.36218 596.085 -6.98214 596.719C-6.22204 598.176 -5.0819 605.082 -5.58863 605.082C-5.77866 605.082 -6.79211 603.751 -7.86891 602.041C-8.88237 600.393 -13.0629 594.628 -17.0534 589.242C-21.1072 583.857 -26.8079 575.873 -29.7216 571.565C-33.7754 565.546 -35.8657 563.075 -38.7794 560.984C-40.8063 559.463 -42.7698 558.196 -43.0865 558.196C-43.4032 558.196 -45.8736 559.337 -48.5972 560.667C-51.3209 562.061 -54.8046 563.455 -56.3248 563.898C-61.0121 565.102 -63.9891 566.369 -68.7397 569.284C-73.7436 572.389 -89.6422 578.154 -103.831 581.956C-117.069 585.567 -126 590.509 -126 594.311C-126 595.071 -125.24 598.112 -124.353 601.027L-122.706 606.349L-123.023 626.814C-123.213 639.169 -123.72 649.243 -124.226 652.285C-124.86 656.34 -125.05 671.673 -124.923 727.302C-124.86 795.984 -124.67 802.953 -122.833 805.931C-122.39 806.628 -119.856 806.945 -112.888 807.262C-107.758 807.515 -101.107 808.022 -98.1299 808.402C-90.909 809.353 -60.252 809.289 -55.3747 808.339C-53.2845 807.959 -45.1768 807.579 -37.3225 807.515C-29.4682 807.452 -20.3471 807.072 -17.0534 806.628C-12.3028 805.995 -5.27193 805.995 15.5673 806.565C30.1991 806.945 49.3281 807.388 58.1325 807.642L74.0944 808.022L77.8949 804.474C80.7452 801.876 82.7088 800.609 85.3691 799.785C89.2329 798.582 91.5766 796.617 96.8972 790.155C101.141 785.023 105.195 783.058 107.032 785.276C107.665 785.973 107.285 786.67 105.195 788.634C101.141 792.309 94.4903 797.188 88.7262 800.609C81.3787 804.981 74.2845 811.127 77.7049 810.176C78.4016 809.986 81.632 809.353 84.9891 808.782C90.5631 807.895 91.8299 807.895 100.191 808.846C111.909 810.113 120.777 810.113 129.898 808.846C135.725 808.085 141.616 807.895 159.352 808.085C171.576 808.212 189.185 808.022 198.56 807.705C213.191 807.135 217.119 807.198 225.796 808.085C240.301 809.606 288.061 811.127 289.581 810.176C291.418 809.036 291.734 807.515 291.734 799.912C291.734 796.047 292.114 789.521 292.621 785.339C293.128 780.778 293.255 775.582 293.001 772.414L292.621 767.155L296.232 759.742C299.779 752.583 299.905 752.266 299.779 747.641C299.715 745.043 299.335 740.608 299.019 737.82C298.639 735.032 298.385 731.801 298.385 730.534V728.316L299.652 730.977C300.285 732.498 301.996 734.842 303.389 736.173C304.973 737.757 305.986 739.277 305.986 740.228C305.986 741.051 306.683 742.699 307.57 743.902C308.393 745.106 309.597 746.69 310.167 747.514C311.18 748.908 311.18 749.098 309.787 750.935C308.836 752.202 308.203 754.293 307.823 757.081C307.57 759.362 307.126 762.72 306.873 764.494C306.619 766.648 306.746 768.549 307.316 770.197C307.886 771.717 308.203 775.392 308.203 779.954C308.203 783.946 308.456 790.155 308.773 793.703C309.343 800.039 309.28 800.356 307.633 804.03C306.683 806.121 305.986 808.212 306.113 808.592C306.429 809.479 328.409 809.353 334.616 808.402C338.29 807.832 339.747 807.959 344.941 809.163C350.261 810.366 351.402 810.43 354.949 809.796C361.6 808.529 361.536 808.529 358.749 806.755C357.419 805.868 354.632 803.46 352.542 801.496C348.298 797.378 346.714 796.427 344.371 796.427C341.204 796.427 342.914 799.278 347.158 801.116L349.375 802.066L347.031 803.017C345.701 803.587 343.674 804.03 342.471 804.03C340.57 804.03 339.874 803.524 336.706 799.785C331.766 793.83 330.689 791.549 330.752 787.113C330.879 780.144 332.146 778.433 334.426 782.108C337.973 787.81 342.09 783.692 339.303 777.229C338.86 776.089 333.856 770.513 328.155 764.748C322.518 758.982 317.451 753.343 316.944 752.139C314.917 747.387 313.207 733.005 314.854 734.018C315.171 734.208 316.944 738.96 318.654 744.473L321.885 754.61L326.572 758.095C332.779 762.783 337.72 768.169 343.674 776.849C351.845 788.697 355.582 793.196 363.246 800.419L370.531 807.262L375.788 807.832C383.579 808.782 391.687 808.656 391.243 807.642C391.116 807.262 390.04 804.03 388.9 800.546C387.759 797.061 386.049 792.372 385.036 790.091C384.022 787.81 382.312 783.692 381.235 780.968C378.005 772.668 364.387 754.103 348.805 736.87C338.67 725.718 336.643 723.754 329.486 719.002C326.952 717.228 323.088 714.377 320.935 712.54C318.844 710.765 314.537 707.281 311.37 704.873C308.266 702.465 303.389 698.6 300.602 696.32C293.508 690.427 285.274 684.281 284.513 684.281C283.057 684.281 286.477 692.138 290.784 698.6C293.825 703.289 294.585 705.38 293.445 706.077C292.621 706.584 288.251 701.832 284.133 696.003C280.333 690.681 279.193 688.463 278.559 685.168C278.243 683.521 278.433 683.077 279.383 682.824C281.663 682.254 279.7 677.565 271.339 663.626C266.461 655.516 264.308 650.257 262.914 643.098C262.534 641.197 260.697 636.445 258.86 632.58C253.793 621.999 253.096 622.062 253.033 633.15C253.033 641.83 252.526 644.555 250.943 644.238C249.866 644.048 248.916 642.274 240.491 624.723C237.578 618.641 234.157 612.432 232.827 610.974L230.547 608.25L225.036 608.44C221.996 608.503 218.892 608.313 218.069 608.06C217.119 607.68 216.612 607.806 216.422 608.377C216.358 608.82 215.598 611.861 214.838 615.093C214.015 618.324 212.305 623.963 210.911 627.575C206.604 638.979 201.663 655.643 200.523 662.486C200.206 664.703 200.333 665.337 201.727 666.984C202.613 668.061 203.374 669.075 203.374 669.265C203.374 669.455 201.98 669.772 200.206 670.025C197.61 670.406 196.913 670.786 196.279 672.116C195.709 673.32 194.886 673.89 193.556 674.017C191.275 674.27 189.565 672.623 186.652 667.554C183.358 661.852 153.017 627.004 135.092 608.44C117.23 589.876 110.326 583.476 80.5552 557.562C57.1824 537.224 52.9385 533.676 46.2877 528.924C35.0763 520.877 24.4984 511.817 21.5213 507.635C19.6845 505.101 19.3677 504.087 19.3677 501.173V497.688L16.074 497.498C12.9703 497.308 12.6536 497.434 9.4232 500.286ZM25.1318 653.742C25.5752 653.995 26.9053 656.72 28.1088 659.761C29.3756 662.802 31.4659 667.238 32.7961 669.582C34.1262 671.926 36.2165 675.981 37.3566 678.579C38.5601 681.177 39.7636 683.648 40.0803 684.028C40.3336 684.408 42.1072 688.843 44.0074 693.848C45.8443 698.854 48.0613 704.366 48.8213 706.14C51.4817 711.969 59.5893 732.118 59.5893 732.878C59.5893 734.208 57.119 733.765 56.2956 732.308C55.8522 731.547 53.4452 727.872 50.9749 724.134C46.7944 717.798 46.351 716.785 44.4508 709.372C42.4239 701.135 39.7636 694.609 32.6694 680.543C30.009 675.221 28.4255 671.039 27.9188 668.378C27.1587 664.26 25.9552 661.282 23.1682 656.72C22.3448 655.389 21.838 653.995 21.9647 653.742C22.3448 653.108 24.1817 653.108 25.1318 653.742ZM201.853 680.29C203.564 682.634 207.174 687.196 209.834 690.49C214.965 696.636 216.358 698.727 215.788 699.297C215.345 699.741 210.024 695.242 206.604 691.568C205.147 689.984 203.437 687.449 202.803 685.992C202.17 684.535 200.587 682 199.32 680.29C196.913 677.122 196.533 676.045 197.863 676.045C198.37 676.045 200.143 677.945 201.853 680.29ZM150.294 727.746C151.941 727.936 153.144 728.379 152.954 728.696C152.511 729.456 148.774 729.393 146.747 728.633C144.91 727.936 144.466 726.479 146.24 726.985C146.81 727.176 148.647 727.492 150.294 727.746ZM159.858 730.027C160.428 730.343 160.935 730.977 160.935 731.421C160.935 732.688 155.804 738.77 153.017 740.925C151.751 741.875 148.774 745.296 146.43 748.528C138.449 759.299 130.721 768.232 126.668 771.4L122.614 774.568L124.831 771.717C126.034 770.197 128.631 767.219 130.531 765.128C132.432 763.1 134.902 759.869 135.915 758.032C136.992 756.194 141.236 750.618 145.416 745.613C153.714 735.602 155.424 733.005 155.044 730.343C154.854 728.696 154.918 728.569 156.755 729.013C157.831 729.203 159.225 729.647 159.858 730.027ZM129.645 734.715C122.867 738.2 120.017 739.214 112.542 740.988C107.665 742.128 102.978 743.269 102.218 743.522C101.078 743.902 100.888 743.776 101.204 742.635C101.838 740.228 104.435 738.77 108.045 738.77C110.642 738.77 112.669 738.137 117.293 735.982C125.591 732.054 130.278 730.597 134.332 730.597H137.816L129.645 734.715ZM121.98 774.822C121.6 775.202 119.257 777.039 116.66 778.94C111.782 782.615 110.135 783.122 108.172 781.538C107.032 780.714 107.158 780.587 109.755 779.257C111.212 778.497 114.633 777.103 117.23 776.152C122.93 774.061 122.677 774.125 121.98 774.822Z" fill="#7D705C"/>
</g>
<defs>
<clipPath id="clip0">
<rect width="420" height="751" fill="white"/>
</clipPath>
</defs>
</svg>
